<?xml version="1.0" encoding="UTF-8" standalone="no"?>
<svg
   xmlns:dc="http://purl.org/dc/elements/1.1/"
   xmlns:cc="http://creativecommons.org/ns#"
   xmlns:rdf="http://www.w3.org/1999/02/22-rdf-syntax-ns#"
   xmlns:svg="http://www.w3.org/2000/svg"
   xmlns="http://www.w3.org/2000/svg"
   xmlns:sodipodi="http://sodipodi.sourceforge.net/DTD/sodipodi-0.dtd"
   xmlns:inkscape="http://www.inkscape.org/namespaces/inkscape"
   id="svg843"
   xml:space="preserve"
   enable-background="new 0 0 370.4 370.4"
   viewBox="0 0 300 180"
   height="180"
   width="300"
   y="0px"
   x="0px"
   version="1.1"
   sodipodi:docname="Inhalt_Video_x_7.g.svg"
   inkscape:version="0.92.3 (2405546, 2018-03-11)"><sodipodi:namedview
   pagecolor="#ffffff"
   bordercolor="#666666"
   borderopacity="1"
   objecttolerance="10"
   gridtolerance="10"
   guidetolerance="10"
   inkscape:pageopacity="0"
   inkscape:pageshadow="2"
   inkscape:window-width="1920"
   inkscape:window-height="1018"
   id="namedview913"
   showgrid="false"
   inkscape:zoom="2"
   inkscape:cx="186.09677"
   inkscape:cy="28.160578"
   inkscape:window-x="-8"
   inkscape:window-y="32"
   inkscape:window-maximized="1"
   inkscape:current-layer="svg843" /><metadata
   id="metadata849"><rdf:RDF><cc:Work
       rdf:about=""><dc:format>image/svg+xml</dc:format><dc:type
         rdf:resource="http://purl.org/dc/dcmitype/StillImage" /><dc:title></dc:title></cc:Work></rdf:RDF></metadata><defs
   id="defs847" />
    
    
    
<style
   id="style870">
												.letters {animation: spinLeft 120s linear infinite; }
												.outerFrame { animation: spinRight 90s linear infinite; }
												.innerFrame { animation: spinRight 90s linear infinite; }
												@-webkit-keyframes spinLeft {to {stroke-dashoffset: -500;} }
												@keyframes spinLeft {to {stroke-dashoffset: -500;} }
												@-webkit-keyframes spinRight {to {stroke-dashoffset: 500;} }
												@keyframes spinRight {to {stroke-dashoffset: 500;} }
</style>		
		

   
   <rect
   y="-6.9818039"
   x="-1.4215878"
   height="188.92778"
   width="302.75632"
   id="rect872"
   style="opacity:0.76999996;fill:#ff5700;fill-opacity:0.722;stroke:none;stroke-width:0.52350438;stroke-linecap:square;stroke-linejoin:miter;stroke-miterlimit:10;stroke-dasharray:0.73276757, 0.5234054;stroke-dashoffset:0;stroke-opacity:1;paint-order:markers stroke fill" />









<rect
   style="fill:none;stroke:#d1f6f1;stroke-width:0.89462358;stroke-linejoin:round;stroke-miterlimit:10;stroke-dasharray:3.11655531, 2.22609177;stroke-dashoffset:0;stroke-opacity:1"
   id="rect1498"
   width="292.41983"
   height="172.3219"
   x="3.8385439"
   y="4.289825"
   class="innerFrame" />

  <animateTransform
   id="layer2"
   attributeName="transform"
   type="scale"
   begin="rect872.click"
   dur="6"
   from="1"
   to="0"
   additive="sum"
   calcMode="spline"
   keyTimes="0;1"
   keySplines=".6  0    .4   1  "
   restart="whenNotActive" />
        <animateTransform
   id="layer2"
   attributeName="transform"
   type="translate"
   begin="rect872.click"
   dur="6"
   from="0,0"
   to="0,0"
   additive="sum"
   calcMode="spline"
   keyTimes="0;1"
   keySplines=".6  0    .4   1  "
   restart="whenNotActive" />  
       <animateTransform
   id="layer2"
   attributeName="transform"
   type="rotate"
   begin="rect872.click+2.6"
   dur="6"
   from="360,0,0"
   to="-0,0,0"
   additive="sum"
   calcMode="spline"
   keyTimes="0;1"
   keySplines="1  .5    1   0  "
   restart="whenNotActive" />   
      <animateTransform
   id="layer2"
   attributeName="transform"
   type="skewX"
   begin="rect872.click"
   dur="6"
   from="0"
   to="75"
   additive="sum"
   calcMode="spline"
   keyTimes="0;1"
   keySplines=".6  0    .4   1  "
   restart="whenNotActive" />
	  <animateTransform
   id="layer2"
   attributeName="transform"
   type="skewX"
   begin="rect872.click+6"
   dur="6"
   from="75"
   to="0"
   additive="sum"
   calcMode="spline"
   keyTimes="0;1"
   keySplines=".6  0    .4   1  "
   restart="whenNotActive" />
       <animateTransform
   id="layer2"
   attributeName="transform"
   type="scale"
   begin="rect872.click+6"
   dur="6"
   from="0"
   to="1"
   additive="sum"
   calcMode="spline"
   keyTimes="0;1"
   keySplines=".6  0    .4   1  "
   restart="whenNotActive" /> 
	
        <animateTransform
   id="layer2"
   attributeName="transform"
   type="translate"
   begin="rect872.click+6"
   dur="6"
   from="0,0"
   to="0,0"
   additive="sum"
   calcMode="spline"
   keyTimes="0;1"
   keySplines=".5  0    .5   1  "
   restart="whenNotActive" />  
<g
   inkscape:groupmode="layer"
   id="layer1"
   inkscape:label="Layer 1"
   style="display:none"
   transform="translate(0,-25)" /><g
   inkscape:groupmode="layer"
   id="layer2"
   inkscape:label="Layer 2"
   transform="translate(0,-25)">
	 </g>
	 

	 
	 
	 <text
   xml:space="preserve"
   style="font-style:normal;font-variant:normal;font-weight:normal;font-stretch:normal;font-size:6.82101154px;line-height:1;font-family:Arial;-inkscape-font-specification:'Arial, Normal';font-variant-ligatures:normal;font-variant-caps:normal;font-variant-numeric:normal;text-align:start;letter-spacing:0px;word-spacing:0px;writing-mode:lr-tb;text-anchor:start;fill:#ffffff;fill-opacity:1;stroke:none;stroke-width:1.38756263;stroke-miterlimit:2;stroke-dasharray:1.94222056, 1.3873004;stroke-dashoffset:0;stroke-opacity:1"
   x="8.3595419"
   y="0.45336908"
   id="text1460-2"
   class=""
   transform="scale(1.0228856,0.97762644)"><tspan
     sodipodi:role="line"
     x="8.3595419"
     y="5.7447987"
     style="font-size:7.82101154px;fill:#ffffff;fill-opacity:1;stroke:none;stroke-width:0.32144168;stroke-opacity:1"
     id="tspan5557-1" /><tspan
     sodipodi:role="line"
     x="8.3595419"
     y="12.565811"
     style="font-size:5.33333349px;fill:#ffffff;fill-opacity:1;stroke:none;stroke-width:0.32144168;stroke-opacity:1"
     id="tspan1790">01. 0:00 NIGHT TRAVELER - ‘Put Your Money On Me’ </tspan><tspan
     sodipodi:role="line"
     x="8.3595419"
     y="19.386822"
     style="font-size:5.33333349px;fill:#ffffff;fill-opacity:1;stroke:none;stroke-width:0.32144168;stroke-opacity:1"
     id="tspan1796">02. 3:09 The Money War - ‘Lifetime’</tspan><tspan
     sodipodi:role="line"
     x="8.3595419"
     y="26.207832"
     style="font-size:5.33333349px;fill:#ffffff;fill-opacity:1;stroke:none;stroke-width:0.32144168;stroke-opacity:1"
     id="tspan1802">03. 6:20 Francis Moon - ‘Eyes On You’</tspan><tspan
     sodipodi:role="line"
     x="8.3595419"
     y="33.028847"
     style="font-size:5.33333349px;fill:#ffffff;fill-opacity:1;stroke:none;stroke-width:0.32144168;stroke-opacity:1"
     id="tspan1808">04. 9:26 Spacey Jane - ‘Booster Seat’</tspan><tspan
     sodipodi:role="line"
     x="8.3595419"
     y="39.849857"
     style="font-size:5.33333349px;fill:#ffffff;fill-opacity:1;stroke:none;stroke-width:0.32144168;stroke-opacity:1"
     id="tspan1814">05. 13:50 Somebody’s Child - ‘Hold Me Like You Wanna’</tspan><tspan
     sodipodi:role="line"
     x="8.3595419"
     y="46.670872"
     style="font-size:5.33333349px;fill:#ffffff;fill-opacity:1;stroke:none;stroke-width:0.32144168;stroke-opacity:1"
     id="tspan1820">06. 17:44 ØZWALD  - ‘After the Glowin’</tspan><tspan
     sodipodi:role="line"
     x="8.3595419"
     y="53.491879"
     style="font-size:5.33333349px;fill:#ffffff;fill-opacity:1;stroke:none;stroke-width:0.32144168;stroke-opacity:1"
     id="tspan1826">07. 20:35 Wild Front - ‘Two’</tspan><tspan
     sodipodi:role="line"
     x="8.3595419"
     y="60.312893"
     style="font-size:5.33333349px;fill:#ffffff;fill-opacity:1;stroke:none;stroke-width:0.32144168;stroke-opacity:1"
     id="tspan1832">08. 24:36 Frills - ‘I’m Going Under’</tspan><tspan
     sodipodi:role="line"
     x="8.3595419"
     y="67.133904"
     style="font-size:5.33333349px;fill:#ffffff;fill-opacity:1;stroke:none;stroke-width:0.32144168;stroke-opacity:1"
     id="tspan1838">09. 27:47 Kios - ‘Be Alright’</tspan><tspan
     sodipodi:role="line"
     x="8.3595419"
     y="73.954918"
     style="font-size:5.33333349px;fill:#ffffff;fill-opacity:1;stroke:none;stroke-width:0.32144168;stroke-opacity:1"
     id="tspan1844">10. 30:58 LOUD HOUND - ‘Keep Ya Head Up’</tspan><tspan
     sodipodi:role="line"
     x="8.3595419"
     y="80.775932"
     style="font-size:5.33333349px;fill:#ffffff;fill-opacity:1;stroke:none;stroke-width:0.32144168;stroke-opacity:1"
     id="tspan1850">11. 34:25 Some Sprouts - 'Summer Daze’</tspan><tspan
     sodipodi:role="line"
     x="8.3595419"
     y="87.596939"
     style="font-size:5.33333349px;fill:#ffffff;fill-opacity:1;stroke:none;stroke-width:0.32144168;stroke-opacity:1"
     id="tspan1856">12. 37:40 Dancing On Tables - ‘Riviera’</tspan><tspan
     sodipodi:role="line"
     x="8.3595419"
     y="94.417953"
     style="font-size:5.33333349px;fill:#ffffff;fill-opacity:1;stroke:none;stroke-width:0.32144168;stroke-opacity:1"
     id="tspan1862">13. 40:46 Honeywhip - ‘Think About U’</tspan><tspan
     sodipodi:role="line"
     x="8.3595419"
     y="101.23897"
     style="font-size:5.33333349px;fill:#ffffff;fill-opacity:1;stroke:none;stroke-width:0.32144168;stroke-opacity:1"
     id="tspan1868">14. 43:42 naavi – ‘something to tell’</tspan><tspan
     sodipodi:role="line"
     x="8.3595419"
     y="108.05997"
     style="font-size:5.33333349px;fill:#ffffff;fill-opacity:1;stroke:none;stroke-width:0.32144168;stroke-opacity:1"
     id="tspan1874">15. 46:39 Grand Lotus - ‘The Feeling’</tspan><tspan
     sodipodi:role="line"
     x="8.3595419"
     y="114.88099"
     style="font-size:5.33333349px;fill:#ffffff;fill-opacity:1;stroke:none;stroke-width:0.32144168;stroke-opacity:1"
     id="tspan1880">16. 50:04 The Solarists - ’Lonely’</tspan><tspan
     sodipodi:role="line"
     x="8.3595419"
     y="121.702"
     style="font-size:5.33333349px;fill:#ffffff;fill-opacity:1;stroke:none;stroke-width:0.32144168;stroke-opacity:1"
     id="tspan1886">17. 53:25 Caity Krone - ‘I’ve Been Lonely’</tspan><tspan
     sodipodi:role="line"
     x="8.3595419"
     y="128.52301"
     style="font-size:5.33333349px;fill:#ffffff;fill-opacity:1;stroke:none;stroke-width:0.32144168;stroke-opacity:1"
     id="tspan1892">18. 56:42 Rowan - 'Moonlight’</tspan><tspan
     sodipodi:role="line"
     x="8.3595419"
     y="135.34401"
     style="font-size:5.33333349px;fill:#ffffff;fill-opacity:1;stroke:none;stroke-width:0.32144168;stroke-opacity:1"
     id="tspan1898">19. 1:00:41 Carolines - ‘Money’</tspan><tspan
     sodipodi:role="line"
     x="8.3595419"
     y="142.16502"
     style="font-size:5.33333349px;fill:#ffffff;fill-opacity:1;stroke:none;stroke-width:0.32144168;stroke-opacity:1"
     id="tspan1904">20. 1:03:53 Chris George Bancroft - ‘Don’t Want to Die’</tspan><tspan
     sodipodi:role="line"
     x="8.3595419"
     y="148.98604"
     style="font-size:5.33333349px;fill:#ffffff;fill-opacity:1;stroke:none;stroke-width:0.32144168;stroke-opacity:1"
     id="tspan1910">21. 1:07:25 Polar States - ‘2020’</tspan><tspan
     sodipodi:role="line"
     x="8.3595419"
     y="155.80705"
     style="font-size:5.33333349px;fill:#ffffff;fill-opacity:1;stroke:none;stroke-width:0.32144168;stroke-opacity:1"
     id="tspan1916">22. 1:10:42 Tenderfoot – ‘The Balance’</tspan><tspan
     sodipodi:role="line"
     x="8.3595419"
     y="162.62807"
     style="font-size:5.33333349px;fill:#ffffff;fill-opacity:1;stroke:none;stroke-width:0.32144168;stroke-opacity:1"
     id="tspan1922">23. 1:14:31 Lachlan - ‘Too Bad’</tspan><tspan
     sodipodi:role="line"
     x="8.3595419"
     y="169.44907"
     style="font-size:5.33333349px;fill:#ffffff;fill-opacity:1;stroke:none;stroke-width:0.32144168;stroke-opacity:1"
     id="tspan1928">24. 1:17:01 Kloudink - ‘June Flower’</tspan><tspan
     sodipodi:role="line"
     x="8.3595419"
     y="176.27008"
     style="font-size:5.33333349px;fill:#ffffff;fill-opacity:1;stroke:none;stroke-width:0.32144168;stroke-opacity:1"
     id="tspan1934">25. 1:20:46 Jaguar Sun – ‘Keep You Warm’</tspan></text>










	 
	 
        
	 
	 

<g
   id="g2157"
   transform="matrix(1.0055173,0,0,1.0055173,-0.86491499,10.335589)"><path
     sodipodi:nodetypes="cscscsc"
     inkscape:connector-curvature="0"
     id="path2697"
     d="m 224.80496,9.5595414 c -0.22053,2.1580126 -0.36336,5.1924706 -0.4995,7.1494766 -0.24425,3.511694 -0.36238,4.67059 -0.36238,4.67059 -0.0903,0.784532 0.34322,1.945273 0.75557,1.628144 0.62666,-0.481914 0.75686,-1.278525 0.71468,-1.768199 0,0 0.11916,-1.193538 0.0268,-4.085223 -0.0713,-2.227786 -0.36467,-4.102288 -0.63502,-7.5947886 z"
     style="opacity:0.51960784;fill:none;fill-opacity:1;stroke:#fbff00;stroke-width:0.34428605;stroke-linecap:butt;stroke-linejoin:miter;stroke-miterlimit:4;stroke-dasharray:none;stroke-opacity:1" /><path
     sodipodi:nodetypes="ccscc"
     inkscape:connector-curvature="0"
     id="path2699"
     d="m 222.66382,19.9268 c -1.04244,7.849369 -3.9518,11.112384 -3.9518,11.112384 -0.5419,0.663713 -0.72856,1.884669 -0.35508,2.205927 0.35124,0.302107 1.26307,-0.171767 1.69301,-0.704636 0.67635,-0.821571 3.02689,-3.546764 2.61387,-12.613675 z"
     style="opacity:0.51960784;fill:none;fill-opacity:1;stroke:#fbff00;stroke-width:0.34428605;stroke-linecap:butt;stroke-linejoin:miter;stroke-miterlimit:4;stroke-dasharray:none;stroke-opacity:1" /><path
     sodipodi:nodetypes="cccccc"
     inkscape:connector-curvature="0"
     id="path2701"
     d="m 227.50535,18.391341 c -0.53707,7.776402 2.06082,11.404351 2.06082,11.404351 0.69817,1.159045 1.61767,1.154077 1.61767,1.154077 0.28731,0.02774 0.60777,-0.169016 0.57648,-0.656856 0,0 0.05,-0.621839 -0.64205,-1.510257 0,0 -2.68923,-3.023067 -3.61292,-10.391315 z"
     style="opacity:0.51960784;fill:none;fill-opacity:1;stroke:#fbff00;stroke-width:0.34428605;stroke-linecap:butt;stroke-linejoin:miter;stroke-miterlimit:4;stroke-dasharray:none;stroke-opacity:1" /><path
     sodipodi:nodetypes="ccccccc"
     inkscape:connector-curvature="0"
     id="path2703"
     d="m 224.80698,25.666922 c 0.88646,5.521911 1.66036,9.692342 1.66036,9.692342 0.16628,0.9234 0.0801,1.709517 -0.19142,2.031547 -0.14852,0.179958 -0.35186,0.360288 -0.67388,0.369284 -0.26943,0.008 -0.53292,-0.17878 -0.74459,-0.441353 -0.22115,-0.319872 -0.53244,-0.664477 -0.4401,-2.511275 0,0 0.0572,-4.135735 0.38963,-9.140545 z"
     style="opacity:0.51960784;fill:none;fill-opacity:1;stroke:#fbff00;stroke-width:0.34428605;stroke-linecap:butt;stroke-linejoin:miter;stroke-miterlimit:4;stroke-dasharray:none;stroke-opacity:1" /><path
     sodipodi:nodetypes="ccccccc"
     inkscape:connector-curvature="0"
     id="path2705"
     d="m 218.20399,35.915598 c -2.07453,2.498418 -3.18381,2.053991 -3.9358,2.002086 -1.04703,-0.10394 -1.61615,0.334917 -1.61615,0.334917 -0.62053,0.407048 -0.62096,1.047324 -0.62096,1.047324 -0.0907,0.963048 1.13769,1.216902 1.13769,1.216902 1.6105,0.154464 2.53341,-0.928968 2.53341,-0.928968 0,0 1.87713,-2.023066 2.50181,-3.672261 z"
     style="opacity:0.51960784;fill:none;fill-opacity:1;stroke:#fbff00;stroke-width:0.34428605;stroke-linecap:butt;stroke-linejoin:miter;stroke-miterlimit:4;stroke-dasharray:none;stroke-opacity:1" /><path
     sodipodi:nodetypes="ccccccc"
     inkscape:connector-curvature="0"
     id="path2707"
     d="m 222.60403,35.730562 c -0.77749,4.638058 -1.24246,6.438646 -2.12718,8.395727 -0.1975,0.427917 -0.50831,1.070754 -0.5106,1.702068 0,0 -0.13037,0.593389 0.19883,1.029688 0.16628,0.230317 0.61127,0.585748 1.15171,0.14401 0.42897,-0.37532 0.83295,-0.748034 1.07426,-1.954476 0,0 0.93683,-5.375969 0.21298,-9.31697 z"
     style="opacity:0.51960784;fill:none;fill-opacity:1;stroke:#fbff00;stroke-width:0.34428605;stroke-linecap:butt;stroke-linejoin:miter;stroke-miterlimit:4;stroke-dasharray:none;stroke-opacity:1" /><path
     sodipodi:nodetypes="cccccc"
     inkscape:connector-curvature="0"
     id="path2709"
     d="m 229.49172,34.362913 c 2.55746,3.883364 5.96784,4.763723 5.96784,4.763723 0.5822,0.18835 1.25593,0.234207 1.78298,0.70787 0.79608,0.723028 0.1717,1.58263 -0.35539,1.784788 -0.41992,0.160897 -0.93664,0.07836 -1.32651,-0.03717 -1.3965,-0.496543 -4.39311,-1.850546 -6.06892,-7.219341 z"
     style="opacity:0.51960784;fill:none;fill-opacity:1;stroke:#fbff00;stroke-width:0.34428605;stroke-linecap:butt;stroke-linejoin:miter;stroke-miterlimit:4;stroke-dasharray:none;stroke-opacity:1" /><path
     sodipodi:nodetypes="cccccc"
     inkscape:connector-curvature="0"
     id="path2711"
     d="m 234.40582,48.152229 c 0.94144,-0.0129 1.01948,-1.006248 1.01948,-1.006248 0.14683,-0.912008 -1.03268,-1.642471 -1.03268,-1.642471 -3.34456,-2.71282 -4.95421,-6.726869 -4.95421,-6.726869 0.40187,4.813473 3.39555,8.441327 3.39555,8.441327 0.6659,0.973408 1.57186,0.934261 1.57186,0.934261 z"
     style="opacity:0.51960784;fill:none;fill-opacity:1;stroke:#fbff00;stroke-width:0.34428605;stroke-linecap:butt;stroke-linejoin:miter;stroke-miterlimit:4;stroke-dasharray:none;stroke-opacity:1" /><path
     sodipodi:nodetypes="ccccccc"
     inkscape:connector-curvature="0"
     id="path2713"
     d="m 215.9721,41.636415 c -1.80542,3.494866 -4.03634,4.853071 -5.02039,5.589662 -0.63902,0.414965 -0.91741,0.94562 -1.09249,1.337466 -0.28165,0.732246 0.17189,1.708952 0.17189,1.708952 0.9591,1.536146 2.50376,-0.247225 2.50376,-0.247225 1.51743,-1.501777 2.18999,-3.581078 2.18999,-3.581078 0.70198,-1.923583 1.24716,-4.807777 1.24716,-4.807777 z"
     style="opacity:0.51960784;fill:none;fill-opacity:1;stroke:#fbff00;stroke-width:0.34428605;stroke-linecap:butt;stroke-linejoin:miter;stroke-miterlimit:4;stroke-dasharray:none;stroke-opacity:1" /><path
     sodipodi:nodetypes="cccccc"
     inkscape:connector-curvature="0"
     id="path2715"
     d="m 225.35211,41.819149 c 0,0 -0.18728,3.557491 1.76133,11.415387 0.2622,1.122144 0.79196,1.541087 0.62252,2.578934 -0.10584,0.762484 -0.80357,2.007074 -2.17268,0.704913 -0.48715,-0.677768 -0.70662,-1.470628 -0.79132,-3.037972 0,0 0.0294,-8.844289 0.58015,-11.661262 z"
     style="opacity:0.51960784;fill:none;fill-opacity:1;stroke:#fbff00;stroke-width:0.34428605;stroke-linecap:butt;stroke-linejoin:miter;stroke-miterlimit:4;stroke-dasharray:none;stroke-opacity:1" /><path
     sodipodi:nodetypes="cccccc"
     inkscape:connector-curvature="0"
     id="path2717"
     d="m 217.75898,50.313283 c 0,0 -0.58623,2.014283 -2.57454,4.512686 -0.50146,0.617203 -0.59934,1.086504 -0.57232,1.468294 0.0641,0.42663 0.5657,1.281614 1.64661,0.608578 0.44363,-0.289318 0.69235,-0.953633 0.97967,-1.808874 0,0 0.51964,-1.27946 0.52058,-4.780684 z"
     style="opacity:0.51960784;fill:none;fill-opacity:1;stroke:#fbff00;stroke-width:0.34428605;stroke-linecap:butt;stroke-linejoin:miter;stroke-miterlimit:4;stroke-dasharray:none;stroke-opacity:1" /><path
     sodipodi:nodetypes="cccccc"
     inkscape:connector-curvature="0"
     id="path3212"
     d="m 234.3589,50.739786 c 0,0 3.33718,1.817194 6.02944,2.329522 1.3662,0.25115 2.58481,0.333324 3.39852,0.554338 1.41643,0.351587 1.53048,2.615168 0.0537,2.896457 0,0 -0.88367,0.366375 -2.70195,-0.356927 0,0 -3.49378,-1.128455 -6.77978,-5.42339 z"
     style="opacity:0.51960784;fill:none;fill-opacity:1;stroke:#fbff00;stroke-width:0.34428605;stroke-linecap:butt;stroke-linejoin:miter;stroke-miterlimit:4;stroke-dasharray:none;stroke-opacity:1" /><path
     sodipodi:nodetypes="ccccc"
     inkscape:connector-curvature="0"
     id="path3214"
     d="m 229.44243,49.915054 c 0.82893,4.637978 2.56973,7.705265 3.53683,9.106526 0.65125,0.98681 1.57184,0.895837 1.96657,0.501112 0.59209,-0.532874 0.75326,-1.707313 -0.13505,-2.49676 0,0 -2.28968,-2.236069 -5.36852,-7.110878 z"
     style="opacity:0.51960784;fill:none;fill-opacity:1;stroke:#fbff00;stroke-width:0.34428605;stroke-linecap:butt;stroke-linejoin:miter;stroke-miterlimit:4;stroke-dasharray:none;stroke-opacity:1" /><path
     sodipodi:nodetypes="ccccsc"
     inkscape:connector-curvature="0"
     id="path3216"
     d="m 222.37138,50.052592 c 0,0 -1.4061,6.782622 -4.08707,12.240989 -0.36645,0.636496 -0.38648,1.590163 -0.17432,1.975923 0.55935,1.041518 1.42011,1.766189 2.90524,0.184617 0.79794,-0.891219 0.94127,-3.166645 1.1635,-5.637886 0.28434,-3.162042 0.47494,-7.053293 0.19269,-8.763646 z"
     style="opacity:0.51960784;fill:none;fill-opacity:1;stroke:#fbff00;stroke-width:0.34428605;stroke-linecap:butt;stroke-linejoin:miter;stroke-miterlimit:4;stroke-dasharray:none;stroke-opacity:1" /><path
     sodipodi:nodetypes="cccccc"
     inkscape:connector-curvature="0"
     id="path3218"
     d="m 228.39634,58.864782 c 0,0 2.12305,3.972795 5.08511,5.695295 0.62779,0.370251 1.03805,0.44705 1.4888,1.123159 0.31458,0.462111 0.2559,1.87182 -1.14013,2.363745 0,0 -1.11371,0.535079 -2.20835,-0.929836 0,0 -2.46882,-2.47314 -3.22543,-8.252363 z"
     style="opacity:0.51960784;fill:none;fill-opacity:1;stroke:#fbff00;stroke-width:0.34428605;stroke-linecap:butt;stroke-linejoin:miter;stroke-miterlimit:4;stroke-dasharray:none;stroke-opacity:1" /><path
     sodipodi:nodetypes="ccssccc"
     inkscape:connector-curvature="0"
     id="path3220"
     d="m 226.64287,63.582889 c 1.01196,3.648786 2.69794,6.207684 5.13966,7.772059 1.27291,0.792949 0.82248,2.401103 -0.13075,3.227392 -0.3894,0.337625 -1.28834,0.868029 -2.19153,0.463351 -0.83619,-0.374654 -1.52281,-1.959023 -1.8153,-2.640394 -1.42128,-3.144107 -1.1943,-4.896984 -1.00224,-8.822408 z"
     style="opacity:0.51960784;fill:none;fill-opacity:1;stroke:#fbff00;stroke-width:0.34428605;stroke-linecap:butt;stroke-linejoin:miter;stroke-miterlimit:4;stroke-dasharray:none;stroke-opacity:1" /><path
     sodipodi:nodetypes="ccccc"
     inkscape:connector-curvature="0"
     id="path3222"
     d="m 223.7271,60.755296 c -1.40796,7.830736 -3.3439,9.165193 -4.36611,10.052405 -1.31158,0.906524 -1.53131,1.849667 -1.53131,1.849667 -0.42433,1.890175 1.15085,3.113883 2.96386,1.956627 0,0 5.05516,-3.443427 2.93356,-13.858699 z"
     style="opacity:0.51960784;fill:none;fill-opacity:1;stroke:#fbff00;stroke-width:0.34428605;stroke-linecap:butt;stroke-linejoin:miter;stroke-miterlimit:4;stroke-dasharray:none;stroke-opacity:1" /><path
     sodipodi:nodetypes="cccccc"
     inkscape:connector-curvature="0"
     id="path3224"
     d="m 236.30002,62.671331 c 3.71039,5.309018 5.34287,6.164111 7.47436,7.506166 1.51966,0.710511 1.86355,1.676017 1.86355,1.676017 0.21708,0.611831 0.0898,2.002793 -1.66672,2.121213 0,0 -0.77201,0.185801 -1.97589,-0.958893 0,0 -4.62956,-4.344731 -5.6953,-10.344503 z"
     style="opacity:0.51960784;fill:none;fill-opacity:1;stroke:#fbff00;stroke-width:0.34428605;stroke-linecap:butt;stroke-linejoin:miter;stroke-miterlimit:4;stroke-dasharray:none;stroke-opacity:1" /><path
     sodipodi:nodetypes="csccc"
     inkscape:connector-curvature="0"
     id="path3226"
     d="m 225.86834,74.468703 c -0.59104,2.015081 -1.90612,2.640075 -2.64179,4.259114 -0.92067,2.026158 -1.10422,4.816426 2.00877,4.884253 4.86578,-0.05229 4.16348,-4.120808 1.68061,-6.865084 -0.54005,-0.636489 -0.89329,-1.352475 -1.04759,-2.278283 z"
     style="opacity:0.51960784;fill:none;fill-opacity:1;stroke:#fbff00;stroke-width:0.34428605;stroke-linecap:butt;stroke-linejoin:miter;stroke-miterlimit:4;stroke-dasharray:none;stroke-opacity:1" /><path
     sodipodi:nodetypes="cccc"
     inkscape:connector-curvature="0"
     id="path3230"
     d="m 204.53009,62.807358 c 0,0 -4.54588,1.384302 -8.46529,-0.252004 -2.43719,-1.238784 -3.74486,1.871144 -2.50799,2.692595 3.35675,1.824223 9.81299,-0.852749 10.97328,-2.440591 z"
     style="opacity:0.51960784;fill:none;fill-opacity:1;stroke:#fbff00;stroke-width:0.34428605;stroke-linecap:butt;stroke-linejoin:miter;stroke-miterlimit:4;stroke-dasharray:none;stroke-opacity:1" /><path
     sodipodi:nodetypes="cscscc"
     inkscape:connector-curvature="0"
     id="path3232"
     d="m 210.56401,61.451921 c -0.99271,1.073215 -3.28077,2.785982 -4.69583,3.53305 -2.08749,1.102098 -3.44074,1.380746 -4.03044,2.713318 -0.40694,0.936914 -0.42037,2.076698 0.10546,2.582907 0.54589,0.525503 2.12863,0.152371 2.98329,-0.437024 0,0 4.19086,-3.358196 5.63746,-8.392251 z"
     style="opacity:0.51960784;fill:none;fill-opacity:1;stroke:#fbff00;stroke-width:0.34428605;stroke-linecap:butt;stroke-linejoin:miter;stroke-miterlimit:4;stroke-dasharray:none;stroke-opacity:1" /><path
     sodipodi:nodetypes="cscscc"
     inkscape:connector-curvature="0"
     id="path3234"
     d="m 215.61978,62.140052 c -0.90912,1.998897 -2.27349,3.938826 -3.67326,5.499187 -1.73589,1.935054 -3.74004,2.77303 -4.69483,4.855329 -0.68233,1.36234 -0.0442,3.025122 0.99924,3.294391 0.98994,0.25555 2.06861,-0.319097 2.85619,-1.349296 0,0 3.12397,-3.600936 4.51266,-12.299611 z"
     style="opacity:0.51960784;fill:none;fill-opacity:1;stroke:#fbff00;stroke-width:0.34428605;stroke-linecap:butt;stroke-linejoin:miter;stroke-miterlimit:4;stroke-dasharray:none;stroke-opacity:1" /><path
     sodipodi:nodetypes="ccccc"
     inkscape:connector-curvature="0"
     id="path3236"
     d="m 239.17671,58.922914 c 3.78933,2.052545 5.05775,2.19467 6.91294,2.273608 0,0 1.96063,-0.322849 2.59219,1.019216 0.29603,0.769691 -0.37288,2.193011 -1.93202,2.035117 -1.49993,-0.197361 -5.16529,-1.933346 -7.57311,-5.327941 z"
     style="opacity:0.51960784;fill:none;fill-opacity:1;stroke:#fbff00;stroke-width:0.34428605;stroke-linecap:butt;stroke-linejoin:miter;stroke-miterlimit:4;stroke-dasharray:none;stroke-opacity:1" /><path
     sodipodi:nodetypes="ccccc"
     inkscape:connector-curvature="0"
     id="path3238"
     d="m 245.37204,66.638526 c 1.89464,0.769706 4.42786,0.912234 7.34879,-0.212727 0,0 1.14975,-0.580568 2.15631,-0.028 0.51314,0.296061 1.42317,1.799977 -0.0964,2.549944 -2.04407,0.874596 -7.26176,0.42613 -9.4086,-2.309251 z"
     style="opacity:0.51960784;fill:none;fill-opacity:1;stroke:#fbff00;stroke-width:0.34428605;stroke-linecap:butt;stroke-linejoin:miter;stroke-miterlimit:4;stroke-dasharray:none;stroke-opacity:1" /><path
     sodipodi:nodetypes="ccccc"
     inkscape:connector-curvature="0"
     id="path3240"
     d="m 189.65164,67.505449 c 1.7395,2.957131 10.9298,13.162143 14.61173,15.655413 -1.10169,0.840737 -1.53659,1.333611 -1.24665,2.928119 -1.49314,-0.871809 -9.07432,-6.639048 -13.01719,-15.74238 0,0 -0.57981,-1.565541 -0.34789,-2.841152 z"
     style="opacity:0.51960784;fill:none;fill-opacity:1;stroke:#fbff00;stroke-width:0.34428605;stroke-linecap:butt;stroke-linejoin:miter;stroke-miterlimit:4;stroke-dasharray:none;stroke-opacity:1" /><path
     sodipodi:nodetypes="ccccc"
     inkscape:connector-curvature="0"
     id="path3242"
     d="m 211.44528,53.480121 c -4.74474,4.397559 -5.4476,3.991426 -6.58557,4.203576 -1.44654,0.231457 -1.75269,1.170819 -1.75269,1.170819 -0.94512,2.025189 1.05834,2.247202 1.75269,2.131481 1.11867,-0.17358 3.98175,-1.23743 6.58557,-7.505876 z"
     style="opacity:0.51960784;fill:none;fill-opacity:1;stroke:#fbff00;stroke-width:0.34428605;stroke-linecap:butt;stroke-linejoin:miter;stroke-miterlimit:4;stroke-dasharray:none;stroke-opacity:1" /><path
     sodipodi:nodetypes="cccc"
     inkscape:connector-curvature="0"
     id="path5884"
     d="m 186.77362,73.011334 c 7.17718,7.68344 15.06908,13.55027 15.06908,13.55027 -0.89341,-0.238252 -1.28057,1.012537 -1.10188,2.293104 -0.83388,-0.357337 -15.00954,-9.797866 -13.9672,-15.843374 z"
     style="opacity:0.51960784;fill:none;fill-opacity:1;stroke:#fbff00;stroke-width:0.34428605;stroke-linecap:butt;stroke-linejoin:miter;stroke-miterlimit:4;stroke-dasharray:none;stroke-opacity:1" /><path
     sodipodi:nodetypes="cccc"
     inkscape:connector-curvature="0"
     id="path5886"
     d="m 185.13564,79.354632 c 2.0251,1.90598 10.63177,7.147407 14.97978,10.214842 -0.5956,0.297799 -0.50627,1.876192 -0.14907,2.620699 -1.13166,-0.238243 -16.73682,-8.666226 -14.83085,-12.835541 z"
     style="opacity:0.51960784;fill:none;fill-opacity:1;stroke:#fbff00;stroke-width:0.34428605;stroke-linecap:butt;stroke-linejoin:miter;stroke-miterlimit:4;stroke-dasharray:none;stroke-opacity:1" /><path
     sodipodi:nodetypes="csccc"
     inkscape:connector-curvature="0"
     id="path5888"
     d="m 184.27242,85.172746 c 0.47831,0.790709 3.78967,2.387394 6.91443,3.93498 4.02787,1.994832 8.01182,3.908017 8.01182,3.908017 -0.96081,0.893771 -0.64799,2.547279 -0.11188,3.128248 -1.67587,-0.290484 -15.37314,-6.658714 -14.81452,-10.971245 z"
     style="opacity:0.51960784;fill:none;fill-opacity:1;stroke:#fbff00;stroke-width:0.34428605;stroke-linecap:butt;stroke-linejoin:miter;stroke-miterlimit:4;stroke-dasharray:none;stroke-opacity:1" /><path
     sodipodi:nodetypes="csccc"
     inkscape:connector-curvature="0"
     id="path5890"
     d="m 182.59655,90.960026 c 1.86957,1.066518 6.91218,2.833673 10.72752,3.99327 3.39246,1.031047 5.27131,1.794 5.27131,1.794 -0.87148,0.826763 -0.96085,2.100398 0.58094,3.329344 -2.72606,-0.692658 -16.60209,-5.519122 -16.57977,-9.116614 z"
     style="opacity:0.51960784;fill:none;fill-opacity:1;stroke:#fbff00;stroke-width:0.34428605;stroke-linecap:butt;stroke-linejoin:miter;stroke-miterlimit:4;stroke-dasharray:none;stroke-opacity:1" /><path
     sodipodi:nodetypes="csccc"
     inkscape:connector-curvature="0"
     id="path5892"
     d="m 184.47352,97.462325 c 2.00254,0.819704 5.31605,1.321759 8.36301,1.959524 3.51472,0.735711 6.65263,1.548591 6.65263,1.548591 -0.33516,1.72053 0.46922,2.36854 1.63115,2.97185 -3.50813,0.2011 -16.95962,-2.99418 -16.64679,-6.479965 z"
     style="opacity:0.51960784;fill:none;fill-opacity:1;stroke:#fbff00;stroke-width:0.34428605;stroke-linecap:butt;stroke-linejoin:miter;stroke-miterlimit:4;stroke-dasharray:none;stroke-opacity:1" /><path
     sodipodi:nodetypes="csccc"
     inkscape:connector-curvature="0"
     id="path5894"
     d="m 186.46218,103.6518 c 0.75703,2.42693 5.16897,3.40761 9.45076,3.57894 4.31232,0.17252 8.49203,-0.47302 8.49203,-0.47302 -1.34068,-0.4022 -2.52495,-0.96082 -2.70369,-2.23447 0,0 -11.88738,0.82676 -15.2391,-0.87145 z"
     style="opacity:0.51960784;fill:none;fill-opacity:1;stroke:#fbff00;stroke-width:0.34428605;stroke-linecap:butt;stroke-linejoin:miter;stroke-miterlimit:4;stroke-dasharray:none;stroke-opacity:1" /><path
     sodipodi:nodetypes="csccsc"
     inkscape:connector-curvature="0"
     id="path5896"
     d="m 190.52893,110.17647 c 3.32747,0.18542 6.65161,-0.7223 9.29228,-1.4415 3.08698,-0.84075 5.2988,-1.53036 5.2988,-1.53036 0.2011,0.87145 1.296,1.36303 2.90481,0.93846 -0.30134,0.56721 -2.16995,1.83113 -5.01736,2.73582 -3.7566,1.1936 -8.85602,1.69985 -12.47853,-0.70242 z"
     style="opacity:0.51960784;fill:none;fill-opacity:1;stroke:#fbff00;stroke-width:0.34428605;stroke-linecap:butt;stroke-linejoin:miter;stroke-miterlimit:4;stroke-dasharray:none;stroke-opacity:1" /><path
     sodipodi:nodetypes="cccc"
     inkscape:connector-curvature="0"
     id="path5898"
     d="m 196.60668,115.91903 c 0,0 7.55253,-1.02786 12.49069,-7.46312 0.62566,0.75972 1.02787,1.40771 2.50261,0.87144 -5.47445,7.91002 -14.32296,7.1056 -14.9933,6.59168 z"
     style="opacity:0.51960784;fill:none;fill-opacity:1;stroke:#fbff00;stroke-width:0.34428605;stroke-linecap:butt;stroke-linejoin:miter;stroke-miterlimit:4;stroke-dasharray:none;stroke-opacity:1" /><path
     sodipodi:nodetypes="cccc"
     inkscape:connector-curvature="0"
     id="path5900"
     d="m 213.27584,108.96983 c 0.69266,0.73738 1.27365,0.78207 3.21763,-0.40219 -3.50814,9.45179 -9.36242,9.74227 -10.92655,9.69758 0,0 5.45209,-2.99417 7.70892,-9.29539 z"
     style="opacity:0.51960784;fill:none;fill-opacity:1;stroke:#fbff00;stroke-width:0.34428605;stroke-linecap:butt;stroke-linejoin:miter;stroke-miterlimit:4;stroke-dasharray:none;stroke-opacity:1" /><g
     style="opacity:0.51960784;fill:none;stroke:#fbff00;stroke-width:1.47752869;stroke-miterlimit:4;stroke-dasharray:none;stroke-opacity:1"
     transform="matrix(-0.23301481,0,0,0.23301481,198.32727,48.005951)"
     id="g5954"><path
       style="fill:none;fill-opacity:1;stroke:#fbff00;stroke-width:1.47752869;stroke-linecap:butt;stroke-linejoin:miter;stroke-miterlimit:4;stroke-dasharray:none;stroke-opacity:1"
       d="m -272.60333,83.421415 c 7.46515,12.69075 46.90599,56.486265 62.70722,67.186305 -4.72793,3.60816 -6.59421,5.72328 -5.35002,12.56633 -6.40792,-3.74153 -38.94318,-28.49197 -55.86418,-67.559565 0,0 -2.48837,-6.71863 -1.49302,-12.19307 z"
       id="path3240-9"
       inkscape:connector-curvature="0"
       sodipodi:nodetypes="ccccc" /><path
       style="fill:none;fill-opacity:1;stroke:#fbff00;stroke-width:1.47752869;stroke-linecap:butt;stroke-linejoin:miter;stroke-miterlimit:4;stroke-dasharray:none;stroke-opacity:1"
       d="m -284.95461,107.05026 c 30.80139,32.9741 64.67014,58.152 64.67014,58.152 -3.8342,-1.02245 -5.49569,4.34542 -4.72885,9.8411 -3.57858,-1.53368 -64.41452,-42.04836 -59.94129,-67.9931 z"
       id="path5884-9"
       inkscape:connector-curvature="0"
       sodipodi:nodetypes="cccc" /><path
       style="fill:none;fill-opacity:1;stroke:#fbff00;stroke-width:1.47752869;stroke-linecap:butt;stroke-linejoin:miter;stroke-miterlimit:4;stroke-dasharray:none;stroke-opacity:1"
       d="m -291.98397,134.27306 c 8.69085,8.17962 45.62695,30.67358 64.28671,43.83766 -2.55613,1.27807 -2.17271,8.05182 -0.63903,11.24698 -4.85665,-1.02245 -71.8273,-37.19172 -63.64768,-55.08464 z"
       id="path5886-8"
       inkscape:connector-curvature="0"
       sodipodi:nodetypes="cccc" /><path
       style="fill:none;fill-opacity:1;stroke:#fbff00;stroke-width:1.47752869;stroke-linecap:butt;stroke-linejoin:miter;stroke-miterlimit:4;stroke-dasharray:none;stroke-opacity:1"
       d="m -295.68865,159.24189 c 2.05276,3.39334 16.26363,10.24572 29.6738,16.88721 17.2859,8.56097 34.3833,16.77154 34.3833,16.77154 -4.12344,3.83575 -2.78092,10.9319 -0.47947,13.42514 -7.19204,-1.24662 -65.97498,-28.57638 -63.57763,-47.08389 z"
       id="path5888-1"
       inkscape:connector-curvature="0"
       sodipodi:nodetypes="csccc" /><path
       style="fill:none;fill-opacity:1;stroke:#fbff00;stroke-width:1.47752869;stroke-linecap:butt;stroke-linejoin:miter;stroke-miterlimit:4;stroke-dasharray:none;stroke-opacity:1"
       d="m -302.88069,184.0784 c 8.02329,4.57705 29.66404,12.16097 46.03782,17.13738 14.55895,4.42484 22.62218,7.69913 22.62218,7.69913 -3.73986,3.54807 -4.12344,9.01403 2.49324,14.28819 -11.69905,-2.97271 -71.24913,-23.68579 -71.15324,-39.1247 z"
       id="path5890-7"
       inkscape:connector-curvature="0"
       sodipodi:nodetypes="csccc" /><path
       style="fill:none;fill-opacity:1;stroke:#fbff00;stroke-width:1.47752869;stroke-linecap:butt;stroke-linejoin:miter;stroke-miterlimit:4;stroke-dasharray:none;stroke-opacity:1"
       d="m -294.82561,211.98351 c 8.59409,3.51779 22.81423,5.67239 35.89048,8.4095 15.08367,3.15729 28.5502,6.64584 28.5502,6.64584 -1.43841,7.38383 2.01377,10.16475 7.00025,12.75388 -15.05533,0.86305 -72.78344,-12.84978 -71.44093,-27.80922 z"
       id="path5892-2"
       inkscape:connector-curvature="0"
       sodipodi:nodetypes="csccc" /><path
       style="fill:none;fill-opacity:1;stroke:#fbff00;stroke-width:1.47752869;stroke-linecap:butt;stroke-linejoin:miter;stroke-miterlimit:4;stroke-dasharray:none;stroke-opacity:1"
       d="m -286.29105,238.54611 c 3.24882,10.41534 22.18288,14.62405 40.55861,15.35924 18.50661,0.74042 36.44416,-2.02999 36.44416,-2.02999 -5.75363,-1.72609 -10.83601,-4.12343 -11.60316,-9.58938 0,0 -51.01553,3.54806 -65.39961,-3.73987 z"
       id="path5894-5"
       inkscape:connector-curvature="0"
       sodipodi:nodetypes="csccc" /><path
       style="fill:none;fill-opacity:1;stroke:#fbff00;stroke-width:1.47752869;stroke-linecap:butt;stroke-linejoin:miter;stroke-miterlimit:4;stroke-dasharray:none;stroke-opacity:1"
       d="m -268.83837,266.54712 c 14.2801,0.7958 28.54584,-3.09975 39.87849,-6.18624 13.248,-3.60814 22.74019,-6.56764 22.74019,-6.56764 0.86305,3.73986 5.56186,5.84952 12.46621,4.02753 -1.29318,2.43419 -9.31258,7.85834 -21.53235,11.74092 -16.12175,5.12236 -38.00632,7.29503 -53.55254,-3.01457 z"
       id="path5896-9"
       inkscape:connector-curvature="0"
       sodipodi:nodetypes="csccsc" /><path
       style="fill:none;fill-opacity:1;stroke:#fbff00;stroke-width:1.47752869;stroke-linecap:butt;stroke-linejoin:miter;stroke-miterlimit:4;stroke-dasharray:none;stroke-opacity:1"
       d="m -242.75524,291.19183 c 0,0 32.41212,-4.41111 53.60467,-32.02854 2.68503,3.26039 4.41112,6.04131 10.74011,3.73986 -23.49399,33.94642 -61.46796,30.49424 -64.34478,28.28868 z"
       id="path5898-9"
       inkscape:connector-curvature="0"
       sodipodi:nodetypes="cccc" /><path
       style="fill:none;fill-opacity:1;stroke:#fbff00;stroke-width:1.47752869;stroke-linecap:butt;stroke-linejoin:miter;stroke-miterlimit:4;stroke-dasharray:none;stroke-opacity:1"
       d="m -171.21842,261.36885 c 2.97271,3.16449 5.46595,3.35629 13.80872,-1.72609 -15.05534,40.56311 -40.17952,41.80972 -46.8921,41.61793 0,0 23.3981,-12.84978 33.08338,-39.89184 z"
       id="path5900-7"
       inkscape:connector-curvature="0"
       sodipodi:nodetypes="cccc" /></g><path
     sodipodi:nodetypes="ccscc"
     inkscape:connector-curvature="0"
     id="path5956"
     d="m 197.31589,118.47889 c -0.34305,3.00184 -3.71655,9.46288 -4.14537,11.86437 -0.45342,2.22071 0.8731,5.30316 4.0887,5.33263 3.2419,0.0298 5.42971,-3.00786 3.74465,-7.07655 -0.57179,-1.37228 -2.48723,-5.48905 -3.68798,-10.12045 z"
     style="opacity:0.51960784;fill:none;fill-opacity:1;stroke:#fbff00;stroke-width:0.34428605;stroke-linecap:butt;stroke-linejoin:miter;stroke-miterlimit:4;stroke-dasharray:none;stroke-opacity:1" /><path
     sodipodi:nodetypes="ccscc"
     inkscape:connector-curvature="0"
     id="path5958"
     d="m 254.7509,118.36452 c -1.00061,4.68858 -3.20196,8.77679 -3.77371,10.66365 -1.74563,5.62596 2.93487,7.4834 5.69975,6.10933 2.21551,-1.10105 2.41383,-3.58424 1.8763,-5.79484 -0.40027,-1.82971 -2.77315,-6.31814 -3.80234,-10.97814 z"
     style="opacity:0.51960784;fill:none;fill-opacity:1;stroke:#fbff00;stroke-width:0.34428605;stroke-linecap:butt;stroke-linejoin:miter;stroke-miterlimit:4;stroke-dasharray:none;stroke-opacity:1" /><path
     sodipodi:nodetypes="cscsccccscccccccc"
     inkscape:connector-curvature="0"
     id="path5960"
     d="m 218.32392,89.688595 c -0.20057,-0.03125 -0.5707,-0.183296 -0.7518,-0.477041 -0.42728,-0.693031 -0.48944,-1.997756 0.2991,-2.859927 0.50444,-0.600062 1.42648,-1.164242 2.78852,-1.198848 0.8612,-0.02168 2.0315,0.302126 3.09854,0.853034 0.36265,0.172538 0.84272,0.601319 0.49403,1.541984 -0.0678,0.248773 -0.25449,1.25753 0.3144,1.736603 -0.005,0 0.56189,0.449104 0.76349,0.793433 0.27412,0.454505 0.25355,0.664136 0.0825,0.871334 -0.25493,0.308694 -0.54349,0.405334 -0.90584,0.461064 -0.41916,0.05985 -2.70405,0.292316 -4.08698,-1.631801 -0.17956,-0.254521 -0.7186,-0.913228 -0.26949,-1.407249 0,0 1.97613,1.736594 3.6229,1.422216 0.2502,-0.04573 -0.12924,-0.365672 -0.47904,-0.37428 -0.65872,-0.01439 -1.3324,-0.583866 -1.82644,-1.03297 -0.50583,-0.405515 -1.76001,-0.512549 -2.27553,-0.08982 -0.67368,0.598832 -1.03299,0.22458 -0.86831,1.392274 z"
     style="opacity:0.51960784;fill:none;fill-opacity:1;stroke:#fbff00;stroke-width:0.34428605;stroke-linecap:butt;stroke-linejoin:miter;stroke-miterlimit:4;stroke-dasharray:none;stroke-opacity:1" /><path
     sodipodi:nodetypes="cccccccsccccccccccsccccccccccccccscccccccccccccc"
     inkscape:connector-curvature="0"
     id="path5962"
     d="m 205.41823,83.768485 c -1.20525,-0.04509 -1.69842,0.969496 -1.11866,2.576811 0.041,0.101541 0.0304,0.111506 -0.12476,0.07834 -1.98553,-0.426149 -3.28986,1.43424 -1.49278,3.091966 0.12944,0.112307 -0.0667,0.227311 -0.16198,0.182066 -1.77937,-0.843023 -3.20159,2.379423 -0.49697,3.015084 0.16329,0.03835 0.16104,0.221819 -0.10658,0.202043 -3.19101,-0.220444 -3.60272,2.819026 -0.56477,3.335483 0.24048,0.0409 0.11582,0.445359 -0.23531,0.411874 -2.56047,-0.246924 -2.97256,3.547948 0.16741,3.00827 0.21985,-0.03771 0.24762,0.046 0.073,0.137404 -2.1784,1.099494 -0.79642,4.544474 1.75172,3.080164 0.16181,-0.093 0.29532,0.0478 0.2107,0.13966 -1.24657,1.67288 -0.35441,3.54568 2.16768,1.92784 0.20425,-0.13483 0.13263,0.14337 0.0993,0.2799 -0.44587,1.82245 1.3465,2.93503 3.12842,1.07586 0.13205,-0.15106 0.18834,-0.0144 0.2048,0.16838 0.17807,1.97643 2.46349,2.39708 3.34275,9e-4 0.0659,-0.21547 0.23094,-0.0202 0.23166,0.1202 0.0111,2.27054 2.80482,3.12387 3.29815,-0.0181 0.0265,-0.20155 0.11114,-0.32688 0.1502,-0.19934 0.45983,1.50179 1.27644,2.61102 2.23822,2.82941 -0.43332,-1.44356 -0.82188,-3.4709 -1.12683,-5.20418 -0.19272,-1.09509 -0.35606,-1.78318 -0.15339,-2.47529 0.22256,-1.07056 1.18897,-2.520975 1.97791,-3.276786 -0.0926,-0.307264 -0.74418,-0.51643 -1.58332,-0.06595 -1.15729,0.641399 -2.85191,1.024889 -4.52786,0.562978 -0.87957,-0.296023 -1.61712,-0.833905 -2.09671,-1.313424 -0.65895,-0.658871 -0.85496,-1.084263 -0.85333,-1.871875 -0.026,-1.262604 0.78724,-2.486648 1.98062,-4.57382 0.53094,-0.928532 1.01536,-1.584415 1.62657,-2.774792 0.36785,-0.734076 0.67701,-1.868395 0.24954,-2.019426 -2.98601,-0.982449 -5.11554,-1.64643 -7.69599,-2.345965 -0.20022,-0.0511 -0.38716,-0.07925 -0.55933,-0.08545 z m 0.3692,1.619631 c 0,0 0.13935,-0.145456 0.27853,-0.09734 1.68473,0.658998 3.47948,1.261683 5.26774,1.765424 0.30563,0.09457 0.19944,0.322194 0.13093,0.405498 -2.62102,3.120751 -4.13997,6.923775 -4.06456,9.53541 0.1886,4.582122 5.51929,4.035772 8.02721,3.394642 0.30169,-0.0567 0.40679,0.19035 0.23709,0.2858 -1.08967,0.57637 -5.388,1.98685 -7.9844,0.16612 -3.56933,-2.587246 -0.99465,-9.187616 -0.99465,-9.187616 0.89042,-2.014498 1.59689,-3.204246 1.99179,-3.645488 0.14292,-0.159612 0.0196,-0.291423 -0.10547,-0.328598 0,0 -1.81217,-0.666386 -2.5537,-1.043517 -0.36988,-0.170079 -0.47793,-1.021018 -0.23054,-1.250307 z"
     style="opacity:0.51960784;fill:none;fill-opacity:1;stroke:#fbff00;stroke-width:0.34428605;stroke-linecap:butt;stroke-linejoin:miter;stroke-miterlimit:4;stroke-dasharray:none;stroke-opacity:1" /><path
     sodipodi:nodetypes="cccccccsccccccccccsccccccccccccccscccccccccccccc"
     inkscape:connector-curvature="0"
     id="path5962-8"
     d="m 246.10559,83.818385 c 1.20526,-0.04509 1.69842,0.969496 1.11867,2.576821 -0.0409,0.101549 -0.0303,0.111506 0.12476,0.07816 1.98552,-0.426112 3.28981,1.434267 1.49278,3.092021 -0.12944,0.112152 0.0667,0.227284 0.16198,0.182038 1.7794,-0.843023 3.20159,2.379451 0.49698,3.015066 -0.16329,0.03853 -0.16086,0.221837 0.10645,0.20208 3.19102,-0.220444 3.60273,2.819035 0.5648,3.335492 -0.24049,0.0409 -0.11595,0.445341 0.2353,0.411865 2.56046,-0.246933 2.97257,3.547942 -0.1674,3.008252 -0.21987,-0.03771 -0.24762,0.046 -0.0728,0.137567 2.17839,1.099493 0.79641,4.544463 -1.75171,3.080163 -0.16181,-0.093 -0.29535,0.0477 -0.21073,0.13967 1.24658,1.67288 0.35442,3.54565 -2.16768,1.92783 -0.20426,-0.13484 -0.13259,0.14337 -0.0993,0.27989 0.4459,1.82247 -1.3465,2.93505 -3.12841,1.07587 -0.13205,-0.15109 -0.18835,-0.0144 -0.2048,0.1684 -0.17805,1.97642 -2.46352,2.39706 -3.34277,9e-4 -0.0659,-0.21548 -0.23094,-0.0202 -0.23164,0.12019 -0.0111,2.27053 -2.80482,3.12383 -3.29818,-0.0181 -0.0265,-0.20154 -0.11088,-0.32688 -0.15018,-0.19934 -0.45983,1.5018 -1.24562,2.79432 -1.97877,3.05083 0.20241,-1.45005 0.5766,-2.79735 0.77212,-4.1683 0.19269,-1.09511 0.37019,-3.43637 0.40117,-4.15196 0.0249,-0.91818 -0.046,-1.815866 -0.0731,-2.68598 -0.0168,-0.338189 0.80342,0.224115 1.16424,0.315007 1.29064,0.336604 1.80416,0.320044 2.88959,0.0097 0.87955,-0.296051 1.61708,-0.833905 2.09668,-1.313461 0.65893,-0.658844 0.85494,-1.084245 0.85332,-1.871839 0.0261,-1.262603 -0.78721,-2.486666 -1.98063,-4.573819 -0.53091,-0.928569 -1.01533,-1.584443 -1.62655,-2.774792 -0.36784,-0.734077 -0.67703,-1.868413 -0.24952,-2.019435 2.986,-0.98244 5.11552,-1.646431 7.69597,-2.345956 0.20021,-0.05101 0.38716,-0.07916 0.55934,-0.08544 z m -0.36918,1.619622 c 0,0 -0.13937,-0.145447 -0.27853,-0.09734 -1.68473,0.659008 -3.4795,1.261675 -5.26774,1.765434 -0.30561,0.09458 -0.19945,0.322193 -0.13092,0.405488 2.62106,3.120742 4.13998,6.923775 4.06455,9.535393 -0.18856,4.582148 -4.43342,3.978618 -7.1128,3.623248 -0.30171,-0.0567 -0.73062,0.0951 -0.56095,0.19057 2.11834,0.4049 4.79746,1.85346 7.39386,0.0328 3.56932,-2.587238 0.99464,-9.187645 0.99464,-9.187645 -0.8904,-2.014489 -1.5969,-3.204246 -1.99177,-3.64547 -0.14292,-0.159603 -0.0197,-0.291395 0.10546,-0.328579 0,0 1.81217,-0.666404 2.5537,-1.043527 0.3699,-0.170087 0.47792,-1.021017 0.23054,-1.250342 z"
     style="opacity:0.51960784;fill:none;fill-opacity:1;stroke:#fbff00;stroke-width:0.34428605;stroke-linecap:butt;stroke-linejoin:miter;stroke-miterlimit:4;stroke-dasharray:none;stroke-opacity:1" /><path
     sodipodi:nodetypes="cscccccsccccccccccccsccccscccc"
     inkscape:connector-curvature="0"
     id="path5992"
     d="m 224.96508,86.432308 c -0.241,0.09783 -0.0468,0.986074 -0.11732,1.381743 -0.0696,0.389848 -0.0956,0.726307 0.0239,0.992205 0.24732,0.49465 1.27976,0.55601 1.23855,2.015164 -0.0318,0.667834 -0.41035,0.994136 -1.20667,1.132997 -0.58048,0.08153 -1.3018,0.05356 -2.10156,-0.03389 -0.20139,-0.0205 -0.39925,-0.07388 -0.52888,0.03507 -0.16104,0.16782 -0.71509,0.838524 -1.65317,1.703609 -1.43843,1.326578 -2.57336,2.047757 -4.28437,4.522435 1.11306,-0.742029 2.99547,-0.87077 2.99547,-0.87077 0.73144,-0.02132 0.73674,0.447509 0.33393,0.998755 0,0 -1.16571,1.33228 -1.67457,2.593754 1.4735,-0.10603 4.12975,-2.332538 4.12975,-2.332538 0.58304,-0.455826 0.89465,0.115214 0.87347,0.41192 -0.18034,1.939908 0.76029,3.717198 1.19494,3.759598 -0.19083,-0.93286 1.26061,-3.232966 1.26061,-3.232966 0.32863,-0.583055 1.32436,-0.561839 1.83319,-0.212026 0.84805,0.636052 1.68248,3.097312 1.68248,3.097312 0.98585,-0.57243 0.61181,-2.10312 0.61181,-2.10312 -0.18012,-1.007046 -0.11743,-1.968225 0.0513,-2.264749 0.18852,-0.32468 1.39063,0.722918 2.4081,1.231851 1.33279,0.666669 2.27192,0.995828 2.27192,0.995828 0,0 -0.0252,-0.406834 -0.053,-0.751472 -0.55372,-0.230391 -1.1965,-1.708255 -1.43529,-2.622376 -0.14703,-0.609071 -0.32591,-1.499599 -0.45608,-2.717886 -0.0617,-0.499961 -0.18088,-2.472347 -0.18831,-3.563469 -0.006,-1.314636 -0.10004,-2.576229 -0.10004,-2.576229 -0.0285,-0.384974 -0.13599,-1.261993 -0.84874,-1.488367 -1.71762,-0.593084 -3.74898,-1.096469 -5.82644,-0.346278 z"
     style="opacity:0.51960784;fill:none;fill-opacity:1;stroke:#fbff00;stroke-width:0.34428605;stroke-linecap:butt;stroke-linejoin:miter;stroke-miterlimit:4;stroke-dasharray:none;stroke-opacity:1" /><path
     sodipodi:nodetypes="ccccccccc"
     inkscape:connector-curvature="0"
     id="path5994"
     d="m 221.92139,99.702814 c -0.75419,1.122106 -4.33594,2.304616 -4.33594,2.304616 2.28098,12.23264 5.57366,19.80346 9.06087,28.40707 4.16518,-10.45413 6.15215,-20.83106 7.23709,-29.16126 -1.92293,-0.90574 -3.24698,-2.027358 -3.24698,-2.027358 0.62703,2.842578 -1.52679,5.346818 -1.52679,5.346818 0,0 -1.46391,-2.64906 -2.67621,-4.40477 -1.36551,1.92293 -2.42812,4.08369 -2.42812,4.08369 0,0 -1.88157,-1.89992 -2.08392,-4.548806 z"
     style="opacity:0.51960784;fill:none;fill-opacity:1;stroke:#fbff00;stroke-width:0.34428605;stroke-linecap:butt;stroke-linejoin:miter;stroke-miterlimit:4;stroke-dasharray:none;stroke-opacity:1" /><path
     sodipodi:nodetypes="cccc"
     inkscape:connector-curvature="0"
     id="path5996"
     d="m 220.42411,117.28758 c 0.67611,2.39049 1.77354,5.38915 1.77354,5.38915 -7.29223,11.63856 -11.80692,12.45027 -11.80692,12.45027 0,0 6.74945,-8.49477 10.03338,-17.83942 z"
     style="opacity:0.51960784;fill:none;fill-opacity:1;stroke:#fbff00;stroke-width:0.34428605;stroke-linecap:butt;stroke-linejoin:miter;stroke-miterlimit:4;stroke-dasharray:none;stroke-opacity:1" /><path
     sodipodi:nodetypes="cccc"
     inkscape:connector-curvature="0"
     id="path5998"
     d="m 231.65011,117.57736 c 5.89171,12.58025 10.38947,17.35398 10.38947,17.35398 0,0 -4.15,-0.2336 -11.61124,-12.42754 0,0 1.05274,-3.09135 1.22177,-4.92644 z"
     style="opacity:0.51960784;fill:none;fill-opacity:1;stroke:#fbff00;stroke-width:0.34428605;stroke-linecap:butt;stroke-linejoin:miter;stroke-miterlimit:4;stroke-dasharray:none;stroke-opacity:1" /><path
     sodipodi:nodetypes="cccc"
     inkscape:connector-curvature="0"
     id="path6000"
     d="m 228.69422,127.94266 c 0,0 0.80629,-1.82659 1.45822,-4.21706 6.68855,12.74928 10.96538,16.46528 10.96538,16.46528 0,0 -3.22385,1.63595 -12.4236,-12.24822 z"
     style="opacity:0.51960784;fill:none;fill-opacity:1;stroke:#fbff00;stroke-width:0.34428605;stroke-linecap:butt;stroke-linejoin:miter;stroke-miterlimit:4;stroke-dasharray:none;stroke-opacity:1" /><path
     sodipodi:nodetypes="ccccc"
     inkscape:connector-curvature="0"
     id="path6002"
     d="m 228.45776,128.77033 c -0.65197,1.76267 -1.72775,3.74274 -1.72775,3.74274 0,0 -1.18654,-1.95343 -2.00752,-3.81268 0.43465,12.96658 2.52875,18.55909 2.52875,18.55909 0,0 1.71357,-6.48842 1.20652,-18.48915 z"
     style="opacity:0.51960784;fill:none;fill-opacity:1;stroke:#fbff00;stroke-width:0.34428605;stroke-linecap:butt;stroke-linejoin:miter;stroke-miterlimit:4;stroke-dasharray:none;stroke-opacity:1" /><path
     sodipodi:nodetypes="cccc"
     inkscape:connector-curvature="0"
     id="path6004"
     d="m 222.57899,123.42696 c 0.74853,2.07658 1.69221,4.32892 1.69221,4.32892 -8.52367,13.37709 -12.64731,12.43248 -12.64731,12.43248 0,0 4.55632,-4.18114 10.9551,-16.7614 z"
     style="opacity:0.51960784;fill:none;fill-opacity:1;stroke:#fbff00;stroke-width:0.34428605;stroke-linecap:butt;stroke-linejoin:miter;stroke-miterlimit:4;stroke-dasharray:none;stroke-opacity:1" /><path
     class="letters"
     id="path6006"
     d="m 224.61874,5.0117458 -35.3846,57.8618552 c -37.70449,58.441989 3.04562,87.590529 36.10957,87.735539 36.97942,0.43505 72.21871,-27.98854 37.99463,-85.415399 z m 0.11744,2.7506656 34.91219,53.9665986 c 38.87661,63.94187 -3.45277,86.12993 -34.14489,86.64146 -25.83249,0.25576 -72.89364,-24.23416 -35.55158,-83.444326 z"
     style="font-size:14.41752338px;fill:none;fill-opacity:0.94117647;stroke:#fffb00;stroke-width:0.45546177;stroke-miterlimit:2;stroke-dasharray:0.63752589, 0.45537565;stroke-dashoffset:0;stroke-opacity:1"
     inkscape:connector-curvature="0" /><path
     class="outerFrame"
     sodipodi:nodetypes="cccccc"
     inkscape:connector-curvature="0"
     id="path6012"
     d="M 224.77937,-0.02315259 185.36764,64.840545 c -34.57062,56.410065 3.52435,85.480995 35.35362,88.228205 3.00957,0.28215 6.716,0.35717 10.61904,0.005 29.27155,-3.03136 74.7407,-25.56557 29.44152,-97.519823 z"
     style="font-size:14.41752338px;fill:none;fill-opacity:0.94117647;stroke:#fffb00;stroke-width:0.45546177;stroke-miterlimit:2;stroke-dasharray:0.63752589, 0.45537565;stroke-dashoffset:0;stroke-opacity:1" /></g></svg>