<?xml version="1.0" encoding="UTF-8" standalone="no"?>
<svg
   xmlns:dc="http://purl.org/dc/elements/1.1/"
   xmlns:cc="http://creativecommons.org/ns#"
   xmlns:rdf="http://www.w3.org/1999/02/22-rdf-syntax-ns#"
   xmlns:svg="http://www.w3.org/2000/svg"
   xmlns="http://www.w3.org/2000/svg"
   xmlns:sodipodi="http://sodipodi.sourceforge.net/DTD/sodipodi-0.dtd"
   xmlns:inkscape="http://www.inkscape.org/namespaces/inkscape"
   id="svg843"
   xml:space="preserve"
   enable-background="new 0 0 370.4 370.4"
   viewBox="0 0 300 180"
   height="180"
   width="300"
   y="0px"
   x="0px"
   version="1.1"
   sodipodi:docname="Inhalt_Video_x_7.g_4.svg"
   inkscape:version="0.92.3 (2405546, 2018-03-11)"><sodipodi:namedview
   pagecolor="#ffffff"
   bordercolor="#666666"
   borderopacity="1"
   objecttolerance="10"
   gridtolerance="10"
   guidetolerance="10"
   inkscape:pageopacity="0"
   inkscape:pageshadow="2"
   inkscape:window-width="1920"
   inkscape:window-height="1018"
   id="namedview913"
   showgrid="false"
   inkscape:zoom="3.3500546"
   inkscape:cx="237.79536"
   inkscape:cy="114.12422"
   inkscape:window-x="-8"
   inkscape:window-y="32"
   inkscape:window-maximized="1"
   inkscape:current-layer="svg843" /><metadata
   id="metadata849"><rdf:RDF><cc:Work
       rdf:about=""><dc:format>image/svg+xml</dc:format><dc:type
         rdf:resource="http://purl.org/dc/dcmitype/StillImage" /><dc:title></dc:title></cc:Work></rdf:RDF></metadata><defs
   id="defs847" />
    
    
    
<style
   id="style870">
												.letters {animation: spinLeft 120s linear infinite; }
												.outerFrame { animation: spinRight 90s linear infinite; }
												.innerFrame { animation: spinRight 90s linear infinite; }
												@-webkit-keyframes spinLeft {to {stroke-dashoffset: -500;} }
												@keyframes spinLeft {to {stroke-dashoffset: -500;} }
												@-webkit-keyframes spinRight {to {stroke-dashoffset: 500;} }
												@keyframes spinRight {to {stroke-dashoffset: 500;} }
</style>		
		

   
   <rect
   y="-6.9818039"
   x="-1.4215878"
   height="188.92778"
   width="302.75632"
   id="rect872"
   style="opacity:0.76999996;fill:#ff5700;fill-opacity:0.722;stroke:none;stroke-width:0.52350438;stroke-linecap:square;stroke-linejoin:miter;stroke-miterlimit:10;stroke-dasharray:0.73276757, 0.5234054;stroke-dashoffset:0;stroke-opacity:1;paint-order:markers stroke fill" />









<rect
   style="fill:none;stroke:#d1f6f1;stroke-width:0.89462358;stroke-linejoin:round;stroke-miterlimit:10;stroke-dasharray:3.11655531, 2.22609177;stroke-dashoffset:0;stroke-opacity:1"
   id="rect1498"
   width="292.41983"
   height="172.3219"
   x="3.8385439"
   y="4.289825"
   class="innerFrame" />

  <animateTransform
   id="layer2"
   attributeName="transform"
   type="scale"
   begin="rect872.click"
   dur="6"
   from="1"
   to="0"
   additive="sum"
   calcMode="spline"
   keyTimes="0;1"
   keySplines=".6  0    .4   1  "
   restart="whenNotActive" />
        <animateTransform
   id="layer2"
   attributeName="transform"
   type="translate"
   begin="rect872.click"
   dur="6"
   from="0,0"
   to="0,0"
   additive="sum"
   calcMode="spline"
   keyTimes="0;1"
   keySplines=".6  0    .4   1  "
   restart="whenNotActive" />  
       <animateTransform
   id="layer2"
   attributeName="transform"
   type="rotate"
   begin="rect872.click+2.6"
   dur="6"
   from="360,0,0"
   to="-0,0,0"
   additive="sum"
   calcMode="spline"
   keyTimes="0;1"
   keySplines="1  .5    1   0  "
   restart="whenNotActive" />   
      <animateTransform
   id="layer2"
   attributeName="transform"
   type="skewX"
   begin="rect872.click"
   dur="6"
   from="0"
   to="75"
   additive="sum"
   calcMode="spline"
   keyTimes="0;1"
   keySplines=".6  0    .4   1  "
   restart="whenNotActive" />
	  <animateTransform
   id="layer2"
   attributeName="transform"
   type="skewX"
   begin="rect872.click+6"
   dur="6"
   from="75"
   to="0"
   additive="sum"
   calcMode="spline"
   keyTimes="0;1"
   keySplines=".6  0    .4   1  "
   restart="whenNotActive" />
       <animateTransform
   id="layer2"
   attributeName="transform"
   type="scale"
   begin="rect872.click+6"
   dur="6"
   from="0"
   to="1"
   additive="sum"
   calcMode="spline"
   keyTimes="0;1"
   keySplines=".6  0    .4   1  "
   restart="whenNotActive" /> 
	
        <animateTransform
   id="layer2"
   attributeName="transform"
   type="translate"
   begin="rect872.click+6"
   dur="6"
   from="0,0"
   to="0,0"
   additive="sum"
   calcMode="spline"
   keyTimes="0;1"
   keySplines=".5  0    .5   1  "
   restart="whenNotActive" />  
<g
   inkscape:groupmode="layer"
   id="layer1"
   inkscape:label="Layer 1"
   style="display:none"
   transform="translate(0,-25)" /><g
   inkscape:groupmode="layer"
   id="layer2"
   inkscape:label="Layer 2"
   transform="translate(0,-25)">
	 </g>
	 

	 
	 
	 <text
   xml:space="preserve"
   style="font-style:normal;font-variant:normal;font-weight:normal;font-stretch:normal;font-size:6.82101154px;line-height:1;font-family:Arial;-inkscape-font-specification:'Arial, Normal';font-variant-ligatures:normal;font-variant-caps:normal;font-variant-numeric:normal;text-align:start;letter-spacing:0px;word-spacing:0px;writing-mode:lr-tb;text-anchor:start;fill:#ffffff;fill-opacity:1;stroke:none;stroke-width:1.38756263;stroke-miterlimit:2;stroke-dasharray:1.94222056, 1.3873004;stroke-dashoffset:0;stroke-opacity:1"
   x="8.3595419"
   y="0.45336908"
   id="text1460-2"
   class=""
   transform="scale(1.0228856,0.97762644)"><tspan
     sodipodi:role="line"
     x="8.3595419"
     y="5.7447987"
     style="font-size:7.82101154px;fill:#ffffff;fill-opacity:1;stroke:none;stroke-width:0.32144168;stroke-opacity:1"
     id="tspan5557-1" /><tspan
     sodipodi:role="line"
     x="8.3595419"
     y="12.565811"
     style="font-size:5.33333349px;fill:#ffffff;fill-opacity:1;stroke:none;stroke-width:0.32144168;stroke-opacity:1"
     id="tspan1790">01. 0:00 NIGHT TRAVELER - ‘Put Your Money On Me’ </tspan><tspan
     sodipodi:role="line"
     x="8.3595419"
     y="19.386822"
     style="font-size:5.33333349px;fill:#ffffff;fill-opacity:1;stroke:none;stroke-width:0.32144168;stroke-opacity:1"
     id="tspan1796">02. 3:09 The Money War - ‘Lifetime’</tspan><tspan
     sodipodi:role="line"
     x="8.3595419"
     y="26.207832"
     style="font-size:5.33333349px;fill:#ffffff;fill-opacity:1;stroke:none;stroke-width:0.32144168;stroke-opacity:1"
     id="tspan1802">03. 6:20 Francis Moon - ‘Eyes On You’</tspan><tspan
     sodipodi:role="line"
     x="8.3595419"
     y="33.028847"
     style="font-size:5.33333349px;fill:#ffffff;fill-opacity:1;stroke:none;stroke-width:0.32144168;stroke-opacity:1"
     id="tspan1808">04. 9:26 Spacey Jane - ‘Booster Seat’</tspan><tspan
     sodipodi:role="line"
     x="8.3595419"
     y="39.849857"
     style="font-size:5.33333349px;fill:#ffffff;fill-opacity:1;stroke:none;stroke-width:0.32144168;stroke-opacity:1"
     id="tspan1814">05. 13:50 Somebody’s Child - ‘Hold Me Like You Wanna’</tspan><tspan
     sodipodi:role="line"
     x="8.3595419"
     y="46.670872"
     style="font-size:5.33333349px;fill:#ffffff;fill-opacity:1;stroke:none;stroke-width:0.32144168;stroke-opacity:1"
     id="tspan1820">06. 17:44 ØZWALD  - ‘After the Glowin’</tspan><tspan
     sodipodi:role="line"
     x="8.3595419"
     y="53.491879"
     style="font-size:5.33333349px;fill:#ffffff;fill-opacity:1;stroke:none;stroke-width:0.32144168;stroke-opacity:1"
     id="tspan1826">07. 20:35 Wild Front - ‘Two’</tspan><tspan
     sodipodi:role="line"
     x="8.3595419"
     y="60.312893"
     style="font-size:5.33333349px;fill:#ffffff;fill-opacity:1;stroke:none;stroke-width:0.32144168;stroke-opacity:1"
     id="tspan1832">08. 24:36 Frills - ‘I’m Going Under’</tspan><tspan
     sodipodi:role="line"
     x="8.3595419"
     y="67.133904"
     style="font-size:5.33333349px;fill:#ffffff;fill-opacity:1;stroke:none;stroke-width:0.32144168;stroke-opacity:1"
     id="tspan1838">09. 27:47 Kios - ‘Be Alright’</tspan><tspan
     sodipodi:role="line"
     x="8.3595419"
     y="73.954918"
     style="font-size:5.33333349px;fill:#ffffff;fill-opacity:1;stroke:none;stroke-width:0.32144168;stroke-opacity:1"
     id="tspan1844">10. 30:58 LOUD HOUND - ‘Keep Ya Head Up’</tspan><tspan
     sodipodi:role="line"
     x="8.3595419"
     y="80.775932"
     style="font-size:5.33333349px;fill:#ffffff;fill-opacity:1;stroke:none;stroke-width:0.32144168;stroke-opacity:1"
     id="tspan1850">11. 34:25 Some Sprouts - 'Summer Daze’</tspan><tspan
     sodipodi:role="line"
     x="8.3595419"
     y="87.596939"
     style="font-size:5.33333349px;fill:#ffffff;fill-opacity:1;stroke:none;stroke-width:0.32144168;stroke-opacity:1"
     id="tspan1856">12. 37:40 Dancing On Tables - ‘Riviera’</tspan><tspan
     sodipodi:role="line"
     x="8.3595419"
     y="94.417953"
     style="font-size:5.33333349px;fill:#ffffff;fill-opacity:1;stroke:none;stroke-width:0.32144168;stroke-opacity:1"
     id="tspan1862">13. 40:46 Honeywhip - ‘Think About U’</tspan><tspan
     sodipodi:role="line"
     x="8.3595419"
     y="101.23897"
     style="font-size:5.33333349px;fill:#ffffff;fill-opacity:1;stroke:none;stroke-width:0.32144168;stroke-opacity:1"
     id="tspan1868">14. 43:42 naavi – ‘something to tell’</tspan><tspan
     sodipodi:role="line"
     x="8.3595419"
     y="108.05997"
     style="font-size:5.33333349px;fill:#ffffff;fill-opacity:1;stroke:none;stroke-width:0.32144168;stroke-opacity:1"
     id="tspan1874">15. 46:39 Grand Lotus - ‘The Feeling’</tspan><tspan
     sodipodi:role="line"
     x="8.3595419"
     y="114.88099"
     style="font-size:5.33333349px;fill:#ffffff;fill-opacity:1;stroke:none;stroke-width:0.32144168;stroke-opacity:1"
     id="tspan1880">16. 50:04 The Solarists - ’Lonely’</tspan><tspan
     sodipodi:role="line"
     x="8.3595419"
     y="121.702"
     style="font-size:5.33333349px;fill:#ffffff;fill-opacity:1;stroke:none;stroke-width:0.32144168;stroke-opacity:1"
     id="tspan1886">17. 53:25 Caity Krone - ‘I’ve Been Lonely’</tspan><tspan
     sodipodi:role="line"
     x="8.3595419"
     y="128.52301"
     style="font-size:5.33333349px;fill:#ffffff;fill-opacity:1;stroke:none;stroke-width:0.32144168;stroke-opacity:1"
     id="tspan1892">18. 56:42 Rowan - 'Moonlight’</tspan><tspan
     sodipodi:role="line"
     x="8.3595419"
     y="135.34401"
     style="font-size:5.33333349px;fill:#ffffff;fill-opacity:1;stroke:none;stroke-width:0.32144168;stroke-opacity:1"
     id="tspan1898">19. 1:00:41 Carolines - ‘Money’</tspan><tspan
     sodipodi:role="line"
     x="8.3595419"
     y="142.16502"
     style="font-size:5.33333349px;fill:#ffffff;fill-opacity:1;stroke:none;stroke-width:0.32144168;stroke-opacity:1"
     id="tspan1904">20. 1:03:53 Chris George Bancroft - ‘Don’t Want to Die’</tspan><tspan
     sodipodi:role="line"
     x="8.3595419"
     y="148.98604"
     style="font-size:5.33333349px;fill:#ffffff;fill-opacity:1;stroke:none;stroke-width:0.32144168;stroke-opacity:1"
     id="tspan1910">21. 1:07:25 Polar States - ‘2020’</tspan><tspan
     sodipodi:role="line"
     x="8.3595419"
     y="155.80705"
     style="font-size:5.33333349px;fill:#ffffff;fill-opacity:1;stroke:none;stroke-width:0.32144168;stroke-opacity:1"
     id="tspan1916">22. 1:10:42 Tenderfoot – ‘The Balance’</tspan><tspan
     sodipodi:role="line"
     x="8.3595419"
     y="162.62807"
     style="font-size:5.33333349px;fill:#ffffff;fill-opacity:1;stroke:none;stroke-width:0.32144168;stroke-opacity:1"
     id="tspan1922">23. 1:14:31 Lachlan - ‘Too Bad’</tspan><tspan
     sodipodi:role="line"
     x="8.3595419"
     y="169.44907"
     style="font-size:5.33333349px;fill:#ffffff;fill-opacity:1;stroke:none;stroke-width:0.32144168;stroke-opacity:1"
     id="tspan1928">24. 1:17:01 Kloudink - ‘June Flower’</tspan><tspan
     sodipodi:role="line"
     x="8.3595419"
     y="176.27008"
     style="font-size:5.33333349px;fill:#ffffff;fill-opacity:1;stroke:none;stroke-width:0.32144168;stroke-opacity:1"
     id="tspan1934">25. 1:20:46 Jaguar Sun – ‘Keep You Warm’</tspan></text>











	 
	 
        
	 
	 

<path
   style="font-size:14.41752338px;fill:none;fill-opacity:0.94117647;stroke:#ffffff;stroke-width:0.4579747;stroke-miterlimit:2;stroke-dasharray:0.64104331, 0.45788809;stroke-dashoffset:0;stroke-opacity:1"
   d="m 225.18036,19.947873 c -0.22175,2.169919 -0.36536,5.221119 -0.50225,7.188923 -0.2456,3.531069 -0.36438,4.696359 -0.36438,4.696359 -0.0908,0.78886 0.34511,1.956005 0.75973,1.637127 0.63012,-0.484573 0.76104,-1.285579 0.71863,-1.777955 0,0 0.11982,-1.200123 0.0269,-4.107762 -0.0717,-2.240078 -0.36669,-4.124922 -0.63853,-7.636692 z"
   id="path2697"
   inkscape:connector-curvature="0"
   sodipodi:nodetypes="cscscsc"
   class="letters" /><path
   style="font-size:14.41752338px;fill:none;fill-opacity:0.94117647;stroke:#ffffff;stroke-width:0.4579747;stroke-miterlimit:2;stroke-dasharray:0.64104331, 0.45788809;stroke-dashoffset:0;stroke-opacity:1"
   d="m 223.02741,30.372331 c -1.04819,7.892676 -3.97361,11.173694 -3.97361,11.173694 -0.54488,0.667375 -0.73257,1.895068 -0.35703,2.218098 0.35317,0.303774 1.27003,-0.172714 1.70235,-0.708523 0.68008,-0.826104 3.04359,-3.566333 2.62829,-12.683269 z"
   id="path2699"
   inkscape:connector-curvature="0"
   sodipodi:nodetypes="ccscc" /><path
   style="font-size:14.41752338px;fill:none;fill-opacity:0.94117647;stroke:#ffffff;stroke-width:0.4579747;stroke-miterlimit:2;stroke-dasharray:0.64104331, 0.45788809;stroke-dashoffset:0;stroke-opacity:1"
   d="m 227.89565,28.828401 c -0.54003,7.819306 2.07219,11.467272 2.07219,11.467272 0.70202,1.16544 1.6266,1.160444 1.6266,1.160444 0.28889,0.02789 0.61112,-0.169948 0.57966,-0.66048 0,0 0.0503,-0.62527 -0.6456,-1.518589 0,0 -2.70406,-3.039747 -3.63285,-10.448647 z"
   id="path2701"
   inkscape:connector-curvature="0"
   sodipodi:nodetypes="cccccc"
   class="letters" /><path
   style="font-size:14.41752338px;fill:none;fill-opacity:0.94117647;stroke:#ffffff;stroke-width:0.4579747;stroke-miterlimit:2;stroke-dasharray:0.64104331, 0.45788809;stroke-dashoffset:0;stroke-opacity:1"
   d="m 225.18239,36.144123 c 0.89135,5.552377 1.66952,9.745818 1.66952,9.745818 0.1672,0.928494 0.0805,1.718949 -0.19247,2.042755 -0.14934,0.180951 -0.3538,0.362276 -0.6776,0.371322 -0.27092,0.008 -0.53586,-0.179767 -0.7487,-0.443788 -0.22237,-0.321637 -0.53538,-0.668143 -0.44253,-2.525131 0,0 0.0575,-4.158553 0.39178,-9.190976 z"
   id="path2703"
   inkscape:connector-curvature="0"
   sodipodi:nodetypes="ccccccc"
   class="letters" /><path
   style="font-size:14.41752338px;fill:none;fill-opacity:0.94117647;stroke:#ffffff;stroke-width:0.4579747;stroke-miterlimit:2;stroke-dasharray:0.64104331, 0.45788809;stroke-dashoffset:0;stroke-opacity:1"
   d="m 218.54297,46.449344 c -2.08597,2.512203 -3.20137,2.065324 -3.95751,2.013132 -1.05281,-0.104513 -1.62507,0.336765 -1.62507,0.336765 -0.62395,0.409294 -0.62439,1.053102 -0.62439,1.053102 -0.0912,0.968362 1.14397,1.223616 1.14397,1.223616 1.61939,0.155317 2.54739,-0.934093 2.54739,-0.934093 0,0 1.88749,-2.034228 2.51561,-3.692522 z"
   id="path2705"
   inkscape:connector-curvature="0"
   sodipodi:nodetypes="ccccccc"
   class="letters" /><path
   style="font-size:14.41752338px;fill:none;fill-opacity:0.94117647;stroke:#ffffff;stroke-width:0.4579747;stroke-miterlimit:2;stroke-dasharray:0.64104331, 0.45788809;stroke-dashoffset:0;stroke-opacity:1"
   d="m 222.96729,46.263287 c -0.78178,4.663648 -1.24932,6.47417 -2.13892,8.442049 -0.19859,0.430278 -0.51111,1.076662 -0.51342,1.711459 0,0 -0.13108,0.596663 0.19993,1.035369 0.1672,0.231588 0.61464,0.58898 1.15807,0.144804 0.43133,-0.37739 0.83754,-0.752161 1.08018,-1.965259 0,0 0.942,-5.40563 0.21416,-9.368375 z"
   id="path2707"
   inkscape:connector-curvature="0"
   sodipodi:nodetypes="ccccccc"
   class="letters" /><path
   style="font-size:14.41752338px;fill:none;fill-opacity:0.94117647;stroke:#ffffff;stroke-width:0.4579747;stroke-miterlimit:2;stroke-dasharray:0.64104331, 0.45788809;stroke-dashoffset:0;stroke-opacity:1"
   d="m 229.89298,44.888092 c 2.57157,3.90479 6.00077,4.790006 6.00077,4.790006 0.58541,0.18939 1.26286,0.2355 1.79281,0.711776 0.80048,0.727017 0.17265,1.591362 -0.35735,1.794635 -0.42223,0.161785 -0.94181,0.07879 -1.33383,-0.03737 -1.4042,-0.499283 -4.41734,-1.860756 -6.1024,-7.259172 z"
   id="path2709"
   inkscape:connector-curvature="0"
   sodipodi:nodetypes="cccccc"
   class="letters" /><path
   style="font-size:14.41752338px;fill:none;fill-opacity:0.94117647;stroke:#ffffff;stroke-width:0.4579747;stroke-miterlimit:2;stroke-dasharray:0.64104331, 0.45788809;stroke-dashoffset:0;stroke-opacity:1"
   d="m 234.83419,58.753488 c 0.94664,-0.01297 1.02511,-1.011799 1.02511,-1.011799 0.14764,-0.91704 -1.03838,-1.651533 -1.03838,-1.651533 -3.36301,-2.727788 -4.98154,-6.763984 -4.98154,-6.763984 0.40408,4.840031 3.41428,8.487901 3.41428,8.487901 0.66957,0.978778 1.58053,0.939415 1.58053,0.939415 z"
   id="path2711"
   inkscape:connector-curvature="0"
   sodipodi:nodetypes="cccccc"
   class="letters" /><path
   style="font-size:14.41752338px;fill:none;fill-opacity:0.94117647;stroke:#ffffff;stroke-width:0.4579747;stroke-miterlimit:2;stroke-dasharray:0.64104331, 0.45788809;stroke-dashoffset:0;stroke-opacity:1"
   d="m 216.29877,52.201725 c -1.81538,3.514148 -4.05861,4.879846 -5.04809,5.620501 -0.64255,0.417255 -0.92247,0.950838 -1.09852,1.344846 -0.2832,0.736286 0.17284,1.71838 0.17284,1.71838 0.96439,1.544622 2.51757,-0.248589 2.51757,-0.248589 1.52581,-1.510062 2.20208,-3.600835 2.20208,-3.600835 0.70585,-1.934196 1.25404,-4.834303 1.25404,-4.834303 z"
   id="path2713"
   inkscape:connector-curvature="0"
   sodipodi:nodetypes="ccccccc"
   class="letters" /><path
   style="font-size:14.41752338px;fill:none;fill-opacity:0.94117647;stroke:#ffffff;stroke-width:0.4579747;stroke-miterlimit:2;stroke-dasharray:0.64104331, 0.45788809;stroke-dashoffset:0;stroke-opacity:1"
   d="m 225.73053,52.385467 c 0,0 -0.18831,3.577119 1.77105,11.478369 0.26364,1.128335 0.79633,1.54959 0.62595,2.593163 -0.10642,0.766691 -0.808,2.018147 -2.18466,0.708802 -0.48984,-0.681508 -0.71052,-1.478742 -0.79569,-3.054734 0,0 0.0296,-8.893085 0.58335,-11.7256 z"
   id="path2715"
   inkscape:connector-curvature="0"
   sodipodi:nodetypes="cccccc"
   class="letters" /><path
   style="font-size:14.41752338px;fill:none;fill-opacity:0.94117647;stroke:#ffffff;stroke-width:0.4579747;stroke-miterlimit:2;stroke-dasharray:0.64104331, 0.45788809;stroke-dashoffset:0;stroke-opacity:1"
   d="m 218.09551,60.926465 c 0,0 -0.58947,2.025397 -2.58875,4.537584 -0.50422,0.620609 -0.60264,1.092499 -0.57548,1.476395 0.0645,0.428984 0.56883,1.288685 1.6557,0.611936 0.44608,-0.290914 0.69617,-0.958894 0.98507,-1.818854 0,0 0.52251,-1.286519 0.52346,-4.807061 z"
   id="path2717"
   inkscape:connector-curvature="0"
   sodipodi:nodetypes="cccccc"
   class="letters" /><path
   style="font-size:14.41752338px;fill:none;fill-opacity:0.94117647;stroke:#ffffff;stroke-width:0.4579747;stroke-miterlimit:2;stroke-dasharray:0.64104331, 0.45788809;stroke-dashoffset:0;stroke-opacity:1"
   d="m 234.78701,61.355322 c 0,0 3.3556,1.82722 6.06271,2.342374 1.37374,0.252536 2.59907,0.335163 3.41727,0.557397 1.42425,0.353527 1.53892,2.629596 0.054,2.912437 0,0 -0.88855,0.368397 -2.71686,-0.358896 0,0 -3.51306,-1.134681 -6.81719,-5.453312 z"
   id="path3212"
   inkscape:connector-curvature="0"
   sodipodi:nodetypes="cccccc"
   class="letters" /><path
   style="font-size:14.41752338px;fill:none;fill-opacity:0.94117647;stroke:#ffffff;stroke-width:0.4579747;stroke-miterlimit:2;stroke-dasharray:0.64104331, 0.45788809;stroke-dashoffset:0;stroke-opacity:1"
   d="m 229.84342,60.526039 c 0.8335,4.663567 2.58391,7.747778 3.55634,9.15677 0.65484,0.992254 1.58051,0.900779 1.97742,0.503877 0.59536,-0.535814 0.75742,-1.716733 -0.13579,-2.510536 0,0 -2.30232,-2.248406 -5.39814,-7.150111 z"
   id="path3214"
   inkscape:connector-curvature="0"
   sodipodi:nodetypes="ccccc"
   class="letters" /><path
   style="font-size:14.41752338px;fill:none;fill-opacity:0.94117647;stroke:#ffffff;stroke-width:0.4579747;stroke-miterlimit:2;stroke-dasharray:0.64104331, 0.45788809;stroke-dashoffset:0;stroke-opacity:1"
   d="m 222.73335,60.664336 c 0,0 -1.41385,6.820044 -4.10961,12.308526 -0.36848,0.640008 -0.38862,1.598937 -0.17529,1.986825 0.56244,1.047265 1.42795,1.775934 2.92127,0.185636 0.80234,-0.896136 0.94647,-3.184117 1.16992,-5.668992 0.28591,-3.179488 0.47756,-7.092208 0.19375,-8.811998 z"
   id="path3216"
   inkscape:connector-curvature="0"
   sodipodi:nodetypes="ccccsc"
   class="letters" /><path
   style="font-size:14.41752338px;fill:none;fill-opacity:0.94117647;stroke:#ffffff;stroke-width:0.4579747;stroke-miterlimit:2;stroke-dasharray:0.64104331, 0.45788809;stroke-dashoffset:0;stroke-opacity:1"
   d="m 228.79156,69.525146 c 0,0 2.13476,3.994714 5.11316,5.726717 0.63126,0.372294 1.04378,0.449517 1.49702,1.129356 0.31631,0.464661 0.25731,1.882148 -1.14642,2.376787 0,0 -1.11986,0.538031 -2.22054,-0.934967 0,0 -2.48244,-2.486785 -3.24322,-8.297893 z"
   id="path3218"
   inkscape:connector-curvature="0"
   sodipodi:nodetypes="cccccc"
   class="letters" /><path
   style="font-size:14.41752338px;fill:none;fill-opacity:0.94117647;stroke:#ffffff;stroke-width:0.4579747;stroke-miterlimit:2;stroke-dasharray:0.64104331, 0.45788809;stroke-dashoffset:0;stroke-opacity:1"
   d="m 227.02841,74.269284 c 1.01755,3.668917 2.71283,6.241934 5.16802,7.81494 1.27993,0.797324 0.82702,2.41435 -0.13147,3.245198 -0.39155,0.339488 -1.29545,0.872818 -2.20362,0.465908 -0.84081,-0.376721 -1.53122,-1.969832 -1.82532,-2.654962 -1.42912,-3.161454 -1.20089,-4.924002 -1.00777,-8.871084 z"
   id="path3220"
   inkscape:connector-curvature="0"
   sodipodi:nodetypes="ccssccc"
   class="letters" /><path
   style="font-size:14.41752338px;fill:none;fill-opacity:0.94117647;stroke:#ffffff;stroke-width:0.4579747;stroke-miterlimit:2;stroke-dasharray:0.64104331, 0.45788809;stroke-dashoffset:0;stroke-opacity:1"
   d="m 224.09655,71.42609 c -1.41572,7.873941 -3.36234,9.21576 -4.39019,10.107867 -1.31882,0.911526 -1.53976,1.859872 -1.53976,1.859872 -0.42667,1.900604 1.1572,3.131064 2.98021,1.967423 0,0 5.08305,-3.462426 2.94974,-13.935162 z"
   id="path3222"
   inkscape:connector-curvature="0"
   sodipodi:nodetypes="ccccc"
   class="letters" /><path
   style="font-size:14.41752338px;fill:none;fill-opacity:0.94117647;stroke:#ffffff;stroke-width:0.4579747;stroke-miterlimit:2;stroke-dasharray:0.64104331, 0.45788809;stroke-dashoffset:0;stroke-opacity:1"
   d="m 236.73884,73.352697 c 3.73086,5.338309 5.37235,6.19812 7.5156,7.547579 1.52805,0.714431 1.87383,1.685264 1.87383,1.685264 0.21828,0.615207 0.0903,2.013843 -1.67591,2.132917 0,0 -0.77627,0.186826 -1.98679,-0.964184 0,0 -4.65511,-4.368702 -5.72673,-10.401576 z"
   id="path3224"
   inkscape:connector-curvature="0"
   sodipodi:nodetypes="cccccc"
   class="letters" /><path
   style="font-size:14.41752338px;fill:none;fill-opacity:0.94117647;stroke:#ffffff;stroke-width:0.4579747;stroke-miterlimit:2;stroke-dasharray:0.64104331, 0.45788809;stroke-dashoffset:0;stroke-opacity:1"
   d="m 226.24961,85.215158 c -0.5943,2.026199 -1.91664,2.654641 -2.65637,4.282613 -0.92575,2.037337 -1.11031,4.843 2.01986,4.911201 4.89262,-0.05258 4.18645,-4.143544 1.68988,-6.902961 -0.54303,-0.640001 -0.89822,-1.359937 -1.05337,-2.290853 z"
   id="path3226"
   inkscape:connector-curvature="0"
   sodipodi:nodetypes="csccc"
   class="letters" /><path
   style="font-size:14.41752338px;fill:none;fill-opacity:0.94117647;stroke:#ffffff;stroke-width:0.4579747;stroke-miterlimit:2;stroke-dasharray:0.64104331, 0.45788809;stroke-dashoffset:0;stroke-opacity:1"
   d="m 204.79363,73.489474 c 0,0 -4.57096,1.39194 -8.512,-0.253394 -2.45063,-1.245619 -3.76552,1.881467 -2.52182,2.707451 3.37527,1.834287 9.86713,-0.857454 11.03382,-2.454057 z"
   id="path3230"
   inkscape:connector-curvature="0"
   sodipodi:nodetypes="cccc"
   class="letters" /><path
   style="font-size:14.41752338px;fill:none;fill-opacity:0.94117647;stroke:#ffffff;stroke-width:0.4579747;stroke-miterlimit:2;stroke-dasharray:0.64104331, 0.45788809;stroke-dashoffset:0;stroke-opacity:1"
   d="m 210.86084,72.126559 c -0.99819,1.079136 -3.29887,2.801353 -4.72174,3.552543 -2.09901,1.108178 -3.45972,1.388364 -4.05268,2.728288 -0.40918,0.942083 -0.42268,2.088156 0.10605,2.597157 0.5489,0.528403 2.14037,0.153212 2.99975,-0.439435 0,0 4.21398,-3.376724 5.66856,-8.438553 z"
   id="path3232"
   inkscape:connector-curvature="0"
   sodipodi:nodetypes="cscscc"
   class="letters" /><path
   style="font-size:14.41752338px;fill:none;fill-opacity:0.94117647;stroke:#ffffff;stroke-width:0.4579747;stroke-miterlimit:2;stroke-dasharray:0.64104331, 0.45788809;stroke-dashoffset:0;stroke-opacity:1"
   d="m 215.9445,72.818486 c -0.91413,2.009926 -2.28603,3.960558 -3.69352,5.529528 -1.74547,1.94573 -3.76068,2.78833 -4.72074,4.882117 -0.68609,1.369857 -0.0444,3.041813 1.00476,3.312567 0.9954,0.25696 2.08002,-0.320857 2.87195,-1.35674 0,0 3.1412,-3.620803 4.53755,-12.367472 z"
   id="path3234"
   inkscape:connector-curvature="0"
   sodipodi:nodetypes="cscscc"
   class="letters" /><path
   style="font-size:14.41752338px;fill:none;fill-opacity:0.94117647;stroke:#ffffff;stroke-width:0.4579747;stroke-miterlimit:2;stroke-dasharray:0.64104331, 0.45788809;stroke-dashoffset:0;stroke-opacity:1"
   d="m 239.6314,69.583598 c 3.81024,2.06387 5.08566,2.206779 6.95109,2.286153 0,0 1.97144,-0.324631 2.60649,1.024839 0.29766,0.773938 -0.37494,2.20511 -1.94268,2.046345 -1.50821,-0.19845 -5.19379,-1.944013 -7.6149,-5.357337 z"
   id="path3236"
   inkscape:connector-curvature="0"
   sodipodi:nodetypes="ccccc"
   class="letters" /><path
   style="font-size:14.41752338px;fill:none;fill-opacity:0.94117647;stroke:#ffffff;stroke-width:0.4579747;stroke-miterlimit:2;stroke-dasharray:0.64104331, 0.45788809;stroke-dashoffset:0;stroke-opacity:1"
   d="m 245.86092,77.34178 c 1.90509,0.773952 4.45229,0.917267 7.38933,-0.213901 0,0 1.1561,-0.583771 2.16821,-0.02815 0.51597,0.297694 1.43102,1.809908 -0.0969,2.564012 -2.05535,0.879422 -7.30183,0.428481 -9.46051,-2.321991 z"
   id="path3238"
   inkscape:connector-curvature="0"
   sodipodi:nodetypes="ccccc"
   class="letters" /><path
   style="font-size:14.41752338px;fill:none;fill-opacity:0.94117647;stroke:#ffffff;stroke-width:0.4579747;stroke-miterlimit:2;stroke-dasharray:0.64104331, 0.45788809;stroke-dashoffset:0;stroke-opacity:1"
   d="m 189.83309,78.213486 c 1.7491,2.973446 10.9901,13.234762 14.69235,15.741788 -1.10777,0.845376 -1.54507,1.340969 -1.25353,2.944275 -1.50138,-0.876619 -9.12439,-6.675678 -13.08901,-15.829236 0,0 -0.58301,-1.574178 -0.34981,-2.856827 z"
   id="path3240"
   inkscape:connector-curvature="0"
   sodipodi:nodetypes="ccccc"
   class="letters" /><path
   style="font-size:14.41752338px;fill:none;fill-opacity:0.94117647;stroke:#ffffff;stroke-width:0.4579747;stroke-miterlimit:2;stroke-dasharray:0.64104331, 0.45788809;stroke-dashoffset:0;stroke-opacity:1"
   d="m 211.74697,64.110776 c -4.77092,4.421822 -5.47765,4.013448 -6.6219,4.226768 -1.45452,0.232734 -1.76236,1.177279 -1.76236,1.177279 -0.95034,2.036363 1.06418,2.259601 1.76236,2.143241 1.12484,-0.174538 4.00372,-1.244257 6.6219,-7.547288 z"
   id="path3242"
   inkscape:connector-curvature="0"
   sodipodi:nodetypes="ccccc"
   class="letters" /><path
   style="font-size:14.41752338px;fill:none;fill-opacity:0.94117647;stroke:#ffffff;stroke-width:0.4579747;stroke-miterlimit:2;stroke-dasharray:0.64104331, 0.45788809;stroke-dashoffset:0;stroke-opacity:1"
   d="m 186.93919,83.749748 c 7.21678,7.725832 15.15222,13.625031 15.15222,13.625031 -0.89834,-0.239566 -1.28763,1.018124 -1.10796,2.305756 -0.83848,-0.359308 -15.09235,-9.851924 -14.04426,-15.930787 z"
   id="path5884"
   inkscape:connector-curvature="0"
   sodipodi:nodetypes="cccc"
   class="letters" /><path
   style="font-size:14.41752338px;fill:none;fill-opacity:0.94117647;stroke:#ffffff;stroke-width:0.4579747;stroke-miterlimit:2;stroke-dasharray:0.64104331, 0.45788809;stroke-dashoffset:0;stroke-opacity:1"
   d="m 185.29217,90.128044 c 2.03628,1.916496 10.69043,7.186842 15.06243,10.271196 -0.59888,0.29945 -0.50906,1.88655 -0.14989,2.63516 -1.1379,-0.23955 -16.82916,-8.714037 -14.91268,-12.906356 z"
   id="path5886"
   inkscape:connector-curvature="0"
   sodipodi:nodetypes="cccc"
   class="letters" /><path
   style="font-size:14.41752338px;fill:none;fill-opacity:0.94117647;stroke:#ffffff;stroke-width:0.4579747;stroke-miterlimit:2;stroke-dasharray:0.64104331, 0.45788809;stroke-dashoffset:0;stroke-opacity:1"
   d="m 184.42419,95.978259 c 0.48095,0.795071 3.81058,2.400566 6.95258,3.95669 4.05009,2.005841 8.05602,3.929581 8.05602,3.929581 -0.96611,0.8987 -0.65156,2.56133 -0.11249,3.14551 -1.68512,-0.29209 -15.45796,-6.69546 -14.89626,-11.031781 z"
   id="path5888"
   inkscape:connector-curvature="0"
   sodipodi:nodetypes="csccc"
   class="letters" /><path
   style="font-size:14.41752338px;fill:none;fill-opacity:0.94117647;stroke:#ffffff;stroke-width:0.4579747;stroke-miterlimit:2;stroke-dasharray:0.64104331, 0.45788809;stroke-dashoffset:0;stroke-opacity:1"
   d="m 182.73907,101.79747 c 1.87989,1.0724 6.95032,2.84931 10.78671,4.0153 3.41118,1.03674 5.3004,1.8039 5.3004,1.8039 -0.87629,0.83132 -0.96616,2.11199 0.58414,3.34771 -2.7411,-0.69648 -16.69369,-5.54957 -16.67125,-9.16691 z"
   id="path5890"
   inkscape:connector-curvature="0"
   sodipodi:nodetypes="csccc"
   class="letters" /><path
   style="font-size:14.41752338px;fill:none;fill-opacity:0.94117647;stroke:#ffffff;stroke-width:0.4579747;stroke-miterlimit:2;stroke-dasharray:0.64104331, 0.45788809;stroke-dashoffset:0;stroke-opacity:1"
   d="m 184.6264,108.33564 c 2.01359,0.82423 5.34538,1.32905 8.40915,1.97034 3.53411,0.73977 6.68934,1.55713 6.68934,1.55713 -0.33701,1.73003 0.47181,2.38161 1.64015,2.98825 -3.52749,0.20221 -17.0532,-3.0107 -16.73864,-6.51572 z"
   id="path5892"
   inkscape:connector-curvature="0"
   sodipodi:nodetypes="csccc"
   class="letters" /><path
   style="font-size:14.41752338px;fill:none;fill-opacity:0.94117647;stroke:#ffffff;stroke-width:0.4579747;stroke-miterlimit:2;stroke-dasharray:0.64104331, 0.45788809;stroke-dashoffset:0;stroke-opacity:1"
   d="m 186.62603,114.55927 c 0.76121,2.44032 5.19749,3.42641 9.50291,3.59868 4.33611,0.17348 8.53888,-0.47563 8.53888,-0.47563 -1.34808,-0.40442 -2.53888,-0.96612 -2.71861,-2.24679 0,0 -11.95296,0.83132 -15.32318,-0.87626 z"
   id="path5894"
   inkscape:connector-curvature="0"
   sodipodi:nodetypes="csccc"
   class="letters" /><path
   style="font-size:14.41752338px;fill:none;fill-opacity:0.94117647;stroke:#ffffff;stroke-width:0.4579747;stroke-miterlimit:2;stroke-dasharray:0.64104331, 0.45788809;stroke-dashoffset:0;stroke-opacity:1"
   d="m 190.71522,121.11994 c 3.34583,0.18644 6.68831,-0.72629 9.34355,-1.44946 3.10401,-0.84539 5.32803,-1.5388 5.32803,-1.5388 0.20221,0.87626 1.30315,1.37055 2.92084,0.94364 -0.303,0.57034 -2.18192,1.84123 -5.04504,2.75091 -3.77733,1.20019 -8.90488,1.70923 -12.54738,-0.70629 z"
   id="path5896"
   inkscape:connector-curvature="0"
   sodipodi:nodetypes="csccsc"
   class="letters" /><path
   style="font-size:14.41752338px;fill:none;fill-opacity:0.94117647;stroke:#ffffff;stroke-width:0.4579747;stroke-miterlimit:2;stroke-dasharray:0.64104331, 0.45788809;stroke-dashoffset:0;stroke-opacity:1"
   d="m 196.8265,126.89418 c 0,0 7.5942,-1.03353 12.55961,-7.5043 0.62911,0.76391 1.03354,1.41548 2.51642,0.87625 -5.50466,7.95366 -14.40199,7.1448 -15.07603,6.62805 z"
   id="path5898"
   inkscape:connector-curvature="0"
   sodipodi:nodetypes="cccc"
   class="letters" /><path
   style="font-size:14.41752338px;fill:none;fill-opacity:0.94117647;stroke:#ffffff;stroke-width:0.4579747;stroke-miterlimit:2;stroke-dasharray:0.64104331, 0.45788809;stroke-dashoffset:0;stroke-opacity:1"
   d="m 213.58763,119.90664 c 0.69648,0.74145 1.28068,0.78638 3.23538,-0.40441 -3.52749,9.50394 -9.41407,9.79602 -10.98683,9.75108 0,0 5.48217,-3.01069 7.75145,-9.34667 z"
   id="path5900"
   inkscape:connector-curvature="0"
   sodipodi:nodetypes="cccc"
   class="letters" /><path
   style="font-size:14.41752338px;fill:none;fill-opacity:0.94117647;stroke:#ffffff;stroke-width:0.4579747;stroke-miterlimit:2;stroke-dasharray:0.64104331, 0.45788809;stroke-dashoffset:0;stroke-opacity:1"
   d="m 262.42766,78.152076 c -1.74908,2.973448 -10.99009,13.234755 -14.69232,15.741779 1.10775,0.845393 1.54502,1.340967 1.25351,2.944296 1.50138,-0.876642 9.1244,-6.67568 13.089,-15.829234 0,0 0.58303,-1.574178 0.34981,-2.856841 z"
   id="path3240-9"
   inkscape:connector-curvature="0"
   sodipodi:nodetypes="ccccc"
   class="letters" /><path
   style="font-size:14.41752338px;fill:none;fill-opacity:0.94117647;stroke:#ffffff;stroke-width:0.4579747;stroke-miterlimit:2;stroke-dasharray:0.64104331, 0.45788809;stroke-dashoffset:0;stroke-opacity:1"
   d="m 265.32157,83.688324 c -7.21677,7.725845 -15.15224,13.625038 -15.15224,13.625038 0.89836,-0.239561 1.28765,1.018134 1.10798,2.305774 0.83846,-0.359342 15.09234,-9.851949 14.04426,-15.930812 z"
   id="path5884-9"
   inkscape:connector-curvature="0"
   sodipodi:nodetypes="cccc"
   class="letters" /><path
   style="font-size:14.41752338px;fill:none;fill-opacity:0.94117647;stroke:#ffffff;stroke-width:0.4579747;stroke-miterlimit:2;stroke-dasharray:0.64104331, 0.45788809;stroke-dashoffset:0;stroke-opacity:1"
   d="m 266.96856,90.066637 c -2.03627,1.916489 -10.69042,7.186833 -15.06241,10.271183 0.59891,0.29945 0.50907,1.88654 0.14973,2.63517 1.13791,-0.23956 16.82917,-8.714034 14.91268,-12.906353 z"
   id="path5886-8"
   inkscape:connector-curvature="0"
   sodipodi:nodetypes="cccc"
   class="letters" /><path
   style="font-size:14.41752338px;fill:none;fill-opacity:0.94117647;stroke:#ffffff;stroke-width:0.4579747;stroke-miterlimit:2;stroke-dasharray:0.64104331, 0.45788809;stroke-dashoffset:0;stroke-opacity:1"
   d="m 267.83656,95.916845 c -0.48096,0.795061 -3.81057,2.400576 -6.95258,3.95668 -4.05009,2.005835 -8.05602,3.929575 -8.05602,3.929575 0.96612,0.89872 0.65157,2.56135 0.11234,3.14552 1.6851,-0.29208 15.45796,-6.69546 14.89626,-11.031775 z"
   id="path5888-1"
   inkscape:connector-curvature="0"
   sodipodi:nodetypes="csccc"
   class="letters" /><path
   style="font-size:14.41752338px;fill:none;fill-opacity:0.94117647;stroke:#ffffff;stroke-width:0.4579747;stroke-miterlimit:2;stroke-dasharray:0.64104331, 0.45788809;stroke-dashoffset:0;stroke-opacity:1"
   d="m 269.52166,101.73605 c -1.87986,1.0724 -6.95029,2.84932 -10.78668,4.01529 -3.41117,1.03675 -5.30038,1.80391 -5.30038,1.80391 0.87625,0.83132 0.96612,2.112 -0.58417,3.34773 2.74109,-0.6965 16.6937,-5.54959 16.67123,-9.16693 z"
   id="path5890-7"
   inkscape:connector-curvature="0"
   sodipodi:nodetypes="csccc"
   class="letters" /><path
   style="font-size:14.41752338px;fill:none;fill-opacity:0.94117647;stroke:#ffffff;stroke-width:0.4579747;stroke-miterlimit:2;stroke-dasharray:0.64104331, 0.45788809;stroke-dashoffset:0;stroke-opacity:1"
   d="m 267.63435,108.27423 c -2.01359,0.82422 -5.34538,1.32904 -8.40915,1.97035 -3.53411,0.73975 -6.68932,1.55712 -6.68932,1.55712 0.33702,1.73004 -0.47183,2.38161 -1.64017,2.98824 3.52747,0.20221 17.05319,-3.01071 16.73864,-6.51571 z"
   id="path5892-2"
   inkscape:connector-curvature="0"
   sodipodi:nodetypes="csccc"
   class="letters" /><path
   style="font-size:14.41752338px;fill:none;fill-opacity:0.94117647;stroke:#ffffff;stroke-width:0.4579747;stroke-miterlimit:2;stroke-dasharray:0.64104331, 0.45788809;stroke-dashoffset:0;stroke-opacity:1"
   d="m 265.6347,114.49786 c -0.7612,2.44032 -5.19745,3.42642 -9.5029,3.59867 -4.3361,0.17348 -8.53888,-0.47562 -8.53888,-0.47562 1.34808,-0.40443 2.53888,-0.96613 2.71863,-2.2468 0,0 11.95296,0.83131 15.32315,-0.87625 z"
   id="path5894-5"
   inkscape:connector-curvature="0"
   sodipodi:nodetypes="csccc"
   class="letters" /><path
   style="font-size:14.41752338px;fill:none;fill-opacity:0.94117647;stroke:#ffffff;stroke-width:0.4579747;stroke-miterlimit:2;stroke-dasharray:0.64104331, 0.45788809;stroke-dashoffset:0;stroke-opacity:1"
   d="m 261.54553,121.05851 c -3.34583,0.18645 -6.6883,-0.72628 -9.34354,-1.44944 -3.10402,-0.84539 -5.32804,-1.5388 -5.32804,-1.5388 -0.20221,0.87625 -1.30315,1.37054 -2.92084,0.94365 0.30299,0.57033 2.18194,1.84121 5.04504,2.7509 3.77733,1.20017 8.9049,1.70923 12.54738,-0.70631 z"
   id="path5896-9"
   inkscape:connector-curvature="0"
   sodipodi:nodetypes="csccsc"
   class="letters" /><path
   style="font-size:14.41752338px;fill:none;fill-opacity:0.94117647;stroke:#ffffff;stroke-width:0.4579747;stroke-miterlimit:2;stroke-dasharray:0.64104331, 0.45788809;stroke-dashoffset:0;stroke-opacity:1"
   d="m 255.43424,126.83277 c 0,0 -7.59417,-1.03352 -12.55959,-7.5043 -0.62911,0.76391 -1.03353,1.41548 -2.51641,0.87625 5.50465,7.95366 14.40196,7.14481 15.076,6.62805 z"
   id="path5898-9"
   inkscape:connector-curvature="0"
   sodipodi:nodetypes="cccc"
   class="letters" /><path
   style="font-size:14.41752338px;fill:none;fill-opacity:0.94117647;stroke:#ffffff;stroke-width:0.4579747;stroke-miterlimit:2;stroke-dasharray:0.64104331, 0.45788809;stroke-dashoffset:0;stroke-opacity:1"
   d="m 238.67314,119.84523 c -0.69651,0.74145 -1.28068,0.78638 -3.23539,-0.40442 3.52747,9.50395 9.41408,9.79604 10.98684,9.7511 0,0 -5.48219,-3.01071 -7.75145,-9.34668 z"
   id="path5900-7"
   inkscape:connector-curvature="0"
   sodipodi:nodetypes="cccc"
   class="letters" /><path
   style="font-size:14.41752338px;fill:none;fill-opacity:0.94117647;stroke:#ffffff;stroke-width:0.4579747;stroke-miterlimit:2;stroke-dasharray:0.64104331, 0.45788809;stroke-dashoffset:0;stroke-opacity:1"
   d="m 197.53963,129.46816 c -0.34495,3.0184 -3.73706,9.51509 -4.16825,11.92983 -0.45592,2.23296 0.87792,5.33242 4.11126,5.36205 3.25979,0.03 5.45967,-3.02445 3.76531,-7.11559 -0.57494,-1.37985 -2.50095,-5.51933 -3.70832,-10.17629 z"
   id="path5956"
   inkscape:connector-curvature="0"
   sodipodi:nodetypes="ccscc"
   class="letters" /><path
   style="font-size:14.41752338px;fill:none;fill-opacity:0.94117647;stroke:#ffffff;stroke-width:0.4579747;stroke-miterlimit:2;stroke-dasharray:0.64104331, 0.45788809;stroke-dashoffset:0;stroke-opacity:1"
   d="m 255.29152,129.35316 c -1.00613,4.71445 -3.21962,8.82522 -3.79453,10.72249 -1.75526,5.657 2.95106,7.52468 5.7312,6.14303 2.22773,-1.10712 2.42715,-3.60401 1.88665,-5.82681 -0.40248,-1.8398 -2.78845,-6.353 -3.82332,-11.03871 z"
   id="path5958"
   inkscape:connector-curvature="0"
   sodipodi:nodetypes="ccscc"
   class="letters" /><path
   style="font-size:14.41752338px;fill:none;fill-opacity:0.94117647;stroke:#ffffff;stroke-width:0.4579747;stroke-miterlimit:2;stroke-dasharray:0.64104331, 0.45788809;stroke-dashoffset:0;stroke-opacity:1"
   d="m 218.66356,100.51902 c -0.20167,-0.0314 -0.57385,-0.1843 -0.75594,-0.47967 -0.42964,-0.696855 -0.49214,-2.008778 0.30075,-2.875706 0.50722,-0.603373 1.43435,-1.170666 2.8039,-1.205463 0.86595,-0.0218 2.04271,0.303793 3.11564,0.857741 0.36465,0.17349 0.84737,0.604637 0.49675,1.550491 -0.0682,0.250146 -0.25589,1.264469 0.31614,1.746187 -0.005,0 0.56499,0.45158 0.7677,0.79781 0.27563,0.45701 0.25495,0.6678 0.083,0.87614 -0.25633,0.3104 -0.54648,0.40757 -0.91083,0.46361 -0.42148,0.0602 -2.71897,0.29393 -4.10953,-1.64081 -0.18055,-0.25592 -0.72257,-0.918263 -0.27098,-1.41501 0,0 1.98703,1.74618 3.64289,1.43006 0.25158,-0.046 -0.12995,-0.36769 -0.48168,-0.37634 -0.66236,-0.0145 -1.33975,-0.587089 -1.83652,-1.038671 -0.50862,-0.407752 -1.76972,-0.515377 -2.28809,-0.09032 -0.67739,0.602136 -1.03868,0.225819 -0.8731,1.399961 z"
   id="path5960"
   inkscape:connector-curvature="0"
   sodipodi:nodetypes="cscsccccscccccccc"
   class="letters" /><path
   style="font-size:14.41752338px;fill:none;fill-opacity:0.94117647;stroke:#ffffff;stroke-width:0.4579747;stroke-miterlimit:2;stroke-dasharray:0.64104331, 0.45788809;stroke-dashoffset:0;stroke-opacity:1"
   d="m 205.68667,94.56625 c -1.2119,-0.04534 -1.70779,0.974845 -1.12483,2.591028 0.0412,0.102101 0.0306,0.112121 -0.12545,0.07877 -1.99649,-0.4285 -3.30801,1.442153 -1.50102,3.109032 0.13016,0.11292 -0.0671,0.22856 -0.16287,0.18307 -1.78919,-0.84768 -3.21926,2.39255 -0.49971,3.03172 0.16419,0.0386 0.16193,0.22304 -0.10717,0.20315 -3.20862,-0.22166 -3.6226,2.83458 -0.56789,3.35389 0.24181,0.0411 0.11646,0.44781 -0.23661,0.41415 -2.57459,-0.24829 -2.98896,3.56752 0.16834,3.02486 0.22106,-0.0379 0.24898,0.0463 0.0734,0.13816 -2.19042,1.10556 -0.80081,4.56955 1.76139,3.09716 0.1627,-0.0935 0.29695,0.0481 0.21186,0.14043 -1.25345,1.68211 -0.35637,3.56525 2.17964,1.93848 0.20537,-0.13557 0.13336,0.14416 0.0999,0.28144 -0.44833,1.83251 1.35392,2.95123 3.14568,1.0818 0.13277,-0.15189 0.18938,-0.0145 0.20593,0.16931 0.17905,1.98733 2.47708,2.4103 3.36119,9e-4 0.0663,-0.21665 0.23221,-0.0203 0.23294,0.12087 0.0112,2.28306 2.82029,3.1411 3.31634,-0.0182 0.0266,-0.20266 0.11176,-0.32869 0.15103,-0.20044 0.46237,1.51007 1.28349,2.62542 2.25057,2.84502 -0.43571,-1.45153 -0.82641,-3.49005 -1.13305,-5.23289 -0.19378,-1.10114 -0.35802,-1.79302 -0.15423,-2.48895 0.22379,-1.07647 1.19553,-2.53489 1.98882,-3.29487 -0.0931,-0.30896 -0.74828,-0.51928 -1.59205,-0.0663 -1.16368,0.64494 -2.86765,1.03054 -4.55285,0.56608 -0.88442,-0.29765 -1.62604,-0.8385 -2.10827,-1.32067 -0.66259,-0.6625 -0.85968,-1.09024 -0.85804,-1.8822 -0.0262,-1.26957 0.79158,-2.50037 1.99155,-4.59905 0.53386,-0.93366 1.02096,-1.59316 1.63554,-2.790108 0.36988,-0.738126 0.68075,-1.878704 0.25092,-2.030568 -3.00249,-0.987869 -5.14377,-1.655514 -7.73845,-2.358908 -0.20133,-0.05138 -0.3893,-0.07969 -0.56242,-0.08592 z m 0.37124,1.628567 c 0,0 0.14011,-0.146259 0.28006,-0.09788 1.69403,0.662634 3.49868,1.268644 5.29681,1.775164 0.30731,0.09509 0.20054,0.323972 0.13165,0.407735 -2.63548,3.137974 -4.16281,6.961974 -4.08699,9.588024 0.18964,4.6074 5.54974,4.05804 8.0715,3.41337 0.30336,-0.057 0.40904,0.1914 0.2384,0.28738 -1.09568,0.57955 -5.41773,1.99781 -8.02845,0.16703 -3.58903,-2.60152 -1.00014,-9.2383 -1.00014,-9.2383 0.89533,-2.02562 1.6057,-3.221931 2.00278,-3.665607 0.14371,-0.160493 0.0197,-0.293031 -0.10605,-0.330411 0,0 -1.82217,-0.670063 -2.56779,-1.049275 -0.37192,-0.171017 -0.48057,-1.026651 -0.23181,-1.257205 z"
   id="path5962"
   inkscape:connector-curvature="0"
   sodipodi:nodetypes="cccccccsccccccccccsccccccccccccccscccccccccccccc"
   class="letters" /><path
   style="font-size:14.41752338px;fill:none;fill-opacity:0.94117647;stroke:#ffffff;stroke-width:0.4579747;stroke-miterlimit:2;stroke-dasharray:0.64104331, 0.45788809;stroke-dashoffset:0;stroke-opacity:1"
   d="m 246.59851,94.616425 c 1.21191,-0.04534 1.70779,0.974845 1.12485,2.591038 -0.0411,0.10211 -0.0305,0.112121 0.12544,0.07859 1.99648,-0.428463 3.30796,1.44218 1.50102,3.109087 -0.13015,0.11277 0.0671,0.22853 0.16287,0.18304 1.78922,-0.847679 3.21926,2.39258 0.49973,3.0317 -0.1642,0.0387 -0.16175,0.22306 0.10703,0.20319 3.20863,-0.22166 3.62261,2.83459 0.56792,3.3539 -0.24182,0.0411 -0.11659,0.4478 0.2366,0.41414 2.57458,-0.2483 2.98897,3.56751 -0.16833,3.02485 -0.22108,-0.0379 -0.24898,0.0463 -0.0732,0.13832 2.19041,1.10556 0.80081,4.56954 -1.76137,3.09716 -0.16271,-0.0935 -0.29698,0.048 -0.2119,0.14044 1.25346,1.68211 0.35638,3.56521 -2.17964,1.93847 -0.20538,-0.13559 -0.13332,0.14416 -0.0998,0.28143 0.44836,1.83252 -1.35393,2.95124 -3.14567,1.08181 -0.13278,-0.15193 -0.18939,-0.0145 -0.20593,0.16932 -0.17904,1.98733 -2.47712,2.41029 -3.36122,9.1e-4 -0.0663,-0.21667 -0.23221,-0.0203 -0.23291,0.12085 -0.0112,2.28306 -2.8203,3.14107 -3.31638,-0.0182 -0.0266,-0.20265 -0.11149,-0.32868 -0.15101,-0.20044 -0.46237,1.51009 -1.25249,2.80974 -1.98969,3.06767 0.20353,-1.45806 0.57978,-2.81279 0.77638,-4.1913 0.19376,-1.10115 0.37223,-3.45533 0.40339,-4.17487 0.025,-0.92325 -0.0463,-1.82588 -0.0735,-2.7008 -0.0169,-0.34005 0.80786,0.22535 1.17067,0.31675 1.29776,0.33846 1.81411,0.32181 2.90553,0.01 0.8844,-0.29769 1.626,-0.83851 2.10825,-1.32071 0.66256,-0.66248 0.85965,-1.09023 0.85802,-1.88217 0.0263,-1.26956 -0.79155,-2.50038 -1.99155,-4.59905 -0.53384,-0.93369 -1.02093,-1.59318 -1.63553,-2.790103 -0.36987,-0.738127 -0.68076,-1.878721 -0.25089,-2.030576 3.00247,-0.987861 5.14374,-1.655515 7.73843,-2.3589 0.20131,-0.05129 0.38929,-0.0796 0.56242,-0.08591 z m -0.37121,1.628558 c 0,0 -0.14014,-0.146249 -0.28007,-0.09788 -1.69403,0.662644 -3.4987,1.268636 -5.2968,1.775174 -0.3073,0.0951 -0.20055,0.323971 -0.13165,0.407726 2.63552,3.137967 4.16283,6.961977 4.08698,9.588007 -0.1896,4.60743 -4.45788,4.00057 -7.15204,3.64324 -0.30338,-0.057 -0.73466,0.0956 -0.56405,0.19162 2.13003,0.40713 4.82393,1.86368 7.43465,0.033 3.58902,-2.60151 1.00013,-9.23834 1.00013,-9.23834 -0.89531,-2.0256 -1.60571,-3.221925 -2.00276,-3.665583 -0.14371,-0.160483 -0.0198,-0.293003 0.10605,-0.330392 0,0 1.82216,-0.670081 2.56778,-1.049284 0.37195,-0.171026 0.48056,-1.02665 0.23182,-1.257241 z"
   id="path5962-8"
   inkscape:connector-curvature="0"
   sodipodi:nodetypes="cccccccsccccccccccsccccccccccccccscccccccccccccc"
   class="letters" /><path
   style="font-size:14.41752338px;fill:none;fill-opacity:0.94117647;stroke:#ffffff;stroke-width:0.4579747;stroke-miterlimit:2;stroke-dasharray:0.64104331, 0.45788809;stroke-dashoffset:0;stroke-opacity:1"
   d="m 225.34136,97.24477 c -0.24232,0.09837 -0.0471,0.991514 -0.11796,1.389366 -0.07,0.391999 -0.0961,0.730315 0.024,0.99768 0.24868,0.497374 1.28682,0.559074 1.24538,2.026284 -0.032,0.67152 -0.41261,0.99962 -1.21332,1.13925 -0.58369,0.082 -1.30899,0.0539 -2.11316,-0.0341 -0.2025,-0.0206 -0.40145,-0.0743 -0.5318,0.0353 -0.16193,0.16875 -0.71903,0.84315 -1.66229,1.71301 -1.44636,1.3339 -2.58756,2.05906 -4.30801,4.54739 1.1192,-0.74613 3.012,-0.87558 3.012,-0.87558 0.73548,-0.0214 0.7408,0.44998 0.33577,1.00427 0,0 -1.17214,1.33963 -1.68381,2.60806 1.48163,-0.10661 4.15254,-2.3454 4.15254,-2.3454 0.58626,-0.45835 0.89958,0.11585 0.87829,0.41419 -0.18134,1.95061 0.76448,3.73771 1.20153,3.78034 -0.19188,-0.93801 1.26757,-3.2508 1.26757,-3.2508 0.33044,-0.58628 1.33166,-0.56494 1.8433,-0.2132 0.85273,0.63956 1.69176,3.1144 1.69176,3.1144 0.99129,-0.57559 0.61519,-2.11472 0.61519,-2.11472 -0.18112,-1.0126 -0.11808,-1.97909 0.0516,-2.27725 0.18956,-0.32647 1.3983,0.72691 2.42139,1.23865 1.34014,0.67035 2.28445,1.00132 2.28445,1.00132 0,0 -0.0253,-0.40908 -0.0533,-0.75561 -0.55678,-0.23167 -1.2031,-1.71768 -1.44321,-2.63685 -0.14784,-0.61243 -0.32771,-1.50787 -0.4586,-2.73288 -0.062,-0.50272 -0.18187,-2.48599 -0.18934,-3.58313 -0.006,-1.32189 -0.1006,-2.590443 -0.1006,-2.590443 -0.0286,-0.387098 -0.13674,-1.268956 -0.85342,-1.496579 -1.7271,-0.596356 -3.76966,-1.102519 -5.85859,-0.348189 z"
   id="path5992"
   inkscape:connector-curvature="0"
   sodipodi:nodetypes="cscccccsccccccccccccsccccscccc"
   class="letters" /><path
   style="font-size:14.41752338px;fill:none;fill-opacity:0.94117647;stroke:#ffffff;stroke-width:0.4579747;stroke-miterlimit:2;stroke-dasharray:0.64104331, 0.45788809;stroke-dashoffset:0;stroke-opacity:1"
   d="m 222.28088,110.58849 c -0.75835,1.1283 -4.35986,2.31733 -4.35986,2.31733 2.29356,12.30014 5.60441,19.91273 9.11086,28.5638 4.18816,-10.5118 6.18609,-20.94599 7.27702,-29.32215 -1.93354,-0.91073 -3.26489,-2.03854 -3.26489,-2.03854 0.63048,2.85826 -1.53522,5.37632 -1.53522,5.37632 0,0 -1.47199,-2.66368 -2.69097,-4.42907 -1.37305,1.93353 -2.44152,4.10622 -2.44152,4.10622 0,0 -1.89195,-1.91041 -2.09542,-4.57391 z"
   id="path5994"
   inkscape:connector-curvature="0"
   sodipodi:nodetypes="ccccccccc"
   class="letters" /><path
   style="font-size:14.41752338px;fill:none;fill-opacity:0.94117647;stroke:#ffffff;stroke-width:0.4579747;stroke-miterlimit:2;stroke-dasharray:0.64104331, 0.45788809;stroke-dashoffset:0;stroke-opacity:1"
   d="m 220.77534,128.27028 c 0.67984,2.40368 1.78333,5.41888 1.78333,5.41888 -7.33247,11.70278 -11.87207,12.51897 -11.87207,12.51897 0,0 6.78669,-8.54164 10.08874,-17.93785 z"
   id="path5996"
   inkscape:connector-curvature="0"
   sodipodi:nodetypes="cccc"
   class="letters" /><path
   style="font-size:14.41752338px;fill:none;fill-opacity:0.94117647;stroke:#ffffff;stroke-width:0.4579747;stroke-miterlimit:2;stroke-dasharray:0.64104331, 0.45788809;stroke-dashoffset:0;stroke-opacity:1"
   d="m 232.06328,128.56166 c 5.92421,12.64966 10.44679,17.44973 10.44679,17.44973 0,0 -4.1729,-0.23489 -11.6753,-12.49611 0,0 1.05855,-3.10841 1.22851,-4.95362 z"
   id="path5998"
   inkscape:connector-curvature="0"
   sodipodi:nodetypes="cccc"
   class="letters" /><path
   style="font-size:14.41752338px;fill:none;fill-opacity:0.94117647;stroke:#ffffff;stroke-width:0.4579747;stroke-miterlimit:2;stroke-dasharray:0.64104331, 0.45788809;stroke-dashoffset:0;stroke-opacity:1"
   d="m 229.09108,138.98415 c 0,0 0.81074,-1.83667 1.46627,-4.24033 6.72545,12.81962 11.02587,16.55612 11.02587,16.55612 0,0 -3.24163,1.64498 -12.49214,-12.31579 z"
   id="path6000"
   inkscape:connector-curvature="0"
   sodipodi:nodetypes="cccc"
   class="letters" /><path
   style="font-size:14.41752338px;fill:none;fill-opacity:0.94117647;stroke:#ffffff;stroke-width:0.4579747;stroke-miterlimit:2;stroke-dasharray:0.64104331, 0.45788809;stroke-dashoffset:0;stroke-opacity:1"
   d="m 228.85332,139.81638 c -0.65557,1.7724 -1.73729,3.76339 -1.73729,3.76339 0,0 -1.19308,-1.9642 -2.01859,-3.83371 0.43704,13.03812 2.5427,18.66148 2.5427,18.66148 0,0 1.72302,-6.52421 1.21318,-18.59116 z"
   id="path6002"
   inkscape:connector-curvature="0"
   sodipodi:nodetypes="ccccc"
   class="letters" /><path
   style="font-size:14.41752338px;fill:none;fill-opacity:0.94117647;stroke:#ffffff;stroke-width:0.4579747;stroke-miterlimit:2;stroke-dasharray:0.64104331, 0.45788809;stroke-dashoffset:0;stroke-opacity:1"
   d="m 222.94211,134.44353 c 0.75266,2.08804 1.70155,4.35281 1.70155,4.35281 -8.5707,13.45089 -12.71709,12.50107 -12.71709,12.50107 0,0 4.58146,-4.20421 11.01554,-16.85388 z"
   id="path6004"
   inkscape:connector-curvature="0"
   sodipodi:nodetypes="cccc"
   class="letters" /><path
   inkscape:connector-curvature="0"
   style="font-size:14.41752338px;fill:none;fill-opacity:0.94117647;stroke:#ffffff;stroke-width:0.4579747;stroke-miterlimit:2;stroke-dasharray:0.64104331, 0.45788809;stroke-dashoffset:0;stroke-opacity:1"
   d="m 224.99311,15.374986 -35.57982,58.181097 c -37.91252,58.764427 3.06242,88.073787 36.30879,88.219597 37.18345,0.43746 72.61717,-28.14296 38.20426,-85.886657 z m 0.11809,2.765842 35.10481,54.264348 c 39.09111,64.294654 -3.47182,86.605134 -34.33327,87.119484 -25.97502,0.25717 -73.29582,-24.36786 -35.74773,-83.90471 z"
   id="path6006"
   class="letters" /><path
   style="font-size:14.41752338px;fill:none;fill-opacity:0.94117647;stroke:#ffffff;stroke-width:0.4579747;stroke-miterlimit:2;stroke-dasharray:0.64104331, 0.45788809;stroke-dashoffset:0;stroke-opacity:1"
   d="m 225.15463,10.312309 -39.62918,65.22157 c -34.76135,56.721291 3.5438,85.952621 35.54868,88.714991 3.02618,0.2837 6.75305,0.35914 10.67763,0.005 29.43305,-3.04808 75.15307,-25.70662 29.60396,-98.057866 z"
   id="path6012"
   inkscape:connector-curvature="0"
   sodipodi:nodetypes="cccccc"
   class="outerFrame" /></svg>