<?xml version="1.0" encoding="UTF-8" standalone="no"?>
<svg
   xmlns:dc="http://purl.org/dc/elements/1.1/"
   xmlns:cc="http://creativecommons.org/ns#"
   xmlns:rdf="http://www.w3.org/1999/02/22-rdf-syntax-ns#"
   xmlns:svg="http://www.w3.org/2000/svg"
   xmlns="http://www.w3.org/2000/svg"
   xmlns:sodipodi="http://sodipodi.sourceforge.net/DTD/sodipodi-0.dtd"
   xmlns:inkscape="http://www.inkscape.org/namespaces/inkscape"
   id="svg843"
   xml:space="preserve"
   enable-background="new 0 0 370.4 370.4"
   viewBox="0 0 300 205"
   height="205"
   width="300"
   y="0px"
   x="0px"
   version="1.1"
   sodipodi:docname="Inhalt_Video_x_7.g.svg"
   inkscape:version="0.92.3 (2405546, 2018-03-11)"><sodipodi:namedview
   pagecolor="#ffffff"
   bordercolor="#666666"
   borderopacity="1"
   objecttolerance="10"
   gridtolerance="10"
   guidetolerance="10"
   inkscape:pageopacity="0"
   inkscape:pageshadow="2"
   inkscape:window-width="823"
   inkscape:window-height="433"
   id="namedview913"
   showgrid="false"
   inkscape:zoom="3.3133095"
   inkscape:cx="141.55522"
   inkscape:cy="48.10665"
   inkscape:window-x="728"
   inkscape:window-y="111"
   inkscape:window-maximized="0"
   inkscape:current-layer="svg843" /><metadata
   id="metadata849"><rdf:RDF><cc:Work
       rdf:about=""><dc:format>image/svg+xml</dc:format><dc:type
         rdf:resource="http://purl.org/dc/dcmitype/StillImage" /><dc:title /></cc:Work></rdf:RDF></metadata><defs
   id="defs847" />
    
    
    
<style
   id="style870">
												.letters {animation: spinLeft 120s linear infinite; }
												.outerFrame { animation: spinRight 90s linear infinite; }
												.innerFrame { animation: spinRight 90s linear infinite; }
												@-webkit-keyframes spinLeft {to {stroke-dashoffset: -500;} }
												@keyframes spinLeft {to {stroke-dashoffset: -500;} }
												@-webkit-keyframes spinRight {to {stroke-dashoffset: 500;} }
												@keyframes spinRight {to {stroke-dashoffset: 500;} }
</style>		
		

   
   <rect
   y="-21.509462"
   x="-11.77407"
   height="255.74835"
   width="330.04922"
   id="rect872"
   style="opacity:0.77;fill:#ff5700;fill-opacity:0.722;stroke:#d615cd;stroke-width:0.63594788;stroke-linecap:square;stroke-linejoin:miter;stroke-miterlimit:10;stroke-dasharray:0.89015881, 0.63582771999999999;stroke-dashoffset:0;stroke-opacity:1;paint-order:markers stroke fill" />









<rect
   style="fill:none;stroke:#d1f6f1;stroke-width:0.955;stroke-miterlimit:10;stroke-dasharray:3.32688565,2.37632643;stroke-dashoffset:0;stroke-opacity:1;stroke-linejoin:round"
   id="rect1498"
   width="292.41983"
   height="196.3661"
   x="3.8385439"
   y="5.2456131"
   class="innerFrame" />


<g
   inkscape:groupmode="layer"
   id="layer1"
   inkscape:label="Layer 1"
   style="display:none" /><g
   inkscape:groupmode="layer"
   id="layer2"
   inkscape:label="Layer 2">
	 </g>
	 

	 
	 
	 <text
   xml:space="preserve"
   style="font-style:normal;font-variant:normal;font-weight:normal;font-stretch:normal;font-size:7.82101154px;line-height:1;font-family:Arial;-inkscape-font-specification:'Arial, Normal';font-variant-ligatures:normal;font-variant-caps:normal;font-variant-numeric:normal;text-align:start;letter-spacing:0px;word-spacing:0px;writing-mode:lr-tb;text-anchor:start;fill:#ffffff;fill-opacity:1;stroke:none;stroke-width:1.38756263;stroke-miterlimit:2;stroke-dasharray:1.94222056, 1.3873004;stroke-dashoffset:0;stroke-opacity:1"
   x="7.4394631"
   y="0.033333767"
   id="text1460-2"
   class=""
   transform="scale(1.0228856,0.97762647)"><tspan
     sodipodi:role="line"
     x="7.4394631"
     y="6.1005182"
     style="font-size:7.82101154px;fill:#ffffff;fill-opacity:1;stroke:none;stroke-width:0.32144168;stroke-opacity:1"
     id="tspan5557-1" /><tspan
     sodipodi:role="line"
     x="7.4394631"
     y="13.92153"
     style="font-size:6.51750946px;fill:#ffffff;fill-opacity:1;stroke:none;stroke-width:0.32144168;stroke-opacity:1"
     id="tspan1790">0:00 NIGHT TRAVELER - ‘Put Your Money On Me’ </tspan><tspan
     sodipodi:role="line"
     x="7.4394631"
     y="21.74254"
     style="font-size:6.51750946px;fill:#ffffff;fill-opacity:1;stroke:none;stroke-width:0.32144168;stroke-opacity:1"
     id="tspan1796">3:09 The Money War - ‘Lifetime’</tspan><tspan
     sodipodi:role="line"
     x="7.4394631"
     y="29.563553"
     style="font-size:6.51750946px;fill:#ffffff;fill-opacity:1;stroke:none;stroke-width:0.32144168;stroke-opacity:1"
     id="tspan1802">6:20 Francis Moon - ‘Eyes On You’</tspan><tspan
     sodipodi:role="line"
     x="7.4394631"
     y="37.384563"
     style="font-size:6.51750946px;fill:#ffffff;fill-opacity:1;stroke:none;stroke-width:0.32144168;stroke-opacity:1"
     id="tspan1808">9:26 Spacey Jane - ‘Booster Seat’</tspan><tspan
     sodipodi:role="line"
     x="7.4394631"
     y="45.205574"
     style="font-size:6.51750946px;fill:#ffffff;fill-opacity:1;stroke:none;stroke-width:0.32144168;stroke-opacity:1"
     id="tspan1814">13:50 Somebody’s Child - ‘Hold Me Like You Wanna’</tspan><tspan
     sodipodi:role="line"
     x="7.4394631"
     y="53.026588"
     style="font-size:6.51750946px;fill:#ffffff;fill-opacity:1;stroke:none;stroke-width:0.32144168;stroke-opacity:1"
     id="tspan1820">17:44 ØZWALD  - ‘After the Glowin’</tspan><tspan
     sodipodi:role="line"
     x="7.4394631"
     y="60.847599"
     style="font-size:6.51750946px;fill:#ffffff;fill-opacity:1;stroke:none;stroke-width:0.32144168;stroke-opacity:1"
     id="tspan1826">20:35 Wild Front - ‘Two’</tspan><tspan
     sodipodi:role="line"
     x="7.4394631"
     y="68.66861"
     style="font-size:6.51750946px;fill:#ffffff;fill-opacity:1;stroke:none;stroke-width:0.32144168;stroke-opacity:1"
     id="tspan1832">24:36 Frills - ‘I’m Going Under’</tspan><tspan
     sodipodi:role="line"
     x="7.4394631"
     y="76.489624"
     style="font-size:6.51750946px;fill:#ffffff;fill-opacity:1;stroke:none;stroke-width:0.32144168;stroke-opacity:1"
     id="tspan1838">27:47 Kios - ‘Be Alright’</tspan><tspan
     sodipodi:role="line"
     x="7.4394631"
     y="84.310631"
     style="font-size:6.51750946px;fill:#ffffff;fill-opacity:1;stroke:none;stroke-width:0.32144168;stroke-opacity:1"
     id="tspan1844">30:58 LOUD HOUND - ‘Keep Ya Head Up’</tspan><tspan
     sodipodi:role="line"
     x="7.4394631"
     y="92.131645"
     style="font-size:6.51750946px;fill:#ffffff;fill-opacity:1;stroke:none;stroke-width:0.32144168;stroke-opacity:1"
     id="tspan1850">34:25 Some Sprouts - 'Summer Daze’</tspan><tspan
     sodipodi:role="line"
     x="7.4394631"
     y="99.95266"
     style="font-size:6.51750946px;fill:#ffffff;fill-opacity:1;stroke:none;stroke-width:0.32144168;stroke-opacity:1"
     id="tspan1856">37:40 Dancing On Tables - ‘Riviera’</tspan><tspan
     sodipodi:role="line"
     x="7.4394631"
     y="107.77367"
     style="font-size:6.51750946px;fill:#ffffff;fill-opacity:1;stroke:none;stroke-width:0.32144168;stroke-opacity:1"
     id="tspan1862">40:46 Honeywhip - ‘Think About U’</tspan><tspan
     sodipodi:role="line"
     x="7.4394631"
     y="115.59468"
     style="font-size:6.51750946px;fill:#ffffff;fill-opacity:1;stroke:none;stroke-width:0.32144168;stroke-opacity:1"
     id="tspan1868">43:42 naavi – ‘something to tell’</tspan><tspan
     sodipodi:role="line"
     x="7.4394631"
     y="123.41569"
     style="font-size:6.51750946px;fill:#ffffff;fill-opacity:1;stroke:none;stroke-width:0.32144168;stroke-opacity:1"
     id="tspan1874">46:39 Grand Lotus - ‘The Feeling’</tspan><tspan
     sodipodi:role="line"
     x="7.4394631"
     y="131.23671"
     style="font-size:6.51750946px;fill:#ffffff;fill-opacity:1;stroke:none;stroke-width:0.32144168;stroke-opacity:1"
     id="tspan1880">50:04 The Solarists - ’Lonely’</tspan><tspan
     sodipodi:role="line"
     x="7.4394631"
     y="139.05771"
     style="font-size:6.51750946px;fill:#ffffff;fill-opacity:1;stroke:none;stroke-width:0.32144168;stroke-opacity:1"
     id="tspan1886">53:25 Caity Krone - ‘I’ve Been Lonely’</tspan><tspan
     sodipodi:role="line"
     x="7.4394631"
     y="146.87872"
     style="font-size:6.51750946px;fill:#ffffff;fill-opacity:1;stroke:none;stroke-width:0.32144168;stroke-opacity:1"
     id="tspan1892">56:42 Rowan - 'Moonlight’</tspan><tspan
     sodipodi:role="line"
     x="7.4394631"
     y="154.69974"
     style="font-size:6.51750946px;fill:#ffffff;fill-opacity:1;stroke:none;stroke-width:0.32144168;stroke-opacity:1"
     id="tspan1898">1:00:41 Carolines - ‘Money’</tspan><tspan
     sodipodi:role="line"
     x="7.4394631"
     y="162.52075"
     style="font-size:6.51750946px;fill:#ffffff;fill-opacity:1;stroke:none;stroke-width:0.32144168;stroke-opacity:1"
     id="tspan1904">1:03:53 Chris George Bancroft - ‘Don’t Want to Die’</tspan><tspan
     sodipodi:role="line"
     x="7.4394631"
     y="170.34177"
     style="font-size:6.51750946px;fill:#ffffff;fill-opacity:1;stroke:none;stroke-width:0.32144168;stroke-opacity:1"
     id="tspan1910">1:07:25 Polar States - ‘2020’</tspan><tspan
     sodipodi:role="line"
     x="7.4394631"
     y="178.16277"
     style="font-size:6.51750946px;fill:#ffffff;fill-opacity:1;stroke:none;stroke-width:0.32144168;stroke-opacity:1"
     id="tspan1916">1:10:42 Tenderfoot – ‘The Balance’</tspan><tspan
     sodipodi:role="line"
     x="7.4394631"
     y="185.98378"
     style="font-size:6.51750946px;fill:#ffffff;fill-opacity:1;stroke:none;stroke-width:0.32144168;stroke-opacity:1"
     id="tspan1922">1:14:31 Lachlan - ‘Too Bad’</tspan><tspan
     sodipodi:role="line"
     x="7.4394631"
     y="193.80479"
     style="font-size:6.51750946px;fill:#ffffff;fill-opacity:1;stroke:none;stroke-width:0.32144168;stroke-opacity:1"
     id="tspan1928">1:17:01 Kloudink - ‘June Flower’</tspan><tspan
     sodipodi:role="line"
     x="7.4394631"
     y="201.62581"
     style="font-size:6.51750946px;fill:#ffffff;fill-opacity:1;stroke:none;stroke-width:0.32144168;stroke-opacity:1"
     id="tspan1934">1:20:46 Jaguar Sun – ‘Keep You Warm’</tspan></text>







	 
	 
        
	 
	 

<path
   style="fill:none;fill-opacity:1;stroke:#fbff00;stroke-width:0.37795276;stroke-linecap:butt;stroke-linejoin:miter;stroke-miterlimit:4;stroke-dasharray:none;stroke-opacity:1;opacity:0.51960784"
   d="m 230.02108,35.538496 c -0.24209,2.369038 -0.39889,5.700227 -0.54834,7.848602 -0.26814,3.855092 -0.39782,5.127314 -0.39782,5.127314 -0.0991,0.861248 0.37678,2.135495 0.82945,1.787355 0.68794,-0.529039 0.83088,-1.403548 0.78457,-1.941106 0,0 0.13081,-1.310251 0.0294,-4.484705 -0.0783,-2.445634 -0.40033,-4.503438 -0.69712,-8.33746 z"
   id="path2697"
   inkscape:connector-curvature="0"
   sodipodi:nodetypes="cscscsc" /><path
   style="fill:none;fill-opacity:1;stroke:#fbff00;stroke-width:0.37795276;stroke-linecap:butt;stroke-linejoin:miter;stroke-miterlimit:4;stroke-dasharray:none;stroke-opacity:1;opacity:0.51960784"
   d="m 227.67056,46.919538 c -1.14437,8.616935 -4.33823,12.199031 -4.33823,12.199031 -0.59489,0.728615 -0.7998,2.068965 -0.3898,2.421637 0.38559,0.33165 1.38658,-0.188563 1.85856,-0.77354 0.74249,-0.90191 3.32288,-3.893591 2.86947,-13.847128 z"
   id="path2699"
   inkscape:connector-curvature="0"
   sodipodi:nodetypes="ccscc" /><path
   style="fill:none;fill-opacity:1;stroke:#fbff00;stroke-width:0.37795276;stroke-linecap:butt;stroke-linejoin:miter;stroke-miterlimit:4;stroke-dasharray:none;stroke-opacity:1;opacity:0.51960784"
   d="m 232.98553,45.233931 c -0.58958,8.536833 2.26235,12.519548 2.26235,12.519548 0.76644,1.272385 1.77585,1.266931 1.77585,1.266931 0.31541,0.03045 0.66721,-0.185544 0.63285,-0.721088 0,0 0.0549,-0.682647 -0.70483,-1.657941 0,0 -2.9522,-3.318683 -3.96622,-11.40745 z"
   id="path2701"
   inkscape:connector-curvature="0"
   sodipodi:nodetypes="cccccc" /><path
   style="fill:none;fill-opacity:1;stroke:#fbff00;stroke-width:0.37795276;stroke-linecap:butt;stroke-linejoin:miter;stroke-miterlimit:4;stroke-dasharray:none;stroke-opacity:1;opacity:0.51960784"
   d="m 230.0233,53.220969 c 0.97314,6.061882 1.82272,10.640127 1.82272,10.640127 0.18254,1.013697 0.0879,1.876686 -0.21014,2.230206 -0.16304,0.197556 -0.38627,0.39552 -0.73977,0.405395 -0.29578,0.0088 -0.58504,-0.196262 -0.81741,-0.484511 -0.24277,-0.351152 -0.5845,-0.729455 -0.48313,-2.756845 0,0 0.0628,-4.540157 0.42773,-10.034372 z"
   id="path2703"
   inkscape:connector-curvature="0"
   sodipodi:nodetypes="ccccccc" /><path
   style="fill:none;fill-opacity:1;stroke:#fbff00;stroke-width:0.37795276;stroke-linecap:butt;stroke-linejoin:miter;stroke-miterlimit:4;stroke-dasharray:none;stroke-opacity:1;opacity:0.51960784"
   d="m 222.77462,64.471833 c -2.27739,2.74273 -3.49514,2.254844 -4.32067,2.197863 -1.14941,-0.114104 -1.77419,0.367668 -1.77419,0.367668 -0.68121,0.446852 -0.68168,1.149739 -0.68168,1.149739 -0.0996,1.057221 1.24894,1.335899 1.24894,1.335899 1.76799,0.169568 2.78115,-1.019809 2.78115,-1.019809 0,0 2.06069,-2.220896 2.74645,-4.03136 z"
   id="path2705"
   inkscape:connector-curvature="0"
   sodipodi:nodetypes="ccccccc" /><path
   style="fill:none;fill-opacity:1;stroke:#fbff00;stroke-width:0.37795276;stroke-linecap:butt;stroke-linejoin:miter;stroke-miterlimit:4;stroke-dasharray:none;stroke-opacity:1;opacity:0.51960784"
   d="m 227.60493,64.268702 c -0.85352,5.0916 -1.36396,7.068262 -2.33519,9.21672 -0.21682,0.469762 -0.55802,1.17546 -0.56053,1.868508 0,0 -0.14312,0.651415 0.21827,1.130379 0.18254,0.252839 0.67105,0.643026 1.26433,0.158092 0.47092,-0.412022 0.91441,-0.821182 1.17931,-2.145598 0,0 1.02844,-5.901669 0.23381,-10.228049 z"
   id="path2707"
   inkscape:connector-curvature="0"
   sodipodi:nodetypes="ccccccc" /><path
   style="fill:none;fill-opacity:1;stroke:#fbff00;stroke-width:0.37795276;stroke-linecap:butt;stroke-linejoin:miter;stroke-miterlimit:4;stroke-dasharray:none;stroke-opacity:1;opacity:0.51960784"
   d="m 235.16614,62.767315 c 2.80755,4.263107 6.55142,5.229553 6.55142,5.229553 0.63913,0.206768 1.37875,0.25711 1.95733,0.777091 0.87393,0.793731 0.18849,1.73739 -0.39014,1.959317 -0.46098,0.176631 -1.02823,0.08602 -1.45622,-0.04081 -1.53306,-0.545099 -4.8227,-2.031506 -6.66239,-7.925299 z"
   id="path2709"
   inkscape:connector-curvature="0"
   sodipodi:nodetypes="cccccc" /><path
   style="fill:none;fill-opacity:1;stroke:#fbff00;stroke-width:0.37795276;stroke-linecap:butt;stroke-linejoin:miter;stroke-miterlimit:4;stroke-dasharray:none;stroke-opacity:1;opacity:0.51960784"
   d="m 240.56078,77.905047 c 1.0335,-0.01416 1.11917,-1.104646 1.11917,-1.104646 0.16119,-1.00119 -1.13366,-1.803083 -1.13366,-1.803083 -3.67161,-2.978099 -5.43867,-7.38467 -5.43867,-7.38467 0.44117,5.284168 3.72759,9.266779 3.72759,9.266779 0.73102,1.068595 1.72557,1.02562 1.72557,1.02562 z"
   id="path2711"
   inkscape:connector-curvature="0"
   sodipodi:nodetypes="cccccc" /><path
   style="fill:none;fill-opacity:1;stroke:#fbff00;stroke-width:0.37795276;stroke-linecap:butt;stroke-linejoin:miter;stroke-miterlimit:4;stroke-dasharray:none;stroke-opacity:1;opacity:0.51960784"
   d="m 220.32448,70.752071 c -1.98196,3.836619 -4.43104,5.327638 -5.51132,6.136258 -0.7015,0.455544 -1.00712,1.03809 -1.19932,1.468253 -0.30919,0.80385 0.1887,1.876066 0.1887,1.876066 1.05289,1.686361 2.7486,-0.271401 2.7486,-0.271401 1.66581,-1.648631 2.40414,-3.931261 2.40414,-3.931261 0.77062,-2.111684 1.36911,-5.277915 1.36911,-5.277915 z"
   id="path2713"
   inkscape:connector-curvature="0"
   sodipodi:nodetypes="ccccccc" /><path
   style="fill:none;fill-opacity:1;stroke:#fbff00;stroke-width:0.37795276;stroke-linecap:butt;stroke-linejoin:miter;stroke-miterlimit:4;stroke-dasharray:none;stroke-opacity:1;opacity:0.51960784"
   d="m 230.62173,70.952674 c 0,0 -0.20559,3.905368 1.93357,12.531664 0.28784,1.231875 0.8694,1.691785 0.6834,2.83112 -0.1162,0.837045 -0.88215,2.20334 -2.38515,0.773844 -0.53478,-0.744045 -0.77571,-1.614436 -0.8687,-3.335046 0,0 0.0323,-9.709146 0.63688,-12.801582 z"
   id="path2715"
   inkscape:connector-curvature="0"
   sodipodi:nodetypes="cccccc" /><path
   style="fill:none;fill-opacity:1;stroke:#fbff00;stroke-width:0.37795276;stroke-linecap:butt;stroke-linejoin:miter;stroke-miterlimit:4;stroke-dasharray:none;stroke-opacity:1;opacity:0.51960784"
   d="m 222.2861,80.277424 c 0,0 -0.64356,2.211254 -2.8263,4.953968 -0.5505,0.677557 -0.65795,1.19275 -0.62829,1.611874 0.0704,0.468349 0.62102,1.406939 1.80763,0.668089 0.48701,-0.317609 0.76005,-1.046886 1.07547,-1.985758 0,0 0.57045,-1.404575 0.57149,-5.248173 z"
   id="path2717"
   inkscape:connector-curvature="0"
   sodipodi:nodetypes="cccccc" /><path
   style="fill:none;fill-opacity:1;stroke:#fbff00;stroke-width:0.37795276;stroke-linecap:butt;stroke-linejoin:miter;stroke-miterlimit:4;stroke-dasharray:none;stroke-opacity:1;opacity:0.51960784"
   d="m 240.50927,80.745634 c 0,0 3.66352,1.994891 6.61904,2.557318 1.4998,0.27571 2.83757,0.365919 3.73085,0.608545 1.55494,0.385968 1.68014,2.870898 0.0589,3.179693 0,0 -0.97008,0.402202 -2.96617,-0.39183 0,0 -3.83542,-1.238803 -7.44275,-5.953726 z"
   id="path3212"
   inkscape:connector-curvature="0"
   sodipodi:nodetypes="cccccc" /><path
   style="fill:none;fill-opacity:1;stroke:#fbff00;stroke-width:0.37795276;stroke-linecap:butt;stroke-linejoin:miter;stroke-miterlimit:4;stroke-dasharray:none;stroke-opacity:1;opacity:0.51960784"
   d="m 235.11204,79.840253 c 0.90998,5.091512 2.82101,8.45874 3.88268,9.997026 0.71494,1.083307 1.72555,0.983439 2.15888,0.550115 0.64998,-0.584983 0.82691,-1.874266 -0.14826,-2.740911 0,0 -2.51358,-2.454728 -5.89349,-7.80623 z"
   id="path3214"
   inkscape:connector-curvature="0"
   sodipodi:nodetypes="ccccc" /><path
   style="fill:none;fill-opacity:1;stroke:#fbff00;stroke-width:0.37795276;stroke-linecap:butt;stroke-linejoin:miter;stroke-miterlimit:4;stroke-dasharray:none;stroke-opacity:1;opacity:0.51960784"
   d="m 227.34953,79.991241 c 0,0 -1.5436,7.445874 -4.48673,13.437998 -0.40229,0.698738 -0.42428,1.745661 -0.19137,2.169143 0.61405,1.143365 1.55898,1.938899 3.18934,0.20267 0.87596,-0.978368 1.03331,-3.476301 1.27727,-6.189198 0.31214,-3.471248 0.52138,-7.743013 0.21153,-9.620616 z"
   id="path3216"
   inkscape:connector-curvature="0"
   sodipodi:nodetypes="ccccsc" /><path
   style="fill:none;fill-opacity:1;stroke:#fbff00;stroke-width:0.37795276;stroke-linecap:butt;stroke-linejoin:miter;stroke-miterlimit:4;stroke-dasharray:none;stroke-opacity:1;opacity:0.51960784"
   d="m 233.96365,89.665148 c 0,0 2.33066,4.361283 5.58237,6.252221 0.68918,0.406457 1.13956,0.490766 1.63438,1.23299 0.34535,0.507299 0.28093,2.054859 -1.25162,2.594888 0,0 -1.22261,0.587403 -2.42429,-1.020762 0,0 -2.71024,-2.714981 -3.54084,-9.059337 z"
   id="path3218"
   inkscape:connector-curvature="0"
   sodipodi:nodetypes="cccccc" /><path
   style="fill:none;fill-opacity:1;stroke:#fbff00;stroke-width:0.37795276;stroke-linecap:butt;stroke-linejoin:miter;stroke-miterlimit:4;stroke-dasharray:none;stroke-opacity:1;opacity:0.51960784"
   d="m 232.03872,94.844625 c 1.11091,4.00559 2.96176,6.814715 5.64225,8.532065 1.39738,0.87049 0.90291,2.6359 -0.14354,3.54299 -0.42748,0.37064 -1.41432,0.95291 -2.40583,0.50866 -0.91796,-0.41129 -1.67172,-2.15059 -1.99281,-2.89859 -1.56027,-3.45156 -1.31109,-5.375845 -1.10025,-9.685125 z"
   id="path3220"
   inkscape:connector-curvature="0"
   sodipodi:nodetypes="ccssccc" /><path
   style="fill:none;fill-opacity:1;stroke:#fbff00;stroke-width:0.37795276;stroke-linecap:butt;stroke-linejoin:miter;stroke-miterlimit:4;stroke-dasharray:none;stroke-opacity:1;opacity:0.51960784"
   d="m 228.83782,91.74053 c -1.54564,8.59648 -3.67089,10.06143 -4.79306,11.0354 -1.43983,0.99517 -1.68105,2.03054 -1.68105,2.03054 -0.46582,2.07501 1.26339,3.41838 3.25369,2.14796 0,0 5.54949,-3.78015 3.22042,-15.2139 z"
   id="path3222"
   inkscape:connector-curvature="0"
   sodipodi:nodetypes="ccccc" /><path
   style="fill:none;fill-opacity:1;stroke:#fbff00;stroke-width:0.37795276;stroke-linecap:butt;stroke-linejoin:miter;stroke-miterlimit:4;stroke-dasharray:none;stroke-opacity:1;opacity:0.51960784"
   d="m 242.64021,93.843928 c 4.07322,5.828172 5.86533,6.766882 8.20525,8.240172 1.66827,0.77999 2.04578,1.83991 2.04578,1.83991 0.23831,0.67166 0.0986,2.19864 -1.8297,2.32864 0,0 -0.8475,0.20397 -2.16911,-1.05266 0,0 -5.08227,-4.76959 -6.25222,-11.356062 z"
   id="path3224"
   inkscape:connector-curvature="0"
   sodipodi:nodetypes="cccccc" /><path
   style="fill:none;fill-opacity:1;stroke:#fbff00;stroke-width:0.37795276;stroke-linecap:butt;stroke-linejoin:miter;stroke-miterlimit:4;stroke-dasharray:none;stroke-opacity:1;opacity:0.51960784"
   d="m 231.18845,106.79493 c -0.64884,2.21213 -2.09252,2.89824 -2.90013,4.6756 -1.0107,2.22429 -1.21219,5.28741 2.2052,5.36187 5.34159,-0.0574 4.57062,-4.52377 1.84496,-7.5364 -0.59286,-0.69873 -0.98065,-1.48473 -1.15003,-2.50107 z"
   id="path3226"
   inkscape:connector-curvature="0"
   sodipodi:nodetypes="csccc" /><path
   style="fill:none;fill-opacity:1;stroke:#fbff00;stroke-width:0.37795276;stroke-linecap:butt;stroke-linejoin:miter;stroke-miterlimit:4;stroke-dasharray:none;stroke-opacity:1;opacity:0.51960784"
   d="m 207.76359,93.993257 c 0,0 -4.99041,1.519669 -9.29308,-0.276647 -2.67552,-1.35992 -4.11106,2.054118 -2.75324,2.955896 3.68499,2.002609 10.77257,-0.936136 12.04632,-2.679249 z"
   id="path3230"
   inkscape:connector-curvature="0"
   sodipodi:nodetypes="cccc" /><path
   style="fill:none;fill-opacity:1;stroke:#fbff00;stroke-width:0.37795276;stroke-linecap:butt;stroke-linejoin:miter;stroke-miterlimit:4;stroke-dasharray:none;stroke-opacity:1;opacity:0.51960784"
   d="m 214.38755,92.505276 c -1.08978,1.178162 -3.60159,3.058415 -5.15502,3.878537 -2.29162,1.209868 -3.7772,1.515765 -4.42457,2.978645 -0.44673,1.028532 -0.46147,2.279772 0.11578,2.835482 0.59927,0.57689 2.33678,0.16727 3.27502,-0.47976 0,0 4.60067,-3.686584 6.18872,-9.212904 z"
   id="path3232"
   inkscape:connector-curvature="0"
   sodipodi:nodetypes="cscscc" /><path
   style="fill:none;fill-opacity:1;stroke:#fbff00;stroke-width:0.37795276;stroke-linecap:butt;stroke-linejoin:miter;stroke-miterlimit:4;stroke-dasharray:none;stroke-opacity:1;opacity:0.51960784"
   d="m 219.93771,93.260697 c -0.99802,2.194364 -2.49581,4.323992 -4.03246,6.036936 -1.90563,2.124277 -4.10576,3.044197 -5.15392,5.330117 -0.74905,1.49556 -0.0485,3.32094 1.09695,3.61654 1.08674,0.28054 2.2709,-0.3503 3.13549,-1.48124 0,0 3.42945,-3.95306 4.95394,-13.502353 z"
   id="path3234"
   inkscape:connector-curvature="0"
   sodipodi:nodetypes="cscscc" /><path
   style="fill:none;fill-opacity:1;stroke:#fbff00;stroke-width:0.37795276;stroke-linecap:butt;stroke-linejoin:miter;stroke-miterlimit:4;stroke-dasharray:none;stroke-opacity:1;opacity:0.51960784"
   d="m 245.7982,89.728965 c 4.15988,2.253257 5.55233,2.40928 7.58894,2.495937 0,0 2.15235,-0.354419 2.84567,1.118882 0.32498,0.844957 -0.40934,2.407459 -2.12095,2.234126 -1.6466,-0.216661 -5.67039,-2.122403 -8.31366,-5.848945 z"
   id="path3236"
   inkscape:connector-curvature="0"
   sodipodi:nodetypes="ccccc" /><path
   style="fill:none;fill-opacity:1;stroke:#fbff00;stroke-width:0.37795276;stroke-linecap:butt;stroke-linejoin:miter;stroke-miterlimit:4;stroke-dasharray:none;stroke-opacity:1;opacity:0.51960784"
   d="m 252.59935,98.199064 c 2.07992,0.844973 4.86085,1.001438 8.06741,-0.233529 0,0 1.26218,-0.63734 2.36717,-0.03074 0.56332,0.325011 1.56234,1.975991 -0.10585,2.799295 -2.24395,0.96012 -7.97187,0.4678 -10.32864,-2.535066 z"
   id="path3238"
   inkscape:connector-curvature="0"
   sodipodi:nodetypes="ccccc" /><path
   style="fill:none;fill-opacity:1;stroke:#fbff00;stroke-width:0.37795276;stroke-linecap:butt;stroke-linejoin:miter;stroke-miterlimit:4;stroke-dasharray:none;stroke-opacity:1;opacity:0.51960784"
   d="m 191.43022,99.15076 c 1.9096,3.2463 11.99859,14.44923 16.04057,17.18631 -1.20942,0.92295 -1.68685,1.46402 -1.36856,3.21445 -1.63914,-0.95706 -9.96167,-7.28826 -14.2901,-17.28178 0,0 -0.63651,-1.71863 -0.38191,-3.11898 z"
   id="path3240"
   inkscape:connector-curvature="0"
   sodipodi:nodetypes="ccccc" /><path
   style="fill:none;fill-opacity:1;stroke:#fbff00;stroke-width:0.37795276;stroke-linecap:butt;stroke-linejoin:miter;stroke-miterlimit:4;stroke-dasharray:none;stroke-opacity:1;opacity:0.51960784"
   d="m 215.355,83.753938 c -5.20872,4.827583 -5.98031,4.381735 -7.22955,4.614631 -1.588,0.25409 -1.92409,1.28531 -1.92409,1.28531 -1.03754,2.223226 1.16184,2.466949 1.92409,2.339912 1.22806,-0.190554 4.37111,-1.358435 7.22955,-8.239853 z"
   id="path3242"
   inkscape:connector-curvature="0"
   sodipodi:nodetypes="ccccc" /><path
   style="fill:none;fill-opacity:1;stroke:#fbff00;stroke-width:0.37795276;stroke-linecap:butt;stroke-linejoin:miter;stroke-miterlimit:4;stroke-dasharray:none;stroke-opacity:1;opacity:0.51960784"
   d="m 188.27077,105.19505 c 7.87901,8.43478 16.54264,14.87531 16.54264,14.87531 -0.98077,-0.26155 -1.40579,1.11155 -1.20963,2.51734 -0.91542,-0.39228 -16.47728,-10.75597 -15.33301,-17.39265 z"
   id="path5884"
   inkscape:connector-curvature="0"
   sodipodi:nodetypes="cccc" /><path
   style="fill:none;fill-opacity:1;stroke:#fbff00;stroke-width:0.37795276;stroke-linecap:butt;stroke-linejoin:miter;stroke-miterlimit:4;stroke-dasharray:none;stroke-opacity:1;opacity:0.51960784"
   d="m 186.47262,112.15864 c 2.22312,2.09236 11.67142,7.84633 16.44461,11.21372 -0.65385,0.32692 -0.55578,2.05966 -0.16365,2.87697 -1.24232,-0.26154 -18.37347,-9.51367 -16.28112,-14.09069 z"
   id="path5886"
   inkscape:connector-curvature="0"
   sodipodi:nodetypes="cccc" /><path
   style="fill:none;fill-opacity:1;stroke:#fbff00;stroke-width:0.37795276;stroke-linecap:butt;stroke-linejoin:miter;stroke-miterlimit:4;stroke-dasharray:none;stroke-opacity:1;opacity:0.51960784"
   d="m 185.52498,118.54569 c 0.52509,0.86803 4.16026,2.62085 7.59058,4.31977 4.42174,2.1899 8.79527,4.29017 8.79527,4.29017 -1.05477,0.98117 -0.71136,2.79637 -0.12282,3.43415 -1.83975,-0.31889 -16.87643,-7.30985 -16.26319,-12.04409 z"
   id="path5888"
   inkscape:connector-curvature="0"
   sodipodi:nodetypes="csccc" /><path
   style="fill:none;fill-opacity:1;stroke:#fbff00;stroke-width:0.37795276;stroke-linecap:butt;stroke-linejoin:miter;stroke-miterlimit:4;stroke-dasharray:none;stroke-opacity:1;opacity:0.51960784"
   d="m 183.68524,124.89889 c 2.05239,1.17081 7.5881,3.11077 11.77653,4.38376 3.7242,1.13187 5.78678,1.96943 5.78678,1.96943 -0.9567,0.90761 -1.05481,2.30579 0.63774,3.65491 -2.99263,-0.76039 -18.22556,-6.05882 -18.20105,-10.0081 z"
   id="path5890"
   inkscape:connector-curvature="0"
   sodipodi:nodetypes="csccc" /><path
   style="fill:none;fill-opacity:1;stroke:#fbff00;stroke-width:0.37795276;stroke-linecap:butt;stroke-linejoin:miter;stroke-miterlimit:4;stroke-dasharray:none;stroke-opacity:1;opacity:0.51960784"
   d="m 185.74575,132.03703 c 2.19836,0.89986 5.83589,1.45101 9.1808,2.15114 3.85842,0.80765 7.30317,1.70002 7.30317,1.70002 -0.36793,1.88878 0.51511,2.60015 1.79066,3.26246 -3.85118,0.22077 -18.61805,-3.28697 -18.27463,-7.11362 z"
   id="path5892"
   inkscape:connector-curvature="0"
   sodipodi:nodetypes="csccc" /><path
   style="fill:none;fill-opacity:1;stroke:#fbff00;stroke-width:0.37795276;stroke-linecap:butt;stroke-linejoin:miter;stroke-miterlimit:4;stroke-dasharray:none;stroke-opacity:1;opacity:0.51960784"
   d="m 187.92887,138.83176 c 0.83106,2.66425 5.67443,3.74082 10.37493,3.92891 4.73401,0.18939 9.32244,-0.51928 9.32244,-0.51928 -1.47178,-0.44153 -2.77186,-1.05477 -2.96808,-2.45297 0,0 -13.04981,0.90761 -16.72929,-0.95666 z"
   id="path5894"
   inkscape:connector-curvature="0"
   sodipodi:nodetypes="csccc" /><path
   style="fill:none;fill-opacity:1;stroke:#fbff00;stroke-width:0.37795276;stroke-linecap:butt;stroke-linejoin:miter;stroke-miterlimit:4;stroke-dasharray:none;stroke-opacity:1;opacity:0.51960784"
   d="m 192.3933,145.99445 c 3.65285,0.20355 7.30205,-0.79293 10.20095,-1.58246 3.38884,-0.92296 5.81695,-1.68001 5.81695,-1.68001 0.22076,0.95667 1.42273,1.49632 3.18886,1.03023 -0.33081,0.62268 -2.38214,2.01019 -5.50799,3.00335 -4.12395,1.31032 -9.72202,1.86607 -13.69877,-0.77111 z"
   id="path5896"
   inkscape:connector-curvature="0"
   sodipodi:nodetypes="csccsc" /><path
   style="fill:none;fill-opacity:1;stroke:#fbff00;stroke-width:0.37795276;stroke-linecap:butt;stroke-linejoin:miter;stroke-miterlimit:4;stroke-dasharray:none;stroke-opacity:1;opacity:0.51960784"
   d="m 199.06538,152.29856 c 0,0 8.29106,-1.12837 13.71211,-8.19292 0.68684,0.83402 1.12838,1.54537 2.74734,0.95666 -6.00978,8.68352 -15.72356,7.80044 -16.45945,7.23626 z"
   id="path5898"
   inkscape:connector-curvature="0"
   sodipodi:nodetypes="cccc" /><path
   style="fill:none;fill-opacity:1;stroke:#fbff00;stroke-width:0.37795276;stroke-linecap:butt;stroke-linejoin:miter;stroke-miterlimit:4;stroke-dasharray:none;stroke-opacity:1;opacity:0.51960784"
   d="m 217.36456,144.66982 c 0.7604,0.80949 1.3982,0.85855 3.53227,-0.44152 -3.85119,10.37605 -10.27794,10.69494 -11.99502,10.64588 0,0 5.98523,-3.28696 8.46275,-10.20436 z"
   id="path5900"
   inkscape:connector-curvature="0"
   sodipodi:nodetypes="cccc" /><g
   id="g5954"
   transform="matrix(-0.25580063,0,0,0.25580063,200.95422,77.744465)"
   style="fill:none;stroke:#fbff00;stroke-width:1.47752869;stroke-miterlimit:4;stroke-dasharray:none;stroke-opacity:1;opacity:0.51960784"><path
     sodipodi:nodetypes="ccccc"
     inkscape:connector-curvature="0"
     id="path3240-9"
     d="m -272.60333,83.421415 c 7.46515,12.69075 46.90599,56.486265 62.70722,67.186305 -4.72793,3.60816 -6.59421,5.72328 -5.35002,12.56633 -6.40792,-3.74153 -38.94318,-28.49197 -55.86418,-67.559565 0,0 -2.48837,-6.71863 -1.49302,-12.19307 z"
     style="fill:none;fill-opacity:1;stroke:#fbff00;stroke-width:1.47752869;stroke-linecap:butt;stroke-linejoin:miter;stroke-miterlimit:4;stroke-dasharray:none;stroke-opacity:1" /><path
     sodipodi:nodetypes="cccc"
     inkscape:connector-curvature="0"
     id="path5884-9"
     d="m -284.95461,107.05026 c 30.80139,32.9741 64.67014,58.152 64.67014,58.152 -3.8342,-1.02245 -5.49569,4.34542 -4.72885,9.8411 -3.57858,-1.53368 -64.41452,-42.04836 -59.94129,-67.9931 z"
     style="fill:none;fill-opacity:1;stroke:#fbff00;stroke-width:1.47752869;stroke-linecap:butt;stroke-linejoin:miter;stroke-miterlimit:4;stroke-dasharray:none;stroke-opacity:1" /><path
     sodipodi:nodetypes="cccc"
     inkscape:connector-curvature="0"
     id="path5886-8"
     d="m -291.98397,134.27306 c 8.69085,8.17962 45.62695,30.67358 64.28671,43.83766 -2.55613,1.27807 -2.17271,8.05182 -0.63903,11.24698 -4.85665,-1.02245 -71.8273,-37.19172 -63.64768,-55.08464 z"
     style="fill:none;fill-opacity:1;stroke:#fbff00;stroke-width:1.47752869;stroke-linecap:butt;stroke-linejoin:miter;stroke-miterlimit:4;stroke-dasharray:none;stroke-opacity:1" /><path
     sodipodi:nodetypes="csccc"
     inkscape:connector-curvature="0"
     id="path5888-1"
     d="m -295.68865,159.24189 c 2.05276,3.39334 16.26363,10.24572 29.6738,16.88721 17.2859,8.56097 34.3833,16.77154 34.3833,16.77154 -4.12344,3.83575 -2.78092,10.9319 -0.47947,13.42514 -7.19204,-1.24662 -65.97498,-28.57638 -63.57763,-47.08389 z"
     style="fill:none;fill-opacity:1;stroke:#fbff00;stroke-width:1.47752869;stroke-linecap:butt;stroke-linejoin:miter;stroke-miterlimit:4;stroke-dasharray:none;stroke-opacity:1" /><path
     sodipodi:nodetypes="csccc"
     inkscape:connector-curvature="0"
     id="path5890-7"
     d="m -302.88069,184.0784 c 8.02329,4.57705 29.66404,12.16097 46.03782,17.13738 14.55895,4.42484 22.62218,7.69913 22.62218,7.69913 -3.73986,3.54807 -4.12344,9.01403 2.49324,14.28819 -11.69905,-2.97271 -71.24913,-23.68579 -71.15324,-39.1247 z"
     style="fill:none;fill-opacity:1;stroke:#fbff00;stroke-width:1.47752869;stroke-linecap:butt;stroke-linejoin:miter;stroke-miterlimit:4;stroke-dasharray:none;stroke-opacity:1" /><path
     sodipodi:nodetypes="csccc"
     inkscape:connector-curvature="0"
     id="path5892-2"
     d="m -294.82561,211.98351 c 8.59409,3.51779 22.81423,5.67239 35.89048,8.4095 15.08367,3.15729 28.5502,6.64584 28.5502,6.64584 -1.43841,7.38383 2.01377,10.16475 7.00025,12.75388 -15.05533,0.86305 -72.78344,-12.84978 -71.44093,-27.80922 z"
     style="fill:none;fill-opacity:1;stroke:#fbff00;stroke-width:1.47752869;stroke-linecap:butt;stroke-linejoin:miter;stroke-miterlimit:4;stroke-dasharray:none;stroke-opacity:1" /><path
     sodipodi:nodetypes="csccc"
     inkscape:connector-curvature="0"
     id="path5894-5"
     d="m -286.29105,238.54611 c 3.24882,10.41534 22.18288,14.62405 40.55861,15.35924 18.50661,0.74042 36.44416,-2.02999 36.44416,-2.02999 -5.75363,-1.72609 -10.83601,-4.12343 -11.60316,-9.58938 0,0 -51.01553,3.54806 -65.39961,-3.73987 z"
     style="fill:none;fill-opacity:1;stroke:#fbff00;stroke-width:1.47752869;stroke-linecap:butt;stroke-linejoin:miter;stroke-miterlimit:4;stroke-dasharray:none;stroke-opacity:1" /><path
     sodipodi:nodetypes="csccsc"
     inkscape:connector-curvature="0"
     id="path5896-9"
     d="m -268.83837,266.54712 c 14.2801,0.7958 28.54584,-3.09975 39.87849,-6.18624 13.248,-3.60814 22.74019,-6.56764 22.74019,-6.56764 0.86305,3.73986 5.56186,5.84952 12.46621,4.02753 -1.29318,2.43419 -9.31258,7.85834 -21.53235,11.74092 -16.12175,5.12236 -38.00632,7.29503 -53.55254,-3.01457 z"
     style="fill:none;fill-opacity:1;stroke:#fbff00;stroke-width:1.47752869;stroke-linecap:butt;stroke-linejoin:miter;stroke-miterlimit:4;stroke-dasharray:none;stroke-opacity:1" /><path
     sodipodi:nodetypes="cccc"
     inkscape:connector-curvature="0"
     id="path5898-9"
     d="m -242.75524,291.19183 c 0,0 32.41212,-4.41111 53.60467,-32.02854 2.68503,3.26039 4.41112,6.04131 10.74011,3.73986 -23.49399,33.94642 -61.46796,30.49424 -64.34478,28.28868 z"
     style="fill:none;fill-opacity:1;stroke:#fbff00;stroke-width:1.47752869;stroke-linecap:butt;stroke-linejoin:miter;stroke-miterlimit:4;stroke-dasharray:none;stroke-opacity:1" /><path
     sodipodi:nodetypes="cccc"
     inkscape:connector-curvature="0"
     id="path5900-7"
     d="m -171.21842,261.36885 c 2.97271,3.16449 5.46595,3.35629 13.80872,-1.72609 -15.05534,40.56311 -40.17952,41.80972 -46.8921,41.61793 0,0 23.3981,-12.84978 33.08338,-39.89184 z"
     style="fill:none;fill-opacity:1;stroke:#fbff00;stroke-width:1.47752869;stroke-linecap:butt;stroke-linejoin:miter;stroke-miterlimit:4;stroke-dasharray:none;stroke-opacity:1" /></g><path
   style="fill:none;fill-opacity:1;stroke:#fbff00;stroke-width:0.37795276;stroke-linecap:butt;stroke-linejoin:miter;stroke-miterlimit:4;stroke-dasharray:none;stroke-opacity:1;opacity:0.51960784"
   d="m 199.84394,155.10874 c -0.3766,3.29538 -4.07998,10.38823 -4.55074,13.02455 -0.49776,2.43787 0.95848,5.82174 4.48853,5.8541 3.55891,0.0327 5.96066,-3.302 4.11082,-7.76855 -0.6277,-1.50647 -2.73045,-6.02581 -4.04861,-11.1101 z"
   id="path5956"
   inkscape:connector-curvature="0"
   sodipodi:nodetypes="ccscc" /><path
   style="fill:none;fill-opacity:1;stroke:#fbff00;stroke-width:0.37795276;stroke-linecap:butt;stroke-linejoin:miter;stroke-miterlimit:4;stroke-dasharray:none;stroke-opacity:1;opacity:0.51960784"
   d="m 262.89535,154.98319 c -1.09846,5.14706 -3.51508,9.63504 -4.14273,11.70641 -1.91634,6.17611 3.22186,8.21518 6.25711,6.70675 2.43216,-1.20872 2.64987,-3.93474 2.05977,-6.3615 -0.43941,-2.00863 -3.04432,-6.93597 -4.17415,-12.05166 z"
   id="path5958"
   inkscape:connector-curvature="0"
   sodipodi:nodetypes="ccscc" /><path
   style="fill:none;fill-opacity:1;stroke:#fbff00;stroke-width:0.37795276;stroke-linecap:butt;stroke-linejoin:miter;stroke-miterlimit:4;stroke-dasharray:none;stroke-opacity:1;opacity:0.51960784"
   d="m 222.90628,123.50313 c -0.22018,-0.0343 -0.62651,-0.20122 -0.82532,-0.52369 -0.46906,-0.7608 -0.5373,-2.19311 0.32835,-3.13959 0.55377,-0.65874 1.56597,-1.27809 3.0612,-1.31608 0.94542,-0.0238 2.23016,0.33167 3.40154,0.93645 0.39811,0.18941 0.92513,0.66012 0.54234,1.69277 -0.0744,0.2731 -0.27938,1.3805 0.34514,1.90642 -0.006,0 0.61684,0.49302 0.83815,0.87102 0.30093,0.49895 0.27835,0.72908 0.0906,0.95654 -0.27986,0.33888 -0.59663,0.44497 -0.99442,0.50615 -0.46014,0.0657 -2.96847,0.3209 -4.48663,-1.79137 -0.19712,-0.27941 -0.78887,-1.00253 -0.29584,-1.54486 0,0 2.16937,1.90641 3.97717,1.56129 0.27467,-0.0502 -0.14188,-0.40143 -0.52588,-0.41088 -0.72314,-0.0158 -1.46269,-0.64096 -2.00505,-1.13398 -0.55529,-0.44517 -1.93211,-0.56267 -2.49804,-0.0986 -0.73956,0.65739 -1.13401,0.24654 -0.95322,1.52842 z"
   id="path5960"
   inkscape:connector-curvature="0"
   sodipodi:nodetypes="cscsccccscccccccc" /><path
   style="fill:none;fill-opacity:1;stroke:#fbff00;stroke-width:0.37795276;stroke-linecap:butt;stroke-linejoin:miter;stroke-miterlimit:4;stroke-dasharray:none;stroke-opacity:1;opacity:0.51960784"
   d="m 208.73858,117.00411 c -1.32311,-0.0495 -1.8645,1.0643 -1.22805,2.82879 0.045,0.11147 0.0334,0.12241 -0.13696,0.086 -2.17969,-0.46782 -3.61157,1.57449 -1.63875,3.39432 0.14209,0.12329 -0.0732,0.24954 -0.17782,0.19987 -1.95337,-0.92546 -3.51467,2.6121 -0.54557,3.30992 0.17926,0.0421 0.17679,0.24351 -0.117,0.2218 -3.50305,-0.242 -3.95502,3.09469 -0.62,3.66165 0.264,0.0449 0.12715,0.48891 -0.25832,0.45215 -2.81085,-0.27107 -3.26324,3.89489 0.18378,3.30244 0.24135,-0.0414 0.27183,0.0505 0.0801,0.15084 -2.39142,1.20701 -0.87431,4.98887 1.92301,3.38136 0.17763,-0.10212 0.3242,0.0525 0.2313,0.15332 -1.36846,1.83647 -0.38906,3.8924 2.37965,2.11636 0.22423,-0.14802 0.1456,0.15739 0.10902,0.30727 -0.48947,2.00066 1.47816,3.22204 3.43433,1.18107 0.14497,-0.16584 0.20676,-0.0158 0.22483,0.18484 0.19548,2.1697 2.70439,2.63148 3.66963,9.9e-4 0.0723,-0.23654 0.25352,-0.0222 0.25431,0.13195 0.0122,2.49257 3.0791,3.42935 3.62067,-0.0199 0.0291,-0.22126 0.12201,-0.35884 0.16488,-0.21883 0.5048,1.64864 1.40127,2.86634 2.45709,3.10609 -0.47569,-1.58473 -0.90224,-3.81031 -1.23702,-5.71308 -0.21156,-1.20218 -0.39087,-1.95756 -0.16838,-2.71735 0.24432,-1.17524 1.30523,-2.76749 2.17132,-3.59721 -0.1017,-0.33731 -0.81695,-0.56693 -1.73815,-0.0724 -1.27046,0.70412 -3.13079,1.12511 -4.97062,0.61803 -0.96558,-0.32497 -1.77526,-0.91545 -2.30175,-1.44186 -0.72338,-0.7233 -0.93856,-1.19029 -0.93677,-2.05492 -0.0286,-1.38607 0.86422,-2.72981 2.1743,-5.02108 0.58286,-1.01933 1.11465,-1.73935 1.78563,-3.04613 0.40382,-0.80586 0.74321,-2.0511 0.27394,-2.2169 -3.278,-1.07852 -5.61578,-1.80743 -8.44856,-2.57537 -0.2198,-0.0561 -0.42502,-0.087 -0.61403,-0.0938 z m 0.4053,1.77801 c 0,0 0.15298,-0.15968 0.30577,-0.10686 1.84947,0.72344 3.81973,1.38506 5.78286,1.93806 0.33551,0.10382 0.21894,0.3537 0.14373,0.44515 -2.87732,3.42592 -4.54481,7.60083 -4.46202,10.46785 0.20704,5.0302 6.059,4.43042 8.81217,3.72659 0.33119,-0.0622 0.44656,0.20897 0.26027,0.31375 -1.19622,0.63273 -5.91488,2.18114 -8.76517,0.18237 -3.91836,-2.84025 -1.09191,-10.08605 -1.09191,-10.08605 0.97749,-2.21149 1.75304,-3.51758 2.18656,-4.00197 0.15689,-0.17522 0.0215,-0.31992 -0.11579,-0.36073 0,0 -1.98937,-0.73155 -2.80341,-1.14556 -0.40605,-0.18671 -0.52467,-1.12086 -0.25309,-1.37257 z"
   id="path5962"
   inkscape:connector-curvature="0"
   sodipodi:nodetypes="cccccccsccccccccccsccccccccccccccscccccccccccccc" /><path
   style="fill:none;fill-opacity:1;stroke:#fbff00;stroke-width:0.37795276;stroke-linecap:butt;stroke-linejoin:miter;stroke-miterlimit:4;stroke-dasharray:none;stroke-opacity:1;opacity:0.51960784"
   d="m 253.40464,117.05889 c 1.32311,-0.0495 1.8645,1.0643 1.22806,2.8288 -0.0449,0.11148 -0.0333,0.12241 0.13696,0.0858 2.17968,-0.46778 3.61151,1.57452 1.63875,3.39438 -0.1421,0.12312 0.0732,0.24951 0.17782,0.19984 1.9534,-0.92546 3.51466,2.61213 0.54558,3.3099 -0.17926,0.0423 -0.17659,0.24353 0.11686,0.22184 3.50306,-0.242 3.95503,3.0947 0.62003,3.66166 -0.26401,0.0449 -0.12729,0.48889 0.25831,0.45214 2.81084,-0.27108 3.26325,3.89489 -0.18377,3.30242 -0.24137,-0.0414 -0.27183,0.0505 -0.0799,0.15102 2.39141,1.20701 0.87429,4.98885 -1.923,3.38137 -0.17764,-0.10212 -0.32423,0.0524 -0.23134,0.15332 1.36848,1.83647 0.38908,3.89237 -2.37965,2.11635 -0.22423,-0.14803 -0.14556,0.15739 -0.109,0.30726 0.4895,2.00068 -1.47817,3.22206 -3.43433,1.18108 -0.14496,-0.16587 -0.20677,-0.0158 -0.22482,0.18486 -0.19547,2.16969 -2.70442,2.63146 -3.66965,9.9e-4 -0.0723,-0.23655 -0.25353,-0.0222 -0.2543,0.13194 -0.0122,2.49256 -3.07909,3.42931 -3.62069,-0.0199 -0.0291,-0.22125 -0.12173,-0.35884 -0.16487,-0.21883 -0.5048,1.64865 -1.36742,3.06757 -2.17227,3.34916 0.22221,-1.59185 0.63299,-3.07089 0.84762,-4.57591 0.21154,-1.20219 0.40639,-3.7724 0.44041,-4.55796 0.0273,-1.00797 -0.0505,-1.99344 -0.0803,-2.94864 -0.0184,-0.37126 0.88199,0.24603 1.27809,0.34581 1.41685,0.36952 1.98058,0.35134 3.17215,0.0107 0.96556,-0.325 1.77521,-0.91545 2.30171,-1.4419 0.72337,-0.72327 0.93854,-1.19027 0.93677,-2.05488 0.0286,-1.38607 -0.86419,-2.72983 -2.17431,-5.02108 -0.58283,-1.01937 -1.11462,-1.73938 -1.78561,-3.04613 -0.40381,-0.80586 -0.74323,-2.05112 -0.27392,-2.21691 3.27799,-1.07851 5.61575,-1.80743 8.44854,-2.57536 0.21979,-0.056 0.42502,-0.0869 0.61403,-0.0938 z m -0.40529,1.778 c 0,0 -0.15299,-0.15967 -0.30576,-0.10686 -1.84948,0.72345 -3.81975,1.38505 -5.78286,1.93807 -0.33549,0.10383 -0.21895,0.3537 -0.14372,0.44514 2.87736,3.42591 4.54482,7.60083 4.46201,10.46783 -0.207,5.03022 -4.86695,4.36768 -7.80834,3.97756 -0.33121,-0.0622 -0.80207,0.10436 -0.6158,0.2092 2.32548,0.4445 5.26659,2.03471 8.11688,0.036 3.91835,-2.84024 1.0919,-10.08608 1.0919,-10.08608 -0.97747,-2.21148 -1.75305,-3.51758 -2.18654,-4.00195 -0.15689,-0.17521 -0.0216,-0.31989 0.11578,-0.36071 0,0 1.98937,-0.73157 2.80342,-1.14557 0.40607,-0.18672 0.52465,-1.12086 0.25308,-1.37261 z"
   id="path5962-8"
   inkscape:connector-curvature="0"
   sodipodi:nodetypes="cccccccsccccccccccsccccccccccccccscccccccccccccc" /><path
   style="fill:none;fill-opacity:1;stroke:#fbff00;stroke-width:0.37795276;stroke-linecap:butt;stroke-linejoin:miter;stroke-miterlimit:4;stroke-dasharray:none;stroke-opacity:1;opacity:0.51960784"
   d="m 230.19686,119.92842 c -0.26457,0.1074 -0.0514,1.0825 -0.12879,1.51686 -0.0764,0.42797 -0.105,0.79733 0.0262,1.08923 0.2715,0.54302 1.4049,0.61038 1.35966,2.21222 -0.0349,0.73314 -0.45047,1.09135 -1.32466,1.24379 -0.63725,0.0895 -1.4291,0.0588 -2.30707,-0.0372 -0.22108,-0.0225 -0.43829,-0.0811 -0.5806,0.0385 -0.17678,0.18423 -0.78501,0.92052 -1.81482,1.8702 -1.57909,1.4563 -2.825,2.248 -4.70333,4.96467 1.2219,-0.81459 3.28839,-0.95592 3.28839,-0.95592 0.80296,-0.0234 0.80878,0.49127 0.36658,1.09642 0,0 -1.2797,1.46256 -1.83832,2.84739 1.61759,-0.1164 4.53359,-2.56063 4.53359,-2.56063 0.64005,-0.5004 0.98213,0.12648 0.95888,0.4522 -0.19797,2.1296 0.83464,4.08069 1.31179,4.12723 -0.20949,-1.02408 1.38388,-3.5491 1.38388,-3.5491 0.36077,-0.64007 1.45387,-0.61678 2.01245,-0.23276 0.93098,0.69825 1.84701,3.40019 1.84701,3.40019 1.08225,-0.62841 0.67164,-2.30878 0.67164,-2.30878 -0.19774,-1.10552 -0.12892,-2.16069 0.0563,-2.48621 0.20696,-0.35643 1.52662,0.79361 2.64358,1.35231 1.46312,0.73186 2.49409,1.0932 2.49409,1.0932 0,0 -0.0277,-0.44661 -0.0582,-0.82495 -0.60786,-0.25292 -1.3135,-1.8753 -1.57564,-2.87881 -0.16141,-0.66863 -0.35778,-1.64624 -0.50068,-2.98366 -0.0677,-0.54885 -0.19857,-2.71411 -0.20672,-3.91193 -0.007,-1.44319 -0.10983,-2.82815 -0.10983,-2.82815 -0.0313,-0.42262 -0.14928,-1.3854 -0.93173,-1.63391 -1.88558,-0.65108 -4.11558,-1.20369 -6.39619,-0.38014 z"
   id="path5992"
   inkscape:connector-curvature="0"
   sodipodi:nodetypes="cscccccsccccccccccccsccccscccc" /><path
   style="fill:none;fill-opacity:1;stroke:#fbff00;stroke-width:0.37795276;stroke-linecap:butt;stroke-linejoin:miter;stroke-miterlimit:4;stroke-dasharray:none;stroke-opacity:1;opacity:0.51960784"
   d="m 226.85553,134.49661 c -0.82793,1.23183 -4.75993,2.52998 -4.75993,2.52998 2.50403,13.42883 6.11869,21.73998 9.9469,31.18491 4.57248,-11.47641 6.75375,-22.86807 7.94478,-32.01285 -2.11096,-0.99431 -3.56449,-2.22561 -3.56449,-2.22561 0.68835,3.12055 -1.67609,5.86967 -1.67609,5.86967 0,0 -1.60706,-2.90811 -2.93791,-4.8355 -1.49903,2.11096 -2.66555,4.48302 -2.66555,4.48302 0,0 -2.06557,-2.08571 -2.28771,-4.99362 z"
   id="path5994"
   inkscape:connector-curvature="0"
   sodipodi:nodetypes="ccccccccc" /><path
   style="fill:none;fill-opacity:1;stroke:#fbff00;stroke-width:0.37795276;stroke-linecap:butt;stroke-linejoin:miter;stroke-miterlimit:4;stroke-dasharray:none;stroke-opacity:1;opacity:0.51960784"
   d="m 225.21184,153.80094 c 0.74223,2.62425 1.94697,5.91614 1.94697,5.91614 -8.00531,12.77666 -12.96148,13.66774 -12.96148,13.66774 0,0 7.40946,-9.32545 11.01451,-19.58388 z"
   id="path5996"
   inkscape:connector-curvature="0"
   sodipodi:nodetypes="cccc" /><path
   style="fill:none;fill-opacity:1;stroke:#fbff00;stroke-width:0.37795276;stroke-linecap:butt;stroke-linejoin:miter;stroke-miterlimit:4;stroke-dasharray:none;stroke-opacity:1;opacity:0.51960784"
   d="m 237.5356,154.11905 c 6.46784,13.81044 11.40542,19.05098 11.40542,19.05098 0,0 -4.55581,-0.25645 -12.74666,-13.64279 0,0 1.15568,-3.39365 1.34124,-5.40819 z"
   id="path5998"
   inkscape:connector-curvature="0"
   sodipodi:nodetypes="cccc" /><path
   style="fill:none;fill-opacity:1;stroke:#fbff00;stroke-width:0.37795276;stroke-linecap:butt;stroke-linejoin:miter;stroke-miterlimit:4;stroke-dasharray:none;stroke-opacity:1;opacity:0.51960784"
   d="m 234.29066,165.49795 c 0,0 0.88513,-2.00521 1.60081,-4.62944 7.34261,13.996 12.03766,18.07537 12.03766,18.07537 0,0 -3.5391,1.79593 -13.63847,-13.44593 z"
   id="path6000"
   inkscape:connector-curvature="0"
   sodipodi:nodetypes="cccc" /><path
   style="fill:none;fill-opacity:1;stroke:#fbff00;stroke-width:0.37795276;stroke-linecap:butt;stroke-linejoin:miter;stroke-miterlimit:4;stroke-dasharray:none;stroke-opacity:1;opacity:0.51960784"
   d="m 234.03108,166.40655 c -0.71573,1.93504 -1.8967,4.10873 -1.8967,4.10873 0,0 -1.30257,-2.14445 -2.20383,-4.18551 0.47715,14.23455 2.77602,20.37393 2.77602,20.37393 0,0 1.88114,-7.1229 1.32451,-20.29715 z"
   id="path6002"
   inkscape:connector-curvature="0"
   sodipodi:nodetypes="ccccc" /><path
   style="fill:none;fill-opacity:1;stroke:#fbff00;stroke-width:0.37795276;stroke-linecap:butt;stroke-linejoin:miter;stroke-miterlimit:4;stroke-dasharray:none;stroke-opacity:1;opacity:0.51960784"
   d="m 227.57744,160.54067 c 0.82173,2.27964 1.85769,4.75223 1.85769,4.75223 -9.35718,14.6852 -13.88406,13.64822 -13.88406,13.64822 0,0 5.00187,-4.59001 12.02637,-18.40045 z"
   id="path6004"
   inkscape:connector-curvature="0"
   sodipodi:nodetypes="cccc" /><path
   inkscape:connector-curvature="0"
   style="font-size:14.41752338px;fill:none;fill-opacity:0.94117647;stroke:#ffffff;stroke-width:0.5;stroke-miterlimit:2;stroke-dasharray:0.69986764,0.49990547;stroke-dashoffset:0;stroke-opacity:1"
   d="M 229.81665,30.545985 190.9719,94.065978 c -41.3915,64.156852 3.34344,96.155742 39.64061,96.314932 40.59553,0.47759 79.28076,-30.72545 41.71001,-93.767912 z m 0.12892,3.019645 38.32615,59.243831 c 42.67824,70.194559 -3.7904,94.552319 -37.48381,95.113869 -28.35858,0.28077 -80.02169,-26.60395 -39.02807,-91.604097 z"
   id="path6006"
   class="letters" /><path
   style="opacity:0.51960784;fill:none;fill-opacity:1;stroke:#fffb00;stroke-width:0.5;stroke-linecap:butt;stroke-linejoin:miter;stroke-miterlimit:4;stroke-dasharray:none;stroke-opacity:1"
   d="M 229.99299,25.018739 186.7273,96.225263 c -37.95117,61.926237 4.14627,94.006297 39.08803,97.022147 l 11.38016,-0.16144 c 32.13393,-3.32779 82.04937,-28.06555 32.32052,-107.055999 z"
   id="path6012"
   inkscape:connector-curvature="0"
   sodipodi:nodetypes="cccccc"
   class="outerFrame" /></svg>