<?xml version="1.0" encoding="UTF-8" standalone="no"?>
<svg
   xmlns:dc="http://purl.org/dc/elements/1.1/"
   xmlns:cc="http://creativecommons.org/ns#"
   xmlns:rdf="http://www.w3.org/1999/02/22-rdf-syntax-ns#"
   xmlns:svg="http://www.w3.org/2000/svg"
   xmlns="http://www.w3.org/2000/svg"
   xmlns:sodipodi="http://sodipodi.sourceforge.net/DTD/sodipodi-0.dtd"
   xmlns:inkscape="http://www.inkscape.org/namespaces/inkscape"
   id="svg843"
   xml:space="preserve"
   enable-background="new 0 0 370.4 370.4"
   viewBox="0 0 300 180"
   height="180"
   width="300"
   y="0px"
   x="0px"
   version="1.1"
   sodipodi:docname="Inhalt_Video_x_7.g_3.svg"
   inkscape:version="0.92.3 (2405546, 2018-03-11)"><sodipodi:namedview
   pagecolor="#ffffff"
   bordercolor="#666666"
   borderopacity="1"
   objecttolerance="10"
   gridtolerance="10"
   guidetolerance="10"
   inkscape:pageopacity="0"
   inkscape:pageshadow="2"
   inkscape:window-width="1920"
   inkscape:window-height="1018"
   id="namedview913"
   showgrid="false"
   inkscape:zoom="9.2342422"
   inkscape:cx="225.12539"
   inkscape:cy="112.26613"
   inkscape:window-x="-8"
   inkscape:window-y="32"
   inkscape:window-maximized="1"
   inkscape:current-layer="svg843" /><metadata
   id="metadata849"><rdf:RDF><cc:Work
       rdf:about=""><dc:format>image/svg+xml</dc:format><dc:type
         rdf:resource="http://purl.org/dc/dcmitype/StillImage" /><dc:title></dc:title></cc:Work></rdf:RDF></metadata><defs
   id="defs847" />
    
    
    
<style
   id="style870">
												.letters {animation: spinLeft 120s linear infinite; }
												.outerFrame { animation: spinRight 90s linear infinite; }
												.innerFrame { animation: spinRight 90s linear infinite; }
												@-webkit-keyframes spinLeft {to {stroke-dashoffset: -500;} }
												@keyframes spinLeft {to {stroke-dashoffset: -500;} }
												@-webkit-keyframes spinRight {to {stroke-dashoffset: 500;} }
												@keyframes spinRight {to {stroke-dashoffset: 500;} }
</style>		
		


<g
   id="g2019"
   transform="translate(-68.134479,221.73304)"
   style="font-size:14.41752338px;fill:none;fill-opacity:0.94117647;stroke:#fffb00;stroke-width:0.4579747;stroke-miterlimit:2;stroke-dasharray:0.64104331, 0.45788809;stroke-dashoffset:0;stroke-opacity:1"
   class="letters"><path
     id="rect872-7"
     d="M 66.712891,-228.71484 V -39.787109 H 369.46875 V -228.71484 Z m 226.414059,22.35742 38.9336,60.51367 c 34.41291,57.743697 -1.02163,86.324179 -38.20508,85.886719 -33.24637,-0.14581 -74.22112,-29.456276 -36.30859,-88.220699 z m 0.11719,2.76562 -34.97461,57.47852 c -37.54809,59.536846 9.77108,84.161466 35.74609,83.904296 30.86145,-0.51435 73.4251,-22.824494 34.33399,-87.119136 z m 0.0703,1.80664 c 0.27184,3.51177 0.56697,5.39664 0.63867,7.63672 0.0929,2.90763 -0.0273,4.10742 -0.0273,4.10742 0.0424,0.49237 -0.0886,1.29278 -0.71875,1.77735 -0.41462,0.31888 -0.85056,-0.84786 -0.75976,-1.63672 0,0 0.11963,-1.16424 0.36523,-4.69531 0.13689,-1.96781 0.2802,-5.01954 0.50195,-7.18946 z m 2.71485,8.88086 c 0.92879,7.4089 3.63281,10.44922 3.63281,10.44922 0.6959,0.89332 0.64648,1.51758 0.64648,1.51758 0.0315,0.49053 -0.29118,0.68806 -0.58007,0.66016 0,0 -0.92494,0.005 -1.62696,-1.16016 0,0 -2.61229,-3.64749 -2.07226,-11.4668 z m -4.86914,1.54297 c 0.4153,9.11694 -1.94688,11.8575 -2.62696,12.6836 -0.43232,0.53581 -1.34995,1.01276 -1.70312,0.70898 -0.37554,-0.32303 -0.18746,-1.55138 0.35742,-2.21875 0,0 2.92447,-3.28115 3.97266,-11.17383 z m 2.15625,5.77149 c 0.89135,5.55238 1.66992,9.74609 1.66992,9.74609 0.1672,0.9285 0.0796,1.71916 -0.19336,2.04297 -0.14934,0.18095 -0.35394,0.36204 -0.67774,0.37109 -0.27092,0.008 -0.5352,-0.17934 -0.74804,-0.44336 -0.22237,-0.32164 -0.53621,-0.6684 -0.44336,-2.52539 0,0 0.0583,-4.15897 0.39258,-9.1914 z m 4.71093,8.74414 c 2.57157,3.90479 6,4.79101 6,4.79101 0.58541,0.18939 1.26302,0.23467 1.79297,0.71094 0.80048,0.72702 0.17258,1.59165 -0.35742,1.79492 -0.42223,0.16178 -0.94196,0.0791 -1.33398,-0.0371 -1.4042,-0.49928 -4.41651,-1.86135 -6.10157,-7.25976 z m -6.92578,1.37695 c 0.72784,3.96275 -0.21484,9.36719 -0.21484,9.36719 -0.24264,1.2131 -0.64875,1.58745 -1.08008,1.96484 -0.54343,0.44417 -0.991,0.0871 -1.1582,-0.14453 -0.33101,-0.4387 -0.19922,-1.03516 -0.19922,-1.03516 0.002,-0.6348 0.31508,-1.28066 0.51367,-1.71093 0.8896,-1.96788 1.35689,-3.77776 2.13867,-8.44141 z m -4.42578,0.18555 c -0.62812,1.6583 -2.51562,3.6914 -2.51562,3.6914 0,0 -0.92749,1.09087 -2.54688,0.93555 0,0 -1.23573,-0.25624 -1.14453,-1.22461 0,0 10e-4,-0.64343 0.625,-1.05273 0,0 0.57219,-0.44241 1.625,-0.33789 0.75614,0.0522 1.87106,0.50049 3.95703,-2.01172 z m 11.29688,2.87695 c 0,0 1.61941,4.03588 4.98242,6.76367 0,0 1.18475,0.73335 1.03711,1.65039 0,0 -0.0788,0.99872 -1.02539,1.01172 0,0 -0.91051,0.0413 -1.58008,-0.9375 0,0 -3.00998,-3.64825 -3.41406,-8.48828 z m -13.54102,2.875 c 0,0 -0.54806,2.89978 -1.25391,4.83398 0,0 -0.67536,2.09151 -2.20117,3.60157 0,0 -1.55319,1.79266 -2.51758,0.24804 0,0 -0.45702,-0.98246 -0.17382,-1.71875 0.17605,-0.39401 0.45706,-0.9265 1.09961,-1.34375 0.98948,-0.74066 3.23149,-2.10695 5.04687,-5.62109 z m 9.43164,0.18359 c 0,0 -0.18787,3.57727 1.77149,11.47852 0.26364,1.12833 0.79733,1.55018 0.62695,2.59375 -0.10642,0.76669 -0.80889,2.01833 -2.18555,0.70898 -0.48984,-0.68151 -0.70975,-1.47869 -0.79492,-3.05468 0,0 0.0283,-8.89406 0.58203,-11.72657 z m 4.11328,8.14063 c 3.09582,4.9017 5.39844,7.15039 5.39844,7.15039 0.89321,0.7938 0.73208,1.97394 0.13672,2.50976 -0.39691,0.3969 -1.32368,0.48835 -1.97852,-0.5039 -0.97243,-1.40899 -2.72314,-4.49268 -3.55664,-9.15625 z m -7.10937,0.13867 c 0.28381,1.71979 0.0926,5.63301 -0.19336,8.8125 -0.22345,2.48488 -0.36758,4.77184 -1.16992,5.66797 -1.49332,1.5903 -2.35944,0.86171 -2.92188,-0.18555 -0.21333,-0.38789 -0.1927,-1.34632 0.17578,-1.98633 2.69576,-5.48848 4.10938,-12.30859 4.10938,-12.30859 z m -4.63867,0.26172 c -9.5e-4,3.52054 -0.52344,4.80664 -0.52344,4.80664 -0.2889,0.85996 -0.5383,1.5294 -0.98438,1.82031 -1.08687,0.67675 -1.59175,-0.18429 -1.65625,-0.61328 -0.0272,-0.38389 0.072,-0.85595 0.57617,-1.47656 1.99928,-2.51219 2.5879,-4.53711 2.5879,-4.53711 z m 16.6914,0.42969 c 0,0 3.35539,1.82663 6.0625,2.34179 1.37374,0.25253 2.59977,0.33441 3.41797,0.55664 1.42425,0.35353 1.53961,2.62927 0.0547,2.91211 0,0 -0.88849,0.36988 -2.7168,-0.35742 0,0 -3.51423,-1.13449 -6.81836,-5.45312 z m -23.03906,2.7539 c -2.61818,6.30303 -5.49821,7.3743 -6.62305,7.54883 -0.69818,0.11636 -2.71206,-0.10816 -1.76172,-2.14453 0,0 0.3072,-0.94304 1.76172,-1.17578 1.14425,-0.21332 1.85213,0.1933 6.62305,-4.22852 z m 17.04492,5.41602 c 0,0 2.13488,3.99456 5.11328,5.72656 0.63126,0.3723 1.04286,0.44907 1.4961,1.12891 0.31631,0.46466 0.25724,1.88231 -1.14649,2.37695 0,0 -1.12002,0.53745 -2.2207,-0.93555 0,0 -2.48141,-2.48577 -3.24219,-8.29687 z m 10.83984,0.0586 c 3.81025,2.06387 5.08575,2.20579 6.95118,2.28516 0,0 1.97042,-0.32408 2.60547,1.02539 0.29766,0.77394 -0.37562,2.20368 -1.94336,2.04492 -1.50821,-0.19845 -5.19217,-1.94215 -7.61329,-5.35547 z m -15.53515,1.8418 c 2.13331,10.47274 -2.94922,13.93555 -2.94922,13.93555 -1.82301,1.16364 -3.40714,-0.0682 -2.98047,-1.96875 0,0 0.22024,-0.94786 1.53906,-1.85938 1.02785,-0.89211 2.97491,-2.23348 4.39063,-10.10742 z m -13.23633,0.70117 c -1.45458,5.06183 -5.66797,8.4375 -5.66797,8.4375 -0.85938,0.59265 -2.4511,0.96785 -3,0.43945 -0.52873,-0.509 -0.51465,-1.65557 -0.10547,-2.59765 0.59296,-1.33992 1.95373,-1.62034 4.05274,-2.72852 1.42287,-0.75119 3.72251,-2.47164 4.7207,-3.55078 z m 5.08398,0.69141 c -1.39634,8.74667 -4.5371,12.36718 -4.5371,12.36718 -0.79193,1.03588 -1.87765,1.61439 -2.87305,1.35743 -1.04916,-0.27076 -1.69,-1.94264 -1.00391,-3.3125 0.96006,-2.09379 2.97524,-2.93709 4.72071,-4.88282 1.40749,-1.56897 2.77922,-3.51937 3.69335,-5.52929 z m -20.9121,0.13281 c 0.37025,-0.0299 0.7905,0.0516 1.25,0.28516 3.94104,1.64533 8.51171,0.25195 8.51171,0.25195 -1.16669,1.59661 -7.65988,4.28937 -11.03515,2.45508 -1.01051,-0.67111 -0.33101,-2.86258 1.27344,-2.99219 z m 41.70703,0.40039 c 3.73086,5.33831 5.37237,6.19937 7.51562,7.54883 1.52805,0.71443 1.87305,1.68555 1.87305,1.68555 0.21828,0.61521 0.0904,2.01373 -1.67578,2.13281 0,0 -0.77581,0.18616 -1.98633,-0.96485 0,0 -4.65494,-4.36947 -5.72656,-10.40234 z m -9.71094,0.91797 c 1.01755,3.66892 2.71278,6.24145 5.16797,7.81445 1.27993,0.79733 0.82763,2.41329 -0.13086,3.24414 -0.39155,0.33949 -1.29691,0.87371 -2.20508,0.4668 -0.84081,-0.37672 -1.53012,-1.96917 -1.82422,-2.6543 -1.42912,-3.16146 -1.20093,-4.924 -1.00781,-8.87109 z m 27.25977,2.59375 c 0.35147,-0.0212 0.75131,0.028 1.13085,0.23633 0.51597,0.29769 1.43027,1.81035 -0.0976,2.56445 -2.05535,0.87942 -7.30226,0.4282 -9.46094,-2.32226 1.90509,0.77395 4.45359,0.91632 7.39063,-0.21485 0,0 0.45131,-0.22828 1.03711,-0.26367 z m 8.13867,1.28906 c 0.23322,1.28267 -0.34961,2.85547 -0.34961,2.85547 -3.9646,9.15356 -11.58651,14.95344 -13.08789,15.83008 0.29151,-1.60333 -0.14616,-2.09991 -1.25391,-2.94531 3.70223,-2.50702 12.94233,-12.76679 14.69141,-15.74024 z m -72.59375,0.0606 c 1.7491,2.97344 10.98915,13.23516 14.6914,15.74219 -1.10777,0.84537 -1.54349,1.34006 -1.25195,2.94336 -1.50138,-0.87662 -9.12522,-6.67457 -13.08984,-15.82813 0,0 -0.58281,-1.57477 -0.34961,-2.85742 z m 75.48828,5.47461 c 1.04808,6.07886 -13.20646,15.5723 -14.04492,15.93164 0.17967,-1.28764 -0.20907,-2.5462 -1.10743,-2.30664 0,0 7.93558,-5.89915 15.15235,-13.625 z m -78.38281,0.0625 c 7.21678,7.72583 15.15234,13.625 15.15234,13.625 -0.89834,-0.23956 -1.28709,1.01706 -1.10742,2.30469 -0.83848,-0.35931 -15.09301,-9.85083 -14.04492,-15.92969 z m 39.31054,1.46484 c 0.15515,0.93091 0.51166,1.65102 1.05469,2.29102 2.49657,2.75942 3.20121,6.84974 -1.69141,6.90234 -3.13017,-0.0682 -2.94528,-2.87281 -2.01953,-4.91016 0.73973,-1.62796 2.06195,-2.257 2.65625,-4.2832 z m 40.71875,4.85156 c 1.91649,4.19232 -13.7742,12.66669 -14.91211,12.90625 0.35934,-0.74863 0.44852,-2.33531 -0.15039,-2.63476 4.37199,-3.08435 13.02623,-8.355 15.0625,-10.27149 z m -81.67578,0.0606 c 2.03628,1.9165 10.6905,7.18714 15.0625,10.27149 -0.59888,0.29945 -0.50956,1.88615 -0.15039,2.63476 -1.1379,-0.23955 -16.82859,-8.71392 -14.91211,-12.90625 z m 20.39453,4.43945 c 0.17312,0.006 0.36117,0.0345 0.5625,0.0859 2.59468,0.70339 4.73579,1.37151 7.73828,2.35938 0.42983,0.15186 0.11988,1.29116 -0.25,2.02929 -0.61458,1.19694 -1.10285,1.85736 -1.63671,2.79102 -1.19997,2.09868 -2.01644,3.32809 -1.99024,4.59766 -0.002,0.79196 0.19483,1.22031 0.85742,1.88281 0.48223,0.48217 1.223,1.02266 2.10742,1.32031 1.6852,0.46446 3.38906,0.0785 4.55274,-0.56641 0.84377,-0.45298 1.4987,-0.24255 1.5918,0.0664 -0.79329,0.75998 -1.7645,2.21845 -1.98829,3.29492 -0.20379,0.69593 -0.0395,1.3891 0.1543,2.49024 0.30664,1.74284 0.6971,3.78089 1.13281,5.23242 -0.96708,-0.2196 -1.78763,-1.33563 -2.25,-2.8457 -0.0393,-0.12825 -0.12379,-10e-4 -0.15039,0.20117 -0.49605,3.1593 -3.3052,2.30064 -3.3164,0.0176 -7.3e-4,-0.14117 -0.16808,-0.33775 -0.23438,-0.1211 -0.88411,2.4094 -3.18032,1.98733 -3.35937,0 -0.0165,-0.18381 -0.0743,-0.32181 -0.20703,-0.16992 -1.79176,1.86943 -3.59482,0.75048 -3.14649,-1.08203 0.0335,-0.13728 0.10576,-0.41682 -0.0996,-0.28125 -2.53601,1.62677 -3.43314,-0.25539 -2.17969,-1.9375 0.0851,-0.0923 -0.0482,-0.23413 -0.21093,-0.14063 -2.5622,1.47239 -3.95214,-1.99209 -1.76172,-3.09765 0.17558,-0.0919 0.14684,-0.17657 -0.0742,-0.13867 -3.1573,0.54266 -2.74256,-3.27173 -0.16797,-3.02344 0.35307,0.0337 0.47814,-0.37296 0.23633,-0.41406 -3.05471,-0.51931 -2.64026,-3.57713 0.56836,-3.35547 0.2691,0.0199 0.27161,-0.16453 0.10742,-0.20313 -2.71955,-0.63917 -1.28919,-3.87893 0.5,-3.03125 0.0958,0.0455 0.29227,-0.0707 0.16211,-0.18359 -1.80699,-1.66688 -0.49454,-3.53592 1.50195,-3.10742 0.15605,0.0333 0.1662,0.022 0.125,-0.0801 -0.58296,-1.61618 -0.0869,-2.63515 1.125,-2.58985 z m 40.91211,0.0488 c 1.21191,-0.0453 1.70794,0.9756 1.125,2.5918 -0.0411,0.10211 -0.0309,0.11164 0.125,0.0781 1.99648,-0.42847 3.30694,1.44248 1.5,3.10938 -0.13015,0.11277 0.0683,0.22908 0.16406,0.18359 1.78922,-0.84768 3.21953,2.39213 0.5,3.03125 -0.1642,0.0387 -0.16135,0.223 0.10743,0.20313 3.20863,-0.22166 3.62109,2.8342 0.5664,3.35351 -0.24182,0.0411 -0.11686,0.44773 0.23633,0.41407 2.57458,-0.2483 2.98933,3.56805 -0.16797,3.02539 -0.22108,-0.0379 -0.24804,0.0466 -0.0723,0.13867 2.19041,1.10556 0.80046,4.57003 -1.76172,3.09766 -0.16271,-0.0935 -0.29797,0.0462 -0.21289,0.13867 1.25346,1.68211 0.35828,3.56619 -2.17774,1.93945 -0.20538,-0.13559 -0.13508,0.14398 -0.10156,0.28125 0.44836,1.83252 -1.35279,2.95146 -3.14453,1.08203 -0.13278,-0.15193 -0.19049,-0.0139 -0.20703,0.16992 -0.17904,1.98733 -2.47723,2.40938 -3.36133,0 -0.0663,-0.21667 -0.23172,-0.02 -0.23242,0.1211 -0.0112,2.28306 -2.82033,3.14169 -3.31641,-0.0176 -0.0266,-0.20265 -0.11087,-0.32941 -0.15039,-0.20117 -0.46237,1.51009 -1.25303,2.81043 -1.99023,3.06836 0.20353,-1.45806 0.58074,-2.8129 0.77734,-4.19141 0.19376,-1.10115 0.37118,-3.45624 0.40234,-4.17578 0.025,-0.92325 -0.0451,-1.82625 -0.0723,-2.70117 -0.0169,-0.34005 0.80711,0.22696 1.16992,0.31836 1.29776,0.33846 1.81483,0.32157 2.90625,0.01 0.8844,-0.29769 1.62517,-0.84006 2.10742,-1.32226 0.66256,-0.66248 0.85905,-1.08892 0.85742,-1.88086 0.0263,-1.26956 -0.79023,-2.50094 -1.99023,-4.59961 -0.53384,-0.93369 -1.02212,-1.59215 -1.63672,-2.78906 -0.36987,-0.73813 -0.67987,-1.8794 -0.25,-2.03126 3.00247,-0.98785 5.14359,-1.65598 7.73828,-2.35937 0.20131,-0.0513 0.38937,-0.0796 0.5625,-0.0859 z m 21.23828,1.30078 c 0.5617,4.33632 -13.21138,10.73916 -14.89648,11.03125 0.53923,-0.58417 0.85284,-2.24581 -0.11328,-3.14453 0,0 4.00655,-1.92384 8.05664,-3.92969 3.14201,-1.5561 6.47216,-3.16197 6.95312,-3.95703 z m -46.82422,0.041 c 0.86595,-0.0218 2.04231,0.30347 3.11524,0.85742 0.36465,0.17349 0.84671,0.60492 0.49609,1.55078 -0.0682,0.25014 -0.25562,1.26439 0.31641,1.7461 -0.005,0 0.56487,0.45259 0.76758,0.79882 0.27563,0.45701 0.25593,0.66666 0.084,0.875 -0.25633,0.3104 -0.54776,0.40881 -0.91211,0.46485 -0.42148,0.0602 -2.71881,0.29411 -4.10937,-1.64063 -0.18055,-0.25592 -0.72308,-0.91926 -0.27149,-1.41601 0,0 1.98867,1.74581 3.64453,1.42968 0.25158,-0.046 -0.13069,-0.36634 -0.48242,-0.375 -0.66236,-0.0145 -1.33917,-0.58748 -1.83594,-1.03906 -0.50862,-0.40775 -1.77069,-0.51491 -2.28906,-0.0898 -0.67739,0.60214 -1.03862,0.2243 -0.87304,1.39844 -0.20167,-0.0314 -0.57377,-0.18315 -0.75586,-0.47852 -0.42964,-0.69685 -0.49211,-2.01002 0.30078,-2.87695 0.50722,-0.60338 1.43513,-1.17028 2.80468,-1.20508 z m -36.58984,0.0215 h 0.002 c 0.48095,0.79507 3.80918,2.39896 6.95118,3.95508 4.05009,2.00584 8.05664,3.92969 8.05664,3.92969 -0.96611,0.8987 -0.65236,2.5623 -0.11329,3.14648 -1.68511,-0.29209 -15.45818,-6.69493 -14.89648,-11.03125 z m 21.8125,0.11329 c -0.0985,0.0207 -0.17773,0.10156 -0.17773,0.10156 -0.24876,0.23055 -0.1395,1.08679 0.23242,1.25781 0.74562,0.37921 2.5664,1.04883 2.5664,1.04883 0.12575,0.0374 0.25114,0.17153 0.10743,0.33203 -0.39708,0.44367 -1.10858,1.63844 -2.00391,3.66406 0,0 -2.58903,6.63676 1,9.23828 2.61072,1.83078 6.93362,0.41354 8.0293,-0.16601 0.17064,-0.096 0.0651,-0.34411 -0.23828,-0.28711 -2.52176,0.64467 -7.88263,1.19334 -8.07227,-3.41406 -0.0758,-2.62605 1.45241,-6.44993 4.08789,-9.58789 0.0689,-0.0838 0.1745,-0.31311 -0.13281,-0.40821 -1.79813,-0.50652 -3.60285,-1.11276 -5.29688,-1.77539 -0.035,-0.0121 -0.0687,-0.0108 -0.10156,-0.004 z m 39.81445,0.0488 c -0.0328,-0.007 -0.0685,-0.006 -0.10351,0.006 -1.69403,0.66264 -3.49878,1.26885 -5.29688,1.77539 -0.3073,0.0951 -0.19976,0.32445 -0.13086,0.40821 2.63552,3.13796 4.16374,6.96186 4.08789,9.58789 -0.1896,4.60743 -4.45818,3.9999 -7.15234,3.64257 -0.30338,-0.057 -0.73506,0.0954 -0.56445,0.19141 2.13003,0.40713 4.82287,1.86388 7.43359,0.0332 3.58902,-2.60151 1.00195,-9.23828 1.00195,-9.23828 -0.89531,-2.0256 -1.60685,-3.22235 -2.0039,-3.66601 -0.14371,-0.16048 -0.0204,-0.29269 0.10547,-0.33008 0,0 1.82274,-0.66962 2.56836,-1.04883 0.37195,-0.17102 0.48116,-1.02722 0.23242,-1.25781 0,0 -0.0793,-0.0828 -0.17774,-0.10352 z m -17.95507,0.48047 c 1.26019,0.0165 2.46353,0.35385 3.54296,0.72656 0.71668,0.22762 0.82492,1.109 0.85352,1.4961 0,0 0.0936,1.26795 0.0996,2.58984 0.007,1.09714 0.12745,3.08127 0.18945,3.58399 0.13089,1.22501 0.31115,2.11999 0.45899,2.73242 0.24011,0.91917 0.88658,2.40505 1.44336,2.63672 0.028,0.34653 0.0527,0.75586 0.0527,0.75586 0,0 -0.94502,-0.33161 -2.28516,-1.00196 -1.02309,-0.51174 -2.23036,-1.56475 -2.41992,-1.23828 -0.16968,0.29816 -0.23385,1.26475 -0.0527,2.27735 0,0 0.37605,1.53964 -0.61524,2.11523 0,0 -0.83867,-2.47567 -1.6914,-3.11523 -0.51164,-0.35174 -1.51331,-0.37339 -1.84375,0.21289 0,0 -1.45946,2.31394 -1.26758,3.25195 -0.43705,-0.0426 -1.38251,-1.83064 -1.20117,-3.78125 0.0213,-0.29834 -0.2907,-0.87241 -0.87696,-0.41406 0,0 -2.67266,2.23909 -4.15429,2.3457 0.51167,-1.26843 1.68554,-2.60742 1.68554,-2.60742 0.40503,-0.55429 0.39955,-1.02531 -0.33593,-1.00391 0,0 -1.89448,0.12887 -3.01367,0.875 1.72044,-2.48833 2.86223,-3.21297 4.30859,-4.54687 0.94326,-0.86986 1.50018,-1.54414 1.66211,-1.71289 0.13035,-0.1096 0.3307,-0.0577 0.5332,-0.0371 0.80417,0.088 1.52764,0.11715 2.11133,0.0351 0.80071,-0.13963 1.18284,-0.46715 1.21484,-1.13867 0.0414,-1.46721 -0.99741,-1.52997 -1.24609,-2.02734 -0.1201,-0.26737 -0.0934,-0.60605 -0.0234,-0.99805 0.0709,-0.39785 -0.12513,-1.29027 0.11719,-1.38867 l 0.4375,-0.2461 c 0.78335,-0.28287 1.56029,-0.38687 2.31641,-0.37695 z m 41.42578,5.11524 c 0.0225,3.61734 -13.92884,8.4695 -16.66992,9.16601 1.55028,-1.23574 1.46023,-2.51633 0.58398,-3.34765 0,0 1.88961,-0.76795 5.30078,-1.80469 3.83639,-1.16597 8.9053,-2.94127 10.78516,-4.01367 z m -86.78125,0.0605 c 1.87989,1.0724 6.95072,2.84964 10.78711,4.01563 3.41118,1.03674 5.29882,1.80273 5.29882,1.80273 -0.87629,0.83132 -0.96631,2.11194 0.58399,3.34766 -2.7411,-0.69648 -16.69236,-5.54868 -16.66992,-9.16602 z m 84.89453,6.47657 c 0.31455,3.505 -13.21081,6.71783 -16.73828,6.51562 1.16834,-0.60664 1.97764,-1.25825 1.64062,-2.98828 0,0 3.15535,-0.81688 6.68946,-1.55664 3.06377,-0.6413 6.39461,-1.14648 8.4082,-1.9707 z m -83.00781,0.0625 c 2.01359,0.82423 5.34638,1.32746 8.41015,1.96875 3.53411,0.73977 6.68945,1.55859 6.68946,1.55859 -0.33702,1.73003 0.47033,2.38164 1.63867,2.98828 -3.52749,0.20221 -17.05284,-3.0106 -16.73828,-6.51562 z m 46.41796,1.77148 c 0,0 1.33209,1.12833 3.26563,2.03906 -1.09093,8.37616 -3.08918,18.810468 -7.27734,29.322268 -3.50645,-8.65107 -6.81777,-16.264316 -9.11133,-28.564448 0,0 3.60102,-1.18811 4.35937,-2.31641 0.20347,2.6635 2.09571,4.57422 2.09571,4.57422 0,0 1.06835,-2.17389 2.4414,-4.10742 1.21898,1.76539 2.69141,4.42968 2.69141,4.42968 0,0 2.16563,-2.51869 1.53515,-5.37695 z m 34.58985,4.39062 c -0.7612,2.44032 -5.19651,3.4254 -9.50196,3.59766 -4.33609,0.17348 -8.53906,-0.47461 -8.53906,-0.47461 1.34808,-0.40442 2.539,-0.96737 2.71875,-2.24805 0,0 11.95208,0.83257 15.32227,-0.875 z m -79.00781,0.0606 c 3.37022,1.70758 15.32226,0.87695 15.32226,0.87695 0.17973,1.28067 1.37067,1.84168 2.71875,2.2461 0,0 -4.20295,0.65004 -8.53906,0.47656 -4.30542,-0.17227 -8.74074,-1.15929 -9.50195,-3.59961 z m 60.24804,3.51172 c 0,0 2.22411,0.69367 5.32813,1.53906 2.65524,0.72317 5.99792,1.63568 9.34375,1.44922 -3.64248,2.415548 -8.7715,1.905251 -12.54883,0.70508 -2.8631,-0.90969 -4.74193,-2.17966 -5.04492,-2.75 1.61769,0.4269 2.71966,-0.0671 2.92187,-0.94336 z m -41.48828,0.0605 c 0.20221,0.87626 1.30419,1.37027 2.92188,0.94336 -0.303,0.57034 -2.18181,1.84227 -5.04493,2.75195 -3.77733,1.20019 -8.90437,1.708486 -12.54687,-0.70703 3.34583,0.18644 6.68656,-0.72605 9.3418,-1.44922 3.10401,-0.84539 5.32812,-1.53906 5.32812,-1.53906 z m 37.48828,1.19726 c 4.96542,6.470776 12.56055,7.503909 12.56055,7.503909 -0.67404,0.516764 -9.57152,1.326706 -15.07617,-6.626949 1.48288,0.53923 1.88651,-0.11305 2.51562,-0.87696 z m -33.48828,0.0606 c 0.62911,0.76391 1.03275,1.41618 2.51563,0.87695 -5.50466,7.95366 -14.40018,7.145659 -15.07422,6.628909 0,0 7.59318,-1.035092 12.55859,-7.505859 z m 26.05274,0.0508 c 1.95471,1.1908 2.53786,1.14574 3.23437,0.4043 2.26926,6.335965 7.75195,9.347654 7.75195,9.347654 -1.57276,0.04494 -7.45885,-0.248002 -10.98632,-9.751954 z m -18.61524,0.0625 c -3.52749,9.503938 -9.41357,9.794941 -10.98633,9.750001 0,0 5.48072,-3.009726 7.75,-9.345701 0.69648,0.74145 1.28163,0.78649 3.23633,-0.4043 z m 3.95117,8.767579 c 0.67984,2.40368 1.78321,5.419922 1.78321,5.419922 -7.33247,11.70278 -11.8711,12.517578 -11.8711,12.517578 0,0 6.78584,-8.54129 10.08789,-17.9375 z m 11.28907,0.291016 c 5.92421,12.64966 10.44726,17.451172 10.44726,17.451172 0,0 -4.17338,-0.234874 -11.67578,-12.496094 0,0 1.05856,-3.109868 1.22852,-4.955078 z m 23.22851,0.792969 c 1.03487,4.68571 3.41979,9.197309 3.82227,11.037109 0.5405,2.2228 0.34101,4.721005 -1.88672,5.828125 -2.78014,1.38165 -7.48573,-0.487531 -5.73047,-6.144531 0.57491,-1.89727 2.78879,-6.006253 3.79492,-10.720703 z m -57.75195,0.113281 c 1.20737,4.65696 3.13209,8.797884 3.70703,10.177734 1.69436,4.09114 -0.50584,7.145235 -3.76563,7.115235 -3.23334,-0.02963 -4.56529,-3.130321 -4.10937,-5.363282 0.43119,-2.414739 3.82302,-8.911287 4.16797,-11.929687 z m 25.40234,4.976563 c 0.75266,2.08804 1.70117,4.351562 1.70117,4.351562 -8.5707,13.45089 -12.71679,12.501953 -12.71679,12.501953 0,0 4.58154,-4.203846 11.01562,-16.853515 z m 7.61524,0.300781 c 6.72545,12.81962 11.02539,16.554687 11.02539,16.554687 0,0 -3.24168,1.646317 -12.49219,-12.314453 0,0 0.81127,-1.836574 1.4668,-4.240234 z m -5.46094,5.001953 c 0.82551,1.86951 2.01953,3.833984 2.01953,3.833984 0,0 1.08076,-1.991272 1.73633,-3.763672 0.50984,12.06695 -1.21289,18.589844 -1.21289,18.589844 0,0 -2.10593,-5.622036 -2.54297,-18.660156 z"
     style="opacity:0.76999996;fill:#f45a0a;fill-opacity:0.722;stroke:none;stroke-width:0.52350438;stroke-linecap:square;stroke-linejoin:miter;stroke-miterlimit:10;stroke-dasharray:0.73276757, 0.5234054;stroke-dashoffset:0;stroke-opacity:1;paint-order:markers stroke fill"
     inkscape:connector-curvature="0" /></g>

  <animateTransform
   id="layer2"
   attributeName="transform"
   type="scale"
   begin="g2019.click"
   dur="6"
   from="1"
   to="0"
   additive="sum"
   calcMode="spline"
   keyTimes="0;1"
   keySplines=".6  0    .5   1  "
   restart="whenNotActive" />
        <animateTransform
   id="layer2"
   attributeName="transform"
   type="translate"
   begin="g2019.click"
   dur="6"
   from="0,0"
   to="0,0"
   additive="sum"
   calcMode="spline"
   keyTimes="0;1"
   keySplines=".6  0    .5   1  "
   restart="whenNotActive" />  
       <animateTransform
   id="layer2"
   attributeName="transform"
   type="rotate"
   begin="g2019.click+3"
   dur="6"
   from="720,0,0"
   to="0,0,0"
   additive="sum"
   calcMode="spline"
   keyTimes="0;1"
   keySplines=".6  0    .5   1  "
   restart="whenNotActive" />   
      <animateTransform
   id="layer2"
   attributeName="transform"
   type="skewX"
   begin="g2019.click"
   dur="6"
   from="0"
   to="95"
   additive="sum"
   calcMode="spline"
   keyTimes="0;1"
   keySplines=".6  0    1   1  "
   restart="whenNotActive" />
	  <animateTransform
   id="layer2"
   attributeName="transform"
   type="skewX"
   begin="g2019.click+6"
   dur="6"
   from="75"
   to="0"
   additive="sum"
   calcMode="spline"
   keyTimes="0;1"
   keySplines=".6  0    .6   1  "
   restart="whenNotActive" />
       <animateTransform
   id="layer2"
   attributeName="transform"
   type="scale"
   begin="g2019.click+6"
   dur="6"
   from="0"
   to="1"
   additive="sum"
   calcMode="spline"
   keyTimes="0;1"
   keySplines=".6  0    .6   1  "
   restart="whenNotActive" /> 
	
        <animateTransform
   id="layer2"
   attributeName="transform"
   type="translate"
   begin="g2019.click+6"
   dur="6"
   from="0,0"
   to="0,0"
   additive="sum"
   calcMode="spline"
   keyTimes="0;1"
   keySplines=".6  0    .6   1  "
   restart="whenNotActive" />  
<g
   inkscape:groupmode="layer"
   id="layer1"
   inkscape:label="Layer 1"
   style="display:none"
   transform="translate(0,-25)" /><g
   inkscape:groupmode="layer"
   id="layer2"
   inkscape:label="Layer 2"
   transform="translate(0,-25)">
	 </g>
	 

	 
	 
	 










	 
	 
        
	 
	 

<text
   xml:space="preserve"
   style="font-style:normal;font-variant:normal;font-weight:normal;font-stretch:normal;font-size:6.82101154px;line-height:1;font-family:Arial;-inkscape-font-specification:'Arial, Normal';font-variant-ligatures:normal;font-variant-caps:normal;font-variant-numeric:normal;text-align:start;letter-spacing:0px;word-spacing:0px;writing-mode:lr-tb;text-anchor:start;fill:#ffffff;fill-opacity:0.722;stroke:none;stroke-width:1.38756263;stroke-miterlimit:2;stroke-dasharray:1.94222056, 1.38730040000000021;stroke-dashoffset:0;stroke-opacity:1;"
   x="8.3595419"
   y="0.45336908"
   id="text1460-2"
   class=""
   transform="scale(1.0228856,0.97762644)"><tspan
     sodipodi:role="line"
     x="8.3595419"
     y="5.7447991"
     style="font-size:7.82101154px;fill:#ffffff;fill-opacity:0.722;stroke:none;stroke-width:0.32144168;stroke-opacity:1;"
     id="tspan5557-1" /><tspan
     sodipodi:role="line"
     x="8.3595419"
     y="12.56581"
     style="font-size:5.33333349px;fill:#ffffff;fill-opacity:0.722;stroke:none;stroke-width:0.32144168;stroke-opacity:1;"
     id="tspan1790">01. 0:00 NIGHT TRAVELER - ‘Put Your Money On Me’ </tspan><tspan
     sodipodi:role="line"
     x="8.3595419"
     y="19.386822"
     style="font-size:5.33333349px;fill:#ffffff;fill-opacity:0.722;stroke:none;stroke-width:0.32144168;stroke-opacity:1;"
     id="tspan1796">02. 3:09 The Money War - ‘Lifetime’</tspan><tspan
     sodipodi:role="line"
     x="8.3595419"
     y="26.207834"
     style="font-size:5.33333349px;fill:#ffffff;fill-opacity:0.722;stroke:none;stroke-width:0.32144168;stroke-opacity:1;"
     id="tspan1802">03. 6:20 Francis Moon - ‘Eyes On You’</tspan><tspan
     sodipodi:role="line"
     x="8.3595419"
     y="33.028847"
     style="font-size:5.33333349px;fill:#ffffff;fill-opacity:0.722;stroke:none;stroke-width:0.32144168;stroke-opacity:1;"
     id="tspan1808">04. 9:26 Spacey Jane - ‘Booster Seat’</tspan><tspan
     sodipodi:role="line"
     x="8.3595419"
     y="39.849857"
     style="font-size:5.33333349px;fill:#ffffff;fill-opacity:0.722;stroke:none;stroke-width:0.32144168;stroke-opacity:1;"
     id="tspan1814">05. 13:50 Somebody’s Child - ‘Hold Me Like You Wanna’</tspan><tspan
     sodipodi:role="line"
     x="8.3595419"
     y="46.670868"
     style="font-size:5.33333349px;fill:#ffffff;fill-opacity:0.722;stroke:none;stroke-width:0.32144168;stroke-opacity:1;"
     id="tspan1820">06. 17:44 ØZWALD  - ‘After the Glowin’</tspan><tspan
     sodipodi:role="line"
     x="8.3595419"
     y="53.491879"
     style="font-size:5.33333349px;fill:#ffffff;fill-opacity:0.722;stroke:none;stroke-width:0.32144168;stroke-opacity:1;"
     id="tspan1826">07. 20:35 Wild Front - ‘Two’</tspan><tspan
     sodipodi:role="line"
     x="8.3595419"
     y="60.312893"
     style="font-size:5.33333349px;fill:#ffffff;fill-opacity:0.722;stroke:none;stroke-width:0.32144168;stroke-opacity:1;"
     id="tspan1832">08. 24:36 Frills - ‘I’m Going Under’</tspan><tspan
     sodipodi:role="line"
     x="8.3595419"
     y="67.133904"
     style="font-size:5.33333349px;fill:#ffffff;fill-opacity:0.722;stroke:none;stroke-width:0.32144168;stroke-opacity:1;"
     id="tspan1838">09. 27:47 Kios - ‘Be Alright’</tspan><tspan
     sodipodi:role="line"
     x="8.3595419"
     y="73.954918"
     style="font-size:5.33333349px;fill:#ffffff;fill-opacity:0.722;stroke:none;stroke-width:0.32144168;stroke-opacity:1;"
     id="tspan1844">10. 30:58 LOUD HOUND - ‘Keep Ya Head Up’</tspan><tspan
     sodipodi:role="line"
     x="8.3595419"
     y="80.775925"
     style="font-size:5.33333349px;fill:#ffffff;fill-opacity:0.722;stroke:none;stroke-width:0.32144168;stroke-opacity:1;"
     id="tspan1850">11. 34:25 Some Sprouts - 'Summer Daze’</tspan><tspan
     sodipodi:role="line"
     x="8.3595419"
     y="87.596939"
     style="font-size:5.33333349px;fill:#ffffff;fill-opacity:0.722;stroke:none;stroke-width:0.32144168;stroke-opacity:1;"
     id="tspan1856">12. 37:40 Dancing On Tables - ‘Riviera’</tspan><tspan
     sodipodi:role="line"
     x="8.3595419"
     y="94.417946"
     style="font-size:5.33333349px;fill:#ffffff;fill-opacity:0.722;stroke:none;stroke-width:0.32144168;stroke-opacity:1;"
     id="tspan1862">13. 40:46 Honeywhip - ‘Think About U’</tspan><tspan
     sodipodi:role="line"
     x="8.3595419"
     y="101.23896"
     style="font-size:5.33333349px;fill:#ffffff;fill-opacity:0.722;stroke:none;stroke-width:0.32144168;stroke-opacity:1;"
     id="tspan1868">14. 43:42 naavi – ‘something to tell’</tspan><tspan
     sodipodi:role="line"
     x="8.3595419"
     y="108.05997"
     style="font-size:5.33333349px;fill:#ffffff;fill-opacity:0.722;stroke:none;stroke-width:0.32144168;stroke-opacity:1;"
     id="tspan1874">15. 46:39 Grand Lotus - ‘The Feeling’</tspan><tspan
     sodipodi:role="line"
     x="8.3595419"
     y="114.88098"
     style="font-size:5.33333349px;fill:#ffffff;fill-opacity:0.722;stroke:none;stroke-width:0.32144168;stroke-opacity:1;"
     id="tspan1880">16. 50:04 The Solarists - ’Lonely’</tspan><tspan
     sodipodi:role="line"
     x="8.3595419"
     y="121.702"
     style="font-size:5.33333349px;fill:#ffffff;fill-opacity:0.722;stroke:none;stroke-width:0.32144168;stroke-opacity:1;"
     id="tspan1886">17. 53:25 Caity Krone - ‘I’ve Been Lonely’</tspan><tspan
     sodipodi:role="line"
     x="8.3595419"
     y="128.52301"
     style="font-size:5.33333349px;fill:#ffffff;fill-opacity:0.722;stroke:none;stroke-width:0.32144168;stroke-opacity:1;"
     id="tspan1892">18. 56:42 Rowan - 'Moonlight’</tspan><tspan
     sodipodi:role="line"
     x="8.3595419"
     y="135.34402"
     style="font-size:5.33333349px;fill:#ffffff;fill-opacity:0.722;stroke:none;stroke-width:0.32144168;stroke-opacity:1;"
     id="tspan1898">19. 1:00:41 Carolines - ‘Money’</tspan><tspan
     sodipodi:role="line"
     x="8.3595419"
     y="142.16502"
     style="font-size:5.33333349px;fill:#ffffff;fill-opacity:0.722;stroke:none;stroke-width:0.32144168;stroke-opacity:1;"
     id="tspan1904">20. 1:03:53 Chris George Bancroft - ‘Don’t Want to Die’</tspan><tspan
     sodipodi:role="line"
     x="8.3595419"
     y="148.98604"
     style="font-size:5.33333349px;fill:#ffffff;fill-opacity:0.722;stroke:none;stroke-width:0.32144168;stroke-opacity:1;"
     id="tspan1910">21. 1:07:25 Polar States - ‘2020’</tspan><tspan
     sodipodi:role="line"
     x="8.3595419"
     y="155.80705"
     style="font-size:5.33333349px;fill:#ffffff;fill-opacity:0.722;stroke:none;stroke-width:0.32144168;stroke-opacity:1;"
     id="tspan1916">22. 1:10:42 Tenderfoot – ‘The Balance’</tspan><tspan
     sodipodi:role="line"
     x="8.3595419"
     y="162.62807"
     style="font-size:5.33333349px;fill:#ffffff;fill-opacity:0.722;stroke:none;stroke-width:0.32144168;stroke-opacity:1;"
     id="tspan1922">23. 1:14:31 Lachlan - ‘Too Bad’</tspan><tspan
     sodipodi:role="line"
     x="8.3595419"
     y="169.44908"
     style="font-size:5.33333349px;fill:#ffffff;fill-opacity:0.722;stroke:none;stroke-width:0.32144168;stroke-opacity:1;"
     id="tspan1928">24. 1:17:01 Kloudink - ‘June Flower’</tspan><tspan
     sodipodi:role="line"
     x="8.3595419"
     y="176.27008"
     style="font-size:5.33333349px;fill:#ffffff;fill-opacity:0.722;stroke:none;stroke-width:0.32144168;stroke-opacity:1;"
     id="tspan1934">25. 1:20:46 Jaguar Sun – ‘Keep You Warm’</tspan></text>

<path
   style="font-size:14.41752338px;fill:none;fill-opacity:0.94117647;stroke:#ffffff;stroke-width:0.4579747;stroke-miterlimit:2;stroke-dasharray:0.64104331, 0.45788809;stroke-dashoffset:0;stroke-opacity:1"
   d="m 225.17986,19.94788 c -0.22175,2.169919 -0.36536,5.221119 -0.50225,7.188923 -0.2456,3.531069 -0.36438,4.696359 -0.36438,4.696359 -0.0908,0.78886 0.34511,1.956005 0.75973,1.637127 0.63012,-0.484573 0.76104,-1.285579 0.71863,-1.777955 0,0 0.11982,-1.200123 0.0269,-4.107762 -0.0717,-2.240078 -0.36669,-4.124922 -0.63853,-7.636692 z"
   id="path2697"
   inkscape:connector-curvature="0"
   sodipodi:nodetypes="cscscsc"
   class="letters" /><path
   style="font-size:14.41752338px;fill:none;fill-opacity:0.94117647;stroke:#ffffff;stroke-width:0.4579747;stroke-miterlimit:2;stroke-dasharray:0.64104331, 0.45788809;stroke-dashoffset:0;stroke-opacity:1"
   d="m 205.68493,94.56565 c -1.2119,-0.04534 -1.70779,0.97484 -1.12483,2.59102 0.0412,0.1021 0.0306,0.11212 -0.12545,0.0788 -1.99649,-0.4285 -3.30801,1.44216 -1.50102,3.10903 0.13016,0.11292 -0.0671,0.22856 -0.16287,0.18307 -1.78919,-0.84768 -3.21926,2.39255 -0.49971,3.03172 0.16419,0.0386 0.16193,0.22304 -0.10717,0.20315 -3.20862,-0.22166 -3.6226,2.83458 -0.56789,3.35389 0.24181,0.0411 0.11646,0.44781 -0.23661,0.41415 -2.57459,-0.24829 -2.98896,3.56752 0.16834,3.02486 0.22106,-0.0379 0.24898,0.0463 0.0734,0.13816 -2.19042,1.10556 -0.80081,4.56955 1.76139,3.09716 0.1627,-0.0935 0.29695,0.0481 0.21186,0.14043 -1.25345,1.68211 -0.35637,3.56525 2.17964,1.93848 0.20537,-0.13557 0.13336,0.14416 0.0999,0.28144 -0.44833,1.83251 1.35392,2.95123 3.14568,1.0818 0.13277,-0.15189 0.18938,-0.0145 0.20593,0.16931 0.17905,1.98733 2.47708,2.4103 3.36119,9e-4 0.0663,-0.21665 0.23221,-0.0203 0.23294,0.12087 0.0112,2.28306 2.82029,3.1411 3.31634,-0.0182 0.0266,-0.20266 0.11176,-0.32869 0.15103,-0.20044 0.46237,1.51007 1.28349,2.62542 2.25057,2.84502 -0.43571,-1.45153 -0.82641,-3.49005 -1.13305,-5.23289 -0.19378,-1.10114 -0.35802,-1.79302 -0.15423,-2.48895 0.22379,-1.07647 1.19553,-2.53489 1.98882,-3.29487 -0.0931,-0.30896 -0.74828,-0.51928 -1.59205,-0.0663 -1.16368,0.64494 -2.86765,1.03054 -4.55285,0.56608 -0.88442,-0.29765 -1.62604,-0.8385 -2.10827,-1.32067 -0.66259,-0.6625 -0.85968,-1.09024 -0.85804,-1.8822 -0.0262,-1.26957 0.79158,-2.50037 1.99155,-4.59905 0.53386,-0.93366 1.02096,-1.59316 1.63554,-2.7901 0.36988,-0.73813 0.68075,-1.87871 0.25092,-2.03057 -3.00249,-0.98787 -5.14377,-1.65552 -7.73845,-2.358904 -0.20133,-0.05138 -0.3893,-0.07969 -0.56242,-0.08592 z m 0.37124,1.62856 c 0,0 0.14011,-0.14626 0.28006,-0.0979 1.69403,0.66264 3.49868,1.26865 5.29681,1.77517 0.30731,0.0951 0.20054,0.32397 0.13165,0.40773 -2.63548,3.13797 -4.16281,6.96197 -4.08699,9.58802 0.18964,4.6074 5.54974,4.05804 8.0715,3.41337 0.30336,-0.057 0.40904,0.1914 0.2384,0.28738 -1.09568,0.57955 -5.41773,1.99781 -8.02845,0.16703 -3.58903,-2.60152 -1.00014,-9.2383 -1.00014,-9.2383 0.89533,-2.02562 1.6057,-3.22193 2.00278,-3.6656 0.14371,-0.1605 0.0197,-0.29303 -0.10605,-0.33041 0,0 -1.82217,-0.67007 -2.56779,-1.04928 -0.37192,-0.17102 -0.48057,-1.02665 -0.23181,-1.2572 z"
   id="path5962"
   inkscape:connector-curvature="0"
   sodipodi:nodetypes="cccccccsccccccccccsccccccccccccccscccccccccccccc"
   class="letters" /><path
   style="font-size:14.41752338px;fill:none;fill-opacity:0.94117647;stroke:#ffffff;stroke-width:0.4579747;stroke-miterlimit:2;stroke-dasharray:0.64104331, 0.45788809;stroke-dashoffset:0;stroke-opacity:1"
   d="m 189.83231,78.21357 c 1.7491,2.973446 10.9901,13.234765 14.69235,15.741785 -1.10777,0.84538 -1.54507,1.34097 -1.25353,2.94428 -1.50138,-0.87662 -9.12439,-6.67568 -13.08901,-15.829238 0,0 -0.58301,-1.574178 -0.34981,-2.856827 z"
   id="path3240"
   inkscape:connector-curvature="0"
   sodipodi:nodetypes="ccccc"
   class="letters" /><path
   style="font-size:14.41752338px;fill:none;fill-opacity:0.94117647;stroke:#ffffff;stroke-width:0.4579747;stroke-miterlimit:2;stroke-dasharray:0.64104331, 0.45788809;stroke-dashoffset:0;stroke-opacity:1"
   d="m 186.93778,83.75068 c 7.21678,7.725832 15.15222,13.62503 15.15222,13.62503 -0.89834,-0.23956 -1.28763,1.01813 -1.10796,2.30576 -0.83848,-0.35931 -15.09235,-9.851927 -14.04426,-15.93079 z"
   id="path5884"
   inkscape:connector-curvature="0"
   sodipodi:nodetypes="cccc"
   class="letters" /><path
   style="font-size:14.41752338px;fill:none;fill-opacity:0.94117647;stroke:#ffffff;stroke-width:0.4579747;stroke-miterlimit:2;stroke-dasharray:0.64104331, 0.45788809;stroke-dashoffset:0;stroke-opacity:1"
   d="m 185.29129,90.12768 c 2.03628,1.91649 10.69043,7.18684 15.06243,10.27119 -0.59888,0.29945 -0.50906,1.88655 -0.14989,2.63516 -1.1379,-0.23955 -16.82916,-8.71403 -14.91268,-12.90635 z"
   id="path5886"
   inkscape:connector-curvature="0"
   sodipodi:nodetypes="cccc"
   class="letters" /><path
   style="font-size:14.41752338px;fill:none;fill-opacity:0.94117647;stroke:#ffffff;stroke-width:0.4579747;stroke-miterlimit:2;stroke-dasharray:0.64104331, 0.45788809;stroke-dashoffset:0;stroke-opacity:1"
   d="m 184.42215,95.97921 c 0.48095,0.795071 3.81058,2.400566 6.95258,3.95669 4.05009,2.00584 8.05602,3.92958 8.05602,3.92958 -0.96611,0.8987 -0.65156,2.56133 -0.11249,3.14551 -1.68512,-0.29209 -15.45796,-6.69546 -14.89626,-11.03178 z"
   id="path5888"
   inkscape:connector-curvature="0"
   sodipodi:nodetypes="csccc"
   class="letters" /><path
   style="font-size:14.41752338px;fill:none;fill-opacity:0.94117647;stroke:#ffffff;stroke-width:0.4579747;stroke-miterlimit:2;stroke-dasharray:0.64104331, 0.45788809;stroke-dashoffset:0;stroke-opacity:1"
   d="m 182.73856,101.79751 c 1.87989,1.0724 6.95032,2.84931 10.78671,4.0153 3.41118,1.03674 5.3004,1.8039 5.3004,1.8039 -0.87629,0.83132 -0.96616,2.11199 0.58414,3.34771 -2.7411,-0.69648 -16.69369,-5.54957 -16.67125,-9.16691 z"
   id="path5890"
   inkscape:connector-curvature="0"
   sodipodi:nodetypes="csccc"
   class="letters" /><path
   style="font-size:14.41752338px;fill:none;fill-opacity:0.94117647;stroke:#ffffff;stroke-width:0.4579747;stroke-miterlimit:2;stroke-dasharray:0.64104331, 0.45788809;stroke-dashoffset:0;stroke-opacity:1"
   d="m 184.62528,108.33658 c 2.01359,0.82423 5.34538,1.32905 8.40915,1.97034 3.53411,0.73977 6.68934,1.55713 6.68934,1.55713 -0.33701,1.73003 0.47181,2.38161 1.64015,2.98825 -3.52749,0.20221 -17.0532,-3.0107 -16.73864,-6.51572 z"
   id="path5892"
   inkscape:connector-curvature="0"
   sodipodi:nodetypes="csccc"
   class="letters" /><path
   style="font-size:14.41752338px;fill:none;fill-opacity:0.94117647;stroke:#ffffff;stroke-width:0.4579747;stroke-miterlimit:2;stroke-dasharray:0.64104331, 0.45788809;stroke-dashoffset:0;stroke-opacity:1"
   d="m 186.62528,114.55928 c 0.76121,2.44032 5.19749,3.42641 9.50291,3.59868 4.33611,0.17348 8.53888,-0.47563 8.53888,-0.47563 -1.34808,-0.40442 -2.53888,-0.96612 -2.71861,-2.24679 0,0 -11.95296,0.83132 -15.32318,-0.87626 z"
   id="path5894"
   inkscape:connector-curvature="0"
   sodipodi:nodetypes="csccc"
   class="letters" /><path
   style="font-size:14.41752338px;fill:none;fill-opacity:0.94117647;stroke:#ffffff;stroke-width:0.4579747;stroke-miterlimit:2;stroke-dasharray:0.64104331, 0.45788809;stroke-dashoffset:0;stroke-opacity:1"
   d="m 190.71512,121.11978 c 3.34583,0.18644 6.68831,-0.72629 9.34355,-1.44946 3.10401,-0.84539 5.32803,-1.5388 5.32803,-1.5388 0.20221,0.87626 1.30315,1.37055 2.92084,0.94364 -0.303,0.57034 -2.18192,1.84123 -5.04504,2.75091 -3.77733,1.20019 -8.90488,1.70923 -12.54738,-0.70629 z"
   id="path5896"
   inkscape:connector-curvature="0"
   sodipodi:nodetypes="csccsc"
   class="letters" /><path
   style="font-size:14.41752338px;fill:none;fill-opacity:0.94117647;stroke:#ffffff;stroke-width:0.4579747;stroke-miterlimit:2;stroke-dasharray:0.64104331, 0.45788809;stroke-dashoffset:0;stroke-opacity:1"
   d="m 196.82645,126.89522 c 0,0 7.5942,-1.03353 12.55961,-7.5043 0.62911,0.76391 1.03354,1.41548 2.51642,0.87625 -5.50466,7.95366 -14.40199,7.1448 -15.07603,6.62805 z"
   id="path5898"
   inkscape:connector-curvature="0"
   sodipodi:nodetypes="cccc"
   class="letters" /><path
   style="font-size:14.41752338px;fill:none;fill-opacity:0.94117647;stroke:#ffffff;stroke-width:0.4579747;stroke-miterlimit:2;stroke-dasharray:0.64104331, 0.45788809;stroke-dashoffset:0;stroke-opacity:1"
   d="m 213.58766,119.90599 c 0.69648,0.74145 1.28068,0.78638 3.23538,-0.40441 -3.52749,9.50394 -9.41407,9.79602 -10.98683,9.75108 0,0 5.48217,-3.01069 7.75145,-9.34667 z"
   id="path5900"
   inkscape:connector-curvature="0"
   sodipodi:nodetypes="cccc"
   class="letters" /><path
   style="font-size:14.41752338px;fill:none;fill-opacity:0.94117647;stroke:#ffffff;stroke-width:0.4579747;stroke-miterlimit:2;stroke-dasharray:0.64104331, 0.45788809;stroke-dashoffset:0;stroke-opacity:1"
   d="m 246.59683,94.61647 c 1.21191,-0.04534 1.70779,0.974845 1.12485,2.591038 -0.0411,0.10211 -0.0305,0.112121 0.12544,0.07859 1.99648,-0.428463 3.30796,1.44218 1.50102,3.109082 -0.13015,0.11277 0.0671,0.22853 0.16287,0.18304 1.78922,-0.847674 3.21926,2.39258 0.49973,3.0317 -0.1642,0.0387 -0.16175,0.22306 0.10703,0.20319 3.20863,-0.22166 3.62261,2.83459 0.56792,3.3539 -0.24182,0.0411 -0.11659,0.4478 0.2366,0.41414 2.57458,-0.2483 2.98897,3.56752 -0.16833,3.02485 -0.22108,-0.0379 -0.24898,0.0463 -0.0732,0.13833 2.19041,1.10556 0.80081,4.56954 -1.76137,3.09716 -0.16271,-0.0935 -0.29698,0.048 -0.2119,0.14044 1.25346,1.68211 0.35638,3.56521 -2.17964,1.93847 -0.20538,-0.13559 -0.13332,0.14416 -0.0998,0.28143 0.44836,1.83252 -1.35393,2.95124 -3.14567,1.08181 -0.13278,-0.15193 -0.18939,-0.0145 -0.20593,0.16932 -0.17904,1.98733 -2.47712,2.41029 -3.36122,9.1e-4 -0.0663,-0.21667 -0.23221,-0.0203 -0.23291,0.12085 -0.0112,2.28306 -2.8203,3.14107 -3.31638,-0.0182 -0.0266,-0.20265 -0.11149,-0.32868 -0.15101,-0.20044 -0.46237,1.51009 -1.25249,2.80974 -1.98969,3.06767 0.20353,-1.45806 0.57978,-2.81279 0.77638,-4.1913 0.19376,-1.10115 0.37223,-3.45533 0.40339,-4.17487 0.025,-0.92325 -0.0463,-1.82589 -0.0735,-2.7008 -0.0169,-0.34006 0.80786,0.22535 1.17067,0.31674 1.29776,0.33846 1.81411,0.32181 2.90553,0.01 0.8844,-0.29769 1.626,-0.83851 2.10825,-1.32072 0.66256,-0.66248 0.85965,-1.09023 0.85802,-1.88217 0.0263,-1.26956 -0.79155,-2.50037 -1.99155,-4.59905 -0.53384,-0.93369 -1.02093,-1.59318 -1.63553,-2.790098 -0.36987,-0.738127 -0.68076,-1.878721 -0.25089,-2.030576 3.00247,-0.987861 5.14374,-1.655515 7.73843,-2.3589 0.20131,-0.05129 0.38929,-0.0796 0.56242,-0.08591 z m -0.37121,1.628558 c 0,0 -0.14014,-0.146249 -0.28007,-0.09788 -1.69403,0.662644 -3.4987,1.268636 -5.2968,1.775174 -0.3073,0.0951 -0.20055,0.323971 -0.13165,0.407726 2.63552,3.137962 4.16283,6.961972 4.08698,9.588002 -0.1896,4.60744 -4.45788,4.00058 -7.15204,3.64325 -0.30338,-0.057 -0.73466,0.0956 -0.56405,0.19162 2.13003,0.40713 4.82393,1.86368 7.43465,0.033 3.58902,-2.60152 1.00013,-9.23835 1.00013,-9.23835 -0.89531,-2.0256 -1.60571,-3.22192 -2.00276,-3.665578 -0.14371,-0.160483 -0.0198,-0.293003 0.10605,-0.330392 0,0 1.82216,-0.670081 2.56778,-1.049284 0.37195,-0.171026 0.48056,-1.02665 0.23182,-1.257241 z"
   id="path5962-8"
   inkscape:connector-curvature="0"
   sodipodi:nodetypes="cccccccsccccccccccsccccccccccccccscccccccccccccc"
   class="letters" /><path
   style="font-size:14.41752338px;fill:none;fill-opacity:0.94117647;stroke:#ffffff;stroke-width:0.4579747;stroke-miterlimit:2;stroke-dasharray:0.64104331, 0.45788809;stroke-dashoffset:0;stroke-opacity:1"
   d="m 262.42606,78.15297 c -1.74908,2.973448 -10.99009,13.234755 -14.69232,15.741779 1.10775,0.845393 1.54502,1.340967 1.25351,2.944296 1.50138,-0.876642 9.1244,-6.67568 13.089,-15.829234 0,0 0.58303,-1.574178 0.34981,-2.856841 z"
   id="path3240-9"
   inkscape:connector-curvature="0"
   sodipodi:nodetypes="ccccc"
   class="letters" /><path
   style="font-size:14.41752338px;fill:none;fill-opacity:0.94117647;stroke:#ffffff;stroke-width:0.4579747;stroke-miterlimit:2;stroke-dasharray:0.64104331, 0.45788809;stroke-dashoffset:0;stroke-opacity:1"
   d="m 265.31997,83.689218 c -7.21677,7.725845 -15.15224,13.625038 -15.15224,13.625038 0.89836,-0.239561 1.28765,1.018134 1.10798,2.305774 0.83846,-0.359342 15.09234,-9.851949 14.04426,-15.930812 z"
   id="path5884-9"
   inkscape:connector-curvature="0"
   sodipodi:nodetypes="cccc"
   class="letters" /><path
   style="font-size:14.41752338px;fill:none;fill-opacity:0.94117647;stroke:#ffffff;stroke-width:0.4579747;stroke-miterlimit:2;stroke-dasharray:0.64104331, 0.45788809;stroke-dashoffset:0;stroke-opacity:1"
   d="m 266.96696,90.067531 c -2.03627,1.916489 -10.69042,7.186833 -15.06241,10.271179 0.59891,0.29945 0.50907,1.88654 0.14973,2.63517 1.13791,-0.23956 16.82917,-8.71403 14.91268,-12.906349 z"
   id="path5886-8"
   inkscape:connector-curvature="0"
   sodipodi:nodetypes="cccc"
   class="letters" /><path
   style="font-size:14.41752338px;fill:none;fill-opacity:0.94117647;stroke:#ffffff;stroke-width:0.4579747;stroke-miterlimit:2;stroke-dasharray:0.64104331, 0.45788809;stroke-dashoffset:0;stroke-opacity:1"
   d="m 267.83496,95.917739 c -0.48096,0.795061 -3.81057,2.400576 -6.95258,3.95668 -4.05009,2.005831 -8.05602,3.929571 -8.05602,3.929571 0.96612,0.89872 0.65157,2.56135 0.11234,3.14552 1.6851,-0.29208 15.45796,-6.69546 14.89626,-11.031771 z"
   id="path5888-1"
   inkscape:connector-curvature="0"
   sodipodi:nodetypes="csccc"
   class="letters" /><path
   style="font-size:14.41752338px;fill:none;fill-opacity:0.94117647;stroke:#ffffff;stroke-width:0.4579747;stroke-miterlimit:2;stroke-dasharray:0.64104331, 0.45788809;stroke-dashoffset:0;stroke-opacity:1"
   d="m 269.52006,101.73694 c -1.87986,1.0724 -6.95029,2.84932 -10.78668,4.01529 -3.41117,1.03675 -5.30038,1.80391 -5.30038,1.80391 0.87625,0.83132 0.96612,2.112 -0.58417,3.34773 2.74109,-0.6965 16.6937,-5.54959 16.67123,-9.16693 z"
   id="path5890-7"
   inkscape:connector-curvature="0"
   sodipodi:nodetypes="csccc"
   class="letters" /><path
   style="font-size:14.41752338px;fill:none;fill-opacity:0.94117647;stroke:#ffffff;stroke-width:0.4579747;stroke-miterlimit:2;stroke-dasharray:0.64104331, 0.45788809;stroke-dashoffset:0;stroke-opacity:1"
   d="m 267.63275,108.27512 c -2.01359,0.82422 -5.34538,1.32904 -8.40915,1.97035 -3.53411,0.73975 -6.68932,1.55712 -6.68932,1.55712 0.33702,1.73004 -0.47183,2.38161 -1.64017,2.98824 3.52747,0.20221 17.05319,-3.01071 16.73864,-6.51571 z"
   id="path5892-2"
   inkscape:connector-curvature="0"
   sodipodi:nodetypes="csccc"
   class="letters" /><path
   style="font-size:14.41752338px;fill:none;fill-opacity:0.94117647;stroke:#ffffff;stroke-width:0.4579747;stroke-miterlimit:2;stroke-dasharray:0.64104331, 0.45788809;stroke-dashoffset:0;stroke-opacity:1"
   d="m 265.6331,114.49875 c -0.7612,2.44032 -5.19745,3.42642 -9.5029,3.59867 -4.3361,0.17348 -8.53888,-0.47562 -8.53888,-0.47562 1.34808,-0.40443 2.53888,-0.96613 2.71863,-2.2468 0,0 11.95296,0.83131 15.32315,-0.87625 z"
   id="path5894-5"
   inkscape:connector-curvature="0"
   sodipodi:nodetypes="csccc"
   class="letters" /><path
   style="font-size:14.41752338px;fill:none;fill-opacity:0.94117647;stroke:#ffffff;stroke-width:0.4579747;stroke-miterlimit:2;stroke-dasharray:0.64104331, 0.45788809;stroke-dashoffset:0;stroke-opacity:1"
   d="m 261.54393,121.0594 c -3.34583,0.18645 -6.6883,-0.72628 -9.34354,-1.44944 -3.10402,-0.84539 -5.32804,-1.5388 -5.32804,-1.5388 -0.20221,0.87625 -1.30315,1.37054 -2.92084,0.94365 0.30299,0.57033 2.18194,1.84121 5.04504,2.7509 3.77733,1.20017 8.9049,1.70923 12.54738,-0.70631 z"
   id="path5896-9"
   inkscape:connector-curvature="0"
   sodipodi:nodetypes="csccsc"
   class="letters" /><path
   style="font-size:14.41752338px;fill:none;fill-opacity:0.94117647;stroke:#ffffff;stroke-width:0.4579747;stroke-miterlimit:2;stroke-dasharray:0.64104331, 0.45788809;stroke-dashoffset:0;stroke-opacity:1"
   d="m 255.43264,126.83366 c 0,0 -7.59417,-1.03352 -12.55959,-7.5043 -0.62911,0.76391 -1.03353,1.41548 -2.51641,0.87625 5.50465,7.95366 14.40196,7.14481 15.076,6.62805 z"
   id="path5898-9"
   inkscape:connector-curvature="0"
   sodipodi:nodetypes="cccc"
   class="letters" /><path
   style="font-size:14.41752338px;fill:none;fill-opacity:0.94117647;stroke:#ffffff;stroke-width:0.4579747;stroke-miterlimit:2;stroke-dasharray:0.64104331, 0.45788809;stroke-dashoffset:0;stroke-opacity:1"
   d="m 238.67154,119.84612 c -0.69651,0.74145 -1.28068,0.78638 -3.23539,-0.40442 3.52747,9.50395 9.41408,9.79604 10.98684,9.7511 0,0 -5.48219,-3.01071 -7.75145,-9.34668 z"
   id="path5900-7"
   inkscape:connector-curvature="0"
   sodipodi:nodetypes="cccc"
   class="letters" /><path
   style="font-size:14.41752338px;fill:none;fill-opacity:0.94117647;stroke:#ffffff;stroke-width:0.4579747;stroke-miterlimit:2;stroke-dasharray:0.64104331, 0.45788809;stroke-dashoffset:0;stroke-opacity:1"
   d="m 197.53781,129.46848 c -0.34495,3.0184 -3.73706,9.51509 -4.16825,11.92983 -0.45592,2.23296 0.87792,5.33242 4.11126,5.36205 3.25979,0.03 5.45967,-3.02445 3.76531,-7.11559 -0.57494,-1.37985 -2.50095,-5.51933 -3.70832,-10.17629 z"
   id="path5956"
   inkscape:connector-curvature="0"
   sodipodi:nodetypes="ccscc"
   class="letters" /><path
   style="font-size:14.41752338px;fill:none;fill-opacity:0.94117647;stroke:#ffffff;stroke-width:0.4579747;stroke-miterlimit:2;stroke-dasharray:0.64104331, 0.45788809;stroke-dashoffset:0;stroke-opacity:1"
   d="m 255.2897,129.35348 c -1.00613,4.71445 -3.21962,8.82522 -3.79453,10.72249 -1.75526,5.657 2.95106,7.52468 5.7312,6.14303 2.22773,-1.10712 2.42715,-3.60401 1.88665,-5.82681 -0.40248,-1.8398 -2.78845,-6.353 -3.82332,-11.03871 z"
   id="path5958"
   inkscape:connector-curvature="0"
   sodipodi:nodetypes="ccscc"
   class="letters" /><path
   style="font-size:14.41752338px;fill:none;fill-opacity:0.94117647;stroke:#ffffff;stroke-width:0.4579747;stroke-miterlimit:2;stroke-dasharray:0.64104331, 0.45788809;stroke-dashoffset:0;stroke-opacity:1"
   d="m 218.66174,100.51934 c -0.20167,-0.0314 -0.57385,-0.1843 -0.75594,-0.47967 -0.42964,-0.696855 -0.49214,-2.008778 0.30075,-2.875706 0.50722,-0.603373 1.43435,-1.170666 2.8039,-1.205463 0.86595,-0.0218 2.04271,0.303793 3.11564,0.857741 0.36465,0.17349 0.84737,0.604637 0.49675,1.550491 -0.0682,0.250146 -0.25589,1.264469 0.31614,1.746187 -0.005,0 0.56499,0.45158 0.7677,0.79781 0.27563,0.45701 0.25495,0.6678 0.083,0.87614 -0.25633,0.3104 -0.54648,0.40757 -0.91083,0.46361 -0.42148,0.0602 -2.71897,0.29393 -4.10953,-1.64081 -0.18055,-0.25592 -0.72257,-0.918263 -0.27098,-1.41501 0,0 1.98703,1.74618 3.64289,1.43006 0.25158,-0.046 -0.12995,-0.36769 -0.48168,-0.37634 -0.66236,-0.0145 -1.33975,-0.587089 -1.83652,-1.038671 -0.50862,-0.407752 -1.76972,-0.515377 -2.28809,-0.09032 -0.67739,0.602136 -1.03868,0.225819 -0.8731,1.399961 z"
   id="path5960"
   inkscape:connector-curvature="0"
   sodipodi:nodetypes="cscsccccscccccccc"
   class="letters" /><path
   style="font-size:14.41752338px;fill:none;fill-opacity:0.94117647;stroke:#ffffff;stroke-width:0.4579747;stroke-miterlimit:2;stroke-dasharray:0.64104331, 0.45788809;stroke-dashoffset:0;stroke-opacity:1"
   d="m 225.33954,97.24509 c -0.24232,0.09837 -0.0471,0.991514 -0.11796,1.389366 -0.07,0.391999 -0.0961,0.730315 0.024,0.99768 0.24868,0.497374 1.28682,0.559074 1.24538,2.026284 -0.032,0.67152 -0.41261,0.99962 -1.21332,1.13925 -0.58369,0.082 -1.30899,0.0539 -2.11316,-0.0341 -0.2025,-0.0206 -0.40145,-0.0743 -0.5318,0.0353 -0.16193,0.16875 -0.71903,0.84315 -1.66229,1.71301 -1.44636,1.3339 -2.58756,2.05906 -4.30801,4.54739 1.1192,-0.74613 3.012,-0.87558 3.012,-0.87558 0.73548,-0.0214 0.7408,0.44998 0.33577,1.00427 0,0 -1.17214,1.33963 -1.68381,2.60806 1.48163,-0.10661 4.15254,-2.3454 4.15254,-2.3454 0.58626,-0.45835 0.89958,0.11585 0.87829,0.41419 -0.18134,1.95061 0.76448,3.73771 1.20153,3.78034 -0.19188,-0.93801 1.26757,-3.2508 1.26757,-3.2508 0.33044,-0.58628 1.33166,-0.56494 1.8433,-0.2132 0.85273,0.63956 1.69176,3.1144 1.69176,3.1144 0.99129,-0.57559 0.61519,-2.11472 0.61519,-2.11472 -0.18112,-1.0126 -0.11808,-1.97909 0.0516,-2.27725 0.18956,-0.32647 1.3983,0.72691 2.42139,1.23865 1.34014,0.67035 2.28445,1.00132 2.28445,1.00132 0,0 -0.0253,-0.40908 -0.0533,-0.75561 -0.55678,-0.23167 -1.2031,-1.71768 -1.44321,-2.63685 -0.14784,-0.61243 -0.32771,-1.50787 -0.4586,-2.73288 -0.062,-0.50272 -0.18187,-2.48599 -0.18934,-3.58313 -0.006,-1.32189 -0.1006,-2.590443 -0.1006,-2.590443 -0.0286,-0.387098 -0.13674,-1.268956 -0.85342,-1.496579 -1.7271,-0.596356 -3.76966,-1.102519 -5.85859,-0.348189 z"
   id="path5992"
   inkscape:connector-curvature="0"
   sodipodi:nodetypes="cscccccsccccccccccccsccccscccc"
   class="letters" /><path
   style="font-size:14.41752338px;fill:none;fill-opacity:0.94117647;stroke:#ffffff;stroke-width:0.4579747;stroke-miterlimit:2;stroke-dasharray:0.64104331, 0.45788809;stroke-dashoffset:0;stroke-opacity:1"
   d="m 222.27906,110.58881 c -0.75835,1.1283 -4.35986,2.31733 -4.35986,2.31733 2.29356,12.30014 5.60441,19.91273 9.11086,28.5638 4.18816,-10.5118 6.18609,-20.94599 7.27702,-29.32215 -1.93354,-0.91073 -3.26489,-2.03854 -3.26489,-2.03854 0.63048,2.85826 -1.53522,5.37632 -1.53522,5.37632 0,0 -1.47199,-2.66368 -2.69097,-4.42907 -1.37305,1.93353 -2.44152,4.10622 -2.44152,4.10622 0,0 -1.89195,-1.91041 -2.09542,-4.57391 z"
   id="path5994"
   inkscape:connector-curvature="0"
   sodipodi:nodetypes="ccccccccc"
   class="letters" /><path
   style="font-size:14.41752338px;fill:none;fill-opacity:0.94117647;stroke:#ffffff;stroke-width:0.4579747;stroke-miterlimit:2;stroke-dasharray:0.64104331, 0.45788809;stroke-dashoffset:0;stroke-opacity:1"
   d="m 220.77352,128.2706 c 0.67984,2.40368 1.78333,5.41888 1.78333,5.41888 -7.33247,11.70278 -11.87207,12.51897 -11.87207,12.51897 0,0 6.78669,-8.54164 10.08874,-17.93785 z"
   id="path5996"
   inkscape:connector-curvature="0"
   sodipodi:nodetypes="cccc"
   class="letters" /><path
   style="font-size:14.41752338px;fill:none;fill-opacity:0.94117647;stroke:#ffffff;stroke-width:0.4579747;stroke-miterlimit:2;stroke-dasharray:0.64104331, 0.45788809;stroke-dashoffset:0;stroke-opacity:1"
   d="m 232.06146,128.56198 c 5.92421,12.64966 10.44679,17.44973 10.44679,17.44973 0,0 -4.1729,-0.23489 -11.6753,-12.49611 0,0 1.05855,-3.10841 1.22851,-4.95362 z"
   id="path5998"
   inkscape:connector-curvature="0"
   sodipodi:nodetypes="cccc"
   class="letters" /><path
   style="font-size:14.41752338px;fill:none;fill-opacity:0.94117647;stroke:#ffffff;stroke-width:0.4579747;stroke-miterlimit:2;stroke-dasharray:0.64104331, 0.45788809;stroke-dashoffset:0;stroke-opacity:1"
   d="m 229.08926,138.98447 c 0,0 0.81074,-1.83667 1.46627,-4.24033 6.72545,12.81962 11.02587,16.55612 11.02587,16.55612 0,0 -3.24163,1.64498 -12.49214,-12.31579 z"
   id="path6000"
   inkscape:connector-curvature="0"
   sodipodi:nodetypes="cccc"
   class="letters" /><path
   style="font-size:14.41752338px;fill:none;fill-opacity:0.94117647;stroke:#ffffff;stroke-width:0.4579747;stroke-miterlimit:2;stroke-dasharray:0.64104331, 0.45788809;stroke-dashoffset:0;stroke-opacity:1"
   d="m 228.8515,139.8167 c -0.65557,1.7724 -1.73729,3.76339 -1.73729,3.76339 0,0 -1.19308,-1.9642 -2.01859,-3.83371 0.43704,13.03812 2.5427,18.66148 2.5427,18.66148 0,0 1.72302,-6.52421 1.21318,-18.59116 z"
   id="path6002"
   inkscape:connector-curvature="0"
   sodipodi:nodetypes="ccccc"
   class="letters" /><path
   style="font-size:14.41752338px;fill:none;fill-opacity:0.94117647;stroke:#ffffff;stroke-width:0.4579747;stroke-miterlimit:2;stroke-dasharray:0.64104331, 0.45788809;stroke-dashoffset:0;stroke-opacity:1"
   d="m 222.94029,134.44385 c 0.75266,2.08804 1.70155,4.35281 1.70155,4.35281 -8.5707,13.45089 -12.71709,12.50107 -12.71709,12.50107 0,0 4.58146,-4.20421 11.01554,-16.85388 z"
   id="path6004"
   inkscape:connector-curvature="0"
   sodipodi:nodetypes="cccc"
   class="letters" /><path
   style="font-size:14.41752338px;fill:none;fill-opacity:0.94117647;stroke:#ffffff;stroke-width:0.4579747;stroke-miterlimit:2;stroke-dasharray:0.64104331, 0.45788809;stroke-dashoffset:0;stroke-opacity:1"
   d="m 223.02694,30.371408 c -1.04819,7.892676 -3.97361,11.173693 -3.97361,11.173693 -0.54488,0.667375 -0.73257,1.895068 -0.35703,2.218098 0.35317,0.303774 1.27003,-0.172714 1.70235,-0.708523 0.68008,-0.826104 3.04359,-3.566333 2.62829,-12.683268 z"
   id="path2699"
   inkscape:connector-curvature="0"
   sodipodi:nodetypes="ccscc"
   class="letters" /><path
   style="font-size:14.41752338px;fill:none;fill-opacity:0.94117647;stroke:#ffffff;stroke-width:0.4579747;stroke-miterlimit:2;stroke-dasharray:0.64104331, 0.45788809;stroke-dashoffset:0;stroke-opacity:1"
   d="m 227.89518,28.827478 c -0.54003,7.819306 2.07219,11.467271 2.07219,11.467271 0.70202,1.16544 1.6266,1.160444 1.6266,1.160444 0.28889,0.02789 0.61112,-0.169948 0.57966,-0.66048 0,0 0.0503,-0.62527 -0.6456,-1.518589 0,0 -2.70406,-3.039746 -3.63285,-10.448646 z"
   id="path2701"
   inkscape:connector-curvature="0"
   sodipodi:nodetypes="cccccc"
   class="letters" /><path
   style="font-size:14.41752338px;fill:none;fill-opacity:0.94117647;stroke:#ffffff;stroke-width:0.4579747;stroke-miterlimit:2;stroke-dasharray:0.64104331, 0.45788809;stroke-dashoffset:0;stroke-opacity:1"
   d="m 225.18192,36.1432 c 0.89135,5.552376 1.66952,9.745817 1.66952,9.745817 0.1672,0.928494 0.0805,1.718949 -0.19247,2.042755 -0.14934,0.180951 -0.3538,0.362276 -0.6776,0.371322 -0.27092,0.008 -0.53586,-0.179767 -0.7487,-0.443788 -0.22237,-0.321637 -0.53538,-0.668143 -0.44253,-2.525131 0,0 0.0575,-4.158553 0.39178,-9.190975 z"
   id="path2703"
   inkscape:connector-curvature="0"
   sodipodi:nodetypes="ccccccc"
   class="letters" /><path
   style="font-size:14.41752338px;fill:none;fill-opacity:0.94117647;stroke:#ffffff;stroke-width:0.4579747;stroke-miterlimit:2;stroke-dasharray:0.64104331, 0.45788809;stroke-dashoffset:0;stroke-opacity:1"
   d="m 218.5425,46.44842 c -2.08597,2.512203 -3.20137,2.065324 -3.95751,2.013132 -1.05281,-0.104513 -1.62507,0.336765 -1.62507,0.336765 -0.62395,0.409294 -0.62439,1.053102 -0.62439,1.053102 -0.0912,0.968362 1.14397,1.223616 1.14397,1.223616 1.61939,0.155317 2.54739,-0.934093 2.54739,-0.934093 0,0 1.88749,-2.034228 2.51561,-3.692522 z"
   id="path2705"
   inkscape:connector-curvature="0"
   sodipodi:nodetypes="ccccccc"
   class="letters" /><path
   style="font-size:14.41752338px;fill:none;fill-opacity:0.94117647;stroke:#ffffff;stroke-width:0.4579747;stroke-miterlimit:2;stroke-dasharray:0.64104331, 0.45788809;stroke-dashoffset:0;stroke-opacity:1"
   d="m 222.96682,46.262363 c -0.78178,4.663648 -1.24932,6.47417 -2.13892,8.442049 -0.19859,0.430278 -0.51111,1.076662 -0.51342,1.711459 0,0 -0.13108,0.596663 0.19993,1.035369 0.1672,0.231588 0.61464,0.58898 1.15807,0.144804 0.43133,-0.37739 0.83754,-0.752161 1.08018,-1.965259 0,0 0.942,-5.40563 0.21416,-9.368375 z"
   id="path2707"
   inkscape:connector-curvature="0"
   sodipodi:nodetypes="ccccccc"
   class="letters" /><path
   style="font-size:14.41752338px;fill:none;fill-opacity:0.94117647;stroke:#ffffff;stroke-width:0.4579747;stroke-miterlimit:2;stroke-dasharray:0.64104331, 0.45788809;stroke-dashoffset:0;stroke-opacity:1"
   d="m 229.89251,44.887168 c 2.57157,3.90479 6.00077,4.790006 6.00077,4.790006 0.58541,0.18939 1.26286,0.2355 1.79281,0.711776 0.80048,0.727017 0.17265,1.591362 -0.35735,1.794635 -0.42223,0.161785 -0.94181,0.07879 -1.33383,-0.03737 -1.4042,-0.499283 -4.41734,-1.860756 -6.1024,-7.259172 z"
   id="path2709"
   inkscape:connector-curvature="0"
   sodipodi:nodetypes="cccccc"
   class="letters" /><path
   style="font-size:14.41752338px;fill:none;fill-opacity:0.94117647;stroke:#ffffff;stroke-width:0.4579747;stroke-miterlimit:2;stroke-dasharray:0.64104331, 0.45788809;stroke-dashoffset:0;stroke-opacity:1"
   d="m 234.83372,58.752564 c 0.94664,-0.01297 1.02511,-1.011799 1.02511,-1.011799 0.14764,-0.91704 -1.03838,-1.651533 -1.03838,-1.651533 -3.36301,-2.727788 -4.98154,-6.763984 -4.98154,-6.763984 0.40408,4.840031 3.41428,8.487901 3.41428,8.487901 0.66957,0.978778 1.58053,0.939415 1.58053,0.939415 z"
   id="path2711"
   inkscape:connector-curvature="0"
   sodipodi:nodetypes="cccccc"
   class="letters" /><path
   style="font-size:14.41752338px;fill:none;fill-opacity:0.94117647;stroke:#ffffff;stroke-width:0.4579747;stroke-miterlimit:2;stroke-dasharray:0.64104331, 0.45788809;stroke-dashoffset:0;stroke-opacity:1"
   d="m 216.2983,52.200801 c -1.81538,3.514148 -4.05861,4.879846 -5.04809,5.620501 -0.64255,0.417255 -0.92247,0.950838 -1.09852,1.344846 -0.2832,0.736286 0.17284,1.71838 0.17284,1.71838 0.96439,1.544622 2.51757,-0.248589 2.51757,-0.248589 1.52581,-1.510062 2.20208,-3.600835 2.20208,-3.600835 0.70585,-1.934196 1.25404,-4.834303 1.25404,-4.834303 z"
   id="path2713"
   inkscape:connector-curvature="0"
   sodipodi:nodetypes="ccccccc"
   class="letters" /><path
   style="font-size:14.41752338px;fill:none;fill-opacity:0.94117647;stroke:#ffffff;stroke-width:0.4579747;stroke-miterlimit:2;stroke-dasharray:0.64104331, 0.45788809;stroke-dashoffset:0;stroke-opacity:1"
   d="m 225.73006,52.384543 c 0,0 -0.18831,3.577119 1.77105,11.478369 0.26364,1.128335 0.79633,1.54959 0.62595,2.593163 -0.10642,0.766691 -0.808,2.018147 -2.18466,0.708802 -0.48984,-0.681508 -0.71052,-1.478742 -0.79569,-3.054734 0,0 0.0296,-8.893085 0.58335,-11.7256 z"
   id="path2715"
   inkscape:connector-curvature="0"
   sodipodi:nodetypes="cccccc"
   class="letters" /><path
   style="font-size:14.41752338px;fill:none;fill-opacity:0.94117647;stroke:#ffffff;stroke-width:0.4579747;stroke-miterlimit:2;stroke-dasharray:0.64104331, 0.45788809;stroke-dashoffset:0;stroke-opacity:1"
   d="m 218.09504,60.925541 c 0,0 -0.58947,2.025397 -2.58875,4.537584 -0.50422,0.620609 -0.60264,1.092499 -0.57548,1.476395 0.0645,0.428984 0.56883,1.288685 1.6557,0.611936 0.44608,-0.290914 0.69617,-0.958894 0.98507,-1.818854 0,0 0.52251,-1.286519 0.52346,-4.807061 z"
   id="path2717"
   inkscape:connector-curvature="0"
   sodipodi:nodetypes="cccccc"
   class="letters" /><path
   style="font-size:14.41752338px;fill:none;fill-opacity:0.94117647;stroke:#ffffff;stroke-width:0.4579747;stroke-miterlimit:2;stroke-dasharray:0.64104331, 0.45788809;stroke-dashoffset:0;stroke-opacity:1"
   d="m 234.78654,61.354398 c 0,0 3.3556,1.82722 6.06271,2.342374 1.37374,0.252536 2.59907,0.335163 3.41727,0.557397 1.42425,0.353527 1.53892,2.629596 0.054,2.912437 0,0 -0.88855,0.368397 -2.71686,-0.358896 0,0 -3.51306,-1.134681 -6.81719,-5.453312 z"
   id="path3212"
   inkscape:connector-curvature="0"
   sodipodi:nodetypes="cccccc"
   class="letters" /><path
   style="font-size:14.41752338px;fill:none;fill-opacity:0.94117647;stroke:#ffffff;stroke-width:0.4579747;stroke-miterlimit:2;stroke-dasharray:0.64104331, 0.45788809;stroke-dashoffset:0;stroke-opacity:1"
   d="m 229.84295,60.525115 c 0.8335,4.663567 2.58391,7.747778 3.55634,9.15677 0.65484,0.992254 1.58051,0.900779 1.97742,0.503877 0.59536,-0.535814 0.75742,-1.716733 -0.13579,-2.510536 0,0 -2.30232,-2.248406 -5.39814,-7.150111 z"
   id="path3214"
   inkscape:connector-curvature="0"
   sodipodi:nodetypes="ccccc"
   class="letters" /><path
   style="font-size:14.41752338px;fill:none;fill-opacity:0.94117647;stroke:#ffffff;stroke-width:0.4579747;stroke-miterlimit:2;stroke-dasharray:0.64104331, 0.45788809;stroke-dashoffset:0;stroke-opacity:1"
   d="m 222.73288,60.663412 c 0,0 -1.41385,6.820044 -4.10961,12.308526 -0.36848,0.640008 -0.38862,1.598937 -0.17529,1.986825 0.56244,1.047265 1.42795,1.775934 2.92127,0.185636 0.80234,-0.896136 0.94647,-3.184117 1.16992,-5.668992 0.28591,-3.179488 0.47756,-7.092208 0.19375,-8.811998 z"
   id="path3216"
   inkscape:connector-curvature="0"
   sodipodi:nodetypes="ccccsc"
   class="letters" /><path
   style="font-size:14.41752338px;fill:none;fill-opacity:0.94117647;stroke:#ffffff;stroke-width:0.4579747;stroke-miterlimit:2;stroke-dasharray:0.64104331, 0.45788809;stroke-dashoffset:0;stroke-opacity:1"
   d="m 228.79109,69.524222 c 0,0 2.13476,3.994714 5.11316,5.726717 0.63126,0.372294 1.04378,0.449517 1.49702,1.129356 0.31631,0.464661 0.25731,1.882148 -1.14642,2.376787 0,0 -1.11986,0.538031 -2.22054,-0.934967 0,0 -2.48244,-2.486785 -3.24322,-8.297893 z"
   id="path3218"
   inkscape:connector-curvature="0"
   sodipodi:nodetypes="cccccc"
   class="letters" /><path
   style="font-size:14.41752338px;fill:none;fill-opacity:0.94117647;stroke:#ffffff;stroke-width:0.4579747;stroke-miterlimit:2;stroke-dasharray:0.64104331, 0.45788809;stroke-dashoffset:0;stroke-opacity:1"
   d="m 227.02794,74.26836 c 1.01755,3.668917 2.71283,6.241934 5.16802,7.81494 1.27993,0.797324 0.82702,2.41435 -0.13147,3.245198 -0.39155,0.339488 -1.29545,0.872818 -2.20362,0.465908 -0.84081,-0.376721 -1.53122,-1.969832 -1.82532,-2.654962 -1.42912,-3.161454 -1.20089,-4.924002 -1.00777,-8.871084 z"
   id="path3220"
   inkscape:connector-curvature="0"
   sodipodi:nodetypes="ccssccc"
   class="letters" /><path
   style="font-size:14.41752338px;fill:none;fill-opacity:0.94117647;stroke:#ffffff;stroke-width:0.4579747;stroke-miterlimit:2;stroke-dasharray:0.64104331, 0.45788809;stroke-dashoffset:0;stroke-opacity:1"
   d="m 224.09608,71.425166 c -1.41572,7.873941 -3.36234,9.21576 -4.39019,10.107867 -1.31882,0.911526 -1.53976,1.859872 -1.53976,1.859872 -0.42667,1.900604 1.1572,3.131064 2.98021,1.967423 0,0 5.08305,-3.462426 2.94974,-13.935162 z"
   id="path3222"
   inkscape:connector-curvature="0"
   sodipodi:nodetypes="ccccc"
   class="letters" /><path
   style="font-size:14.41752338px;fill:none;fill-opacity:0.94117647;stroke:#ffffff;stroke-width:0.4579747;stroke-miterlimit:2;stroke-dasharray:0.64104331, 0.45788809;stroke-dashoffset:0;stroke-opacity:1"
   d="m 236.73837,73.351773 c 3.73086,5.338309 5.37235,6.19812 7.5156,7.547579 1.52805,0.714431 1.87383,1.685264 1.87383,1.685264 0.21828,0.615207 0.0903,2.013843 -1.67591,2.132917 0,0 -0.77627,0.186826 -1.98679,-0.964184 0,0 -4.65511,-4.368702 -5.72673,-10.401576 z"
   id="path3224"
   inkscape:connector-curvature="0"
   sodipodi:nodetypes="cccccc"
   class="letters" /><path
   style="font-size:14.41752338px;fill:none;fill-opacity:0.94117647;stroke:#ffffff;stroke-width:0.4579747;stroke-miterlimit:2;stroke-dasharray:0.64104331, 0.45788809;stroke-dashoffset:0;stroke-opacity:1"
   d="m 226.24914,85.214234 c -0.5943,2.026199 -1.91664,2.654641 -2.65637,4.282613 -0.92575,2.037337 -1.11031,4.843 2.01986,4.911201 4.89262,-0.05258 4.18645,-4.143544 1.68988,-6.902961 -0.54303,-0.640001 -0.89822,-1.359937 -1.05337,-2.290853 z"
   id="path3226"
   inkscape:connector-curvature="0"
   sodipodi:nodetypes="csccc"
   class="letters" /><path
   style="font-size:14.41752338px;fill:none;fill-opacity:0.94117647;stroke:#ffffff;stroke-width:0.4579747;stroke-miterlimit:2;stroke-dasharray:0.64104331, 0.45788809;stroke-dashoffset:0;stroke-opacity:1"
   d="m 204.79316,73.48855 c 0,0 -4.57096,1.39194 -8.512,-0.253394 -2.45063,-1.245619 -3.76552,1.881467 -2.52182,2.707451 3.37527,1.834287 9.86713,-0.857454 11.03382,-2.454057 z"
   id="path3230"
   inkscape:connector-curvature="0"
   sodipodi:nodetypes="cccc"
   class="letters" /><path
   style="font-size:14.41752338px;fill:none;fill-opacity:0.94117647;stroke:#ffffff;stroke-width:0.4579747;stroke-miterlimit:2;stroke-dasharray:0.64104331, 0.45788809;stroke-dashoffset:0;stroke-opacity:1"
   d="m 210.86037,72.125635 c -0.99819,1.079136 -3.29887,2.801353 -4.72174,3.552543 -2.09901,1.108178 -3.45972,1.388364 -4.05268,2.728288 -0.40918,0.942083 -0.42268,2.088156 0.10605,2.597157 0.5489,0.528403 2.14037,0.153212 2.99975,-0.439435 0,0 4.21398,-3.376724 5.66856,-8.438553 z"
   id="path3232"
   inkscape:connector-curvature="0"
   sodipodi:nodetypes="cscscc"
   class="letters" /><path
   style="font-size:14.41752338px;fill:none;fill-opacity:0.94117647;stroke:#ffffff;stroke-width:0.4579747;stroke-miterlimit:2;stroke-dasharray:0.64104331, 0.45788809;stroke-dashoffset:0;stroke-opacity:1"
   d="m 215.94403,72.817562 c -0.91413,2.009926 -2.28603,3.960558 -3.69352,5.529528 -1.74547,1.94573 -3.76068,2.78833 -4.72074,4.882117 -0.68609,1.369857 -0.0444,3.041813 1.00476,3.312567 0.9954,0.25696 2.08002,-0.320857 2.87195,-1.35674 0,0 3.1412,-3.620803 4.53755,-12.367472 z"
   id="path3234"
   inkscape:connector-curvature="0"
   sodipodi:nodetypes="cscscc"
   class="letters" /><path
   style="font-size:14.41752338px;fill:none;fill-opacity:0.94117647;stroke:#ffffff;stroke-width:0.4579747;stroke-miterlimit:2;stroke-dasharray:0.64104331, 0.45788809;stroke-dashoffset:0;stroke-opacity:1"
   d="m 239.63093,69.582674 c 3.81024,2.06387 5.08566,2.206779 6.95109,2.286153 0,0 1.97144,-0.324631 2.60649,1.024839 0.29766,0.773938 -0.37494,2.20511 -1.94268,2.046345 -1.50821,-0.19845 -5.19379,-1.944013 -7.6149,-5.357337 z"
   id="path3236"
   inkscape:connector-curvature="0"
   sodipodi:nodetypes="ccccc"
   class="letters" /><path
   style="font-size:14.41752338px;fill:none;fill-opacity:0.94117647;stroke:#ffffff;stroke-width:0.4579747;stroke-miterlimit:2;stroke-dasharray:0.64104331, 0.45788809;stroke-dashoffset:0;stroke-opacity:1"
   d="m 245.86045,77.340856 c 1.90509,0.773952 4.45229,0.917267 7.38933,-0.213901 0,0 1.1561,-0.583771 2.16821,-0.02815 0.51597,0.297694 1.43102,1.809908 -0.0969,2.564012 -2.05535,0.879422 -7.30183,0.428481 -9.46051,-2.321991 z"
   id="path3238"
   inkscape:connector-curvature="0"
   sodipodi:nodetypes="ccccc"
   class="letters" /><path
   style="font-size:14.41752338px;fill:none;fill-opacity:0.94117647;stroke:#ffffff;stroke-width:0.4579747;stroke-miterlimit:2;stroke-dasharray:0.64104331, 0.45788809;stroke-dashoffset:0;stroke-opacity:1"
   d="m 211.7465,64.109852 c -4.77092,4.421822 -5.47765,4.013448 -6.6219,4.226768 -1.45452,0.232734 -1.76236,1.177279 -1.76236,1.177279 -0.95034,2.036363 1.06418,2.259601 1.76236,2.143241 1.12484,-0.174538 4.00372,-1.244257 6.6219,-7.547288 z"
   id="path3242"
   inkscape:connector-curvature="0"
   sodipodi:nodetypes="ccccc"
   class="letters" /><path
   inkscape:connector-curvature="0"
   style="font-size:14.41752338px;fill:none;fill-opacity:0.94117647;stroke:#ffffff;stroke-width:0.4579747;stroke-miterlimit:2;stroke-dasharray:0.64104331, 0.45788809;stroke-dashoffset:0;stroke-opacity:1"
   d="m 224.99247,15.37562 -35.57982,58.181097 c -37.91252,58.764423 3.06242,88.073783 36.30879,88.219593 37.18345,0.43746 72.61717,-28.14296 38.20426,-85.886653 z m 0.11809,2.765842 35.10481,54.264348 c 39.09111,64.29465 -3.47182,86.60513 -34.33327,87.11948 -25.97502,0.25717 -73.29582,-24.36786 -35.74773,-83.904706 z"
   id="path6006"
   class="letters" /><path
   style="font-size:14.41752338px;fill:none;fill-opacity:0.94117647;stroke:#ffffff;stroke-width:0.4579747;stroke-miterlimit:2;stroke-dasharray:0.64104331, 0.45788809;stroke-dashoffset:0;stroke-opacity:1"
   d="m 225.15399,10.312943 -39.62918,65.22157 c -34.76135,56.721287 3.5438,85.952617 35.54868,88.714987 3.02618,0.2837 6.75305,0.35914 10.67763,0.005 29.43305,-3.04808 75.15307,-25.70662 29.60396,-98.057862 z"
   id="path6012"
   inkscape:connector-curvature="0"
   sodipodi:nodetypes="cccccc"
   class="outerFrame" /></svg>