<?xml version="1.0" encoding="UTF-8" standalone="no"?>
<svg
   xmlns:dc="http://purl.org/dc/elements/1.1/"
   xmlns:cc="http://creativecommons.org/ns#"
   xmlns:rdf="http://www.w3.org/1999/02/22-rdf-syntax-ns#"
   xmlns:svg="http://www.w3.org/2000/svg"
   xmlns="http://www.w3.org/2000/svg"
   xmlns:sodipodi="http://sodipodi.sourceforge.net/DTD/sodipodi-0.dtd"
   xmlns:inkscape="http://www.inkscape.org/namespaces/inkscape"
   id="svg843"
   xml:space="preserve"
   enable-background="new 0 0 370.4 370.4"
   viewBox="0 0 300 180"
   height="47.625mm"
   width="79.375mm"
   y="0px"
   x="0px"
   version="1.1"
   sodipodi:docname="Inhalt_Video_n_g_2.svg"
   inkscape:version="0.92.3 (2405546, 2018-03-11)"><sodipodi:namedview
   pagecolor="#ffffff"
   bordercolor="#666666"
   borderopacity="1"
   objecttolerance="10"
   gridtolerance="10"
   guidetolerance="10"
   inkscape:pageopacity="0"
   inkscape:pageshadow="2"
   inkscape:window-width="1920"
   inkscape:window-height="1018"
   id="namedview913"
   showgrid="false"
   inkscape:zoom="3.493617"
   inkscape:cx="166.79602"
   inkscape:cy="88.804435"
   inkscape:window-x="-8"
   inkscape:window-y="32"
   inkscape:window-maximized="1"
   inkscape:current-layer="svg843"
   units="mm" /><metadata
   id="metadata849"><rdf:RDF><cc:Work
       rdf:about=""><dc:format>image/svg+xml</dc:format><dc:type
         rdf:resource="http://purl.org/dc/dcmitype/StillImage" /><dc:title /></cc:Work></rdf:RDF></metadata><defs
   id="defs847" />
    
    
    
<style
   id="style870">
												.letters {animation: spinLeft 120s linear infinite; }
												.outerFrame { animation: spinRight 90s linear infinite; }
												.innerFrame { animation: spinRight 90s linear infinite; }
												@-webkit-keyframes spinLeft {to {stroke-dashoffset: -500;} }
												@keyframes spinLeft {to {stroke-dashoffset: -500;} }
												@-webkit-keyframes spinRight {to {stroke-dashoffset: 500;} }
												@keyframes spinRight {to {stroke-dashoffset: 500;} }
</style>		
		

   
   









<g
   id="g2019"
   transform="matrix(1.0188429,0,0,1.0167753,-71.927003,225.56981)"
   style="opacity:0.82099998;fill:#f45a0a;fill-opacity:0.722"><path
     id="rect872-7"
     d="M 66.712891,-228.71484 V -39.787109 H 369.46875 V -228.71484 Z m 226.414059,22.35742 38.9336,60.51367 c 34.41291,57.743697 -1.02163,86.324179 -38.20508,85.886719 -33.24637,-0.14581 -74.22112,-29.456276 -36.30859,-88.220699 z m 0.11719,2.76562 -34.97461,57.47852 c -37.54809,59.536846 9.77108,84.161466 35.74609,83.904296 30.86145,-0.51435 73.4251,-22.824494 34.33399,-87.119136 z m 0.0703,1.80664 c 0.27184,3.51177 0.56697,5.39664 0.63867,7.63672 0.0929,2.90763 -0.0273,4.10742 -0.0273,4.10742 0.0424,0.49237 -0.0886,1.29278 -0.71875,1.77735 -0.41462,0.31888 -0.85056,-0.84786 -0.75976,-1.63672 0,0 0.11963,-1.16424 0.36523,-4.69531 0.13689,-1.96781 0.2802,-5.01954 0.50195,-7.18946 z m 2.71485,8.88086 c 0.92879,7.4089 3.63281,10.44922 3.63281,10.44922 0.6959,0.89332 0.64648,1.51758 0.64648,1.51758 0.0315,0.49053 -0.29118,0.68806 -0.58007,0.66016 0,0 -0.92494,0.005 -1.62696,-1.16016 0,0 -2.61229,-3.64749 -2.07226,-11.4668 z m -4.86914,1.54297 c 0.4153,9.11694 -1.94688,11.8575 -2.62696,12.6836 -0.43232,0.53581 -1.34995,1.01276 -1.70312,0.70898 -0.37554,-0.32303 -0.18746,-1.55138 0.35742,-2.21875 0,0 2.92447,-3.28115 3.97266,-11.17383 z m 2.15625,5.77149 c 0.89135,5.55238 1.66992,9.74609 1.66992,9.74609 0.1672,0.9285 0.0796,1.71916 -0.19336,2.04297 -0.14934,0.18095 -0.35394,0.36204 -0.67774,0.37109 -0.27092,0.008 -0.5352,-0.17934 -0.74804,-0.44336 -0.22237,-0.32164 -0.53621,-0.6684 -0.44336,-2.52539 0,0 0.0583,-4.15897 0.39258,-9.1914 z m 4.71093,8.74414 c 2.57157,3.90479 6,4.79101 6,4.79101 0.58541,0.18939 1.26302,0.23467 1.79297,0.71094 0.80048,0.72702 0.17258,1.59165 -0.35742,1.79492 -0.42223,0.16178 -0.94196,0.0791 -1.33398,-0.0371 -1.4042,-0.49928 -4.41651,-1.86135 -6.10157,-7.25976 z m -6.92578,1.37695 c 0.72784,3.96275 -0.21484,9.36719 -0.21484,9.36719 -0.24264,1.2131 -0.64875,1.58745 -1.08008,1.96484 -0.54343,0.44417 -0.991,0.0871 -1.1582,-0.14453 -0.33101,-0.4387 -0.19922,-1.03516 -0.19922,-1.03516 0.002,-0.6348 0.31508,-1.28066 0.51367,-1.71093 0.8896,-1.96788 1.35689,-3.77776 2.13867,-8.44141 z m -4.42578,0.18555 c -0.62812,1.6583 -2.51562,3.6914 -2.51562,3.6914 0,0 -0.92749,1.09087 -2.54688,0.93555 0,0 -1.23573,-0.25624 -1.14453,-1.22461 0,0 10e-4,-0.64343 0.625,-1.05273 0,0 0.57219,-0.44241 1.625,-0.33789 0.75614,0.0522 1.87106,0.50049 3.95703,-2.01172 z m 11.29688,2.87695 c 0,0 1.61941,4.03588 4.98242,6.76367 0,0 1.18475,0.73335 1.03711,1.65039 0,0 -0.0788,0.99872 -1.02539,1.01172 0,0 -0.91051,0.0413 -1.58008,-0.9375 0,0 -3.00998,-3.64825 -3.41406,-8.48828 z m -13.54102,2.875 c 0,0 -0.54806,2.89978 -1.25391,4.83398 0,0 -0.67536,2.09151 -2.20117,3.60157 0,0 -1.55319,1.79266 -2.51758,0.24804 0,0 -0.45702,-0.98246 -0.17382,-1.71875 0.17605,-0.39401 0.45706,-0.9265 1.09961,-1.34375 0.98948,-0.74066 3.23149,-2.10695 5.04687,-5.62109 z m 9.43164,0.18359 c 0,0 -0.18787,3.57727 1.77149,11.47852 0.26364,1.12833 0.79733,1.55018 0.62695,2.59375 -0.10642,0.76669 -0.80889,2.01833 -2.18555,0.70898 -0.48984,-0.68151 -0.70975,-1.47869 -0.79492,-3.05468 0,0 0.0283,-8.89406 0.58203,-11.72657 z m 4.11328,8.14063 c 3.09582,4.9017 5.39844,7.15039 5.39844,7.15039 0.89321,0.7938 0.73208,1.97394 0.13672,2.50976 -0.39691,0.3969 -1.32368,0.48835 -1.97852,-0.5039 -0.97243,-1.40899 -2.72314,-4.49268 -3.55664,-9.15625 z m -7.10937,0.13867 c 0.28381,1.71979 0.0926,5.63301 -0.19336,8.8125 -0.22345,2.48488 -0.36758,4.77184 -1.16992,5.66797 -1.49332,1.5903 -2.35944,0.86171 -2.92188,-0.18555 -0.21333,-0.38789 -0.1927,-1.34632 0.17578,-1.98633 2.69576,-5.48848 4.10938,-12.30859 4.10938,-12.30859 z m -4.63867,0.26172 c -9.5e-4,3.52054 -0.52344,4.80664 -0.52344,4.80664 -0.2889,0.85996 -0.5383,1.5294 -0.98438,1.82031 -1.08687,0.67675 -1.59175,-0.18429 -1.65625,-0.61328 -0.0272,-0.38389 0.072,-0.85595 0.57617,-1.47656 1.99928,-2.51219 2.5879,-4.53711 2.5879,-4.53711 z m 16.6914,0.42969 c 0,0 3.35539,1.82663 6.0625,2.34179 1.37374,0.25253 2.59977,0.33441 3.41797,0.55664 1.42425,0.35353 1.53961,2.62927 0.0547,2.91211 0,0 -0.88849,0.36988 -2.7168,-0.35742 0,0 -3.51423,-1.13449 -6.81836,-5.45312 z m -23.03906,2.7539 c -2.61818,6.30303 -5.49821,7.3743 -6.62305,7.54883 -0.69818,0.11636 -2.71206,-0.10816 -1.76172,-2.14453 0,0 0.3072,-0.94304 1.76172,-1.17578 1.14425,-0.21332 1.85213,0.1933 6.62305,-4.22852 z m 17.04492,5.41602 c 0,0 2.13488,3.99456 5.11328,5.72656 0.63126,0.3723 1.04286,0.44907 1.4961,1.12891 0.31631,0.46466 0.25724,1.88231 -1.14649,2.37695 0,0 -1.12002,0.53745 -2.2207,-0.93555 0,0 -2.48141,-2.48577 -3.24219,-8.29687 z m 10.83984,0.0586 c 3.81025,2.06387 5.08575,2.20579 6.95118,2.28516 0,0 1.97042,-0.32408 2.60547,1.02539 0.29766,0.77394 -0.37562,2.20368 -1.94336,2.04492 -1.50821,-0.19845 -5.19217,-1.94215 -7.61329,-5.35547 z m -15.53515,1.8418 c 2.13331,10.47274 -2.94922,13.93555 -2.94922,13.93555 -1.82301,1.16364 -3.40714,-0.0682 -2.98047,-1.96875 0,0 0.22024,-0.94786 1.53906,-1.85938 1.02785,-0.89211 2.97491,-2.23348 4.39063,-10.10742 z m -13.23633,0.70117 c -1.45458,5.06183 -5.66797,8.4375 -5.66797,8.4375 -0.85938,0.59265 -2.4511,0.96785 -3,0.43945 -0.52873,-0.509 -0.51465,-1.65557 -0.10547,-2.59765 0.59296,-1.33992 1.95373,-1.62034 4.05274,-2.72852 1.42287,-0.75119 3.72251,-2.47164 4.7207,-3.55078 z m 5.08398,0.69141 c -1.39634,8.74667 -4.5371,12.36718 -4.5371,12.36718 -0.79193,1.03588 -1.87765,1.61439 -2.87305,1.35743 -1.04916,-0.27076 -1.69,-1.94264 -1.00391,-3.3125 0.96006,-2.09379 2.97524,-2.93709 4.72071,-4.88282 1.40749,-1.56897 2.77922,-3.51937 3.69335,-5.52929 z m -20.9121,0.13281 c 0.37025,-0.0299 0.7905,0.0516 1.25,0.28516 3.94104,1.64533 8.51171,0.25195 8.51171,0.25195 -1.16669,1.59661 -7.65988,4.28937 -11.03515,2.45508 -1.01051,-0.67111 -0.33101,-2.86258 1.27344,-2.99219 z m 41.70703,0.40039 c 3.73086,5.33831 5.37237,6.19937 7.51562,7.54883 1.52805,0.71443 1.87305,1.68555 1.87305,1.68555 0.21828,0.61521 0.0904,2.01373 -1.67578,2.13281 0,0 -0.77581,0.18616 -1.98633,-0.96485 0,0 -4.65494,-4.36947 -5.72656,-10.40234 z m -9.71094,0.91797 c 1.01755,3.66892 2.71278,6.24145 5.16797,7.81445 1.27993,0.79733 0.82763,2.41329 -0.13086,3.24414 -0.39155,0.33949 -1.29691,0.87371 -2.20508,0.4668 -0.84081,-0.37672 -1.53012,-1.96917 -1.82422,-2.6543 -1.42912,-3.16146 -1.20093,-4.924 -1.00781,-8.87109 z m 27.25977,2.59375 c 0.35147,-0.0212 0.75131,0.028 1.13085,0.23633 0.51597,0.29769 1.43027,1.81035 -0.0976,2.56445 -2.05535,0.87942 -7.30226,0.4282 -9.46094,-2.32226 1.90509,0.77395 4.45359,0.91632 7.39063,-0.21485 0,0 0.45131,-0.22828 1.03711,-0.26367 z m 8.13867,1.28906 c 0.23322,1.28267 -0.34961,2.85547 -0.34961,2.85547 -3.9646,9.15356 -11.58651,14.95344 -13.08789,15.83008 0.29151,-1.60333 -0.14616,-2.09991 -1.25391,-2.94531 3.70223,-2.50702 12.94233,-12.76679 14.69141,-15.74024 z m -72.59375,0.0606 c 1.7491,2.97344 10.98915,13.23516 14.6914,15.74219 -1.10777,0.84537 -1.54349,1.34006 -1.25195,2.94336 -1.50138,-0.87662 -9.12522,-6.67457 -13.08984,-15.82813 0,0 -0.58281,-1.57477 -0.34961,-2.85742 z m 75.48828,5.47461 c 1.04808,6.07886 -13.20646,15.5723 -14.04492,15.93164 0.17967,-1.28764 -0.20907,-2.5462 -1.10743,-2.30664 0,0 7.93558,-5.89915 15.15235,-13.625 z m -78.38281,0.0625 c 7.21678,7.72583 15.15234,13.625 15.15234,13.625 -0.89834,-0.23956 -1.28709,1.01706 -1.10742,2.30469 -0.83848,-0.35931 -15.09301,-9.85083 -14.04492,-15.92969 z m 39.31054,1.46484 c 0.15515,0.93091 0.51166,1.65102 1.05469,2.29102 2.49657,2.75942 3.20121,6.84974 -1.69141,6.90234 -3.13017,-0.0682 -2.94528,-2.87281 -2.01953,-4.91016 0.73973,-1.62796 2.06195,-2.257 2.65625,-4.2832 z m 40.71875,4.85156 c 1.91649,4.19232 -13.7742,12.66669 -14.91211,12.90625 0.35934,-0.74863 0.44852,-2.33531 -0.15039,-2.63476 4.37199,-3.08435 13.02623,-8.355 15.0625,-10.27149 z m -81.67578,0.0606 c 2.03628,1.9165 10.6905,7.18714 15.0625,10.27149 -0.59888,0.29945 -0.50956,1.88615 -0.15039,2.63476 -1.1379,-0.23955 -16.82859,-8.71392 -14.91211,-12.90625 z m 20.39453,4.43945 c 0.17312,0.006 0.36117,0.0345 0.5625,0.0859 2.59468,0.70339 4.73579,1.37151 7.73828,2.35938 0.42983,0.15186 0.11988,1.29116 -0.25,2.02929 -0.61458,1.19694 -1.10285,1.85736 -1.63671,2.79102 -1.19997,2.09868 -2.01644,3.32809 -1.99024,4.59766 -0.002,0.79196 0.19483,1.22031 0.85742,1.88281 0.48223,0.48217 1.223,1.02266 2.10742,1.32031 1.6852,0.46446 3.38906,0.0785 4.55274,-0.56641 0.84377,-0.45298 1.4987,-0.24255 1.5918,0.0664 -0.79329,0.75998 -1.7645,2.21845 -1.98829,3.29492 -0.20379,0.69593 -0.0395,1.3891 0.1543,2.49024 0.30664,1.74284 0.6971,3.78089 1.13281,5.23242 -0.96708,-0.2196 -1.78763,-1.33563 -2.25,-2.8457 -0.0393,-0.12825 -0.12379,-10e-4 -0.15039,0.20117 -0.49605,3.1593 -3.3052,2.30064 -3.3164,0.0176 -7.3e-4,-0.14117 -0.16808,-0.33775 -0.23438,-0.1211 -0.88411,2.4094 -3.18032,1.98733 -3.35937,0 -0.0165,-0.18381 -0.0743,-0.32181 -0.20703,-0.16992 -1.79176,1.86943 -3.59482,0.75048 -3.14649,-1.08203 0.0335,-0.13728 0.10576,-0.41682 -0.0996,-0.28125 -2.53601,1.62677 -3.43314,-0.25539 -2.17969,-1.9375 0.0851,-0.0923 -0.0482,-0.23413 -0.21093,-0.14063 -2.5622,1.47239 -3.95214,-1.99209 -1.76172,-3.09765 0.17558,-0.0919 0.14684,-0.17657 -0.0742,-0.13867 -3.1573,0.54266 -2.74256,-3.27173 -0.16797,-3.02344 0.35307,0.0337 0.47814,-0.37296 0.23633,-0.41406 -3.05471,-0.51931 -2.64026,-3.57713 0.56836,-3.35547 0.2691,0.0199 0.27161,-0.16453 0.10742,-0.20313 -2.71955,-0.63917 -1.28919,-3.87893 0.5,-3.03125 0.0958,0.0455 0.29227,-0.0707 0.16211,-0.18359 -1.80699,-1.66688 -0.49454,-3.53592 1.50195,-3.10742 0.15605,0.0333 0.1662,0.022 0.125,-0.0801 -0.58296,-1.61618 -0.0869,-2.63515 1.125,-2.58985 z m 40.91211,0.0488 c 1.21191,-0.0453 1.70794,0.9756 1.125,2.5918 -0.0411,0.10211 -0.0309,0.11164 0.125,0.0781 1.99648,-0.42847 3.30694,1.44248 1.5,3.10938 -0.13015,0.11277 0.0683,0.22908 0.16406,0.18359 1.78922,-0.84768 3.21953,2.39213 0.5,3.03125 -0.1642,0.0387 -0.16135,0.223 0.10743,0.20313 3.20863,-0.22166 3.62109,2.8342 0.5664,3.35351 -0.24182,0.0411 -0.11686,0.44773 0.23633,0.41407 2.57458,-0.2483 2.98933,3.56805 -0.16797,3.02539 -0.22108,-0.0379 -0.24804,0.0466 -0.0723,0.13867 2.19041,1.10556 0.80046,4.57003 -1.76172,3.09766 -0.16271,-0.0935 -0.29797,0.0462 -0.21289,0.13867 1.25346,1.68211 0.35828,3.56619 -2.17774,1.93945 -0.20538,-0.13559 -0.13508,0.14398 -0.10156,0.28125 0.44836,1.83252 -1.35279,2.95146 -3.14453,1.08203 -0.13278,-0.15193 -0.19049,-0.0139 -0.20703,0.16992 -0.17904,1.98733 -2.47723,2.40938 -3.36133,0 -0.0663,-0.21667 -0.23172,-0.02 -0.23242,0.1211 -0.0112,2.28306 -2.82033,3.14169 -3.31641,-0.0176 -0.0266,-0.20265 -0.11087,-0.32941 -0.15039,-0.20117 -0.46237,1.51009 -1.25303,2.81043 -1.99023,3.06836 0.20353,-1.45806 0.58074,-2.8129 0.77734,-4.19141 0.19376,-1.10115 0.37118,-3.45624 0.40234,-4.17578 0.025,-0.92325 -0.0451,-1.82625 -0.0723,-2.70117 -0.0169,-0.34005 0.80711,0.22696 1.16992,0.31836 1.29776,0.33846 1.81483,0.32157 2.90625,0.01 0.8844,-0.29769 1.62517,-0.84006 2.10742,-1.32226 0.66256,-0.66248 0.85905,-1.08892 0.85742,-1.88086 0.0263,-1.26956 -0.79023,-2.50094 -1.99023,-4.59961 -0.53384,-0.93369 -1.02212,-1.59215 -1.63672,-2.78906 -0.36987,-0.73813 -0.67987,-1.8794 -0.25,-2.03126 3.00247,-0.98785 5.14359,-1.65598 7.73828,-2.35937 0.20131,-0.0513 0.38937,-0.0796 0.5625,-0.0859 z m 21.23828,1.30078 c 0.5617,4.33632 -13.21138,10.73916 -14.89648,11.03125 0.53923,-0.58417 0.85284,-2.24581 -0.11328,-3.14453 0,0 4.00655,-1.92384 8.05664,-3.92969 3.14201,-1.5561 6.47216,-3.16197 6.95312,-3.95703 z m -46.82422,0.041 c 0.86595,-0.0218 2.04231,0.30347 3.11524,0.85742 0.36465,0.17349 0.84671,0.60492 0.49609,1.55078 -0.0682,0.25014 -0.25562,1.26439 0.31641,1.7461 -0.005,0 0.56487,0.45259 0.76758,0.79882 0.27563,0.45701 0.25593,0.66666 0.084,0.875 -0.25633,0.3104 -0.54776,0.40881 -0.91211,0.46485 -0.42148,0.0602 -2.71881,0.29411 -4.10937,-1.64063 -0.18055,-0.25592 -0.72308,-0.91926 -0.27149,-1.41601 0,0 1.98867,1.74581 3.64453,1.42968 0.25158,-0.046 -0.13069,-0.36634 -0.48242,-0.375 -0.66236,-0.0145 -1.33917,-0.58748 -1.83594,-1.03906 -0.50862,-0.40775 -1.77069,-0.51491 -2.28906,-0.0898 -0.67739,0.60214 -1.03862,0.2243 -0.87304,1.39844 -0.20167,-0.0314 -0.57377,-0.18315 -0.75586,-0.47852 -0.42964,-0.69685 -0.49211,-2.01002 0.30078,-2.87695 0.50722,-0.60338 1.43513,-1.17028 2.80468,-1.20508 z m -36.58984,0.0215 h 0.002 c 0.48095,0.79507 3.80918,2.39896 6.95118,3.95508 4.05009,2.00584 8.05664,3.92969 8.05664,3.92969 -0.96611,0.8987 -0.65236,2.5623 -0.11329,3.14648 -1.68511,-0.29209 -15.45818,-6.69493 -14.89648,-11.03125 z m 21.8125,0.11329 c -0.0985,0.0207 -0.17773,0.10156 -0.17773,0.10156 -0.24876,0.23055 -0.1395,1.08679 0.23242,1.25781 0.74562,0.37921 2.5664,1.04883 2.5664,1.04883 0.12575,0.0374 0.25114,0.17153 0.10743,0.33203 -0.39708,0.44367 -1.10858,1.63844 -2.00391,3.66406 0,0 -2.58903,6.63676 1,9.23828 2.61072,1.83078 6.93362,0.41354 8.0293,-0.16601 0.17064,-0.096 0.0651,-0.34411 -0.23828,-0.28711 -2.52176,0.64467 -7.88263,1.19334 -8.07227,-3.41406 -0.0758,-2.62605 1.45241,-6.44993 4.08789,-9.58789 0.0689,-0.0838 0.1745,-0.31311 -0.13281,-0.40821 -1.79813,-0.50652 -3.60285,-1.11276 -5.29688,-1.77539 -0.035,-0.0121 -0.0687,-0.0108 -0.10156,-0.004 z m 39.81445,0.0488 c -0.0328,-0.007 -0.0685,-0.006 -0.10351,0.006 -1.69403,0.66264 -3.49878,1.26885 -5.29688,1.77539 -0.3073,0.0951 -0.19976,0.32445 -0.13086,0.40821 2.63552,3.13796 4.16374,6.96186 4.08789,9.58789 -0.1896,4.60743 -4.45818,3.9999 -7.15234,3.64257 -0.30338,-0.057 -0.73506,0.0954 -0.56445,0.19141 2.13003,0.40713 4.82287,1.86388 7.43359,0.0332 3.58902,-2.60151 1.00195,-9.23828 1.00195,-9.23828 -0.89531,-2.0256 -1.60685,-3.22235 -2.0039,-3.66601 -0.14371,-0.16048 -0.0204,-0.29269 0.10547,-0.33008 0,0 1.82274,-0.66962 2.56836,-1.04883 0.37195,-0.17102 0.48116,-1.02722 0.23242,-1.25781 0,0 -0.0793,-0.0828 -0.17774,-0.10352 z m -17.95507,0.48047 c 1.26019,0.0165 2.46353,0.35385 3.54296,0.72656 0.71668,0.22762 0.82492,1.109 0.85352,1.4961 0,0 0.0936,1.26795 0.0996,2.58984 0.007,1.09714 0.12745,3.08127 0.18945,3.58399 0.13089,1.22501 0.31115,2.11999 0.45899,2.73242 0.24011,0.91917 0.88658,2.40505 1.44336,2.63672 0.028,0.34653 0.0527,0.75586 0.0527,0.75586 0,0 -0.94502,-0.33161 -2.28516,-1.00196 -1.02309,-0.51174 -2.23036,-1.56475 -2.41992,-1.23828 -0.16968,0.29816 -0.23385,1.26475 -0.0527,2.27735 0,0 0.37605,1.53964 -0.61524,2.11523 0,0 -0.83867,-2.47567 -1.6914,-3.11523 -0.51164,-0.35174 -1.51331,-0.37339 -1.84375,0.21289 0,0 -1.45946,2.31394 -1.26758,3.25195 -0.43705,-0.0426 -1.38251,-1.83064 -1.20117,-3.78125 0.0213,-0.29834 -0.2907,-0.87241 -0.87696,-0.41406 0,0 -2.67266,2.23909 -4.15429,2.3457 0.51167,-1.26843 1.68554,-2.60742 1.68554,-2.60742 0.40503,-0.55429 0.39955,-1.02531 -0.33593,-1.00391 0,0 -1.89448,0.12887 -3.01367,0.875 1.72044,-2.48833 2.86223,-3.21297 4.30859,-4.54687 0.94326,-0.86986 1.50018,-1.54414 1.66211,-1.71289 0.13035,-0.1096 0.3307,-0.0577 0.5332,-0.0371 0.80417,0.088 1.52764,0.11715 2.11133,0.0351 0.80071,-0.13963 1.18284,-0.46715 1.21484,-1.13867 0.0414,-1.46721 -0.99741,-1.52997 -1.24609,-2.02734 -0.1201,-0.26737 -0.0934,-0.60605 -0.0234,-0.99805 0.0709,-0.39785 -0.12513,-1.29027 0.11719,-1.38867 l 0.4375,-0.2461 c 0.78335,-0.28287 1.56029,-0.38687 2.31641,-0.37695 z m 41.42578,5.11524 c 0.0225,3.61734 -13.92884,8.4695 -16.66992,9.16601 1.55028,-1.23574 1.46023,-2.51633 0.58398,-3.34765 0,0 1.88961,-0.76795 5.30078,-1.80469 3.83639,-1.16597 8.9053,-2.94127 10.78516,-4.01367 z m -86.78125,0.0605 c 1.87989,1.0724 6.95072,2.84964 10.78711,4.01563 3.41118,1.03674 5.29882,1.80273 5.29882,1.80273 -0.87629,0.83132 -0.96631,2.11194 0.58399,3.34766 -2.7411,-0.69648 -16.69236,-5.54868 -16.66992,-9.16602 z m 84.89453,6.47657 c 0.31455,3.505 -13.21081,6.71783 -16.73828,6.51562 1.16834,-0.60664 1.97764,-1.25825 1.64062,-2.98828 0,0 3.15535,-0.81688 6.68946,-1.55664 3.06377,-0.6413 6.39461,-1.14648 8.4082,-1.9707 z m -83.00781,0.0625 c 2.01359,0.82423 5.34638,1.32746 8.41015,1.96875 3.53411,0.73977 6.68945,1.55859 6.68946,1.55859 -0.33702,1.73003 0.47033,2.38164 1.63867,2.98828 -3.52749,0.20221 -17.05284,-3.0106 -16.73828,-6.51562 z m 46.41796,1.77148 c 0,0 1.33209,1.12833 3.26563,2.03906 -1.09093,8.37616 -3.08918,18.810468 -7.27734,29.322268 -3.50645,-8.65107 -6.81777,-16.264316 -9.11133,-28.564448 0,0 3.60102,-1.18811 4.35937,-2.31641 0.20347,2.6635 2.09571,4.57422 2.09571,4.57422 0,0 1.06835,-2.17389 2.4414,-4.10742 1.21898,1.76539 2.69141,4.42968 2.69141,4.42968 0,0 2.16563,-2.51869 1.53515,-5.37695 z m 34.58985,4.39062 c -0.7612,2.44032 -5.19651,3.4254 -9.50196,3.59766 -4.33609,0.17348 -8.53906,-0.47461 -8.53906,-0.47461 1.34808,-0.40442 2.539,-0.96737 2.71875,-2.24805 0,0 11.95208,0.83257 15.32227,-0.875 z m -79.00781,0.0606 c 3.37022,1.70758 15.32226,0.87695 15.32226,0.87695 0.17973,1.28067 1.37067,1.84168 2.71875,2.2461 0,0 -4.20295,0.65004 -8.53906,0.47656 -4.30542,-0.17227 -8.74074,-1.15929 -9.50195,-3.59961 z m 60.24804,3.51172 c 0,0 2.22411,0.69367 5.32813,1.53906 2.65524,0.72317 5.99792,1.63568 9.34375,1.44922 -3.64248,2.415548 -8.7715,1.905251 -12.54883,0.70508 -2.8631,-0.90969 -4.74193,-2.17966 -5.04492,-2.75 1.61769,0.4269 2.71966,-0.0671 2.92187,-0.94336 z m -41.48828,0.0605 c 0.20221,0.87626 1.30419,1.37027 2.92188,0.94336 -0.303,0.57034 -2.18181,1.84227 -5.04493,2.75195 -3.77733,1.20019 -8.90437,1.708486 -12.54687,-0.70703 3.34583,0.18644 6.68656,-0.72605 9.3418,-1.44922 3.10401,-0.84539 5.32812,-1.53906 5.32812,-1.53906 z m 37.48828,1.19726 c 4.96542,6.470776 12.56055,7.503909 12.56055,7.503909 -0.67404,0.516764 -9.57152,1.326706 -15.07617,-6.626949 1.48288,0.53923 1.88651,-0.11305 2.51562,-0.87696 z m -33.48828,0.0606 c 0.62911,0.76391 1.03275,1.41618 2.51563,0.87695 -5.50466,7.95366 -14.40018,7.145659 -15.07422,6.628909 0,0 7.59318,-1.035092 12.55859,-7.505859 z m 26.05274,0.0508 c 1.95471,1.1908 2.53786,1.14574 3.23437,0.4043 2.26926,6.335965 7.75195,9.347654 7.75195,9.347654 -1.57276,0.04494 -7.45885,-0.248002 -10.98632,-9.751954 z m -18.61524,0.0625 c -3.52749,9.503938 -9.41357,9.794941 -10.98633,9.750001 0,0 5.48072,-3.009726 7.75,-9.345701 0.69648,0.74145 1.28163,0.78649 3.23633,-0.4043 z m 3.95117,8.767579 c 0.67984,2.40368 1.78321,5.419922 1.78321,5.419922 -7.33247,11.70278 -11.8711,12.517578 -11.8711,12.517578 0,0 6.78584,-8.54129 10.08789,-17.9375 z m 11.28907,0.291016 c 5.92421,12.64966 10.44726,17.451172 10.44726,17.451172 0,0 -4.17338,-0.234874 -11.67578,-12.496094 0,0 1.05856,-3.109868 1.22852,-4.955078 z m 23.22851,0.792969 c 1.03487,4.68571 3.41979,9.197309 3.82227,11.037109 0.5405,2.2228 0.34101,4.721005 -1.88672,5.828125 -2.78014,1.38165 -7.48573,-0.487531 -5.73047,-6.144531 0.57491,-1.89727 2.78879,-6.006253 3.79492,-10.720703 z m -57.75195,0.113281 c 1.20737,4.65696 3.13209,8.797884 3.70703,10.177734 1.69436,4.09114 -0.50584,7.145235 -3.76563,7.115235 -3.23334,-0.02963 -4.56529,-3.130321 -4.10937,-5.363282 0.43119,-2.414739 3.82302,-8.911287 4.16797,-11.929687 z m 25.40234,4.976563 c 0.75266,2.08804 1.70117,4.351562 1.70117,4.351562 -8.5707,13.45089 -12.71679,12.501953 -12.71679,12.501953 0,0 4.58154,-4.203846 11.01562,-16.853515 z m 7.61524,0.300781 c 6.72545,12.81962 11.02539,16.554687 11.02539,16.554687 0,0 -3.24168,1.646317 -12.49219,-12.314453 0,0 0.81127,-1.836574 1.4668,-4.240234 z m -5.46094,5.001953 c 0.82551,1.86951 2.01953,3.833984 2.01953,3.833984 0,0 1.08076,-1.991272 1.73633,-3.763672 0.50984,12.06695 -1.21289,18.589844 -1.21289,18.589844 0,0 -2.10593,-5.622036 -2.54297,-18.660156 z"
     style="opacity:0.76999996;fill:#f45a0a;fill-opacity:0.722;stroke:none;stroke-width:0.52350438;stroke-linecap:square;stroke-linejoin:miter;stroke-miterlimit:10;stroke-dasharray:0.73276757, 0.5234054;stroke-dashoffset:0;stroke-opacity:1;paint-order:markers stroke fill"
     inkscape:connector-curvature="0" /></g>

  <animateTransform
   id="layer2"
   attributeName="transform"
   type="scale"
   begin="g2019.click"
   dur="6"
   from="1"
   to="0"
   additive="sum"
   calcMode="spline"
   keyTimes="0;1"
   keySplines=".6  0    .5   1  "
   restart="whenNotActive" />
        <animateTransform
   id="layer2"
   attributeName="transform"
   type="translate"
   begin="g2019.click"
   dur="6"
   from="0,0"
   to="0,0"
   additive="sum"
   calcMode="spline"
   keyTimes="0;1"
   keySplines=".6  0    .5   1  "
   restart="whenNotActive" />  
       <animateTransform
   id="layer2"
   attributeName="transform"
   type="rotate"
   begin="g2019.click+3"
   dur="6"
   from="720,0,0"
   to="0,0,0"
   additive="sum"
   calcMode="spline"
   keyTimes="0;1"
   keySplines=".6  0    .5   1  "
   restart="whenNotActive" />   
      <animateTransform
   id="layer2"
   attributeName="transform"
   type="skewX"
   begin="g2019.click"
   dur="6"
   from="0"
   to="95"
   additive="sum"
   calcMode="spline"
   keyTimes="0;1"
   keySplines=".6  0    1   1  "
   restart="whenNotActive" />
	  <animateTransform
   id="layer2"
   attributeName="transform"
   type="skewX"
   begin="g2019.click+6"
   dur="6"
   from="75"
   to="0"
   additive="sum"
   calcMode="spline"
   keyTimes="0;1"
   keySplines=".6  0    .6   1  "
   restart="whenNotActive" />
       <animateTransform
   id="layer2"
   attributeName="transform"
   type="scale"
   begin="g2019.click+6"
   dur="6"
   from="0"
   to="1"
   additive="sum"
   calcMode="spline"
   keyTimes="0;1"
   keySplines=".6  0    .6   1  "
   restart="whenNotActive" /> 
	
        <animateTransform
   id="layer2"
   attributeName="transform"
   type="translate"
   begin="g2019.click+6"
   dur="6"
   from="0,0"
   to="0,0"
   additive="sum"
   calcMode="spline"
   keyTimes="0;1"
   keySplines=".6  0    .6   1  "
   restart="whenNotActive" />  
<g
   inkscape:groupmode="layer"
   id="layer1"
   inkscape:label="Layer 1"
   style="display:none"
   transform="translate(0,-25)" /><g
   inkscape:groupmode="layer"
   id="layer2"
   inkscape:label="Layer 2"
   transform="translate(0,-25)">
	 </g>
	 

	 
	 
	 










	 
	 
        
	 
	 

<text
   xml:space="preserve"
   style="font-style:normal;font-variant:normal;font-weight:normal;font-stretch:normal;font-size:7.48064041px;line-height:1;font-family:Arial;-inkscape-font-specification:'Arial, Normal';font-variant-ligatures:normal;font-variant-caps:normal;font-variant-numeric:normal;text-align:start;letter-spacing:0px;word-spacing:0px;writing-mode:lr-tb;text-anchor:start;fill:#ffffff;fill-opacity:0.722;stroke:none;stroke-width:1.52174747;stroke-miterlimit:2;stroke-dasharray:2.1300439, 1.52145993;stroke-dashoffset:0;stroke-opacity:1"
   x="8.352994"
   y="-0.34248096"
   id="text1460-2"
   class=""
   transform="scale(1.0228856,0.97762644)"><tspan
     sodipodi:role="line"
     x="8.352994"
     y="5.460659"
     style="font-size:8.57734585px;fill:#ffffff;fill-opacity:0.722;stroke:none;stroke-width:0.35252684;stroke-opacity:1"
     id="tspan5557-1" /><tspan
     sodipodi:role="line"
     x="8.352994"
     y="12.941299"
     style="font-size:5.84909582px;fill:#ffffff;fill-opacity:0.722;stroke:none;stroke-width:0.35252684;stroke-opacity:1"
     id="tspan1790">0:00 The Paper Kites - ‘By My Side (feat. Rosie Carney) </tspan><tspan
     sodipodi:role="line"
     x="8.352994"
     y="20.42194"
     style="font-size:5.84909582px;fill:#ffffff;fill-opacity:0.722;stroke:none;stroke-width:0.35252684;stroke-opacity:1"
     id="tspan1796">4:07 Canyon City - ‘Like the Stars Shine’</tspan><tspan
     sodipodi:role="line"
     x="8.352994"
     y="27.90258"
     style="font-size:5.84909582px;fill:#ffffff;fill-opacity:0.722;stroke:none;stroke-width:0.35252684;stroke-opacity:1"
     id="tspan1802">8:17 Kathleen Regan - 'You Never Know’</tspan><tspan
     sodipodi:role="line"
     x="8.352994"
     y="35.383221"
     style="font-size:5.84909582px;fill:#ffffff;fill-opacity:0.722;stroke:none;stroke-width:0.35252684;stroke-opacity:1"
     id="tspan1808">11:34 Alivan Blu - ‘Empty Spaces’</tspan><tspan
     sodipodi:role="line"
     x="8.352994"
     y="42.863861"
     style="font-size:5.84909582px;fill:#ffffff;fill-opacity:0.722;stroke:none;stroke-width:0.35252684;stroke-opacity:1"
     id="tspan1814">15:29 The Collection - 'Beautiful Life (Acoustic)’</tspan><tspan
     sodipodi:role="line"
     x="8.352994"
     y="50.344501"
     style="font-size:5.84909582px;fill:#ffffff;fill-opacity:0.722;stroke:none;stroke-width:0.35252684;stroke-opacity:1"
     id="tspan1820">19:10 Mona Lisa Tribe - 'Fly’</tspan><tspan
     sodipodi:role="line"
     x="8.352994"
     y="57.825142"
     style="font-size:5.84909582px;fill:#ffffff;fill-opacity:0.722;stroke:none;stroke-width:0.35252684;stroke-opacity:1"
     id="tspan1826">23:32 Gatlin - ‘Talking To Myself (Stripped)’</tspan><tspan
     sodipodi:role="line"
     x="8.352994"
     y="65.305779"
     style="font-size:5.84909582px;fill:#ffffff;fill-opacity:0.722;stroke:none;stroke-width:0.35252684;stroke-opacity:1"
     id="tspan1832">27:28 Cody Francis - ‘Is It Over Yet (Colorado Session)’</tspan><tspan
     sodipodi:role="line"
     x="8.352994"
     y="72.786423"
     style="font-size:5.84909582px;fill:#ffffff;fill-opacity:0.722;stroke:none;stroke-width:0.35252684;stroke-opacity:1"
     id="tspan1838">30:09 Lydia Evangeline - ‘Perfect Once’</tspan><tspan
     sodipodi:role="line"
     x="8.352994"
     y="80.267059"
     style="font-size:5.84909582px;fill:#ffffff;fill-opacity:0.722;stroke:none;stroke-width:0.35252684;stroke-opacity:1"
     id="tspan1844">33:38 Michael Barrow &amp; the Tourists - ‘The Reason’</tspan><tspan
     sodipodi:role="line"
     x="8.352994"
     y="87.747704"
     style="font-size:5.84909582px;fill:#ffffff;fill-opacity:0.722;stroke:none;stroke-width:0.35252684;stroke-opacity:1"
     id="tspan1850">37:11 David Paul Zimmer - ‘Your Kind of Crazy’</tspan><tspan
     sodipodi:role="line"
     x="8.352994"
     y="95.22834"
     style="font-size:5.84909582px;fill:#ffffff;fill-opacity:0.722;stroke:none;stroke-width:0.35252684;stroke-opacity:1"
     id="tspan1856">40:11 OTTO - ‘Tell Me Something (I Don’t Know)’</tspan><tspan
     sodipodi:role="line"
     x="8.352994"
     y="102.70898"
     style="font-size:5.84909582px;fill:#ffffff;fill-opacity:0.722;stroke:none;stroke-width:0.35252684;stroke-opacity:1"
     id="tspan1862">43:28 Henry Nozuka - 'As Quiet As It Seemed’</tspan><tspan
     sodipodi:role="line"
     x="8.352994"
     y="110.18962"
     style="font-size:5.84909582px;fill:#ffffff;fill-opacity:0.722;stroke:none;stroke-width:0.35252684;stroke-opacity:1"
     id="tspan1868">46:01 Spondifferous – ‘Old Pages’</tspan><tspan
     sodipodi:role="line"
     x="8.352994"
     y="117.67027"
     style="font-size:5.84909582px;fill:#ffffff;fill-opacity:0.722;stroke:none;stroke-width:0.35252684;stroke-opacity:1"
     id="tspan1874">50:30 Simen Mitlid - ‘Grateful Dead’</tspan><tspan
     sodipodi:role="line"
     x="8.352994"
     y="125.1509"
     style="font-size:5.84909582px;fill:#ffffff;fill-opacity:0.722;stroke:none;stroke-width:0.35252684;stroke-opacity:1"
     id="tspan1880">53:37 Natalie Holmes - 'Dandelion’</tspan><tspan
     sodipodi:role="line"
     x="8.352994"
     y="132.63155"
     style="font-size:5.84909582px;fill:#ffffff;fill-opacity:0.722;stroke:none;stroke-width:0.35252684;stroke-opacity:1"
     id="tspan1886">56:49 The January Lanterns - 'I Won’t Know (Until The End)’</tspan><tspan
     sodipodi:role="line"
     x="8.352994"
     y="140.11218"
     style="font-size:5.84909582px;fill:#ffffff;fill-opacity:0.722;stroke:none;stroke-width:0.35252684;stroke-opacity:1"
     id="tspan1892">1:00:14 Prison Beach Club - ‘Only One Love’</tspan><tspan
     sodipodi:role="line"
     x="8.352994"
     y="147.59282"
     style="font-size:5.84909582px;fill:#ffffff;fill-opacity:0.722;stroke:none;stroke-width:0.35252684;stroke-opacity:1"
     id="tspan1898">1:05:10 Leith Ross - 'Tommy’</tspan><tspan
     sodipodi:role="line"
     x="8.352994"
     y="155.07347"
     style="font-size:5.84909582px;fill:#ffffff;fill-opacity:0.722;stroke:none;stroke-width:0.35252684;stroke-opacity:1"
     id="tspan1904">1:08:27 Madrona Drive - ‘Morphine’</tspan><tspan
     sodipodi:role="line"
     x="8.352994"
     y="162.55411"
     style="font-size:5.84909582px;fill:#ffffff;fill-opacity:0.722;stroke:none;stroke-width:0.35252684;stroke-opacity:1"
     id="tspan1910">1:13:04 The Heatlamps - ‘Such a Long Time Ago’</tspan><tspan
     sodipodi:role="line"
     x="8.352994"
     y="170.03474"
     style="font-size:5.84909582px;fill:#ffffff;fill-opacity:0.722;stroke:none;stroke-width:0.35252684;stroke-opacity:1"
     id="tspan1916">1:17:12 Skout - 'Ghost’</tspan><tspan
     sodipodi:role="line"
     x="8.352994"
     y="177.51538"
     style="font-size:5.84909582px;fill:#ffffff;fill-opacity:0.722;stroke:none;stroke-width:0.35252684;stroke-opacity:1"
     id="tspan1934">1:21:31 Miller Roberts - ‘Where We Stand’</tspan></text>



<rect
   style="fill:none;stroke:#d1f6f1;stroke-width:1.23000002;stroke-linejoin:round;stroke-miterlimit:10;stroke-dasharray:4.28488945, 3.06060897;stroke-dashoffset:0;stroke-opacity:1"
   id="rect1498"
   width="292.39166"
   height="173.93381"
   x="4.0302591"
   y="3.3411477"
   class="innerFrame" /><path
   style="font-size:14.41752338px;fill:none;fill-opacity:0.94117647;stroke:#ffffff;stroke-width:0.869;stroke-miterlimit:2;stroke-dasharray:1.21637008, 0.86883577000000001;stroke-dashoffset:0;stroke-opacity:1;stroke-linejoin:round"
   d="m 226.78196,12.589007 -39.62918,65.221572 c -34.76135,56.721291 3.5438,85.952621 35.54868,88.714991 3.02618,0.2837 6.75305,0.35914 10.67763,0.005 29.43305,-3.04808 75.15307,-25.70662 29.60396,-98.057866 z"
   id="path6012"
   inkscape:connector-curvature="0"
   sodipodi:nodetypes="cccccc"
   class="outerFrame" /></svg>