<?xml version="1.0" encoding="UTF-8" standalone="no"?>
<svg
   xmlns:dc="http://purl.org/dc/elements/1.1/"
   xmlns:cc="http://creativecommons.org/ns#"
   xmlns:rdf="http://www.w3.org/1999/02/22-rdf-syntax-ns#"
   xmlns:svg="http://www.w3.org/2000/svg"
   xmlns="http://www.w3.org/2000/svg"
   xmlns:sodipodi="http://sodipodi.sourceforge.net/DTD/sodipodi-0.dtd"
   xmlns:inkscape="http://www.inkscape.org/namespaces/inkscape"
   id="svg843"
   xml:space="preserve"
   enable-background="new 0 0 370.4 370.4"
   viewBox="0 0 300 170"
   height="170"
   width="300"
   y="0px"
   x="0px"
   version="1.1"
   sodipodi:docname="Inhalt_Video_x_1.g.svg"
   inkscape:version="0.92.3 (2405546, 2018-03-11)"><sodipodi:namedview
   pagecolor="#ffffff"
   bordercolor="#666666"
   borderopacity="1"
   objecttolerance="10"
   gridtolerance="10"
   guidetolerance="10"
   inkscape:pageopacity="0"
   inkscape:pageshadow="2"
   inkscape:window-width="1004"
   inkscape:window-height="857"
   id="namedview913"
   showgrid="false"
   inkscape:zoom="2.4543191"
   inkscape:cx="209.84513"
   inkscape:cy="108.66892"
   inkscape:window-x="1195"
   inkscape:window-y="84"
   inkscape:window-maximized="0"
   inkscape:current-layer="svg843" /><metadata
   id="metadata849"><rdf:RDF><cc:Work
       rdf:about=""><dc:format>image/svg+xml</dc:format><dc:type
         rdf:resource="http://purl.org/dc/dcmitype/StillImage" /><dc:title /></cc:Work></rdf:RDF></metadata><defs
   id="defs847" />
    
    
    
<style
   id="style870">
												.letters {animation: spinLeft 120s linear infinite; }
												.outerFrame { animation: spinRight 90s linear infinite; }
												.innerFrame { animation: spinRight 90s linear infinite; }
												@-webkit-keyframes spinLeft {to {stroke-dashoffset: -500;} }
												@keyframes spinLeft {to {stroke-dashoffset: -500;} }
												@-webkit-keyframes spinRight {to {stroke-dashoffset: 500;} }
												@keyframes spinRight {to {stroke-dashoffset: 500;} }
</style>		
		

   
   <rect
   y="-4.1068134"
   x="-5.3152599"
   height="183.49678"
   width="318.84018"
   id="rect872"
   style="opacity:0.681;fill:#090748;fill-opacity:1;stroke:none;stroke-width:0.52945191;stroke-linecap:square;stroke-linejoin:miter;stroke-miterlimit:10;stroke-dasharray:0.74109257, 0.52935183;stroke-dashoffset:0;stroke-opacity:1;paint-order:markers stroke fill" />







<rect
   style="fill:none;stroke:#d1f6f1;stroke-width:0.86794877;stroke-linejoin:round;stroke-miterlimit:10;stroke-dasharray:3.02362968, 2.15971689;stroke-dashoffset:0;stroke-opacity:1"
   id="rect1498"
   width="292.41983"
   height="162.19893"
   x="3.8385439"
   y="4.4127908"
   class="innerFrame" />


<g
   inkscape:groupmode="layer"
   id="layer1"
   inkscape:label="Layer 1"
   style="display:none"
   transform="translate(0,-35)" /><g
   inkscape:groupmode="layer"
   id="layer2"
   inkscape:label="Layer 2"
   transform="translate(0,-35)">
	 </g>
	 
	  <animateTransform
   id="layer2"
   attributeName="transform"
   type="scale"
   begin="path826.click"
   dur="6"
   from="1"
   to="0"
   additive="sum"
   calcMode="spline"
   keyTimes="0;1"
   keySplines=".6  0    .4   1  "
   restart="whenNotActive" />
        <animateTransform
   id="layer2"
   attributeName="transform"
   type="translate"
   begin="image5567.click"
   dur="6"
   from="0,0"
   to="90,190"
   additive="sum"
   calcMode="spline"
   keyTimes="0;1"
   keySplines=".6  0    .4   1  "
   restart="whenNotActive" />  
       <animateTransform
   id="layer2"
   attributeName="transform"
   type="rotate"
   begin="path826.click+3"
   dur="6"
   from="720,0,0"
   to="-0,0,0"
   additive="sum"
   calcMode="spline"
   keyTimes="0;1"
   keySplines="1  0    0   1  "
   restart="whenNotActive" />   
      <animateTransform
   id="layer2"
   attributeName="transform"
   type="skewX"
   begin="path826.click"
   dur="6"
   from="0"
   to="75"
   additive="sum"
   calcMode="spline"
   keyTimes="0;1"
   keySplines=".6  0    .4   1  "
   restart="whenNotActive" />
	  <animateTransform
   id="layer2"
   attributeName="transform"
   type="skewX"
   begin="path826.click+6"
   dur="6"
   from="75"
   to="0"
   additive="sum"
   calcMode="spline"
   keyTimes="0;1"
   keySplines=".6  0    .4   1  "
   restart="whenNotActive" />
       <animateTransform
   id="layer2"
   attributeName="transform"
   type="scale"
   begin="path826.click+6"
   dur="6"
   from="0"
   to="1"
   additive="sum"
   calcMode="spline"
   keyTimes="0;1"
   keySplines=".6  0    .4   1  "
   restart="whenNotActive" /> 
	
        <animateTransform
   id="layer2"
   attributeName="transform"
   type="translate"
   begin="path826.click+6"
   dur="3"
   from="750,775"
   to="0,0"
   additive="sum"
   calcMode="spline"
   keyTimes="0;1"
   keySplines=".5  0    .5   1  "
   restart="whenNotActive" />  
	 
	 
	 
	 
	 <text
   xml:space="preserve"
   style="font-style:normal;font-variant:normal;font-weight:normal;font-stretch:normal;font-size:8px;line-height:1;font-family:Arial;-inkscape-font-specification:'Arial, Normal';font-variant-ligatures:normal;font-variant-caps:normal;font-variant-numeric:normal;text-align:start;letter-spacing:0px;word-spacing:0px;writing-mode:lr-tb;text-anchor:start;fill:#ffffff;fill-opacity:1;stroke:none;stroke-width:1.41931784;stroke-miterlimit:2;stroke-dasharray:1.98666943, 1.41904958000000003;stroke-dashoffset:0;stroke-opacity:1;"
   x="16.84268"
   y="30.55439"
   id="text1460-8"
   class=""><tspan
     sodipodi:role="line"
     x="16.84268"
     y="30.55439"
     style="font-size:5.33333349px;line-height:0;fill:#ffffff;fill-opacity:1;stroke:none;stroke-width:0.32879806;stroke-opacity:1;"
     id="tspan2337">  1.  02:48  Into the Night</tspan><tspan
     sodipodi:role="line"
     x="16.84268"
     y="38.55439"
     style="font-size:5.33333349px;line-height:0;fill:#ffffff;fill-opacity:1;stroke:none;stroke-width:0.32879806;stroke-opacity:1;"
     id="tspan2270">  2.  03:40  Genesis</tspan><tspan
     sodipodi:role="line"
     x="16.84268"
     y="46.55439"
     style="font-size:5.33333349px;line-height:0;fill:#ffffff;fill-opacity:1;stroke:none;stroke-width:0.32879806;stroke-opacity:1;"
     id="tspan2272">  3.  03:32  Underworld</tspan><tspan
     sodipodi:role="line"
     x="16.84268"
     y="54.55439"
     style="font-size:5.33333349px;line-height:0;fill:#ffffff;fill-opacity:1;stroke:none;stroke-width:0.32879806;stroke-opacity:1;"
     id="tspan2274">  4.  02:31  Aberration II</tspan><tspan
     sodipodi:role="line"
     x="16.84268"
     y="62.55439"
     style="font-size:5.33333349px;line-height:0;fill:#ffffff;fill-opacity:1;stroke:none;stroke-width:0.32879806;stroke-opacity:1;"
     id="tspan2276">  5.  02:45  Grains of Sand</tspan><tspan
     sodipodi:role="line"
     x="16.84268"
     y="70.55439"
     style="font-size:5.33333349px;line-height:0;fill:#ffffff;fill-opacity:1;stroke:none;stroke-width:0.32879806;stroke-opacity:1;"
     id="tspan2278">  6.  01:01  Wastelands</tspan><tspan
     sodipodi:role="line"
     x="16.84268"
     y="78.55439"
     style="font-size:5.33333349px;line-height:0;fill:#ffffff;fill-opacity:1;stroke:none;stroke-width:0.32879806;stroke-opacity:1;"
     id="tspan2280">  7.  01:48  Shapeshifter</tspan><tspan
     sodipodi:role="line"
     x="16.84268"
     y="86.55439"
     style="font-size:5.33333349px;line-height:0;fill:#ffffff;fill-opacity:1;stroke:none;stroke-width:0.32879806;stroke-opacity:1;"
     id="tspan2282">  8.  01:54  Chain of Evolutions</tspan><tspan
     sodipodi:role="line"
     x="16.84268"
     y="94.55439"
     style="font-size:5.33333349px;line-height:0;fill:#ffffff;fill-opacity:1;stroke:none;stroke-width:0.32879806;stroke-opacity:1;"
     id="tspan2284">  9.  00:55  The Verge</tspan><tspan
     sodipodi:role="line"
     x="16.84268"
     y="102.55439"
     style="font-size:5.33333349px;line-height:0;fill:#ffffff;fill-opacity:1;stroke:none;stroke-width:0.32879806;stroke-opacity:1;"
     id="tspan2286">10.  02:40  First Dawn</tspan><tspan
     sodipodi:role="line"
     x="16.84268"
     y="110.55439"
     style="font-size:5.33333349px;line-height:0;fill:#ffffff;fill-opacity:1;stroke:none;stroke-width:0.32879806;stroke-opacity:1;"
     id="tspan2288">11.  05:12  A Shout into the Void</tspan><tspan
     sodipodi:role="line"
     x="16.84268"
     y="118.55439"
     style="font-size:5.33333349px;line-height:0;fill:#ffffff;fill-opacity:1;stroke:none;stroke-width:0.32879806;stroke-opacity:1;"
     id="tspan2290">12.  02:41  Symphony of Life</tspan><tspan
     sodipodi:role="line"
     x="16.84268"
     y="126.55439"
     style="font-size:5.33333349px;line-height:0;fill:#ffffff;fill-opacity:1;stroke:none;stroke-width:0.32879806;stroke-opacity:1;"
     id="tspan2292">13.  02:36  Prism</tspan><tspan
     sodipodi:role="line"
     x="16.84268"
     y="134.5544"
     style="font-size:5.33333349px;line-height:0;fill:#ffffff;fill-opacity:1;stroke:none;stroke-width:0.32879806;stroke-opacity:1;"
     id="tspan2294">14.  01:58  Looking Up</tspan><tspan
     sodipodi:role="line"
     x="16.84268"
     y="142.5544"
     style="font-size:5.33333349px;line-height:0;fill:#ffffff;fill-opacity:1;stroke:none;stroke-width:0.32879806;stroke-opacity:1;"
     id="tspan2296">15.  02:49  Azimuth</tspan><tspan
     sodipodi:role="line"
     x="16.84268"
     y="150.5544"
     style="font-size:5.33333349px;line-height:0;fill:#ffffff;fill-opacity:1;stroke:none;stroke-width:0.32879806;stroke-opacity:1;"
     id="tspan2298">16.  01:30  The Search</tspan><tspan
     sodipodi:role="line"
     x="16.84268"
     y="158.5544"
     style="font-size:5.33333349px;line-height:0;fill:#ffffff;fill-opacity:1;stroke:none;stroke-width:0.32879806;stroke-opacity:1;"
     id="tspan2327">17.  01:03  Life Beyond Theme - Stripped</tspan></text>

<path
   style="font-size:20.91031456px;fill:#437798;fill-opacity:.42;stroke:#ffffff;stroke-width:0.7777698;stroke-miterlimit:2;stroke-dasharray:3.81426059, 2.72447188;stroke-dashoffset:0;stroke-opacity:1"
   d="m 214.74368,42.586128 c -6.74556,-10.209961 -21.38905,-9.370642 -26.53511,-2.480202 -0.13161,0.176247 -0.36312,0.355693 -0.62289,0.253692 -3.45353,-1.298131 -7.83872,-1.730318 -11.73159,1.455886 -0.36999,0.302777 -0.61289,0.191297 -0.87059,0.06309 -4.72953,-2.616861 -18.87832,-7.965569 -24.23218,-7.347201 -7.93031,0.445705 -21.68558,6.219444 -30.37363,11.909975 -1.66441,1.096899 -1.52802,2.634487 -0.17662,3.303145 2.86092,1.465136 10.82135,1.024082 17.72944,1.065085 9.17317,-0.01805 18.49586,-0.247918 24.63398,-0.683349 3.03317,-0.215206 5.18809,-0.802509 6.11681,-0.03663 0.93243,0.709251 0.83645,2.337351 0.32111,3.111352 -0.74669,1.107412 -2.21462,0.235 -4.49735,0.563717 -1.5811,0.227664 -3.48604,1.009286 -5.9313,2.728236 -2.86189,2.316067 -4.17446,4.997356 -4.36098,8.806881 -0.0522,2.243554 0.73807,3.786123 1.63137,5.292969 0.44034,0.965595 -0.2284,1.835897 -0.65111,2.159059 -1.82567,1.481226 -3.40371,2.769716 -4.241,3.859933 -0.72697,0.902753 -0.56665,2.17006 0.15111,2.851294 2.66805,2.677562 6.67653,6.032565 8.28366,7.072732 1.18119,0.861893 2.80785,1.782655 3.65556,2.045892 0.75408,0.309777 1.47489,0.185005 1.58173,-0.987675 0.15908,-0.880961 -0.28842,-1.722124 0.0684,-2.600762 0.16707,-0.361203 0.35169,-0.888066 1.65663,-1.387652 4.16366,-1.801072 8.72391,-3.462375 13.0407,-3.776975 4.68832,-0.335548 6.95348,1.033939 8.71653,2.59213 2.20971,1.927191 3.53408,3.897843 5.02717,7.331609 0.73347,1.579952 2.50855,5.534865 3.97532,6.919408 1.33829,1.506642 3.8686,2.447031 6.08634,1.98155 3.40817,-0.651021 8.19755,-2.956386 11.397,-4.607211 1.62288,-0.850627 5.00346,-1.744522 9.71495,-0.295839 2.79369,0.81566 5.61924,2.04399 7.34215,4.863947 2.06947,3.562156 4.28943,6.294336 6.01706,8.296676 0.58628,0.6491 0.37839,2.00356 -0.41681,2.50108 -0.44292,0.28352 -0.81167,0.60683 -0.98262,0.91501 -0.3313,0.54754 -0.0505,1.34184 0.95796,1.67313 0,0 1.87161,0.73289 4.74863,0.79085 2.70932,0.0432 5.29974,-0.16811 8.6322,-1.32871 3.25146,-1.07245 5.60063,-3.67105 7.00607,-7.11631 1.05246,-2.52878 0.7625,-5.944437 -0.97021,-8.996609 -0.65519,-1.195222 -1.39988,-2.425609 -2.94766,-3.363724 -0.7145,-0.394417 -0.52814,-1.483598 -0.0288,-1.864017 0.48874,-0.362146 4.73014,-4.259117 2.02775,-9.693525 -0.29921,-0.55903 -0.42616,-1.109498 -0.4279,-1.493541 0.003,-1.024753 0.93331,-1.4794 1.51846,-0.950078 2.70468,2.760196 10.04617,10.036042 18.74068,17.131298 1.93883,1.536852 6.24387,5.169926 10.22489,7.412846 0,0 2.28114,1.25628 4.01161,1.75482 0.9219,0.328 1.56963,-0.2404 1.39836,-0.89515 -0.12444,-0.70817 -4.06123,-10.77207 -5.3117,-13.581955 -2.76699,-6.552426 -5.48105,-11.481451 -11.02749,-16.599747 -2.56057,-2.382779 -5.16293,-3.954878 -13.2823,-6.623663 -4.34166,-1.348 -8.40319,-2.377647 -13.65752,-3.139054 -0.59684,-0.0823 -1.0906,-0.335274 -0.98028,-1.114693 0.7111,-3.781494 -2.94014,-8.726768 -7.65704,-9.736552 -0.81895,-0.185138 -1.3207,-0.413059 -1.48449,-0.97029 -0.78034,-2.577904 -2.74037,-5.215339 -5.08103,-7.043386 -2.78989,-2.142838 -6.61531,-3.237181 -9.7646,-3.614005 -2.23083,-0.250143 -4.17421,-0.06126 -7.45661,1.748028 -0.24264,0.133619 -0.56139,0.100685 -0.71218,-0.126893 z"
   id="path826"
   inkscape:connector-curvature="0"
   sodipodi:nodetypes="cscscccccsccscccccccccccccccccccccccccccccccccccccccccccccscc"
   inkscape:transform-center-x="-2.3831377"
   inkscape:transform-center-y="-35.947183"
   class="letters" /><text
   xml:space="preserve"
   style="font-style:normal;font-variant:normal;font-weight:normal;font-stretch:normal;font-size:20.38446426px;line-height:1.25;font-family:Arial;-inkscape-font-specification:'Arial, Normal';font-variant-ligatures:normal;font-variant-caps:normal;font-variant-numeric:normal;text-align:start;letter-spacing:0px;word-spacing:0px;writing-mode:lr-tb;text-anchor:start;fill:#4d4c7a;fill-opacity:1;stroke:none;stroke-width:0.76441753"
   x="139.99062"
   y="138.13269"
   id="text2331"
   transform="rotate(0.44176441)"><tspan
     sodipodi:role="line"
     id="tspan2329"
     x="139.99062"
     y="138.13269"
     style="font-size:6.11534023px;fill:#65c3ff;fill-opacity:1;stroke-width:0.76441753">https://melodysheep.bandcamp.com</tspan></text>



<text
   xml:space="preserve"
   style="font-style:normal;font-variant:normal;font-weight:normal;font-stretch:normal;font-size:26.66666603px;line-height:1.25;font-family:Arial;-inkscape-font-specification:'Arial, Normal';font-variant-ligatures:normal;font-variant-caps:normal;font-variant-numeric:normal;text-align:start;letter-spacing:0px;word-spacing:0px;writing-mode:lr-tb;text-anchor:start;fill:#000000;fill-opacity:1;stroke:none"
   x="58.036366"
   y="26.181818"
   id="text2361"><tspan
     sodipodi:role="line"
     id="tspan2359"
     x="58.036366"
     y="50.201935" /></text>


<text
   xml:space="preserve"
   style="font-style:normal;font-variant:normal;font-weight:normal;font-stretch:normal;font-size:6.48039722px;line-height:1.25;font-family:Arial;-inkscape-font-specification:'Arial, Normal';font-variant-ligatures:normal;font-variant-caps:normal;font-variant-numeric:normal;text-align:start;letter-spacing:0px;word-spacing:0px;writing-mode:lr-tb;text-anchor:start;fill:#ffffff;fill-opacity:1;stroke:none;stroke-width:0.2430149;"
   x="10.38757"
   y="19.739092"
   id="text2365"><tspan
     sodipodi:role="line"
     id="tspan2363"
     x="10.38757"
     y="19.739092"
     style="fill:#65c3ff;fill-opacity:1;stroke-width:0.2430149;">Life Beyond: Chapter 1 Original Soundtrack</tspan></text>
</svg>