<?xml version="1.0" encoding="UTF-8" standalone="no"?>
<!-- Created with Inkscape (http://www.inkscape.org/) -->

<svg
   xmlns:dc="http://purl.org/dc/elements/1.1/"
   xmlns:cc="http://creativecommons.org/ns#"
   xmlns:rdf="http://www.w3.org/1999/02/22-rdf-syntax-ns#"
   xmlns:svg="http://www.w3.org/2000/svg"
   xmlns="http://www.w3.org/2000/svg"
   xmlns:sodipodi="http://sodipodi.sourceforge.net/DTD/sodipodi-0.dtd"
   xmlns:inkscape="http://www.inkscape.org/namespaces/inkscape"
   width="115"
   height="133"
   viewBox="0 0 30.427083 35.189584"
   version="1.1"
   id="svg8"
   inkscape:version="0.92.3 (2405546, 2018-03-11)"
   sodipodi:docname="schneeflocke_inf.svg">
  <defs
     id="defs2" />
  <sodipodi:namedview
     id="base"
     pagecolor="#ffffff"
     bordercolor="#666666"
     borderopacity="1.0"
     inkscape:pageopacity="0.0"
     inkscape:pageshadow="2"
     inkscape:zoom="5.9287789"
     inkscape:cx="18.074175"
     inkscape:cy="66.68466"
     inkscape:document-units="mm"
     inkscape:current-layer="layer1"
     showgrid="false"
     units="px"
     inkscape:window-width="1920"
     inkscape:window-height="1018"
     inkscape:window-x="-8"
     inkscape:window-y="32"
     inkscape:window-maximized="1"
     inkscape:showpageshadow="false"
     fit-margin-top="0"
     fit-margin-left="0"
     fit-margin-right="0"
     fit-margin-bottom="0" />
  <metadata
     id="metadata5">
    <rdf:RDF>
      <cc:Work
         rdf:about="">
        <dc:format>image/svg+xml</dc:format>
        <dc:type
           rdf:resource="http://purl.org/dc/dcmitype/StillImage" />
        <dc:title></dc:title>
      </cc:Work>
    </rdf:RDF>
  </metadata>
  <g
     inkscape:label="Ebene 1"
     inkscape:groupmode="layer"
     id="layer1"
     transform="translate(1.6042239,-264.06561)">
    <text
       xml:space="preserve"
       style="font-style:normal;font-weight:normal;font-size:10.58333302px;line-height:1.25;font-family:sans-serif;letter-spacing:0px;word-spacing:0px;fill:#000000;fill-opacity:1;stroke:none;stroke-width:0.26458332"
       x="-32.95689"
       y="295.77835"
       id="text836"
       transform="scale(-1,1)"><tspan
         sodipodi:role="line"
         id="tspan834"
         x="-32.95689"
         y="305.14212"
         style="stroke-width:0.26458332" /></text>
    <path
       sodipodi:nodetypes="ccccccccccccc"
       style="opacity:1;fill:#ffffff;fill-opacity:1;stroke:none;stroke-width:0;stroke-linecap:butt;stroke-linejoin:miter;stroke-miterlimit:0;stroke-dasharray:none;stroke-opacity:1"
       d="m 9.320462,325.99332 4.596744,-5.7e-4 0.0016,5.35436 5.357183,-0.008 0.0051,4.60852 -5.359394,-8.6e-4 -6.09e-4,5.35767 -4.6027588,-0.003 0.00685,-5.35045 -5.36087,-0.005 0.00208,-4.58901 5.3546085,-0.01 z"
       id="path826"
       inkscape:connector-curvature="0" />
    <text
       xml:space="preserve"
       style="font-style:normal;font-weight:normal;font-size:10.58333302px;line-height:1.25;font-family:sans-serif;letter-spacing:0px;word-spacing:0px;fill:#000000;fill-opacity:1;stroke:none;stroke-width:0.26458332"
       x="-36.375298"
       y="339.30212"
       id="text836-9"
       transform="scale(-1,1)"><tspan
         sodipodi:role="line"
         id="tspan834-3"
         x="-36.375298"
         y="348.66589"
         style="stroke-width:0.26458332" /></text>
    <path
       style="fill:#fefefe;fill-opacity:1;stroke:none;stroke-width:0.21683572px;stroke-linecap:butt;stroke-linejoin:miter;stroke-opacity:1"
       d="m 9.3017428,276.54521 1.4416992,0.0134 -0.04005,2.87004 2.1225,-2.05575 1.027879,0.93443 -3.123682,3.01689 -0.0267,4.28505 3.737738,-2.16254 1.107972,-4.20497 1.374954,0.40048 -0.774246,2.8033 2.522973,-1.45505 0.680802,1.16138 -2.643115,1.48175 3.003539,0.76088 -0.333726,1.33491 -4.285048,-1.17471 -3.831182,2.05575 3.817832,2.1225 4.325096,-1.09462 0.320377,1.42836 -3.003538,0.60069 2.643114,1.48175 -0.680803,1.22812 -2.656463,-1.56184 0.840992,3.00354 -1.308209,0.30702 -1.148019,-4.25835 -3.751086,-2.21594 -0.0267,4.37849 3.230474,3.11034 -0.974482,0.93443 -2.175896,-2.2293 0.04005,2.99019 H 9.2883908 l 0.013353,-2.93679 -2.0824546,2.1492 -1.0278777,-0.94778 3.0969828,-3.09698 0.066738,-4.24501 -3.7243893,2.17589 -1.054576,4.16492 -1.4283497,-0.32038 0.8409909,-2.99019 -2.6297652,1.62858 -0.6541042,-1.17472 2.6297653,-1.56183 -3.01688811,-0.74755 0.33372656,-1.26816 4.28504915,1.10797 3.8578793,-2.1492 -3.8979264,-2.10915 -4.20495485,1.13467 -0.37377376,-1.24146 3.00353921,-0.77424 -2.68316171,-1.5218 0.73419841,-1.12133 2.7098597,1.56184 -0.9077361,-3.00354 1.2815099,-0.34707 1.2414629,4.31175 3.657644,2.10915 -0.066738,-4.37849 -3.0969828,-3.00354 1.0011796,-0.94778 2.1091527,2.13584 z"
       id="path4607"
       inkscape:connector-curvature="0" />
    <path
       style="fill:#00ff00;fill-opacity:1;fill-rule:evenodd;stroke-width:0.25520742"
       id="path4544"
       sodipodi:type="arc"
       sodipodi:cx="25.395777"
       sodipodi:cy="267.4552"
       sodipodi:rx="3"
       sodipodi:ry="3"
       sodipodi:start="0.007150422"
       sodipodi:end="6.2831155"
       sodipodi:open="true"
       d="m 28.3957,267.47665 a 3,3 0 0 1 -3.015959,2.97851 3,3 0 0 1 -2.983945,-3.01058 3,3 0 0 1 3.005186,-2.98938 3,3 0 0 1 2.994795,2.99979" />
  </g>
</svg>
