<?xml version="1.0" encoding="UTF-8" standalone="no"?>
<svg
   xmlns:dc="http://purl.org/dc/elements/1.1/"
   xmlns:cc="http://creativecommons.org/ns#"
   xmlns:rdf="http://www.w3.org/1999/02/22-rdf-syntax-ns#"
   xmlns:svg="http://www.w3.org/2000/svg"
   xmlns="http://www.w3.org/2000/svg"
   xmlns:sodipodi="http://sodipodi.sourceforge.net/DTD/sodipodi-0.dtd"
   xmlns:inkscape="http://www.inkscape.org/namespaces/inkscape"
   height="30.339308"
   class="octicon octicon-mark-github text-white"
   viewBox="0 0 15.941384 15.169654"
   version="1.1"
   width="31.882769"
   aria-hidden="true"
   id="svg4"
   sodipodi:docname="Hoststar_Logo_r2.svg"
   inkscape:version="0.92.4 (5da689c313, 2019-01-14)">
  <metadata
     id="metadata10">
    <rdf:RDF>
      <cc:Work
         rdf:about="">
        <dc:format>image/svg+xml</dc:format>
        <dc:type
           rdf:resource="http://purl.org/dc/dcmitype/StillImage" />
        <dc:title></dc:title>
      </cc:Work>
    </rdf:RDF>
  </metadata>
  <defs
     id="defs8" />
  <sodipodi:namedview
     pagecolor="#ffffff"
     bordercolor="#666666"
     borderopacity="1"
     objecttolerance="10"
     gridtolerance="10"
     guidetolerance="10"
     inkscape:pageopacity="0"
     inkscape:pageshadow="2"
     inkscape:window-width="1595"
     inkscape:window-height="886"
     id="namedview6"
     showgrid="false"
     inkscape:zoom="10.586198"
     inkscape:cx="-18.454025"
     inkscape:cy="7.7304892"
     inkscape:window-x="120"
     inkscape:window-y="169"
     inkscape:window-maximized="0"
     inkscape:current-layer="svg4"
     fit-margin-top="0"
     fit-margin-left="0"
     fit-margin-right="0"
     fit-margin-bottom="0" />
  <path
     d="m -16.38354,-33.974673 c -4.42,0 -8,3.58 -8,8 0,3.54 2.29,6.53 5.47,7.59 0.4,0.07 0.55,-0.17 0.55,-0.38 0,-0.19 -0.01,-0.82 -0.01,-1.49 -2.01,0.37 -2.53,-0.49 -2.69,-0.94 -0.09,-0.23 -0.48,-0.94 -0.82,-1.13 -0.28,-0.15 -0.68,-0.52 -0.01,-0.53 0.63,-0.01 1.08,0.58 1.23,0.82 0.72,1.21 1.87,0.87 2.33,0.66 0.07,-0.52 0.28,-0.87 0.51,-1.07 -1.78,-0.2 -3.64,-0.89 -3.64,-3.95 0,-0.87 0.31,-1.59 0.82,-2.15 -0.08,-0.2 -0.36,-1.02 0.08,-2.12 0,0 0.67,-0.21 2.2,0.82 0.64,-0.18 1.32,-0.27 2,-0.27 0.68,0 1.36,0.09 2,0.27 1.53,-1.04 2.2,-0.82 2.2,-0.82 0.44,1.1 0.16,1.92 0.08,2.12 0.51,0.56 0.82,1.27 0.82,2.15 0,3.07 -1.87,3.75 -3.65,3.95 0.29,0.25 0.54,0.73 0.54,1.48 0,1.07 -0.01,1.93 -0.01,2.2 0,0.21 0.15,0.46 0.55,0.38 a 8.013,8.013 0 0 0 5.4499999,-7.59 c 0,-4.42 -3.5799999,-8 -7.9999999,-8 z"
     id="path2"
     style="fill:#0100a1;fill-opacity:1;fill-rule:evenodd"
     inkscape:connector-curvature="0" />
  <g
     id="g9798"
     style="fill:#7bd900;fill-opacity:1"
     transform="matrix(1.8853753,0,0,1.8853753,-14.831611,-546.13265)">
    <path
       sodipodi:nodetypes="ccccc"
       inkscape:connector-curvature="0"
       id="path9726"
       d="m 12.248289,289.66787 0.910194,2.83734 3.03398,-4e-5 -2.567647,-0.63488 z"
       style="fill:#7bd900;fill-opacity:1;stroke:none;stroke-width:0.1;stroke-linecap:butt;stroke-linejoin:miter;stroke-miterlimit:4;stroke-dasharray:none;stroke-opacity:1" />
    <path
       sodipodi:nodetypes="ccccc"
       inkscape:connector-curvature="0"
       id="path9726-2"
       d="m 14.485423,297.71383 -2.383081,-1.78882 -2.4756037,1.75397 2.4621377,-0.96631 z"
       style="fill:#7bd900;fill-opacity:1;stroke:none;stroke-width:0.1;stroke-linecap:butt;stroke-linejoin:miter;stroke-miterlimit:4;stroke-dasharray:none;stroke-opacity:1" />
    <path
       sodipodi:nodetypes="ccccc"
       inkscape:connector-curvature="0"
       id="path9726-23"
       d="m 9.3495999,297.48192 0.9560031,-2.82224 -2.4389404,-1.8046 1.6864134,2.03761 z"
       style="fill:#7bd900;fill-opacity:1;stroke:none;stroke-width:0.1;stroke-linecap:butt;stroke-linejoin:miter;stroke-miterlimit:4;stroke-dasharray:none;stroke-opacity:1" />
    <path
       sodipodi:nodetypes="ccccc"
       inkscape:connector-curvature="0"
       id="path9726-23-4"
       d="m 14.83901,297.49302 -0.956003,-2.82224 2.43894,-1.8046 -1.686413,2.03761 z"
       style="fill:#7bd900;fill-opacity:1;stroke:none;stroke-width:0.1;stroke-linecap:butt;stroke-linejoin:miter;stroke-miterlimit:4;stroke-dasharray:none;stroke-opacity:1" />
    <path
       sodipodi:nodetypes="ccccc"
       inkscape:connector-curvature="0"
       id="path9726-7"
       d="m 11.916798,289.67069 -0.910194,2.83734 -3.0339794,-4e-5 2.5676464,-0.63488 z"
       style="fill:#7bd900;fill-opacity:1;stroke:none;stroke-width:0.1;stroke-linecap:butt;stroke-linejoin:miter;stroke-miterlimit:4;stroke-dasharray:none;stroke-opacity:1" />
  </g>
</svg>
