<?xml version="1.0" encoding="UTF-8" standalone="no"?>
<svg
   xmlns:dc="http://purl.org/dc/elements/1.1/"
   xmlns:cc="http://creativecommons.org/ns#"
   xmlns:rdf="http://www.w3.org/1999/02/22-rdf-syntax-ns#"
   xmlns:svg="http://www.w3.org/2000/svg"
   xmlns="http://www.w3.org/2000/svg"
   xmlns:sodipodi="http://sodipodi.sourceforge.net/DTD/sodipodi-0.dtd"
   xmlns:inkscape="http://www.inkscape.org/namespaces/inkscape"
   width="270"
   height="220"
   viewBox="0 0 71.437496 58.208333"
   version="1.1"
   id="svg8357"
   inkscape:version="0.92.3 (2405546, 2018-03-11)"
   sodipodi:docname="Inkscape_Logo.svg">
  <defs
     id="defs8351" />
  <sodipodi:namedview
     id="base"
     pagecolor="#ffffff"
     bordercolor="#666666"
     borderopacity="1.0"
     inkscape:pageopacity="0.0"
     inkscape:pageshadow="2"
     inkscape:zoom="2.4190231"
     inkscape:cx="77.674281"
     inkscape:cy="69.5"
     inkscape:document-units="mm"
     inkscape:current-layer="layer1"
     showgrid="false"
     inkscape:window-width="1920"
     inkscape:window-height="1138"
     inkscape:window-x="-8"
     inkscape:window-y="32"
     inkscape:window-maximized="1"
     objecttolerance="1"
     guidetolerance="1"
     units="px"
     showguides="true"
     inkscape:guide-bbox="true"
     inkscape:snap-perpendicular="false">
    <sodipodi:guide
       position="8.4060107,9.8396433"
       orientation="0,1"
       id="guide3325"
       inkscape:locked="false" />
    <sodipodi:guide
       position="0,49.000495"
       orientation="1,0"
       id="guide3327"
       inkscape:locked="false" />
    <sodipodi:guide
       position="35.65661,58.188088"
       orientation="1,0"
       id="guide3329"
       inkscape:locked="false" />
    <sodipodi:guide
       position="71.422597,57.094327"
       orientation="1,0"
       id="guide3331"
       inkscape:locked="false" />
    <sodipodi:guide
       position="9.1886307,2.633463"
       orientation="0,1"
       id="guide3333"
       inkscape:locked="false" />
    <sodipodi:guide
       position="8.3933793,3.779863"
       orientation="0,1"
       id="guide3335"
       inkscape:locked="false" />
    <sodipodi:guide
       position="7.3702588,2.3335996"
       orientation="0,1"
       id="guide3337"
       inkscape:locked="false" />
    <sodipodi:guide
       position="12.507453,8.2434826"
       orientation="0,1"
       id="guide3339"
       inkscape:locked="false" />
  </sodipodi:namedview>
  <metadata
     id="metadata8354">
    <rdf:RDF>
      <cc:Work
         rdf:about="">
        <dc:format>image/svg+xml</dc:format>
        <dc:type
           rdf:resource="http://purl.org/dc/dcmitype/StillImage" />
        <dc:title />
      </cc:Work>
    </rdf:RDF>
  </metadata>
  <g
     inkscape:label="Ebene 1"
     inkscape:groupmode="layer"
     id="layer1"
     transform="translate(0,-238.79169)">
    <path
       style="fill:#ffffff;fill-opacity:1;stroke:#000000;stroke-width:0.24905033px;stroke-linecap:butt;stroke-linejoin:miter;stroke-opacity:1"
       d="m 34.702126,249.81416 2.636756,-0.13609 2.738824,2.33055 3.912603,4.11674 v 2.26251 l -2.449632,-1.25884 -0.391258,1.93929 -2.56871,-0.45931 -3.555368,1.70114 -1.071711,-3.2832 -1.837224,2.44963 -3.810536,-0.73147 -0.238158,-1.82022 0.765511,-1.24183 z"
       id="path10742"
       inkscape:connector-curvature="0" />
    <path
       style="fill:#ffffff;fill-opacity:1;stroke:#000000;stroke-width:0.24905033px;stroke-linecap:butt;stroke-linejoin:miter;stroke-opacity:1"
       d="m 29.666777,268.33948 -0.272183,1.29287 5.579714,2.92594 2.58572,-0.27217 0.88459,-2.10941 -0.88459,-0.81654 z"
       id="path10744"
       inkscape:connector-curvature="0" />
    <path
       style="opacity:1;fill:#000000;fill-opacity:1;stroke:#000000;stroke-width:0;stroke-linecap:butt;stroke-linejoin:miter;stroke-miterlimit:4;stroke-dasharray:none;stroke-opacity:1"
       d="m 36.29166,248.98269 c -0.917641,0 -1.512184,0.11311 -2.091605,0.56236 -0.47252,0.30973 -12.595243,12.73742 -13.171684,13.32816 -0.347299,0.32923 -0.977317,0.89681 -0.948311,2.18593 0.004,1.08832 0.455538,1.45609 0.835807,1.55111 l 6.046449,1.78367 c 0.489033,0.12716 0.434015,0.74334 0.01989,0.90436 0,0 -2.635053,1.30367 -2.84195,1.42711 -0.591437,0.3566 -0.26493,0.83738 0.180603,1.00078 0.364878,0.15848 5.421959,1.9772 6.67377,2.44314 1.364149,0.46677 0.825931,1.50271 0.312988,1.93513 -0.271226,0.26427 -0.741469,0.681 -0.741469,0.681 -0.58206,0.52763 -0.365086,1.21521 0.08798,1.32985 1.007887,0.3396 1.474771,0.42749 2.212157,0.64123 1.301825,0.35357 1.43787,1.32011 1.574404,1.67498 0.345562,1.09026 1.001475,1.07878 1.774406,1.08496 0.659025,-0.0469 0.831006,0.18091 4.270396,-1.34593 0.933252,-0.38754 0.741052,-0.89356 0.179781,-1.1615 -0.310064,-0.13877 -0.609208,-0.21987 -0.781242,-0.42468 -0.257149,-0.32143 -0.241078,-0.51944 -0.03214,-0.7766 0.245764,-0.27853 1.474241,-1.54236 4.223826,-2.01548 0.997345,-0.22666 1.31628,-0.80847 1.488923,-1.01006 0.390115,-0.50749 0.507503,-1.31975 -0.34431,-1.80191 l -1.939758,-1.23805 c -0.546444,-0.35359 -0.329162,-0.85045 -0.0076,-0.96948 0.292469,-0.10824 6.258358,-2.1564 7.082339,-2.51621 0.827815,-0.33996 1.352724,-0.6271 1.831098,-1.03325 0.989274,-0.83801 1.347677,-2.32807 0.12394,-3.67755 -0.615468,-0.7465 -13.506892,-13.64783 -14.031032,-14.02108 -0.588015,-0.45844 -1.008103,-0.53692 -1.987628,-0.54199 z m 1.58152,1.55603 5.379875,5.24368 c 0.476631,0.50396 0.32783,1.36447 0.32783,1.36447 -0.02814,0.2323 -0.136814,0.5226 -0.264937,0.42353 l -2.290048,-1.90158 -0.476697,2.86268 -2.078286,-1.07196 -3.223309,2.01019 -1.044835,-4.33304 -1.60905,3.0896 -2.915618,-0.12353 c -1.044983,2.1e-4 -1.155191,-1.29508 -0.232359,-2.22942 0.606474,-0.62332 5.226748,-5.26652 5.226748,-5.26652 0.402003,-0.40081 0.965068,-0.54339 1.626946,-0.5475 0.612814,4.8e-4 1.1427,0.0868 1.57374,0.4794 z m -7.383588,18.5599 c 0,0 6.336268,1.33984 6.558768,1.38568 0.394125,0.0828 0.266254,0.47569 0.127752,0.63742 -0.126416,0.15435 -0.314205,0.44457 -0.645043,0.41623 -2.098252,-0.19841 -4.312407,-0.91771 -6.121836,-2.00704 -0.250404,-0.15285 -0.141796,-0.47564 0.08036,-0.43229 0.168674,0.0368 1e-6,0 1e-6,0 z m 19.401279,3.45701 c -0.691092,0 -1.629817,0.4445 -2.043813,0.8341 -0.51794,0.52074 -0.441747,0.97919 0.226163,1.09825 0.189675,0.0282 0.816133,0.15122 1.881938,0.23458 0.46323,0.041 1.008415,0.10595 1.606061,-0.20811 0.162896,-0.0856 0.549838,-0.38812 0.32249,-0.85683 -0.373386,-0.76977 -1.03245,-1.11141 -1.992839,-1.10199 z m -21.937038,2.75232 c -0.900027,0.17679 -1.187072,0.61449 -1.296883,0.83708 -0.176791,0.35358 -0.157731,0.97627 0.308355,1.31378 0.321358,0.2225 0.855253,0.29094 1.598437,0.15989 0.687598,-0.12275 1.379123,-1.01537 1.548755,-1.2722 0.194912,-0.27525 0.35697,-0.6617 -0.334397,-0.89092 -0.338339,-0.11277 -1.056464,-0.29424 -1.824267,-0.14763 z m 19.653792,0.19585 c -0.160784,-0.0955 -0.538285,-0.20838 -0.969467,0.15227 -0.203815,0.1756 -0.57633,0.37976 -0.248702,1.10948 0.137966,0.30728 0.648589,0.54094 1.225793,0.52491 0.794605,-0.0365 1.078159,-0.19884 0.869226,-0.82563 -0.09609,-0.36627 -0.544621,-0.75668 -0.87685,-0.96103 z"
       id="path11654"
       inkscape:connector-curvature="0"
       sodipodi:nodetypes="ccccccccccccccccccccccccccccccccccccccccccccccccccccccccscccccccccccsccc" />
    <flowRoot
       xml:space="preserve"
       id="flowRoot8182-8"
       style="font-style:normal;font-variant:normal;font-weight:normal;font-stretch:normal;font-size:40.00024414px;line-height:1.25;font-family:'Arabic Typesetting';-inkscape-font-specification:'Arabic Typesetting, Normal';font-variant-ligatures:normal;font-variant-caps:normal;font-variant-numeric:normal;font-feature-settings:normal;text-align:start;letter-spacing:0px;word-spacing:0px;writing-mode:lr-tb;text-anchor:start;fill:#000000;fill-opacity:1;stroke:#000000;stroke-width:0;stroke-miterlimit:4;stroke-dasharray:none;stroke-opacity:1"
       transform="matrix(0.40572507,0,0,0.40572507,2.9085091,185.36096)"><flowRegion
         id="flowRegion8184-0"
         style="font-style:normal;font-variant:normal;font-weight:normal;font-stretch:normal;font-size:40.00024414px;font-family:'Arabic Typesetting';-inkscape-font-specification:'Arabic Typesetting, Normal';font-variant-ligatures:normal;font-variant-caps:normal;font-variant-numeric:normal;font-feature-settings:normal;text-align:start;writing-mode:lr-tb;text-anchor:start;fill:#000000;fill-opacity:1;stroke:#000000;stroke-width:0;stroke-miterlimit:4;stroke-dasharray:none;stroke-opacity:1"><rect
           id="rect8186-8"
           width="238.37929"
           height="47.821877"
           x="14.967153"
           y="236.24106"
           style="font-style:normal;font-variant:normal;font-weight:normal;font-stretch:normal;font-size:40.00024414px;font-family:'Arabic Typesetting';-inkscape-font-specification:'Arabic Typesetting, Normal';font-variant-ligatures:normal;font-variant-caps:normal;font-variant-numeric:normal;font-feature-settings:normal;text-align:start;writing-mode:lr-tb;text-anchor:start;fill:#000000;fill-opacity:1;stroke:#000000;stroke-width:0;stroke-miterlimit:4;stroke-dasharray:none;stroke-opacity:1" /></flowRegion><flowPara
         id="flowPara8741-2"
         style="font-style:normal;font-variant:normal;font-weight:normal;font-stretch:normal;font-size:40.00024414px;font-family:'Arabic Typesetting';-inkscape-font-specification:'Arabic Typesetting, Normal';font-variant-ligatures:normal;font-variant-caps:normal;font-variant-numeric:normal;font-feature-settings:normal;text-align:start;writing-mode:lr-tb;text-anchor:start;fill:#000000;fill-opacity:1;stroke:#000000;stroke-width:0;stroke-miterlimit:4;stroke-dasharray:none;stroke-opacity:1">INKSCAPE</flowPara></flowRoot>    <path
       style="opacity:1;fill:#000000;fill-opacity:1;stroke:none;stroke-width:0.09412926;stroke-linecap:butt;stroke-linejoin:miter;stroke-miterlimit:4;stroke-dasharray:none;stroke-opacity:1"
       d="m 9.4609274,285.48014 -0.011264,0.28614 c 1.0225036,0.0624 1.0099486,0.25716 0.9970176,0.96793 l 0.001,4.99325 c -3e-6,0.59384 0.02684,1.05309 -0.9844495,1.09077 l 0.026255,0.27253 2.8607325,-0.002 0.01485,-0.28517 c -1.149528,-0.0276 -1.007841,-0.46243 -1.007833,-1.07618 l 0.0024,-4.97039 c -0.003,-0.73364 0.141868,-0.93318 0.989001,-1.0075 l -0.02331,-0.26979 c -0.25725,0.006 -0.484388,0.008 -0.694792,0.0102 -0.478688,0.006 -0.870763,0.006 -1.33376,-5e-4 -0.249878,-0.003 -0.5195783,-0.003 -0.8359125,-0.01 z"
       id="path8832"
       inkscape:connector-curvature="0"
       sodipodi:nodetypes="ccccccccccccsscc" />
    <path
       style="opacity:1;fill:#000000;fill-opacity:1;stroke:none;stroke-width:0;stroke-linecap:butt;stroke-linejoin:miter;stroke-miterlimit:4;stroke-dasharray:none;stroke-opacity:1"
       d="m 13.008478,285.47826 -0.01697,0.28782 c 0.436044,0.0323 0.685623,0.0515 0.935981,0.36386 0.09802,0.12231 0.202517,0.24394 0.237844,0.50303 0.04167,0.30561 0.03163,0.51923 0.03885,0.89257 -8.12e-4,1.33362 -0.0027,3.90241 -0.0027,3.90241 -0.0115,1.39601 -0.28595,1.25657 -1.068384,1.38976 l 0.02609,0.27111 c 0.945382,-0.0228 1.652903,-0.0281 2.557733,-0.003 l 0.01341,-0.28684 c -0.897226,-0.10392 -1.057919,0.008 -1.050315,-1.3911 l 0.0025,-4.38137 3.505743,4.14609 c 0,0 0.963533,1.09934 1.612374,2.02191 l 0.409094,-0.0731 6.73e-4,-5.60528 c 0.0024,-0.2716 -5.4e-5,-0.49973 0.0082,-0.69176 0.01229,-0.28617 0.04034,-0.48697 0.100224,-0.63652 0.13072,-0.32644 0.342523,-0.37304 0.921769,-0.43548 l -0.0087,-0.27133 c -0.268988,0.004 -0.568903,0.0162 -0.88459,0.0234 -0.400545,0.009 -0.810578,-0.003 -1.19075,-0.009 -0.16262,-0.003 -0.313518,-0.003 -0.469077,-0.008 l -0.01519,0.28549 c 0.314132,0.0307 0.525055,0.0491 0.672156,0.0984 0.160717,0.0538 0.265232,0.16246 0.31833,0.32552 0.04202,0.12903 0.06344,0.30074 0.07015,0.53196 0.0061,0.21148 -8.23e-4,0.47275 7.91e-4,0.79667 l 0.0026,3.93812 -5.099048,-5.96541 c -0.317855,0.002 -0.555323,-0.006 -0.793499,-0.008 -0.246116,-0.002 -0.493054,0.002 -0.834386,-0.0112 z"
       id="path8834"
       inkscape:connector-curvature="0"
       sodipodi:nodetypes="ccsscsccccccccccssccssccssscccscc" />
    <path
       style="opacity:1;fill:#000000;fill-opacity:1;stroke:none;stroke-width:0;stroke-linecap:butt;stroke-linejoin:miter;stroke-miterlimit:4;stroke-dasharray:none;stroke-opacity:1"
       d="m 21.985578,285.48317 -0.01607,0.28464 c 1.246502,0.0564 0.998494,0.38644 1.029515,1.33682 v 4.62283 c 0,0.88835 -0.134341,1.03246 -1.011405,1.0945 l 0.02016,0.26686 h 2.909092 l 0.01452,-0.28226 c -1.088574,-0.062 -1.016387,-0.22459 -1.022027,-1.0791 l -6.61e-4,-2.31571 c 0.293294,-0.079 0.477735,0.0735 0.477735,0.0735 0.19741,0.12408 0.612491,0.6537 0.612491,0.6537 l 1.845752,2.21873 0.534985,0.73112 1.842177,-0.004 0.01279,-0.27873 c -0.682474,-0.0705 -0.839707,-0.15675 -1.539102,-0.88999 0,0 -1.209206,-1.33376 -2.622096,-3.09917 l 1.831417,-1.86005 c 0.913725,-0.87988 1.334317,-1.13097 2.211381,-1.20993 l -0.02125,-0.26111 -1.717775,0.0129 -0.364797,-0.01 -0.477691,9.4e-4 -0.286039,-0.007 -0.01518,0.27661 c 0.488675,0.0166 0.724326,0.10757 0.746536,0.26202 0.02675,0.18604 -0.361456,0.58927 -0.546437,0.80886 -0.755797,0.85168 -1.570739,1.63533 -1.570739,1.63533 0,0 -0.43807,0.47834 -0.951336,0.54885 l -4.23e-4,-1.8647 c 0.0045,-0.18249 -0.0018,-0.34257 0.0021,-0.48418 0.01252,-0.46364 0.05728,-0.7629 0.614076,-0.86828 0.108058,-0.0204 0.240214,-0.0338 0.388542,-0.0482 l -0.02016,-0.26717 c -0.235029,0.006 -0.477503,0.005 -0.714251,0.008 -0.452849,0.006 -0.902855,0.0103 -1.366777,9.5e-4 -0.223343,-0.005 -0.452805,0.007 -0.7045,-0.008 z"
       id="path8836"
       inkscape:connector-curvature="0"
       sodipodi:nodetypes="ccccccccccccccccccccccccccsccccssccsscc" />
    <path
       style="opacity:1;fill:#000000;fill-opacity:1;stroke:none;stroke-width:0;stroke-linecap:butt;stroke-linejoin:miter;stroke-miterlimit:4;stroke-dasharray:none;stroke-opacity:1"
       d="m 33.917096,287.42967 0.325413,-0.0317 c -0.006,-0.22446 0.0095,-0.41937 0.0079,-0.6085 -0.0036,-0.40707 0.02804,-0.73423 0.06744,-1.19466 -1.925961,-0.49251 -2.845248,-0.24875 -3.547269,0.21437 -0.872033,0.64691 -0.944283,1.55558 -0.674988,2.24777 0.148401,0.38144 0.43891,0.67043 0.666127,0.87154 0.385927,0.30874 1.173685,0.64811 1.173685,0.64811 l 0.739079,0.35672 c 0.73895,0.38508 1.004568,0.96552 0.984166,1.50371 -0.03004,0.79222 -0.722741,1.49288 -1.788626,1.34405 -0.209186,-0.0279 -0.557116,-0.11974 -0.850011,-0.35737 -0.324661,-0.2634 -0.590105,-0.68491 -0.706042,-0.94191 l -0.259032,-0.60316 -0.321443,0.0778 c 0.05513,0.2095 0.329499,1.53693 0.340526,1.96696 0.777681,0.24303 1.493793,0.35189 2.090435,0.314 0.621542,-0.0394 1.114686,-0.2357 1.476621,-0.47761 1.047415,-0.74403 1.066607,-1.80122 0.835596,-2.42547 -0.199075,-0.53795 -0.667878,-0.90615 -0.866414,-1.04109 0,0 -0.481279,-0.30856 -1.095087,-0.56952 0,0 -0.824881,-0.34928 -0.887364,-0.41912 -0.194662,-0.17677 -0.393137,-0.28042 -0.51881,-0.50594 -0.17641,-0.31658 -0.228527,-0.64416 -0.19507,-0.94164 0.0686,-0.60999 0.532304,-1.0935 1.26948,-1.09634 0.845365,-0.0149 1.107715,0.34495 1.361324,0.57283 0.312417,0.42267 0.368482,1.09227 0.368482,1.09227 z"
       id="path8838"
       inkscape:connector-curvature="0"
       sodipodi:nodetypes="ccsccscccscsccccscscccsscccc" />
    <path
       style="opacity:1;fill:#000000;fill-opacity:1;stroke:none;stroke-width:0;stroke-linecap:butt;stroke-linejoin:miter;stroke-miterlimit:4;stroke-dasharray:none;stroke-opacity:1"
       d="m 42.221826,285.58952 c -0.05399,0.50396 -0.0623,1.45493 -0.07129,1.92739 l -0.33025,0.0345 c -0.04402,-0.50926 -0.186302,-0.93825 -0.450011,-1.23247 -0.358677,-0.40017 -0.714912,-0.48378 -1.021468,-0.5532 -1.2869,-0.17999 -2.175475,0.35303 -2.175475,0.35303 -1.287716,0.77582 -1.562864,2.04973 -1.530972,3.22315 0.03531,1.29908 0.571306,2.49429 1.467349,3.03927 0.464532,0.29271 1.624832,0.67765 2.706622,0.20675 0.655437,-0.29272 0.992205,-0.98885 1.354923,-1.77156 l 0.314879,0.0795 c -0.184541,0.61089 -0.318043,1.57103 -0.362588,1.9592 -0.719072,0.18454 -3.248133,0.99373 -5.169901,-0.45078 -0.804564,-0.62107 -1.238895,-1.45247 -1.379266,-2.35623 -0.07847,-0.50521 -0.0915,-1.11887 0.05418,-1.65029 0.295506,-1.07794 0.79957,-1.94851 1.953204,-2.49958 0,0 1.32657,-0.74526 3.310918,-0.54278 0,0 0.793692,0.0765 1.329151,0.23398 z"
       id="path8840"
       inkscape:connector-curvature="0"
       sodipodi:nodetypes="cccsccsccccccsscccc" />
    <path
       style="opacity:1;fill:#000000;fill-opacity:1;stroke:none;stroke-width:0;stroke-linecap:butt;stroke-linejoin:miter;stroke-miterlimit:4;stroke-dasharray:none;stroke-opacity:1"
       d="m 47.287487,285.29287 -0.500488,0.0607 c -0.124621,0.39703 -0.78248,1.92835 -1.436061,3.46181 -0.601979,1.4124 -1.197116,2.8279 -1.440903,3.33173 -0.137515,0.24793 -0.299438,0.45879 -0.544976,0.56118 -0.16039,0.0669 -0.35465,0.0843 -0.595738,0.10446 l 0.01473,0.26821 2.593063,-0.004 0.02436,-0.28313 c -0.372043,-0.031 -0.706612,-0.028 -0.836656,-0.20822 -0.131922,-0.18291 0.05804,-0.53806 0.151746,-0.86258 l 0.56646,-1.4484 2.637839,0.002 0.470139,1.41063 c 0.07626,0.21663 0.133069,0.38814 0.1701,0.52531 0.03482,0.12897 0.0471,0.23978 0.02136,0.30477 -0.0227,0.0573 -0.05006,0.11344 -0.111668,0.15646 -0.117118,0.0818 -0.451005,0.11584 -0.697758,0.13634 l 0.02194,0.26865 2.883119,0.003 0.02202,-0.28345 c -0.300987,-0.0229 -0.501995,-0.0516 -0.644019,-0.10724 -0.113229,-0.0443 -0.188412,-0.10913 -0.250924,-0.17746 -0.135932,-0.1486 -0.206002,-0.35421 -0.370189,-0.79954 l -1.859381,-5.3966 c 0,0 -0.205494,-0.62528 -0.288121,-1.02358 z m -0.579648,1.38794 1.061508,3.13567 -2.306326,0.005 z"
       id="path8842"
       inkscape:connector-curvature="0"
       sodipodi:nodetypes="ccscsccccsccccsssccccsscccccccc" />
    <path
       style="opacity:1;fill:#000000;fill-opacity:1;stroke:none;stroke-width:0;stroke-linecap:butt;stroke-linejoin:miter;stroke-miterlimit:4;stroke-dasharray:none;stroke-opacity:1"
       d="m 54.328092,285.4286 c 0,0 -0.417095,-0.0271 -0.716382,10e-5 0,0 -0.412188,0.0331 -0.547415,0.0467 -0.0467,0.006 -0.330383,0.0216 -0.330383,0.0216 0,0 -0.487232,0.002 -0.637051,-0.006 0,0 -0.170415,-0.002 -0.353567,-0.002 -0.105919,1.1e-4 -0.20992,-7.6e-4 -0.293823,1.5e-4 -0.03873,4.1e-4 -0.08201,-0.006 -0.122597,-0.007 -0.07633,-0.003 -0.145544,-0.002 -0.174254,-0.003 l -0.01539,0.28531 c 0.471052,0.029 0.72594,0.0511 0.892573,0.25083 0.138448,0.16592 0.09532,0.57692 0.09856,1.13075 l 0.0011,4.64746 c -0.0058,0.18231 0.005,0.4398 -0.103038,0.69144 -0.04255,0.0992 -0.154688,0.17871 -0.244733,0.21911 -0.181871,0.0816 -0.461854,0.10369 -0.610736,0.1129 0,0 0.01181,0.20185 0.01385,0.2704 0.09055,-0.002 0.214814,0.007 0.307406,-8.9e-4 0.212469,-0.0173 0.380421,0.003 0.654766,-0.007 0.384329,-0.0133 0.828728,-0.006 1.334787,9.1e-4 0.186008,0.003 0.373544,0.006 0.507814,0.008 0.139083,0.004 0.238753,-0.002 0.238753,-0.002 l 0.01612,-0.28552 c -0.233738,-0.006 -0.404649,-0.0113 -0.560367,-0.0294 -0.140908,-0.0164 -0.273469,-0.0449 -0.393236,-0.10375 -0.104932,-0.0516 -0.180833,-0.12375 -0.208855,-0.20263 -0.03683,-0.10369 -0.04276,-0.2555 -0.04157,-0.50713 -2.15e-4,-0.11522 3.09e-4,-1.37588 1.44e-4,-2.10382 0.317349,0.13251 1.105362,0.22682 1.809472,0.0292 0.102223,-0.0307 0.512091,-0.12006 0.930773,-0.40185 0.405164,-0.27268 0.813865,-0.7284 0.956066,-1.31576 0.02798,-0.1366 0.166876,-0.7411 -0.05028,-1.35259 -0.102607,-0.28893 -0.306425,-0.6027 -0.59411,-0.82313 -0.382637,-0.3125 -0.881468,-0.45951 -1.389785,-0.52828 -0.128417,-0.0214 -0.374617,-0.0356 -0.374617,-0.0356 z m -0.838105,0.42762 c 0.877241,-0.0945 1.384265,0.18532 1.384265,0.18532 0.657356,0.32026 0.768588,0.86141 0.82015,1.15327 0.06644,0.43536 0.03541,0.85973 -0.07869,1.2022 -0.08153,0.24466 -0.256919,0.53516 -0.467415,0.72454 -0.320717,0.30246 -0.789986,0.43806 -1.193205,0.44655 -0.0711,0.007 -0.151342,0.003 -0.228219,-1.3e-4 -0.257102,-0.01 -0.48582,-0.0418 -0.687758,-0.10979 l 0.0048,-3.12396 c 0.0024,-0.40227 0.227974,-0.43923 0.446072,-0.478 z"
       id="path8847"
       inkscape:connector-curvature="0"
       sodipodi:nodetypes="cccccsssccsccssscssssccssscccscscccccsccccsccc" />
    <path
       style="opacity:1;fill:#000000;fill-opacity:1;stroke:none;stroke-width:0;stroke-linecap:butt;stroke-linejoin:miter;stroke-miterlimit:4;stroke-dasharray:none;stroke-opacity:1"
       d="m 57.495352,285.48147 -0.02474,0.28448 c 0.398971,0.0222 0.746293,0.0457 0.92274,0.25237 0.133298,0.15611 0.103443,0.51769 0.107335,0.84861 l -7.45e-4,4.98104 c -0.01087,0.47583 -0.03387,0.73813 -0.457539,0.87752 -0.157684,0.0519 -0.379596,0.0728 -0.668365,0.0952 l 0.02474,0.26814 0.34313,3.1e-4 c 0.342072,-0.01 0.355255,-0.0124 0.662511,-0.007 0.114231,0.002 0.216443,-0.006 0.332733,-0.008 0.219135,-0.004 0.450705,-0.004 0.713087,-0.002 1.441506,0.009 2.222158,0.0175 3.432387,0.0146 0.0214,-0.50977 0.228101,-1.39965 0.339006,-1.84522 l -0.306492,-0.073 c -0.173397,0.36986 -0.414442,1.03643 -0.798775,1.28137 -0.113016,0.072 -0.211756,0.12083 -0.373484,0.16702 -0.144118,0.0411 -0.359569,0.0686 -0.6159,0.0747 l -0.843738,-9.4e-4 c -0.181794,-0.006 -0.363681,-0.0175 -0.516594,-0.0722 -0.08711,-0.0312 -0.109194,-0.044 -0.169161,-0.0859 -0.109012,-0.10769 -0.189518,-0.20789 -0.185903,-0.8114 l -0.0011,-2.31163 2.719331,0.12762 c 0,0 0.02166,-0.61603 0.01679,-0.65786 -0.0028,-0.0272 -0.02224,-0.0535 -0.05728,-0.0553 -0.03794,-8.2e-4 -2.677659,0.0787 -2.677659,0.0787 l -7e-6,-2.74084 c 0.0031,-0.0928 0.0044,-0.19345 0.05823,-0.23994 0.04112,-0.0355 0.154481,-0.0503 0.241213,-0.0522 0,0 1.065599,-0.009 1.495599,0.01 0,0 0.327072,0.0212 0.54936,0.12591 0.162241,0.0764 0.174223,0.10712 0.256622,0.1976 0.212816,0.23367 0.288437,0.56928 0.378343,1.07573 l 0.31595,-0.008 c 0,0 0.02569,-1.17924 0.104241,-1.79097 0,0 -0.563677,7.5e-4 -1.325708,0.004 -0.758763,0.003 -1.377986,0.0115 -2.541087,0.0126 -0.112796,10e-5 -0.217645,0.002 -0.311297,-2e-4 -0.483575,-0.0125 -0.731183,-0.007 -0.799716,-0.007 -0.08366,-0.005 -0.219307,-0.01 -0.337995,-0.008 z"
       id="path8852"
       inkscape:connector-curvature="0"
       sodipodi:nodetypes="ccsccscccssscccssccsccccccccsccsscccsssccc" />
  </g>
</svg>
