<?xml version="1.0" encoding="UTF-8" standalone="no"?>
<svg
   xmlns:dc="http://purl.org/dc/elements/1.1/"
   xmlns:cc="http://creativecommons.org/ns#"
   xmlns:rdf="http://www.w3.org/1999/02/22-rdf-syntax-ns#"
   xmlns:svg="http://www.w3.org/2000/svg"
   xmlns="http://www.w3.org/2000/svg"
   xmlns:xlink="http://www.w3.org/1999/xlink"
   xmlns:sodipodi="http://sodipodi.sourceforge.net/DTD/sodipodi-0.dtd"
   xmlns:inkscape="http://www.inkscape.org/namespaces/inkscape"
   width="290mm"
   height="196mm"
   viewBox="0 0 290 196"
   version="1.1"
   id="svg8928"
   inkscape:version="0.92.3 (2405546, 2018-03-11)"
   sodipodi:docname="GIMP_Logo.svg">
  <defs
     id="defs8922">
    <radialGradient
       gradientUnits="userSpaceOnUse"
       gradientTransform="matrix(1,0,0,-0.4349,0.125,237.5129)"
       r="73.792603"
       cy="-225.1315"
       cx="-197.03259"
       id="path6490_1_-4">
      <stop
         id="stop10202-7"
         style="stop-color:#000000"
         offset="0" />
      <stop
         id="stop10204-5"
         style="stop-color:#000000;stop-opacity:0"
         offset="1" />
    </radialGradient>
    <radialGradient
       gradientUnits="userSpaceOnUse"
       gradientTransform="matrix(1.7728,0,0,-1.2967,331.3971,646.3174)"
       r="77.751999"
       cy="269.80911"
       cx="-312.99359"
       id="path4323_1_-4">
      <stop
         id="stop10208-0"
         style="stop-color:#857C63"
         offset="0" />
      <stop
         id="stop10210-3"
         style="stop-color:#221F19"
         offset="1" />
    </radialGradient>
    <linearGradient
       gradientTransform="matrix(1,0,0,-1,-3.8365,504.346)"
       y2="169.9847"
       x2="-215.48441"
       y1="178.91949"
       x1="-170.4529"
       gradientUnits="userSpaceOnUse"
       id="path6480_1_-7">
      <stop
         id="stop10214-4"
         style="stop-color:#000000"
         offset="0" />
      <stop
         id="stop10216-5"
         style="stop-color:#000000;stop-opacity:0"
         offset="1" />
    </linearGradient>
    <linearGradient
       gradientTransform="matrix(1,0,0,-1,0,504)"
       y2="123.974"
       x2="-118.8752"
       y1="231.41051"
       x1="-213.5188"
       gradientUnits="userSpaceOnUse"
       id="path8520_1_-5">
      <stop
         id="stop10220-0"
         style="stop-color:#FFFFFF"
         offset="0" />
      <stop
         id="stop10222-9"
         style="stop-color:#FFFFFF;stop-opacity:0"
         offset="1" />
    </linearGradient>
    <radialGradient
       gradientUnits="userSpaceOnUse"
       gradientTransform="matrix(1.6847,0,0,-1.6847,204.7315,833.2537)"
       r="14.2139"
       cy="327.66"
       cx="-261.15189"
       id="path4357_1_-9">
      <stop
         id="stop10226-0"
         style="stop-color:#FFFFFF"
         offset="0" />
      <stop
         id="stop10228-6"
         style="stop-color:#B9B9B0"
         offset="1" />
    </radialGradient>
    <radialGradient
       gradientUnits="userSpaceOnUse"
       gradientTransform="matrix(0.7975,-0.4604,-0.5374,-0.9308,164.7496,264.6628)"
       r="19.533899"
       cy="174.3259"
       cx="-430.57361"
       id="path5198_1_-7">
      <stop
         id="stop10232-6"
         style="stop-color:#5B676B"
         offset="0" />
      <stop
         id="stop10234-7"
         style="stop-color:#141718"
         offset="1" />
    </radialGradient>
    <linearGradient
       gradientTransform="matrix(0.8004,-0.5995,-0.5995,-0.8004,195.8401,141.3567)"
       y2="126.3802"
       x2="-471.25131"
       y1="157.3208"
       x1="-470.04309"
       gradientUnits="userSpaceOnUse"
       id="path6450_1_-1">
      <stop
         id="stop10239-2"
         style="stop-color:#FFFFFF"
         offset="0" />
      <stop
         id="stop10241-7"
         style="stop-color:#FFFFFF;stop-opacity:0"
         offset="1" />
    </linearGradient>
    <radialGradient
       gradientUnits="userSpaceOnUse"
       gradientTransform="matrix(1.9777,0,0,-1.9777,324.6216,974.5404)"
       r="14.2139"
       cy="350.67029"
       cx="-265.9155"
       id="path6462_1_-3">
      <stop
         id="stop10247-9"
         style="stop-color:#FFFFFF"
         offset="0" />
      <stop
         id="stop10249-8"
         style="stop-color:#B9B9B0"
         offset="1" />
    </radialGradient>
    <linearGradient
       gradientTransform="matrix(-0.1149,0.3899,0.3899,0.1149,733.5718,-589.2775)"
       y2="-3187.2964"
       x2="751.56219"
       y1="-3154.7168"
       x1="789.01947"
       gradientUnits="userSpaceOnUse"
       id="linearGradient3737">
      <stop
         id="stop10255-8"
         style="stop-color:#6E3D09"
         offset="0" />
      <stop
         id="stop10257-1"
         style="stop-color:#EA8113"
         offset="0.2424" />
      <stop
         id="stop10259-3"
         style="stop-color:#5C3307"
         offset="0.6212" />
      <stop
         id="stop10261-6"
         style="stop-color:#E07C12"
         offset="1" />
    </linearGradient>
    <linearGradient
       gradientTransform="matrix(-0.1149,0.3899,0.3899,0.1149,736.4698,-592.958)"
       y2="-3281.8103"
       x2="959.63092"
       y1="-3295.7097"
       x1="944.61108"
       gradientUnits="userSpaceOnUse"
       id="linearGradient3744">
      <stop
         id="stop10265-9"
         style="stop-color:#BDBDBD"
         offset="0" />
      <stop
         id="stop10267-1"
         style="stop-color:#E2E2E2"
         offset="0.3333" />
      <stop
         id="stop10269-5"
         style="stop-color:#A3A3A3"
         offset="0.6667" />
      <stop
         id="stop10271-9"
         style="stop-color:#DDDDDD"
         offset="1" />
    </linearGradient>
    <radialGradient
       gradientUnits="userSpaceOnUse"
       gradientTransform="matrix(-0.1806,0.5975,0.6131,0.176,999.3764,-360.9424)"
       r="30.6458"
       cy="-2614.8308"
       cx="401.35699"
       id="path6933_1_-9">
      <stop
         id="stop10276-7"
         style="stop-color:#696969"
         offset="0" />
      <stop
         id="stop10278-6"
         style="stop-color:#000000"
         offset="1" />
    </radialGradient>
    <linearGradient
       gradientTransform="matrix(-0.2408,0.249,0.249,0.2408,454.1073,-512.6804)"
       y2="-2407.6685"
       x2="2160.5918"
       y1="-2425.9849"
       x1="2182.7661"
       gradientUnits="userSpaceOnUse"
       id="linearGradient3752">
      <stop
         id="stop10284-6"
         style="stop-color:#FFFFFF"
         offset="0" />
      <stop
         id="stop10286-6"
         style="stop-color:#FFFFFF;stop-opacity:0"
         offset="1" />
    </linearGradient>
    <linearGradient
       gradientTransform="matrix(1,0,0,-1,0,504)"
       y2="173.6483"
       x2="-192.3356"
       y1="175.4353"
       x1="-184.91969"
       gradientUnits="userSpaceOnUse"
       id="path8532_1_-0">
      <stop
         id="stop10291-0"
         style="stop-color:#000000"
         offset="0" />
      <stop
         id="stop10293-1"
         style="stop-color:#000000;stop-opacity:0"
         offset="1" />
    </linearGradient>
    <radialGradient
       gradientUnits="userSpaceOnUse"
       gradientTransform="matrix(1,0,0,-0.4349,0.125,237.5129)"
       r="73.792603"
       cy="-225.1315"
       cx="-197.03259"
       id="path6490_1_-4-1">
      <stop
         id="stop10202-7-9"
         style="stop-color:#000000"
         offset="0" />
      <stop
         id="stop10204-5-5"
         style="stop-color:#000000;stop-opacity:0"
         offset="1" />
    </radialGradient>
    <radialGradient
       gradientUnits="userSpaceOnUse"
       gradientTransform="matrix(1.7728,0,0,-1.2967,331.3971,646.3174)"
       r="77.751999"
       cy="269.80911"
       cx="-312.99359"
       id="path4323_1_-4-9">
      <stop
         id="stop10208-0-9"
         style="stop-color:#857C63"
         offset="0" />
      <stop
         id="stop10210-3-9"
         style="stop-color:#221F19"
         offset="1" />
    </radialGradient>
    <radialGradient
       gradientUnits="userSpaceOnUse"
       gradientTransform="matrix(1.6847,0,0,-1.6847,204.7315,833.2537)"
       r="14.2139"
       cy="327.66"
       cx="-261.15189"
       id="path4357_1_-9-1">
      <stop
         id="stop10226-0-9"
         style="stop-color:#FFFFFF"
         offset="0" />
      <stop
         id="stop10228-6-8"
         style="stop-color:#B9B9B0"
         offset="1" />
    </radialGradient>
    <radialGradient
       gradientUnits="userSpaceOnUse"
       gradientTransform="matrix(0.7975,-0.4604,-0.5374,-0.9308,164.7496,264.6628)"
       r="19.533899"
       cy="174.3259"
       cx="-430.57361"
       id="path5198_1_-7-6">
      <stop
         id="stop10232-6-1"
         style="stop-color:#5B676B"
         offset="0" />
      <stop
         id="stop10234-7-3"
         style="stop-color:#141718"
         offset="1" />
    </radialGradient>
    <radialGradient
       gradientUnits="userSpaceOnUse"
       gradientTransform="matrix(1.9777,0,0,-1.9777,324.6216,974.5404)"
       r="14.2139"
       cy="350.67029"
       cx="-265.9155"
       id="path6462_1_-3-9">
      <stop
         id="stop10247-9-6"
         style="stop-color:#FFFFFF"
         offset="0" />
      <stop
         id="stop10249-8-2"
         style="stop-color:#B9B9B0"
         offset="1" />
    </radialGradient>
    <radialGradient
       gradientUnits="userSpaceOnUse"
       gradientTransform="matrix(-0.1806,0.5975,0.6131,0.176,999.3764,-360.9424)"
       r="30.6458"
       cy="-2614.8308"
       cx="401.35699"
       id="path6933_1_-9-0">
      <stop
         id="stop10276-7-7"
         style="stop-color:#696969"
         offset="0" />
      <stop
         id="stop10278-6-8"
         style="stop-color:#000000"
         offset="1" />
    </radialGradient>
    <radialGradient
       id="path6490_1_"
       cx="-197.03259"
       cy="-225.1315"
       r="73.792603"
       gradientTransform="matrix(1,0,0,-0.4349,0.125,237.5129)"
       gradientUnits="userSpaceOnUse">
      <stop
         offset="0"
         style="stop-color:#000000"
         id="stop10202" />
      <stop
         offset="1"
         style="stop-color:#000000;stop-opacity:0"
         id="stop10204" />
    </radialGradient>
    <radialGradient
       id="path4323_1_"
       cx="-312.99359"
       cy="269.80911"
       r="77.751999"
       gradientTransform="matrix(1.7728,0,0,-1.2967,331.3971,646.3174)"
       gradientUnits="userSpaceOnUse">
      <stop
         offset="0"
         style="stop-color:#857C63"
         id="stop10208" />
      <stop
         offset="1"
         style="stop-color:#221F19"
         id="stop10210" />
    </radialGradient>
    <radialGradient
       id="path4357_1_"
       cx="-261.15189"
       cy="327.66"
       r="14.2139"
       gradientTransform="matrix(1.6847,0,0,-1.6847,204.7315,833.2537)"
       gradientUnits="userSpaceOnUse">
      <stop
         offset="0"
         style="stop-color:#FFFFFF"
         id="stop10226" />
      <stop
         offset="1"
         style="stop-color:#B9B9B0"
         id="stop10228" />
    </radialGradient>
    <radialGradient
       id="path5198_1_"
       cx="-430.57361"
       cy="174.3259"
       r="19.533899"
       gradientTransform="matrix(0.7975,-0.4604,-0.5374,-0.9308,164.7496,264.6628)"
       gradientUnits="userSpaceOnUse">
      <stop
         offset="0"
         style="stop-color:#5B676B"
         id="stop10232" />
      <stop
         offset="1"
         style="stop-color:#141718"
         id="stop10234" />
    </radialGradient>
    <radialGradient
       id="path6462_1_"
       cx="-265.9155"
       cy="350.67029"
       r="14.2139"
       gradientTransform="matrix(1.9777,0,0,-1.9777,324.6216,974.5404)"
       gradientUnits="userSpaceOnUse">
      <stop
         offset="0"
         style="stop-color:#FFFFFF"
         id="stop10247" />
      <stop
         offset="1"
         style="stop-color:#B9B9B0"
         id="stop10249" />
    </radialGradient>
    <radialGradient
       id="path6933_1_"
       cx="401.35699"
       cy="-2614.8308"
       r="30.6458"
       gradientTransform="matrix(-0.1806,0.5975,0.6131,0.176,999.3764,-360.9424)"
       gradientUnits="userSpaceOnUse">
      <stop
         offset="0"
         style="stop-color:#696969"
         id="stop10276" />
      <stop
         offset="1"
         style="stop-color:#000000"
         id="stop10278" />
    </radialGradient>
    <linearGradient
       inkscape:collect="always"
       xlink:href="#path6480_1_-7"
       id="linearGradient7050"
       gradientUnits="userSpaceOnUse"
       gradientTransform="matrix(1,0,0,-1,-3.8365,504.346)"
       x1="-170.4529"
       y1="178.91949"
       x2="-215.48441"
       y2="169.9847" />
    <linearGradient
       inkscape:collect="always"
       xlink:href="#path8520_1_-5"
       id="linearGradient7052"
       gradientUnits="userSpaceOnUse"
       gradientTransform="matrix(1,0,0,-1,0,504)"
       x1="-213.5188"
       y1="231.41051"
       x2="-118.8752"
       y2="123.974" />
    <linearGradient
       inkscape:collect="always"
       xlink:href="#path6450_1_-1"
       id="linearGradient7054"
       gradientUnits="userSpaceOnUse"
       gradientTransform="matrix(0.8004,-0.5995,-0.5995,-0.8004,195.8401,141.3567)"
       x1="-470.04309"
       y1="157.3208"
       x2="-471.25131"
       y2="126.3802" />
    <linearGradient
       inkscape:collect="always"
       xlink:href="#linearGradient3737"
       id="linearGradient7056"
       gradientUnits="userSpaceOnUse"
       gradientTransform="matrix(-0.1149,0.3899,0.3899,0.1149,733.5718,-589.2775)"
       x1="789.01947"
       y1="-3154.7168"
       x2="751.56219"
       y2="-3187.2964" />
    <linearGradient
       inkscape:collect="always"
       xlink:href="#linearGradient3744"
       id="linearGradient7058"
       gradientUnits="userSpaceOnUse"
       gradientTransform="matrix(-0.1149,0.3899,0.3899,0.1149,736.4698,-592.958)"
       x1="944.61108"
       y1="-3295.7097"
       x2="959.63092"
       y2="-3281.8103" />
    <linearGradient
       inkscape:collect="always"
       xlink:href="#linearGradient3752"
       id="linearGradient7060"
       gradientUnits="userSpaceOnUse"
       gradientTransform="matrix(-0.2408,0.249,0.249,0.2408,454.1073,-512.6804)"
       x1="2182.7661"
       y1="-2425.9849"
       x2="2160.5918"
       y2="-2407.6685" />
    <linearGradient
       inkscape:collect="always"
       xlink:href="#path8532_1_-0"
       id="linearGradient7062"
       gradientUnits="userSpaceOnUse"
       gradientTransform="matrix(1,0,0,-1,0,504)"
       x1="-184.91969"
       y1="175.4353"
       x2="-192.3356"
       y2="173.6483" />
  </defs>
  <sodipodi:namedview
     id="base"
     pagecolor="#ffffff"
     bordercolor="#666666"
     borderopacity="1.0"
     inkscape:pageopacity="0.0"
     inkscape:pageshadow="2"
     inkscape:zoom="0.50000001"
     inkscape:cx="-57.992731"
     inkscape:cy="283.98097"
     inkscape:document-units="mm"
     inkscape:current-layer="layer1"
     showgrid="false"
     inkscape:window-width="1920"
     inkscape:window-height="1138"
     inkscape:window-x="-8"
     inkscape:window-y="32"
     inkscape:window-maximized="1"
     inkscape:showpageshadow="false" />
  <metadata
     id="metadata8925">
    <rdf:RDF>
      <cc:Work
         rdf:about="">
        <dc:format>image/svg+xml</dc:format>
        <dc:type
           rdf:resource="http://purl.org/dc/dcmitype/StillImage" />
        <dc:title></dc:title>
      </cc:Work>
    </rdf:RDF>
  </metadata>
  <g
     inkscape:label="Ebene 1"
     inkscape:groupmode="layer"
     id="layer1"
     transform="translate(0,-101)">
    <g
       id="layer1-0"
       transform="matrix(0.86035273,0,0,0.86035273,262.34014,-50.559253)">
      <radialGradient
         id="radialGradient6733"
         cx="-197.03259"
         cy="-225.1315"
         r="73.792603"
         gradientTransform="matrix(1,0,0,-0.4349,0.125,237.5129)"
         gradientUnits="userSpaceOnUse">
        <stop
           offset="0"
           style="stop-color:#000000"
           id="stop6729" />
        <stop
           offset="1"
           style="stop-color:#000000;stop-opacity:0"
           id="stop6731" />
      </radialGradient>
      <path
         style="fill:url(#path6490_1_)"
         inkscape:connector-curvature="0"
         id="path6490"
         class="st1"
         d="m -123.1,335.4 c 0,17.7 -33,32.1 -73.8,32.1 -40.8,0 -73.8,-14.4 -73.8,-32.1 0,-17.7 33,-32.1 73.8,-32.1 40.8,0 73.8,14.4 73.8,32.1 z" />
      <radialGradient
         id="radialGradient6740"
         cx="-312.99359"
         cy="269.80911"
         r="77.751999"
         gradientTransform="matrix(1.7728,0,0,-1.2967,331.3971,646.3174)"
         gradientUnits="userSpaceOnUse">
        <stop
           offset="0"
           style="stop-color:#857C63"
           id="stop6736" />
        <stop
           offset="1"
           style="stop-color:#221F19"
           id="stop6738" />
      </radialGradient>
      <path
         style="fill:url(#path4323_1_);stroke:#2e3436;stroke-width:1;stroke-miterlimit:10"
         inkscape:connector-curvature="0"
         id="path4323"
         class="st2"
         d="m -248.5,256.7 c 0,0 11.6,24 38.8,23.3 57,-1.4 67,-31.2 68.4,-35.4 1.4,-4.3 3.6,-3.6 4.1,0.3 18.6,168.7 -129,96.3 -134.2,67.6 29.3,-8.6 22.2,-25 22.2,-25 z" />
      <linearGradient
         id="linearGradient6747"
         gradientUnits="userSpaceOnUse"
         x1="-170.4529"
         y1="178.91949"
         x2="-215.48441"
         y2="169.9847"
         gradientTransform="matrix(1,0,0,-1,-3.8365,504.346)">
        <stop
           offset="0"
           style="stop-color:#000000"
           id="stop6743" />
        <stop
           offset="1"
           style="stop-color:#000000;stop-opacity:0"
           id="stop6745" />
      </linearGradient>
      <path
         style="fill:url(#linearGradient7050)"
         inkscape:connector-curvature="0"
         id="path6480"
         class="st3"
         d="m -226.8,327.9 c 27.2,5.4 41.1,0.4 49.2,-5.9 -2.1,-2.8 -5.8,-5.8 -5.8,-5.8 0,0 9.5,2.6 12.9,7 3.3,4.3 1.2,7 0.4,12.5 -1.9,-4.8 -5.6,-6.7 -6.1,-8.6 -7.3,10 -25.5,9.6 -50.6,0.8 z" />
      <linearGradient
         id="linearGradient6754"
         gradientUnits="userSpaceOnUse"
         x1="-213.5188"
         y1="231.41051"
         x2="-118.8752"
         y2="123.974"
         gradientTransform="matrix(1,0,0,-1,0,504)">
        <stop
           offset="0"
           style="stop-color:#FFFFFF"
           id="stop6750" />
        <stop
           offset="1"
           style="stop-color:#FFFFFF;stop-opacity:0"
           id="stop6752" />
      </linearGradient>
      <path
         style="opacity:0.18540003;fill:none;stroke:url(#linearGradient7052);stroke-width:1;stroke-miterlimit:10;enable-background:new"
         inkscape:connector-curvature="0"
         id="path8520"
         class="st4"
         d="m -140.9,254.2 c -2.3,3.7 -5.7,8.2 -10.9,12.5 -10.6,8.8 -28.5,16.8 -57.7,17.6 -17.1,0.4 -28.1,-7.8 -34.9,-15.2 l -0.5,18.1 c 0.6,1.7 1.7,5.6 -0.3,11 -2.1,5.8 -8.7,11.7 -20.1,16.2 1,2.1 2,4.2 5.1,7.2 4.2,4.1 9.9,8.4 16.8,12.4 13.7,7.9 31.5,14.1 48.1,14.4 16.6,0.3 31.8,-5 42.2,-20.2 9.7,-14.1 14.9,-37.9 12.2,-74 z" />
      <radialGradient
         id="radialGradient6761"
         cx="-261.15189"
         cy="327.66"
         r="14.2139"
         gradientTransform="matrix(1.6847,0,0,-1.6847,204.7315,833.2537)"
         gradientUnits="userSpaceOnUse">
        <stop
           offset="0"
           style="stop-color:#FFFFFF"
           id="stop6757" />
        <stop
           offset="1"
           style="stop-color:#B9B9B0"
           id="stop6759" />
      </radialGradient>
      <path
         style="fill:url(#path4357_1_);stroke:#888a85;stroke-width:0.78259999;stroke-miterlimit:10"
         inkscape:connector-curvature="0"
         id="path4357"
         class="st5"
         d="m -218.8,292.8 c 0,9.1 -7.4,16.4 -16.4,16.4 -9,0 -16.4,-7.4 -16.4,-16.4 0,-9.1 7.4,-16.4 16.4,-16.4 9,0 16.4,7.3 16.4,16.4 z" />
      <radialGradient
         id="radialGradient6768"
         cx="-430.57361"
         cy="174.3259"
         r="19.533899"
         gradientTransform="matrix(0.7975,-0.4604,-0.5374,-0.9308,164.7496,264.6628)"
         gradientUnits="userSpaceOnUse">
        <stop
           offset="0"
           style="stop-color:#5B676B"
           id="stop6764" />
        <stop
           offset="1"
           style="stop-color:#141718"
           id="stop6766" />
      </radialGradient>
      <path
         style="fill:url(#path5198_1_);stroke:#000000;stroke-width:1;stroke-miterlimit:10"
         inkscape:connector-curvature="0"
         id="path5198"
         class="st6"
         d="m -251.5,299 c 8,11 8.1,24.6 0.2,30.2 -7.8,5.7 -20.7,1.3 -28.6,-9.7 0,0 0,0 0,0 -8,-11 -8.1,-24.6 -0.2,-30.2 7.8,-5.7 20.6,-1.4 28.6,9.7 -0.1,0 -0.1,0 0,0 z" />
      <path
         style="fill:#2e3436;stroke:#000000;stroke-width:1.17390001;stroke-miterlimit:10"
         inkscape:connector-curvature="0"
         id="path4359"
         class="st7"
         d="m -223.5,295.2 c 0,4.4 -3.5,7.9 -7.9,7.9 -4.4,0 -7.9,-3.5 -7.9,-7.9 0,-4.4 3.5,-7.9 7.9,-7.9 4.4,0 7.9,3.6 7.9,7.9 z" />
      <linearGradient
         id="linearGradient6776"
         gradientUnits="userSpaceOnUse"
         x1="-470.04309"
         y1="157.3208"
         x2="-471.25131"
         y2="126.3802"
         gradientTransform="matrix(0.8004,-0.5995,-0.5995,-0.8004,195.8401,141.3567)">
        <stop
           offset="0"
           style="stop-color:#FFFFFF"
           id="stop6772" />
        <stop
           offset="1"
           style="stop-color:#FFFFFF;stop-opacity:0"
           id="stop6774" />
      </linearGradient>
      <path
         style="opacity:0.28090001;fill:none;stroke:url(#linearGradient7054);stroke-width:1;stroke-miterlimit:10;enable-background:new"
         inkscape:connector-curvature="0"
         id="path6450"
         class="st8"
         d="m -278.7,292.9 c -2.6,1.9 -3.9,5.2 -3.8,9.7 0.1,4.4 1.9,9.9 5.5,14.7 3.6,4.8 8.3,8 12.6,9.4 4.2,1.4 7.8,1 10.3,-1 2.5,-2 3.9,-5.4 3.8,-9.8 -0.1,-4.5 -1.8,-9.8 -5.4,-14.6 -3.6,-4.8 -8.2,-7.9 -12.5,-9.3 -4.3,-1.4 -8,-1.1 -10.5,0.9 z" />
      <path
         style="fill:#ffffff"
         inkscape:connector-curvature="0"
         id="path6446"
         class="st9"
         d="m -266.8,300.3 c 0,4.7 -3.2,8.6 -7.1,8.6 -3.9,0 -7.1,-3.8 -7.1,-8.6 0,0 0,0 0,0 0,-4.7 3.2,-8.6 7.1,-8.6 3.9,0 7.1,3.9 7.1,8.6 0,0 0,0 0,0 z" />
      <path
         style="fill:#ffffff"
         inkscape:connector-curvature="0"
         id="path4361"
         class="st9"
         d="m -229,291.6 c 0,3 -2.5,5.5 -5.5,5.5 -3,0 -5.5,-2.5 -5.5,-5.5 0,0 0,0 0,0 0,-3 2.5,-5.5 5.5,-5.5 3.1,0 5.5,2.5 5.5,5.5 0,0 0,0 0,0 z" />
      <radialGradient
         id="radialGradient6785"
         cx="-265.9155"
         cy="350.67029"
         r="14.2139"
         gradientTransform="matrix(1.9777,0,0,-1.9777,324.6216,974.5404)"
         gradientUnits="userSpaceOnUse">
        <stop
           offset="0"
           style="stop-color:#FFFFFF"
           id="stop6781" />
        <stop
           offset="1"
           style="stop-color:#B9B9B0"
           id="stop6783" />
      </radialGradient>
      <path
         style="fill:url(#path6462_1_);stroke:#888a85;stroke-width:0.66670001;stroke-miterlimit:10"
         inkscape:connector-curvature="0"
         id="path6462"
         class="st10"
         d="m -182,294.6 c 0,10.7 -8.6,19.3 -19.3,19.3 -10.7,0 -19.3,-8.6 -19.3,-19.3 0,-10.7 8.6,-19.3 19.3,-19.3 10.7,0 19.3,8.6 19.3,19.3 z" />
      <path
         style="fill:#2e3436;stroke:#000000;stroke-width:1;stroke-miterlimit:10"
         inkscape:connector-curvature="0"
         id="path6464"
         class="st11"
         d="m -187.5,297.4 c 0,5.1 -4.2,9.3 -9.3,9.3 -5.1,0 -9.3,-4.2 -9.3,-9.3 0,-5.1 4.2,-9.3 9.3,-9.3 5.2,0.1 9.3,4.2 9.3,9.3 z" />
      <path
         style="fill:#ffffff"
         inkscape:connector-curvature="0"
         id="path6466"
         class="st9"
         d="m -193.9,293.2 c 0,3.6 -2.9,6.4 -6.4,6.4 -3.6,0 -6.4,-2.9 -6.4,-6.4 0,0 0,0 0,0 0,-3.6 2.9,-6.4 6.4,-6.4 3.5,-0.1 6.4,2.8 6.4,6.4 0,0 0,0 0,0 z" />
      <g
         id="g8463"
         transform="matrix(-0.114852,-0.389864,0.389864,-0.114852,24.71507,29.68942)">
        <linearGradient
           id="linearGradient6798"
           gradientUnits="userSpaceOnUse"
           x1="789.01947"
           y1="-3154.7168"
           x2="751.56219"
           y2="-3187.2964"
           gradientTransform="matrix(-0.1149,0.3899,0.3899,0.1149,733.5718,-589.2775)">
          <stop
             offset="0"
             style="stop-color:#6E3D09"
             id="stop6790" />
          <stop
             offset="0.2424"
             style="stop-color:#EA8113"
             id="stop6792" />
          <stop
             offset="0.6212"
             style="stop-color:#5C3307"
             id="stop6794" />
          <stop
             offset="1"
             style="stop-color:#E07C12"
             id="stop6796" />
        </linearGradient>
        <path
           style="fill:url(#linearGradient7056);stroke:#673907;stroke-width:2.4605;stroke-linecap:round"
           inkscape:connector-curvature="0"
           id="path6937"
           class="st12"
           d="m -645,-618.9 15,14 c 33.8,-25.8 69.1,-81.3 69.1,-81.3 8,-9.1 -0.5,-15.2 -8.8,-9.7 0.1,0.1 -52.4,41 -75.3,77 z" />
        <linearGradient
           id="linearGradient6809"
           gradientUnits="userSpaceOnUse"
           x1="944.61108"
           y1="-3295.7097"
           x2="959.63092"
           y2="-3281.8103"
           gradientTransform="matrix(-0.1149,0.3899,0.3899,0.1149,736.4698,-592.958)">
          <stop
             offset="0"
             style="stop-color:#BDBDBD"
             id="stop6801" />
          <stop
             offset="0.3333"
             style="stop-color:#E2E2E2"
             id="stop6803" />
          <stop
             offset="0.6667"
             style="stop-color:#A3A3A3"
             id="stop6805" />
          <stop
             offset="1"
             style="stop-color:#DDDDDD"
             id="stop6807" />
        </linearGradient>
        <path
           style="fill:url(#linearGradient7058);stroke:#888a85;stroke-width:2.4605;stroke-linecap:round"
           inkscape:connector-curvature="0"
           id="path6935"
           class="st13"
           d="m -673.6,-581.5 9.1,7.8 34.3,-29.8 1.1,-2.9 4.4,-0.1 c -1.8,-6.3 -11.9,-17.7 -19.5,-17.7 l 0.3,4.4 -2.7,1.5 z" />
        <path
           style="fill:none;stroke:#ffffff;stroke-width:2.4605;stroke-linecap:round;stroke-linejoin:round"
           inkscape:connector-curvature="0"
           id="path6985"
           class="st14"
           d="m -646.8,-599.4 -17.6,21.3" />
        <radialGradient
           id="radialGradient6817"
           cx="401.35699"
           cy="-2614.8308"
           r="30.6458"
           gradientTransform="matrix(-0.1806,0.5975,0.6131,0.176,999.3764,-360.9424)"
           gradientUnits="userSpaceOnUse">
          <stop
             offset="0"
             style="stop-color:#696969"
             id="stop6813" />
          <stop
             offset="1"
             style="stop-color:#000000"
             id="stop6815" />
        </radialGradient>
        <path
           style="fill:url(#path6933_1_)"
           inkscape:connector-curvature="0"
           id="path6933"
           class="st15"
           d="m -733.9,-541.2 c 42.2,0 74.3,5 80.3,-25.7 4.9,-24.8 -29.2,-36.6 -46,-14.5 -16.2,21.3 -34.3,40.2 -34.3,40.2 z" />
        <path
           style="opacity:0.52780002;fill:#ffffff;enable-background:new"
           inkscape:connector-curvature="0"
           id="path6971"
           class="st16"
           d="m -657.2,-566 c 0,5.8 -4.7,10.5 -10.5,10.5 -5.8,0 -10.5,-4.7 -10.5,-10.5 0,-5.8 4.7,-10.5 10.5,-10.5 5.8,0 10.5,4.7 10.5,10.5 z" />
        <path
           style="fill:#ffffff"
           inkscape:connector-curvature="0"
           id="path6983"
           class="st9"
           d="m -630,-605.6 c 0,3.9 -3.2,7.1 -7.1,7.1 -3.9,0 -7.1,-3.2 -7.1,-7.1 0,-3.9 3.2,-7.1 7.1,-7.1 3.9,0 7.1,3.2 7.1,7.1 z" />
        <linearGradient
           id="linearGradient6826"
           gradientUnits="userSpaceOnUse"
           x1="2182.7661"
           y1="-2425.9849"
           x2="2160.5918"
           y2="-2407.6685"
           gradientTransform="matrix(-0.2408,0.249,0.249,0.2408,454.1073,-512.6804)">
          <stop
             offset="0"
             style="stop-color:#FFFFFF"
             id="stop6822" />
          <stop
             offset="1"
             style="stop-color:#FFFFFF;stop-opacity:0"
             id="stop6824" />
        </linearGradient>
        <path
           style="opacity:0.42780002;fill:url(#linearGradient7060);enable-background:new"
           inkscape:connector-curvature="0"
           id="path1571"
           class="st17"
           d="m -706.4,-548.7 c 0,0 15,0.4 24.7,-5.7 3.4,-2.2 6.1,2.6 2,4.4 -8.9,3.8 -26.7,1.3 -26.7,1.3 z" />
      </g>
      <linearGradient
         id="linearGradient6834"
         gradientUnits="userSpaceOnUse"
         x1="-184.91969"
         y1="175.4353"
         x2="-192.3356"
         y2="173.6483"
         gradientTransform="matrix(1,0,0,-1,0,504)">
        <stop
           offset="0"
           style="stop-color:#000000"
           id="stop6830" />
        <stop
           offset="1"
           style="stop-color:#000000;stop-opacity:0"
           id="stop6832" />
      </linearGradient>
      <path
         style="fill:url(#linearGradient7062)"
         inkscape:connector-curvature="0"
         id="path8532"
         class="st18"
         d="m -197.4,334.6 c 6.1,0.6 11.5,-1.1 13.8,-1.9 0.4,-2.2 2.2,-6.6 8.3,-6.8 l -2.1,-3.8 c 0,0 -8,5.5 -16.4,7.1 z" />
    </g>
    <g
       id="g10394"
       transform="matrix(2.7668203,0,0,2.7668203,-184.23092,-457.20031)"
       style="fill:#030303;fill-opacity:1">
      <path
         sodipodi:nodetypes="ccccccccccccccc"
         inkscape:connector-curvature="0"
         id="path10379"
         d="m 133.89251,240.99842 c -3.01481,-4.5503 -9.14649,-2.8275 -10.50445,0.54562 -0.98778,2.33421 -0.74298,4.571 0.57141,6.64088 2.95863,3.57657 7.86609,2.22751 9.60756,0.0179 1.40442,-1.7602 1.16907,-4.79576 1.16907,-4.79576 l -6.07451,-0.008 -0.0187,2.38361 3.03191,-0.0464 c 0.0294,0.57713 -0.54993,1.42333 -1.40582,1.78914 -1.16098,0.41196 -2.09634,0.38528 -3.06193,-0.096 -1.29081,-0.82789 -1.54551,-2.14959 -1.50127,-3.25757 -0.0196,-0.90043 0.54245,-2.26811 1.53708,-2.83016 0.71157,-0.43068 1.912,-0.56147 2.66183,-0.1837 1.012,0.47954 1.26004,1.20385 1.26004,1.20385 z"
         style="opacity:1;fill:#030303;fill-opacity:1;stroke:#000000;stroke-width:0;stroke-linecap:butt;stroke-linejoin:miter;stroke-miterlimit:4;stroke-dasharray:none;stroke-opacity:1" />
      <path
         sodipodi:nodetypes="ccccc"
         inkscape:connector-curvature="0"
         id="path10381"
         d="m 136.75677,238.53991 3.13714,-0.006 0.003,11.51224 -3.11129,0.005 z"
         style="opacity:1;fill:#030303;fill-opacity:1;stroke:#000000;stroke-width:0;stroke-linecap:butt;stroke-linejoin:miter;stroke-miterlimit:4;stroke-dasharray:none;stroke-opacity:1" />
      <path
         sodipodi:nodetypes="cccccccccccccc"
         inkscape:connector-curvature="0"
         id="path10383"
         d="m 141.56233,250.01297 2.86604,0.0588 1.00053,-7.12678 1.86531,7.14551 2.3089,-0.004 2.03049,-7.05543 0.96397,6.99033 h 2.8482 l -1.67022,-11.48198 -3.19955,-0.0464 -2.02156,7.0572 -2.08578,-7.05898 h -3.08094 z"
         style="opacity:1;fill:#030303;fill-opacity:1;stroke:#000000;stroke-width:0;stroke-linecap:butt;stroke-linejoin:miter;stroke-miterlimit:4;stroke-dasharray:none;stroke-opacity:1" />
      <path
         sodipodi:nodetypes="ccccccccccccccc"
         inkscape:connector-curvature="0"
         id="path10385"
         d="m 157.09481,238.54976 -0.0476,11.45183 2.96891,0.0381 0.01,-3.7649 2.70895,0.002 c 1.31356,0.0232 2.47152,-1.3753 2.69713,-1.94764 0.58049,-1.1797 0.31428,-3.25772 -0.0602,-3.85693 -0.86138,-1.49805 -1.90226,-1.95562 -2.99813,-1.9442 l -5.27903,0.0217 z m 2.92188,2.485 2.12415,0.006 c 1.58404,-0.0283 1.6058,2.76897 -0.0732,2.72587 l -2.07832,-0.0335 z"
         style="opacity:1;fill:#030303;fill-opacity:1;stroke:#000000;stroke-width:0;stroke-linecap:butt;stroke-linejoin:miter;stroke-miterlimit:4;stroke-dasharray:none;stroke-opacity:1" />
    </g>
  </g>
  <style
     id="style10191"
     type="text/css">
	.st0{fill:url(#SVGID_1_);}
	.st1{fill:url(#path6490_1_);}
	.st2{fill:url(#path4323_1_);stroke:#2E3436;stroke-width:1;stroke-miterlimit:10;}
	.st3{fill:url(#path6480_1_);}
	.st4{opacity:0.1854;fill:none;stroke:url(#path8520_1_);stroke-width:1;stroke-miterlimit:10;enable-background:new    ;}
	.st5{fill:url(#path4357_1_);stroke:#888A85;stroke-width:0.7826;stroke-miterlimit:10;}
	.st6{fill:url(#path5198_1_);stroke:#000000;stroke-width:1;stroke-miterlimit:10;}
	.st7{fill:#2E3436;stroke:#000000;stroke-width:1.1739;stroke-miterlimit:10;}
	.st8{opacity:0.2809;fill:none;stroke:url(#path6450_1_);stroke-width:1;stroke-miterlimit:10;enable-background:new    ;}
	.st9{fill:#FFFFFF;}
	.st10{fill:url(#path6462_1_);stroke:#888A85;stroke-width:0.6667;stroke-miterlimit:10;}
	.st11{fill:#2E3436;stroke:#000000;stroke-width:1;stroke-miterlimit:10;}
	.st12{fill:url(#path6937_1_);stroke:#673907;stroke-width:2.4605;stroke-linecap:round;}
	.st13{fill:url(#path6935_1_);stroke:#888A85;stroke-width:2.4605;stroke-linecap:round;}
	.st14{fill:none;stroke:#FFFFFF;stroke-width:2.4605;stroke-linecap:round;stroke-linejoin:round;}
	.st15{fill:url(#path6933_1_);}
	.st16{opacity:0.5278;fill:#FFFFFF;enable-background:new    ;}
	.st17{opacity:0.4278;fill:url(#path1571_1_);enable-background:new    ;}
	.st18{fill:url(#path8532_1_);}
</style>
</svg>
