<?xml version="1.0" encoding="UTF-8" standalone="no"?>
<svg
   xmlns:dc="http://purl.org/dc/elements/1.1/"
   xmlns:cc="http://creativecommons.org/ns#"
   xmlns:rdf="http://www.w3.org/1999/02/22-rdf-syntax-ns#"
   xmlns:svg="http://www.w3.org/2000/svg"
   xmlns="http://www.w3.org/2000/svg"
   xmlns:sodipodi="http://sodipodi.sourceforge.net/DTD/sodipodi-0.dtd"
   xmlns:inkscape="http://www.inkscape.org/namespaces/inkscape"
   width="302"
   height="240"
   viewBox="0 0 79.904163 63.499986"
   version="1.1"
   id="svg9490"
   inkscape:version="0.92.3 (2405546, 2018-03-11)"
   sodipodi:docname="__Notepad++_Logo_r.svg">
  <defs
     id="defs9484" />
  <sodipodi:namedview
     id="base"
     pagecolor="#ffffff"
     bordercolor="#666666"
     borderopacity="1.0"
     inkscape:pageopacity="0.0"
     inkscape:pageshadow="2"
     inkscape:zoom="10.315482"
     inkscape:cx="107.06633"
     inkscape:cy="128.76604"
     inkscape:document-units="mm"
     inkscape:current-layer="layer1"
     showgrid="false"
     inkscape:window-width="1920"
     inkscape:window-height="1138"
     inkscape:window-x="-8"
     inkscape:window-y="32"
     inkscape:window-maximized="1"
     objecttolerance="1"
     guidetolerance="1"
     gridtolerance="1"
     showguides="true"
     inkscape:guide-bbox="true"
     units="px"
     inkscape:pagecheckerboard="true">
    <sodipodi:guide
       position="-0.083134306,138.21909"
       orientation="0,1"
       id="guide2049"
       inkscape:locked="false" />
    <sodipodi:guide
       position="0.46555211,137.91981"
       orientation="0,1"
       id="guide2051"
       inkscape:locked="false" />
  </sodipodi:namedview>
  <metadata
     id="metadata9487">
    <rdf:RDF>
      <cc:Work
         rdf:about="">
        <dc:format>image/svg+xml</dc:format>
        <dc:type
           rdf:resource="http://purl.org/dc/dcmitype/StillImage" />
        <dc:title />
      </cc:Work>
    </rdf:RDF>
  </metadata>
  <g
     inkscape:label="Ebene 1"
     inkscape:groupmode="layer"
     id="layer1"
     transform="translate(0,-233.50015)">
    <path
       style="fill:#ecc546;fill-opacity:1;stroke:#9d6d00;stroke-width:0.16444181;stroke-linecap:butt;stroke-linejoin:miter;stroke-miterlimit:4;stroke-dasharray:none;stroke-opacity:1"
       d="m 17.577957,267.80128 c -0.42192,0.28546 -1.975601,0.55254 -2.204748,0.74493 -0.237433,0.19857 -0.268105,0.62133 -0.197509,0.82607 0.07444,0.0783 0.463953,0.48872 0.577391,0.55821 0.686199,0.42038 1.671248,0.34649 2.059009,0.49709 l 27.433771,-0.0302 c 0.06511,4.5e-4 0.462556,0.22226 0.8296,0.19523 0.91663,-0.0675 -0.619597,-0.42315 -0.699018,-1.19803 -0.02914,-0.46258 0.246584,-1.12141 0.75493,-1.38466 z"
       id="path871"
       inkscape:connector-curvature="0"
       sodipodi:nodetypes="cccsccsccc" />
    <path
       style="fill:#f2eeee;fill-opacity:1;stroke:#000000;stroke-width:0.16886953;stroke-linecap:butt;stroke-linejoin:miter;stroke-miterlimit:4;stroke-dasharray:none;stroke-opacity:1"
       d="m 13.251481,267.78898 c 0.243843,-0.0111 1.028224,0.009 1.157916,0.006 0.256696,-0.006 0.230329,0.0168 0.367149,0.0961 -0.273045,0.29913 -0.457096,0.53741 -0.644967,0.7826 -0.302974,0.45001 -0.166748,0.79105 0.03983,1.1134 0.227152,0.26304 0.680905,0.54552 0.649732,0.57049 -0.243229,-0.001 -0.95526,0.0225 -1.500066,0.008 -0.311897,0.0105 -0.460595,-0.22186 -0.625085,-0.71697 -0.09701,-0.30388 -0.08353,-0.65832 0.0034,-0.91873 0.118206,-0.26835 0.227542,-0.59449 0.460747,-0.88743 z"
       id="path867-5"
       inkscape:connector-curvature="0"
       sodipodi:nodetypes="csccccccccc" />
    <path
       style="fill:#0cb714;fill-opacity:0.99607843;stroke:none;stroke-width:0.26458332px;stroke-linecap:butt;stroke-linejoin:miter;stroke-opacity:1"
       d="m 37.604977,262.00078 -3.686537,-1.6157 -8.495076,5.86989 -0.540486,1.69661 2.345176,-0.0227 -0.163917,-1.58637 4.157667,0.2665 z"
       id="path1262"
       inkscape:connector-curvature="0"
       sodipodi:nodetypes="cccccccc" />
    <path
       style="fill:none;stroke:#ff3900;stroke-width:0.4;stroke-linecap:butt;stroke-linejoin:miter;stroke-miterlimit:4;stroke-dasharray:none;stroke-opacity:1"
       d="m 25.264405,265.91315 c 0.575912,0.95026 -0.235876,1.87633 -1.071978,2.01225 l 3.121741,10e-4 c -0.374343,-0.57591 -0.20504,-1.18323 0.01286,-1.56286 -0.825155,-0.15415 -2.062623,-0.45039 -2.062623,-0.45039 z"
       id="path1180"
       inkscape:connector-curvature="0"
       sodipodi:nodetypes="ccccc" />
    <path
       style="fill:none;stroke:#030303;stroke-width:0.46576792;stroke-linecap:butt;stroke-linejoin:miter;stroke-miterlimit:4;stroke-dasharray:none;stroke-opacity:1"
       d="m 10.834364,267.84242 c -0.56813,-0.006 -1.0503269,0.28655 -1.1892029,0.50052 -0.3156281,0.40207 -0.3566764,0.7488 -0.1420494,1.22867 0.1767518,0.33719 0.6894383,0.85577 1.2260053,0.92711 0.435567,0.0388 35.230172,-0.002 35.230172,-0.002 l 0.02939,-2.50119 c -11.717356,-0.12241 -23.437353,-8.5e-4 -35.154307,-0.15296 z"
       id="path1335"
       inkscape:connector-curvature="0"
       sodipodi:nodetypes="cccccccc" />
    <path
       style="fill:#a83fea;fill-opacity:1;stroke:none;stroke-width:0.26458332px;stroke-linecap:butt;stroke-linejoin:miter;stroke-opacity:1"
       d="m 32.757443,270.15628 1.315418,-0.94292 0.162973,0.62861 0.861425,0.60533 -0.558763,0.5122 -0.547121,0.19789 -0.826503,-0.46563 z"
       id="path1270"
       inkscape:connector-curvature="0" />
    <path
       style="fill:#a11d17;fill-opacity:1;stroke:#000000;stroke-width:0.46000001;stroke-linecap:butt;stroke-linejoin:miter;stroke-miterlimit:4;stroke-dasharray:none;stroke-opacity:1"
       d="m 10.718207,267.79763 c -0.8758245,0.004 -1.1658456,0.42263 -1.3503817,0.78874 -0.3083177,0.68035 0.052863,1.1397 0.295515,1.38892 0.3546177,0.35462 0.6574557,0.49485 1.0777387,0.5257 0.754844,-0.008 1.434827,0.006 2.264095,-2.2e-4 -0.126944,-0.211 -0.301853,-0.24606 -0.465596,-0.74197 -0.04128,-0.16549 -0.265437,-0.63171 0.545894,-1.92887 0,0 -0.752594,-0.0312 -2.017923,-0.0284 z"
       id="path863"
       inkscape:connector-curvature="0"
       sodipodi:nodetypes="ccccccccc" />
    <path
       style="fill:#3e3e3e;fill-opacity:1;stroke:none;stroke-width:0.26458332px;stroke-linecap:butt;stroke-linejoin:miter;stroke-opacity:1"
       d="m 49.519223,268.41148 3.176519,0.41861 0.270867,0.39398 -0.51711,0.2955 -2.856404,0.46786 z"
       id="path1266"
       inkscape:connector-curvature="0" />
    <path
       style="fill:#ffffff;fill-opacity:1;stroke:none;stroke-width:0.26458332px;stroke-linecap:butt;stroke-linejoin:miter;stroke-opacity:1"
       d="m 49.691593,268.50997 -3.342997,-0.52829 -0.881788,0.58857 -0.203344,0.91426 0.43253,0.65924 0.423275,0.3561 3.07287,-0.34535 c -0.953491,0.24907 1.720877,-0.42896 0.688086,-1.62944 z"
       id="path1264"
       inkscape:connector-curvature="0"
       sodipodi:nodetypes="ccccccccc" />
    <path
       style="fill:#fcfb05;fill-opacity:1;stroke:none;stroke-width:0.26458332px;stroke-linecap:butt;stroke-linejoin:miter;stroke-opacity:1"
       d="m 19.009618,266.65681 -2.881924,2.10602 0.415662,2.38313 0.471084,1.49638 1.524094,-1.16385 -0.138554,-1.49638 0.33253,-1.93976 z"
       id="path1333"
       inkscape:connector-curvature="0" />
    <path
       style="fill:#f77123;fill-opacity:1;stroke:none;stroke-width:0.26458332px;stroke-linecap:butt;stroke-linejoin:miter;stroke-opacity:1"
       d="m 32.082512,257.22623 -0.114512,-0.9161 -2.881892,-1.25963 -12.844456,9.23732 -0.06092,4.388 2.626587,-0.86807 0.812449,-2.66109 1.126037,-1.14512 0.648903,-0.0954 -0.534391,1.71799 11.124133,-8.18235 z"
       id="path1240"
       inkscape:connector-curvature="0"
       sodipodi:nodetypes="cccccccccccc" />
    <path
       style="fill:#fcfb05;fill-opacity:1;stroke:none;stroke-width:0.26458332px;stroke-linecap:butt;stroke-linejoin:miter;stroke-opacity:1"
       d="m 16.37525,270.45239 0.553475,2.19482 1.736769,-1.24054 -0.209939,-0.93519 z"
       id="path1244"
       inkscape:connector-curvature="0" />
    <path
       style="fill:#fc0e09;fill-opacity:1;stroke:none;stroke-width:0.26458332px;stroke-linecap:butt;stroke-linejoin:miter;stroke-opacity:1"
       d="m 42.045077,270.47148 1.908535,-0.0382 -0.286279,0.61073 -0.877927,0.68166 -1.938539,0.19268 -1.611341,-0.33995 -0.45805,-1.14512 0.553477,-1.20238 0.419878,1.10695 1.012474,0.19911 0.805236,-0.0586 z"
       id="path1260"
       inkscape:connector-curvature="0"
       sodipodi:nodetypes="cccccccccccc" />
    <path
       style="fill:#a83fea;fill-opacity:1;stroke:none;stroke-width:0.26458332px;stroke-linecap:butt;stroke-linejoin:miter;stroke-opacity:1"
       d="m 26.83858,274.22302 0.281735,0.71444 -0.572561,0.89701 -2.014266,-0.22176 1.250767,-0.87141 0.02707,-0.55841 z"
       id="path1256"
       inkscape:connector-curvature="0"
       sodipodi:nodetypes="ccccccc" />
    <path
       style="fill:#a83fea;fill-opacity:1;stroke:none;stroke-width:0.26458332px;stroke-linecap:butt;stroke-linejoin:miter;stroke-opacity:1"
       d="m 22.692508,276.99868 2.232989,1.18329 2.271158,0.0382 -2.003963,1.45049 -2.576525,-0.55347 -1.393233,-0.99244 1.393233,-0.97336 z"
       id="path1250"
       inkscape:connector-curvature="0" />
    <path
       style="fill:#a83fea;fill-opacity:1;stroke:none;stroke-width:0.26458332px;stroke-linecap:butt;stroke-linejoin:miter;stroke-opacity:1"
       d="m 30.555681,275.77721 -0.343535,-2.15664 -1.212175,-1.12654 -1.421606,1.01202 1.374145,1.1833 -0.01096,1.54828 -0.561605,1.14276 z"
       id="path1252"
       inkscape:connector-curvature="0"
       sodipodi:nodetypes="cccccccc" />
    <path
       style="fill:#3572eb;fill-opacity:1;stroke:none;stroke-width:0.26458332px;stroke-linecap:butt;stroke-linejoin:miter;stroke-opacity:1"
       d="m 29.20062,272.36093 -3.05366,-0.83975 -3.034574,1.37414 -0.305366,1.50775 1.870367,1.20238 1.240549,-0.9161 -1.03061,-0.45805 -0.209939,-0.83976 3.130001,-0.0191 z"
       id="path1254"
       inkscape:connector-curvature="0" />
    <path
       style="fill:#3572eb;fill-opacity:1;stroke:none;stroke-width:0.26458332px;stroke-linecap:butt;stroke-linejoin:miter;stroke-opacity:1"
       d="m 20.324912,274.45881 2.649882,2.60884 -1.622812,1.28199 -2.629231,-2.72511 z"
       id="path1248"
       inkscape:connector-curvature="0"
       sodipodi:nodetypes="ccccc" />
    <path
       style="fill:#0cb714;fill-opacity:1;stroke:none;stroke-width:0.26458332px;stroke-linecap:butt;stroke-linejoin:miter;stroke-opacity:1"
       d="m 20.455879,274.64754 -1.771299,-3.25996 -1.660428,1.20238 1.809016,3.2963 z"
       id="path1246"
       inkscape:connector-curvature="0"
       sodipodi:nodetypes="ccccc" />
    <path
       style="fill:#fc0e09;fill-opacity:1;stroke:none;stroke-width:0.26458332px;stroke-linecap:butt;stroke-linejoin:miter;stroke-opacity:1"
       d="m 29.047937,255.12684 -12.710858,9.16098 0.877927,-3.22543 2.862806,-3.95067 4.12244,-2.15665 z"
       id="path1238"
       inkscape:connector-curvature="0" />
    <path
       style="fill:#0556f5;fill-opacity:1;stroke:none;stroke-width:0.1;stroke-linecap:butt;stroke-linejoin:miter;stroke-miterlimit:4;stroke-dasharray:none;stroke-opacity:1"
       d="m 45.576962,260.50042 -4.004822,-2.11264 -1.47143,2.63843 -2.131036,0.96404 -1.031693,-0.16913 -5.591832,4.67942 1.252234,1.83715 0.145875,0.62705 0.04033,1.20707 1.385913,-0.99968 0.403681,-0.87127 1.701663,-0.43653 -0.92295,-0.62691 -1.629969,0.55078 -0.658021,-0.43653 -0.236781,-0.81182 0.372083,-0.33826 3.475979,-0.44087 0.447241,1.05846 1.71094,-1.40101 z"
       id="path1184"
       inkscape:connector-curvature="0"
       sodipodi:nodetypes="ccccccccccccccccccccc" />
    <path
       style="fill:#a83fea;fill-opacity:1;stroke:none;stroke-width:0.1;stroke-linecap:butt;stroke-linejoin:miter;stroke-miterlimit:4;stroke-dasharray:none;stroke-opacity:1"
       d="m 45.542001,260.51456 -6.797502,4.92563 c -0.527522,0.4167 -1.105884,0.91427 -1.639219,1.35613 l 1.250463,1.03388 0.287957,0.21597 -0.273558,0.56152 -0.01439,0.46073 0.273558,0.0864 0.302356,-0.27356 0.791879,-0.6191 0.475126,-0.20157 2.318046,0.0144 1.396587,0.0432 0.0288,-0.20156 -0.503923,-0.43194 -1.195017,-0.38874 -1.065438,-0.11518 -1.166222,0.31675 -0.287954,-0.0576 -0.935858,-1.38219 -0.172773,-0.30235 0.12958,-0.11519 0.647901,-0.0144 1.425382,0.17277 1.612553,0.0432 0.979051,-0.11519 1.353394,-0.44633 1.454177,-0.82067 0.806278,-0.59031 0.417536,-0.76308 -0.158377,-0.6911 -0.475128,-0.6479 -0.647901,-0.57591 -0.777481,-0.60471 z"
       id="path1013"
       inkscape:connector-curvature="0"
       sodipodi:nodetypes="ccccccccccccccccccccccccccccccccccc" />
    <path
       style="fill:#fc0e09;fill-opacity:1;stroke:#fc0e09;stroke-width:0.24766299px;stroke-linecap:butt;stroke-linejoin:miter;stroke-opacity:1"
       d="m 42.543032,267.12592 1.213871,0.39754 -0.366088,0.49692 -2.225344,-0.0586 z"
       id="path1258"
       inkscape:connector-curvature="0"
       sodipodi:nodetypes="ccccc" />
    <path
       style="fill:#fc0e09;fill-opacity:1;stroke:none;stroke-width:0.065;stroke-linecap:butt;stroke-linejoin:miter;stroke-miterlimit:4;stroke-dasharray:none;stroke-opacity:1"
       d="m 25.019253,279.73239 5.592165,-3.99223 -0.506484,2.21124 -2.100056,1.49474 z"
       id="path1236"
       inkscape:connector-curvature="0"
       sodipodi:nodetypes="ccccc" />
    <path
       style="opacity:1;fill:#ffffff;fill-opacity:1;stroke:none;stroke-width:0.1;stroke-linecap:butt;stroke-linejoin:miter;stroke-miterlimit:4;stroke-dasharray:none;stroke-opacity:1"
       d="m 35.524404,293.21046 c 0.0067,0.21001 0.300493,0.27682 0.522436,0.28298 0.224764,-0.0122 0.574847,-0.11566 0.557239,-0.31287 l -0.01262,-16.26634 c -0.0071,-0.35642 0.298519,-0.53529 0.659448,-0.5465 0.497422,-0.002 0.764561,0.26703 0.757854,0.56707 l -0.120798,14.89631 c -0.0094,0.18928 0.165912,0.46309 0.54997,0.49335 0.394497,0.0311 0.579091,-0.28501 0.586693,-0.48583 l 0.0019,-15.14889 c 0.04146,-0.71334 -0.905412,-1.31408 -1.792126,-1.31 -0.851638,0.004 -1.680887,0.55753 -1.690836,1.13526 z"
       id="path11582-4"
       inkscape:connector-curvature="0"
       sodipodi:nodetypes="cccccccsccscc" />
    <path
       style="opacity:1;fill:#ffffff;fill-opacity:1;stroke:none;stroke-width:0.26781505px;stroke-linecap:butt;stroke-linejoin:miter;stroke-opacity:1"
       d="m 39.872805,283.36001 -0.0021,7.87085 c -5.29e-4,0.46132 0.832927,0.97784 1.791177,0.94892 0.845264,0.0237 1.763926,-0.51238 1.764209,-0.94892 l 0.0031,-7.83917 c -0.01183,-0.47816 -0.781174,-1.05041 -1.808647,-1.04523 -0.971272,0 -1.748586,0.48709 -1.747824,1.01355 z m 1.159436,0.48348 c -0.01037,-0.28722 0.248071,-0.45443 0.605888,-0.45426 0.355801,-0.007 0.615495,0.16944 0.62012,0.46319 l 0.0051,6.94562 c 0.01315,0.28494 -0.223954,0.43282 -0.599027,0.43282 -0.337188,-0.007 -0.614074,-0.22171 -0.620057,-0.41175 z"
       id="path11584-9"
       inkscape:connector-curvature="0"
       sodipodi:nodetypes="ccccccccccccccc" />
    <path
       style="fill:#ffffff;fill-opacity:1;stroke:none;stroke-width:0.26458332px;stroke-linecap:butt;stroke-linejoin:miter;stroke-opacity:1"
       d="m 44.537436,275.66406 c -0.01556,-0.17624 0.162983,-0.28233 0.53023,-0.29942 0.375399,0.003 0.570153,0.14396 0.575336,0.33057 l 0.0078,5.09957 c -0.004,0.1782 0.09884,0.36013 0.298399,0.3771 l 0.93149,0.10772 c 0.157895,0.0213 0.332377,0.14471 0.320468,0.42546 0.01191,0.29876 -0.140538,0.41936 -0.292801,0.43573 l -0.951116,0.084 c -0.147209,0.0196 -0.288909,0.15569 -0.281395,0.34762 l 0.02135,10.60896 c 2.64e-4,0.20962 -0.223674,0.28242 -0.581541,0.28242 -0.322138,0 -0.545232,-0.0945 -0.550418,-0.27362 l -0.04119,-10.72406 c -0.169985,-0.37571 -0.468588,-0.38528 -0.50486,-0.78426 0,-0.43526 0.501555,-0.59368 0.501555,-0.88385 z"
       id="path11589-9"
       inkscape:connector-curvature="0"
       sodipodi:nodetypes="ccccccccccccccccc" />
    <path
       style="fill:#ffffff;fill-opacity:1;stroke:none;stroke-width:0.1;stroke-linecap:butt;stroke-linejoin:miter;stroke-miterlimit:4;stroke-dasharray:none;stroke-opacity:1"
       d="m 52.313619,283.36087 v 12.97605 c 0.01177,0.26213 0.288814,0.35217 0.54637,0.3536 0.279683,0.007 0.543907,-0.0923 0.543907,-0.31626 l 0.03215,-3.69879 c 0,-0.18143 0.123145,-0.29894 0.344144,-0.32584 1.086403,-10e-4 2.024536,-0.30979 2.063877,-1.26297 l 0.0035,-7.69219 c 0.0084,-0.6882 -0.946264,-1.06411 -1.829123,-1.0591 -0.795189,0.0285 -1.704742,0.26137 -1.704805,1.02551 z m 1.075896,0.46852 c 0.0067,-0.29622 0.266735,-0.4659 0.649563,-0.47771 0.357317,0 0.706705,0.18262 0.701522,0.46759 l 0.0089,6.98968 c 0.0045,0.24468 -0.355791,0.35886 -0.642583,0.37397 -0.357209,0.008 -0.682631,-0.11171 -0.684729,-0.36381 z"
       id="path11596-9"
       inkscape:connector-curvature="0"
       sodipodi:nodetypes="cccccccccccccccccc" />
    <path
       style="fill:#ffffff;fill-opacity:1;stroke:none;stroke-width:0.1;stroke-linecap:butt;stroke-linejoin:miter;stroke-miterlimit:4;stroke-dasharray:none;stroke-opacity:1"
       d="m 59.020756,292.29454 c 0.859155,0.0132 1.753619,-0.5791 1.734564,-1.04063 l -0.0326,-8.09584 c -0.003,-0.46205 -1.086848,-0.79376 -1.878619,-0.81291 -0.954079,-0.0231 -1.758791,0.41271 -1.735439,0.88103 l -0.01974,1.32856 c -0.0245,0.33741 0.316757,0.4115 0.636945,0.42287 0.317802,-0.011 0.588925,-0.1174 0.586055,-0.38481 -0.003,-0.2786 -0.0011,-0.38519 0.0049,-0.77396 -0.02267,-0.20987 0.09311,-0.39741 0.552024,-0.39453 0.436991,-7.9e-4 0.666771,0.14508 0.670014,0.3936 l -0.0032,1.48169 c 0.0081,0.39321 -0.459153,0.40386 -0.459153,0.40386 -0.620694,-0.006 -1.945833,0.21089 -1.97481,1.00717 l 0.008,4.5371 c -0.02119,0.60817 1.128082,1.03953 1.911088,1.04682 z m 0.518094,-1.48929 c 0.0118,0.23808 -0.275312,0.35295 -0.632544,0.34121 -0.380609,-0.0119 -0.615194,-0.17226 -0.603327,-0.3748 l -0.0412,-3.57463 c 0.0067,-0.20402 0.258831,-0.42063 0.614053,-0.431 0.395147,-0.0155 0.648083,0.26329 0.648083,0.45382 z"
       id="path11591-1-7"
       inkscape:connector-curvature="0"
       sodipodi:nodetypes="cccscccscccccccccccccccc" />
    <path
       style="fill:#ffffff;fill-opacity:1;stroke:none;stroke-width:0.1;stroke-linecap:butt;stroke-linejoin:miter;stroke-miterlimit:4;stroke-dasharray:none;stroke-opacity:1"
       d="m 66.914243,284.21425 c 0.01696,0.18904 -0.02061,0.2876 -0.199268,0.27569 l -0.427078,-0.002 c -0.155347,0 -0.297828,0.23903 -0.305077,0.51503 0.0078,0.21695 0.179342,0.54312 0.319145,0.54312 l 0.416068,5e-5 c 0.13435,0 0.203859,0.10532 0.211998,0.27484 l -0.01392,1.87171 c 0.0047,0.20402 0.245575,0.35488 0.559397,0.35488 0.307089,5.3e-4 0.551196,-0.15711 0.551196,-0.34144 l 0.01577,-1.89806 c -0.01865,-0.12752 0.07291,-0.25234 0.203438,-0.25234 l 0.605919,-0.01 c 0.197279,0 0.281072,-0.32018 0.281072,-0.5584 -0.01191,-0.2382 -0.123589,-0.49049 -0.311546,-0.4998 h -0.542732 c -0.16831,-0.005 -0.242274,-0.11496 -0.254183,-0.31748 l 0.01191,-1.37497 c -0.01606,-0.27342 -0.189671,-0.44393 -0.559408,-0.44186 -0.370827,-0.009 -0.559583,0.1812 -0.566309,0.41256 -0.0049,0.45784 0.0036,1.448 0.0036,1.448 z"
       id="path11637-7-0-0"
       inkscape:connector-curvature="0"
       sodipodi:nodetypes="cccccccccccccccccccccc" />
    <path
       style="fill:#ffffff;fill-opacity:1;stroke:none;stroke-width:0.1;stroke-linecap:butt;stroke-linejoin:miter;stroke-miterlimit:4;stroke-dasharray:none;stroke-opacity:1"
       d="m 49.1737,282.33783 c -0.812506,0.002 -1.7277,0.4547 -1.734558,1.04063 l 0.01188,8.05956 c 0.003,0.46205 1.055748,0.84559 1.899354,0.84919 0.954349,0.004 1.763974,-0.45418 1.761357,-0.84475 l -0.0062,-1.36484 c 0.0089,-0.3374 -0.347861,-0.4115 -0.63695,-0.42287 -0.260781,0.011 -0.58892,0.1174 -0.586052,0.38481 0.003,0.2786 0.0011,0.38519 -0.005,0.77396 0.0227,0.20987 -0.0931,0.39741 -0.552032,0.39453 -0.436989,8e-4 -0.666769,-0.14508 -0.67001,-0.3936 l 0.003,-1.48169 c 0.0593,-0.52279 0.64576,-0.51271 0.64576,-0.51271 0.822849,0.0214 1.81106,-0.17979 1.80893,-0.98644 l -0.008,-4.4438 c 5.29e-4,-0.57188 -1.148813,-1.04471 -1.931813,-1.052 z m -0.518088,1.48929 c -0.0118,-0.23808 0.275309,-0.35295 0.632539,-0.34121 0.380611,0.0119 0.589272,0.13601 0.598146,0.33337 l 0.04638,3.76638 c -0.01191,0.21439 -0.274378,0.28586 -0.655518,0.28586 -0.369232,0 -0.611802,-0.0715 -0.611802,-0.26203 z"
       id="path11591-1-3-7"
       inkscape:connector-curvature="0"
       sodipodi:nodetypes="cccscccscccccccccccccccc" />
    <path
       style="fill:#ffffff;fill-opacity:1;stroke:none;stroke-width:0.1;stroke-linecap:butt;stroke-linejoin:miter;stroke-miterlimit:4;stroke-dasharray:none;stroke-opacity:1"
       d="m 65.200354,291.30365 0.03464,-15.46281 c 0,-0.29746 -0.305271,-0.45468 -0.60303,-0.45468 -0.288438,-0.008 -0.599384,0.1456 -0.599384,0.41952 0,0 -0.02114,5.90684 0.0027,6.19269 0,0 0.04393,0.26888 -0.30145,0.31652 -1.127882,-0.0715 -2.024542,0.30979 -2.06388,1.26297 l 0.0381,7.69219 c -0.008,0.6882 0.904619,1.0641 1.78748,1.05911 0.79519,-0.0285 1.70475,-0.26138 1.704809,-1.02552 z m -1.08626,-0.31302 c -0.01191,0.28586 -0.285261,0.2996 -0.64217,0.3166 -0.35732,0 -0.622332,-0.24299 -0.622332,-0.3621 l -0.01961,-7.12585 c -0.0356,-0.24986 0.30787,-0.34959 0.59372,-0.33768 0.27395,0 0.70227,0.0797 0.67845,0.42508 z"
       id="path11596-8-0"
       inkscape:connector-curvature="0"
       sodipodi:nodetypes="cccccccccccccccccc" />
    <path
       style="fill:#ffffff;fill-opacity:1;stroke:none;stroke-width:0.1;stroke-linecap:butt;stroke-linejoin:miter;stroke-miterlimit:4;stroke-dasharray:none;stroke-opacity:1"
       d="m 70.7773,284.20563 c 0.01696,0.18904 -0.02061,0.2876 -0.199268,0.27569 l -0.427078,-0.002 c -0.15535,0 -0.297828,0.23904 -0.305077,0.51503 0.0078,0.21696 0.179339,0.54313 0.319143,0.54313 l 0.416067,5e-5 c 0.134351,0 0.203859,0.10532 0.212,0.27484 l -0.01392,1.8717 c 0.0047,0.20403 0.245576,0.35488 0.559398,0.35488 0.307086,5.3e-4 0.551196,-0.1571 0.551196,-0.34143 l 0.01577,-1.89806 c -0.01865,-0.12753 0.07291,-0.25235 0.203436,-0.25235 l 0.605922,-0.01 c 0.197279,0 0.281072,-0.32019 0.281072,-0.5584 -0.01191,-0.2382 -0.123592,-0.49049 -0.311547,-0.49981 h -0.542729 c -0.16831,-0.005 -0.242274,-0.11495 -0.254186,-0.31747 l 0.01191,-1.37497 c -0.01606,-0.27343 -0.189672,-0.44393 -0.559409,-0.44186 -0.370829,-0.009 -0.559586,0.18119 -0.566309,0.41255 -0.0049,0.45784 0.0036,1.44801 0.0036,1.44801 z"
       id="path11637-7-0-8-4"
       inkscape:connector-curvature="0"
       sodipodi:nodetypes="cccccccccccccccccccccc" />
    <path
       style="fill:#ff0003;fill-opacity:1;stroke:none;stroke-width:0;stroke-linecap:butt;stroke-linejoin:miter;stroke-miterlimit:4;stroke-dasharray:none;stroke-opacity:1"
       d="m 64.565436,258.68029 c 0,0 -0.290878,-0.56234 -0.620535,-0.87261 -0.426614,-0.50418 -1.939163,-1.10534 -3.005704,0.36843 -1.047147,1.64829 0.116353,3.18024 0.717495,3.66503 1.861595,1.39618 2.772997,2.59845 2.772997,2.59845 0,0 1.1635,-1.20227 2.908744,-2.71482 0.550958,-0.46002 1.977946,-1.93914 1.008365,-3.41291 -1.027756,-1.51254 -2.346386,-1.06655 -2.928136,-0.56237 -0.290875,0.23271 -0.853226,0.9308 -0.853226,0.9308 z"
       id="path3447"
       inkscape:connector-curvature="0"
       sodipodi:nodetypes="ccccccccc" />
    <path
       style="fill:#ffffff;fill-opacity:1;stroke:#ff3900;stroke-width:0.465;stroke-linecap:butt;stroke-linejoin:miter;stroke-miterlimit:4;stroke-dasharray:none;stroke-opacity:1"
       d="m 36.392672,250.85548 c -3.132459,0.0591 -4.279389,3.5814 -4.358846,4.16676 -0.472824,2.83694 1.301412,4.74593 2.120632,5.40377 1.725224,1.50244 3.90725,2.08754 5.768994,0.59519 0.905482,-0.73108 1.391433,-1.96404 1.539191,-2.76193 0.07388,-0.79789 -0.01139,-3.42422 -0.01479,-3.73826 -0.295515,-0.59103 -1.612447,-1.81856 -2.558095,-2.74943 -0.354618,-0.38417 -1.22637,-0.9752 -2.497084,-0.9161 z"
       id="path853"
       inkscape:connector-curvature="0"
       sodipodi:nodetypes="ccccccccc" />
    <path
       style="fill:#000000;fill-opacity:1;stroke:#000000;stroke-width:0.26458332px;stroke-linecap:butt;stroke-linejoin:miter;stroke-opacity:1"
       d="m 35.683437,256.30147 c -0.58597,0.019 -1.085896,0.36494 -1.139538,0.7153 -0.09392,0.46371 0.306435,1.02053 1.154513,1.01061 0.488,-0.0344 1.039361,-0.23561 1.1191,-0.74871 0.07488,-0.46896 -0.330124,-0.98225 -1.134075,-0.9772 z"
       id="path855"
       inkscape:connector-curvature="0"
       sodipodi:nodetypes="ccccc" />
    <path
       style="fill:#ffffff;fill-opacity:1;stroke:#ff3900;stroke-width:0.465;stroke-linecap:butt;stroke-linejoin:miter;stroke-miterlimit:4;stroke-dasharray:none;stroke-opacity:1"
       d="m 41.61759,254.35545 c 1.422976,-0.95696 2.458471,-1.52002 4.438421,-1.77121 0.94044,-0.0858 1.573754,-0.044 2.1525,0.15354 2.119868,0.72372 2.366275,2.43405 2.309779,3.27444 -0.370196,3.77367 -4.297634,5.02745 -4.297634,5.02745 -2.139318,-1.70449 -4.762354,-2.69937 -4.762354,-2.69937 l 0.01698,-0.10795 c -0.0087,-0.57767 0.0072,-2.11911 -0.0073,-3.03812 -0.0068,-0.43455 -0.03496,-0.77943 0.110193,-0.80595 z"
       id="path857"
       inkscape:connector-curvature="0"
       sodipodi:nodetypes="ccsccccscc" />
    <path
       style="opacity:1;fill:none;stroke:#030303;stroke-width:0.45811397;stroke-linecap:butt;stroke-linejoin:miter;stroke-miterlimit:4;stroke-dasharray:none;stroke-opacity:1"
       d="m 52.169726,268.77024 c 0.223079,0.0238 0.406417,0.0401 0.607078,0.0903 0.160111,0.0399 0.289008,0.13475 0.300942,0.23416 0.0069,0.0854 -0.115294,0.17573 -0.309183,0.2423 -0.139482,0.0479 -0.448125,0.11969 -0.55758,0.14539 -0.427965,0.10052 -5.298271,0.96921 -5.836022,1.01766 -0.395011,0.009 -0.692727,-0.005 -1.043961,-0.80353 -0.0697,-0.3295 -0.139328,-0.69602 0.841121,-1.70378 0.600236,-0.003 4.023266,0.52628 5.997605,0.77752 z"
       id="path859"
       inkscape:connector-curvature="0"
       sodipodi:nodetypes="cscsccccc" />
    <path
       style="fill:#000000;fill-opacity:1;stroke:#000000;stroke-width:0.26499999;stroke-linecap:butt;stroke-linejoin:miter;stroke-miterlimit:4;stroke-dasharray:none;stroke-opacity:1"
       d="m 47.572688,255.59737 c -0.574627,0.0583 -0.796999,0.43163 -0.845968,0.66532 -0.07531,0.44537 0.298007,0.79056 0.746795,0.82899 0.637833,0.0133 0.995063,-0.42471 0.979878,-0.71606 0.03037,-0.39332 -0.313527,-0.82318 -0.880705,-0.77825 z"
       id="path877"
       inkscape:connector-curvature="0"
       sodipodi:nodetypes="ccccc" />
    <path
       style="fill:none;stroke:#000000;stroke-width:0.46000001;stroke-linecap:butt;stroke-linejoin:miter;stroke-miterlimit:4;stroke-dasharray:none;stroke-opacity:1"
       d="m 33.994317,269.37556 11.295437,-0.007 z"
       id="path1274"
       inkscape:connector-curvature="0"
       sodipodi:nodetypes="ccc" />
    <path
       style="fill:#fcfb05;fill-opacity:1;stroke:none;stroke-width:0.26458332px;stroke-linecap:butt;stroke-linejoin:miter;stroke-opacity:1"
       d="m 34.010134,260.33715 -2.050762,-3.09098 -10.984548,7.95775 0.05726,1.08787 0.648902,1.12603 -0.973354,1.10695 0.05726,1.35506 1.011524,1.12604 1.603172,-0.11451 0.477134,-0.55348 -1.183293,0.0382 -0.839757,-0.89701 0.324452,-1.24055 1.335976,-0.74433 -1.068781,-1.37414 1.27872,-1.67952 -0.209939,0.89702 2.404757,0.85884 z"
       id="path1242"
       inkscape:connector-curvature="0"
       sodipodi:nodetypes="ccccccccccccccccccc" />
    <path
       style="fill:#0cb714;fill-opacity:0.99607843;stroke:none;stroke-width:0;stroke-linecap:butt;stroke-linejoin:miter;stroke-miterlimit:4;stroke-dasharray:none;stroke-opacity:1"
       d="m 21.850969,269.41178 -1.000994,0.63477 0.341803,0.52491 1.037616,0.53712 0.988786,-0.0977 0.561534,-0.37843 -0.08545,-0.29297 -1.06203,-0.13428 -0.695813,-0.6592 z"
       id="path1548"
       inkscape:connector-curvature="0"
       sodipodi:nodetypes="cccccccccc" />
    <path
       style="fill:none;stroke:#000000;stroke-width:0.463;stroke-linecap:butt;stroke-linejoin:miter;stroke-miterlimit:4;stroke-dasharray:none;stroke-opacity:1"
       d="m 21.809596,269.38181 11.05959,-0.007 z"
       id="path1274-4"
       inkscape:connector-curvature="0"
       sodipodi:nodetypes="ccc" />
    <path
       style="opacity:1;fill:none;stroke:#ff3900;stroke-width:0.46000001;stroke-linecap:butt;stroke-linejoin:miter;stroke-miterlimit:4;stroke-dasharray:none;stroke-opacity:1"
       d="m 31.944771,256.37656 c -0.928868,-0.75843 -3.250667,-1.70051 -6.08741,-1.51219 -3.698997,0.30137 -5.524728,1.90081 -7.259551,4.11758 -2.277708,2.90483 -2.394472,5.58809 -2.477467,8.37805 -0.102829,3.56581 1.128217,5.93113 2.364521,7.87993 1.621075,2.39487 2.848513,3.18083 4.269791,3.83723 2.090892,0.86145 4.088068,0.81266 5.73299,0.0591 0.803591,-0.40159 1.525249,-1.1338 1.861746,-1.97995 0.341604,-0.899 0.341662,-1.95969 0.01476,-2.99948 -0.363934,-1.19543 -1.504287,-2.38274 -3.418057,-2.51148 -1.728763,-0.0739 -3.158553,0.79889 -3.60428,1.18573 -0.549242,0.4692 -0.661453,1.1863 -0.21212,1.70931 0.315951,0.40947 1.392777,1.04363 2.136824,1.22699 0.600346,0.16273 1.196837,0.0739 1.551455,-0.1773 0.329788,-0.22691 0.54522,-0.54684 0.267589,-1.00312 -0.158888,-0.23586 -0.480117,-0.38811 -0.754827,-0.43695 -0.241303,-0.0429 -0.492308,-0.0313 -0.66041,0.0125 -0.536398,0.18594 0.772142,0.51109 0.148154,0.67868 -0.271825,0.0346 -0.908415,-0.44283 -1.070948,-0.73834 -0.03607,-0.0468 -0.140133,-0.37215 0.08643,-0.59674 0.264503,-0.28884 1.06779,-0.35457 1.640856,-0.30975 0.745353,0.0411 1.491404,0.37918 2.008556,0.92588 0.591019,0.64362 0.586429,1.63818 0.466535,2.20523 -0.153028,0.83553 -0.855848,1.47248 -1.602835,1.73352 -1.122957,0.36939 -2.208617,0.20847 -2.952327,-0.0329 -1.723889,-0.62886 -2.807392,-2.08339 -3.294992,-2.63009 -1.448023,-1.61056 -2.142485,-2.99948 -2.408448,-3.93035 -0.522111,-1.40419 -0.05384,-3.43243 0.359878,-4.71792 0.472824,-1.41847 0.851533,-1.93056 1.442563,-2.47726 0.531927,-0.51715 0.9754,-0.63596 1.07883,-0.53253 0.144173,0.13058 -0.521546,0.62359 -0.638824,1.41041 -0.06104,0.45288 -0.02061,0.83924 0.115702,1.14699 0.181802,0.41043 0.51455,0.79711 0.612575,0.95963 0.07857,0.14751 -0.167722,0.26007 -0.507233,0.67839 -0.237722,0.2929 -0.556533,0.61357 -0.591232,1.24711 -0.01781,0.67106 0.429137,1.31899 1.107379,1.664 0.650817,0.32408 1.380591,0.17521 1.697239,0.0599 0,0 0.432851,-0.15302 0.418075,-0.3451 -0.0019,-0.0843 -0.401265,0.004 -1.04054,-0.23166 -0.70538,-0.32506 -0.907181,-0.7825 -0.892405,-1.2701 0.01478,-0.38417 0.398945,-0.70924 0.724011,-0.98998 0.340247,-0.27076 0.591031,-0.36939 0.753564,-0.47282 0.222438,-0.14836 0.118604,-0.26962 -0.07408,-0.48174 -0.118206,-0.13298 -0.832501,-0.69101 -0.801947,-1.00596 -0.0247,-0.36999 1.211456,-1.59187 1.299264,-1.50712 0.121066,0.12376 -0.743333,0.35914 -0.05303,0.8152 0.231173,0.11937 0.390071,0.14948 0.856184,0.28832 1.266546,0.36738 2.732822,0.69391 4.155891,0.81247 1.077395,0.0499 1.992039,0.0107 2.346417,-0.0171 0.201139,-0.0157 0.1242,-0.48826 0.131884,-0.72038 0.01479,-0.44687 0.01053,-0.58832 0.07226,-1.1205 0.03726,-0.32121 0.028,-0.37519 0.105952,-0.4185 0.205572,-0.11421 -0.04954,0.35611 -0.117054,0.78085 -0.0984,0.61903 -0.06713,1.01593 -0.02622,1.39722 0.02855,0.26233 0.195939,0.46677 0.349156,0.72788 0.215717,0.30002 0.315725,0.42926 0.607061,0.71289 0.287583,0.27997 0.605273,0.5021 0.65008,0.67843 0.08865,0.22164 -0.256845,0.78617 -0.168191,1.33287 0.04393,0.44427 0.641217,0.93027 0.877629,1.07803 0.221636,0.14776 0.628896,0.22715 0.880084,0.0794 0.187628,-0.11315 0.600748,-0.36473 0.600748,-0.54204 -0.01478,-0.13298 -0.610264,-0.34877 -0.758021,-0.58518 -0.118206,-0.16253 -0.236013,-0.43395 -0.221237,-0.64081 0.04433,-0.56148 0.320008,-0.72321 0.61978,-0.95011 0.357023,-0.21818 0.666562,-0.2864 1.526762,-0.40035 0.09405,-0.014 -0.137672,-0.29171 -0.37951,-0.44773 -0.386611,-0.25717 -0.667675,-0.28572 -1.06662,-0.24139 -0.479174,0.0778 -0.833795,0.55268 -0.952001,0.56746 -0.192085,-0.0148 -0.580401,-0.29588 -0.768337,-0.4876 -0.192085,-0.23641 -0.177203,-0.66361 -0.145917,-1.02295 0.01338,-0.4082 0.422162,-2.0315 0.622059,-1.97872 0.122044,0.0322 -0.08574,0.25983 -0.199445,0.53027 -0.175381,0.41724 -0.535561,1.34886 -0.20996,1.41645 0.509259,0.10571 1.204634,-0.12672 1.839334,-0.21576 0.456196,-0.0893 0.922607,-0.18277 1.380856,-0.29792 0.362563,-0.0791 0.757005,-0.17142 0.974338,-0.2121 0.396901,-0.0743 0.868574,-0.11594 1.22268,-0.11365 0.438001,0.003 -0.961761,0.0809 -1.440495,0.17079 -0.737007,0.13839 0.05144,1.20764 0.359721,1.45763 0.147757,0.17731 0.820783,0.58468 1.113123,0.94565 0.104167,0.15411 -0.252952,0.32921 -0.277254,0.96323 0,0.1245 -0.0084,0.24838 0.139333,0.29271 0.20686,-0.0295 0.738786,-0.53193 0.975198,-0.75357 0.325613,-0.28484 0.657939,-0.48311 0.995559,-0.48604 0.960424,0.0148 2.796175,-0.0194 3.804323,-0.0137 0.118206,-0.13298 -0.221713,-0.3425 -0.628478,-0.53215 -0.381361,-0.20856 -1.529823,-0.5245 -2.16518,-0.55405 -0.531927,-0.0295 -1.357725,0.26597 -1.54981,0.28075 -0.20686,-0.0295 -1.38407,-1.6332 -1.339743,-1.75141 0.132982,-0.0887 1.994034,0.15727 2.479911,0.1901 0.636893,0.0525 1.62453,0.0591 2.171233,-0.0443 0.756842,-0.10996 1.654886,-0.56148 2.33457,-0.9161 0.886545,-0.4876 1.241163,-0.69446 1.536678,-1.01953 0.20686,-0.25119 0.41372,-0.57625 0.398944,-1.0343 0.01148,-0.47938 -0.650131,-1.10818 -1.063852,-1.44802 -0.853137,-0.84383 -4.302799,-2.74303 -4.777628,-2.70823 -0.20686,0.0591 -0.217378,0.5694 -0.772995,1.53063 -0.502375,0.88694 -1.407833,1.54379 -2.250975,1.79818 -1.709529,0.43355 -3.141949,-0.43466 -3.662914,-0.74233 -0.972154,-0.77549 -1.292335,-1.00894 -2.063745,-2.08009 -0.215932,-0.35389 -0.384487,-0.72162 -0.500216,-1.02573 -0.177407,-0.46617 -0.267014,-0.83381 -0.318057,-1.15519 z"
       id="path873"
       inkscape:connector-curvature="0"
       sodipodi:nodetypes="cccccccccccccccscccccccccccccccscsccccccccccccccsssssccsccccccccccccccsssccsssccccccccccccccccccccccscc" />
    <path
       style="fill:#ecc546;fill-opacity:1;stroke:#060606;stroke-width:0.37577626;stroke-linecap:butt;stroke-linejoin:miter;stroke-miterlimit:4;stroke-dasharray:none;stroke-opacity:1"
       d="m 15.799724,267.82086 c -0.182398,0.007 -0.371219,0.71327 -0.485755,0.94118 -0.12258,0.22788 -0.125382,0.56551 -0.07067,0.75965 0.09377,0.33762 0.204911,1.0362 1.126021,1.04256 0.530079,0.0196 4.650353,0.004 4.650353,0.004 0.19138,-0.0315 -0.02369,-0.0806 -0.292447,-0.63305 -0.14993,-0.35451 -0.205218,-0.89529 0.04813,-1.36795 0.167186,-0.34147 0.337247,-0.5886 0.442276,-0.71908 -1.777946,0.001 -3.305021,-0.0945 -4.994227,-0.0346 z"
       id="path1529"
       inkscape:connector-curvature="0"
       sodipodi:nodetypes="cccccccccc" />
    <path
       style="fill:#f2eeee;fill-opacity:1;stroke:#000000;stroke-width:0.46513724;stroke-linecap:butt;stroke-linejoin:miter;stroke-miterlimit:4;stroke-dasharray:none;stroke-opacity:1"
       d="m 14.547108,267.8824 c 0.424259,-0.0254 1.041291,-0.012 1.166844,-0.0147 0.25773,-0.006 0.05123,0.0743 0.188598,0.14995 -0.274135,0.28461 -0.375581,0.46169 -0.505864,0.71153 -0.25418,0.49434 -0.169811,0.81713 0.03999,1.13381 0.188233,0.34291 0.433827,0.5097 0.604063,0.6212 0,0 -0.939717,0.0336 -1.428681,0.0273 -0.348075,-0.002 -0.503189,-0.44117 -0.656691,-0.85446 -0.0974,-0.28914 -0.0664,-0.64949 0.02086,-0.89726 0.118678,-0.25532 0.21367,-0.5927 0.447806,-0.87143 z"
       id="path867"
       inkscape:connector-curvature="0"
       sodipodi:nodetypes="csccccccccc" />
    <path
       style="fill:#000000;fill-opacity:1;stroke:#000000;stroke-width:0;stroke-linecap:butt;stroke-linejoin:miter;stroke-miterlimit:4;stroke-dasharray:none;stroke-opacity:1"
       d="m 15.218938,269.14029 0.01665,0.47682 5.417017,0.005 -0.04343,-0.48203 z"
       id="path1546"
       inkscape:connector-curvature="0"
       sodipodi:nodetypes="ccccc" />
    <path
       style="fill:none;stroke:#000000;stroke-width:0.44;stroke-linecap:butt;stroke-linejoin:miter;stroke-miterlimit:4;stroke-dasharray:none;stroke-opacity:1"
       d="m 10.814462,267.79855 5.305615,-0.0321 5.225779,0.0192"
       id="path1228"
       inkscape:connector-curvature="0"
       sodipodi:nodetypes="ccc" />
    <path
       style="fill:#000000;fill-opacity:1;stroke:#000000;stroke-width:0;stroke-linecap:butt;stroke-linejoin:miter;stroke-miterlimit:4;stroke-dasharray:none;stroke-opacity:1"
       d="m 15.789197,270.26462 0.01665,0.47682 5.417017,0.005 -0.04343,-0.48203 z"
       id="path1546-4"
       inkscape:connector-curvature="0"
       sodipodi:nodetypes="ccccc" />
    <path
       style="fill:none;stroke:#ff3900;stroke-width:0.45932233;stroke-linecap:butt;stroke-linejoin:miter;stroke-miterlimit:4;stroke-dasharray:none;stroke-opacity:1"
       d="m 21.637551,267.4089 c -1.019895,1.11316 -1.393831,1.8782 -0.646737,2.87468 0.0908,0.12111 0.204233,0.20842 0.328143,0.33951"
       id="path1226"
       inkscape:connector-curvature="0"
       sodipodi:nodetypes="csc" />
    <path
       style="fill:none;stroke:#ff3900;stroke-width:0.46399999;stroke-linecap:butt;stroke-linejoin:miter;stroke-miterlimit:4;stroke-dasharray:none;stroke-opacity:1"
       d="m 39.489817,269.48119 c 0.171111,0.60328 0.07271,0.79991 0.373946,0.94556 0.204148,0.1003 0.526389,0.0596 4.077475,0.0629 0.234482,2.2e-4 0.270407,-0.006 0.222279,0.079 -0.114587,0.18817 -0.243022,0.32779 -0.431615,0.48161 -0.376998,0.30335 -0.587314,0.37337 -0.82685,0.4616 -0.68215,0.2335 -1.216191,0.34706 -2.428316,0.234 -0.41431,-0.039 -0.964196,-0.0641 -1.343982,-0.53301 -0.215318,-0.25636 -0.277655,-0.47795 -0.279136,-0.78289 0.06693,-1.02859 0.606668,-1.08109 0.636199,-0.94891 z"
       id="path881-4"
       inkscape:connector-curvature="0"
       sodipodi:nodetypes="ccscccccccc" />
  </g>
</svg>
