<?xml version="1.0" encoding="UTF-8" standalone="no"?>
<svg
   xmlns:dc="http://purl.org/dc/elements/1.1/"
   xmlns:cc="http://creativecommons.org/ns#"
   xmlns:rdf="http://www.w3.org/1999/02/22-rdf-syntax-ns#"
   xmlns:svg="http://www.w3.org/2000/svg"
   xmlns="http://www.w3.org/2000/svg"
   xmlns:xlink="http://www.w3.org/1999/xlink"
   xmlns:sodipodi="http://sodipodi.sourceforge.net/DTD/sodipodi-0.dtd"
   xmlns:inkscape="http://www.inkscape.org/namespaces/inkscape"
   width="21"
   height="26"
   viewBox="0 0 5.5562535 6.879171"
   version="1.1"
   id="svg8"
   inkscape:version="0.92.3 (2405546, 2018-03-11)"
   sodipodi:docname="Ani_hh.svg">
  <defs
     id="defs2">
    <linearGradient
       inkscape:collect="always"
       id="linearGradient5107">
      <stop
         style="stop-color:#ffd200;stop-opacity:1;"
         offset="0"
         id="stop5103" />
      <stop
         style="stop-color:#ffd200;stop-opacity:0;"
         offset="1"
         id="stop5105" />
    </linearGradient>
    <linearGradient
       inkscape:collect="always"
       id="linearGradient5014">
      <stop
         style="stop-color:#ffffff;stop-opacity:1;"
         offset="0"
         id="stop5010" />
      <stop
         style="stop-color:#ffffff;stop-opacity:0;"
         offset="1"
         id="stop5012" />
    </linearGradient>
    <linearGradient
       inkscape:collect="always"
       xlink:href="#linearGradient5014"
       id="linearGradient5018"
       x1="24.026012"
       y1="275.14868"
       x2="31.367779"
       y2="275.14868"
       gradientUnits="userSpaceOnUse"
       gradientTransform="matrix(0.05891433,0,0,0.05891433,-0.66698251,278.88121)" />
    <linearGradient
       inkscape:collect="always"
       xlink:href="#linearGradient5014"
       id="linearGradient5018-9"
       x1="24.026012"
       y1="275.14868"
       x2="31.367779"
       y2="275.14868"
       gradientUnits="userSpaceOnUse"
       gradientTransform="matrix(0.05891432,0,0,0.05891432,0.28918177,277.69389)" />
    <linearGradient
       inkscape:collect="always"
       xlink:href="#linearGradient5014"
       id="linearGradient5018-8"
       x1="24.026012"
       y1="275.14868"
       x2="31.367779"
       y2="275.14868"
       gradientUnits="userSpaceOnUse"
       gradientTransform="matrix(0.08069778,0,0,0.08069778,0.98112761,270.8482)" />
    <linearGradient
       inkscape:collect="always"
       xlink:href="#linearGradient5014"
       id="linearGradient5018-4"
       x1="24.026012"
       y1="275.14868"
       x2="31.367779"
       y2="275.14868"
       gradientUnits="userSpaceOnUse"
       gradientTransform="matrix(0.05693401,0,0,0.05693401,2.4438379,278.8234)" />
    <linearGradient
       inkscape:collect="always"
       xlink:href="#linearGradient5014"
       id="linearGradient5018-5"
       x1="24.026012"
       y1="275.14868"
       x2="31.367779"
       y2="275.14868"
       gradientUnits="userSpaceOnUse"
       gradientTransform="matrix(0.04703244,0,0,0.04703244,0.75145592,279.45902)" />
    <linearGradient
       inkscape:collect="always"
       xlink:href="#linearGradient5014"
       id="linearGradient5018-2"
       x1="24.026012"
       y1="275.14868"
       x2="31.367779"
       y2="275.14868"
       gradientUnits="userSpaceOnUse"
       gradientTransform="matrix(0.04703244,0,0,0.04703244,1.6120941,282.02209)" />
    <linearGradient
       inkscape:collect="always"
       xlink:href="#linearGradient5107"
       id="linearGradient5109"
       x1="31.650455"
       y1="239.37935"
       x2="41.985989"
       y2="239.37935"
       gradientUnits="userSpaceOnUse"
       gradientTransform="matrix(0.10446154,0,0,0.10446154,-1.1202331,266.02694)" />
    <linearGradient
       inkscape:collect="always"
       xlink:href="#linearGradient5014"
       id="linearGradient5018-2-4"
       x1="24.026012"
       y1="275.14868"
       x2="31.367779"
       y2="275.14868"
       gradientUnits="userSpaceOnUse"
       gradientTransform="matrix(0.03095027,0,0,0.03095027,3.591428,286.87573)" />
  </defs>
  <sodipodi:namedview
     id="base"
     pagecolor="#ffffff"
     bordercolor="#666666"
     borderopacity="1.0"
     inkscape:pageopacity="0.0"
     inkscape:pageshadow="2"
     inkscape:zoom="8.6846352"
     inkscape:cx="16.893635"
     inkscape:cy="4.0777739"
     inkscape:document-units="mm"
     inkscape:current-layer="layer1"
     showgrid="false"
     inkscape:window-width="1920"
     inkscape:window-height="1138"
     inkscape:window-x="-8"
     inkscape:window-y="32"
     inkscape:window-maximized="1"
     showguides="true"
     inkscape:guide-bbox="true"
     guidetolerance="1"
     objecttolerance="4"
     gridtolerance="1"
     inkscape:snap-path-mask="true"
     inkscape:snap-path-clip="false"
     inkscape:showpageshadow="false">
    <sodipodi:guide
       position="335.33488,274.24049"
       orientation="0,1"
       id="guide1141"
       inkscape:locked="false" />
    <sodipodi:guide
       position="339.19217,328.24247"
       orientation="0,1"
       id="guide1143"
       inkscape:locked="false" />
    <sodipodi:guide
       position="330.73103,340.80975"
       orientation="0,1"
       id="guide1145"
       inkscape:locked="false" />
    <sodipodi:guide
       position="726.04046,313.18662"
       orientation="0,1"
       id="guide1147"
       inkscape:locked="false" />
    <sodipodi:guide
       position="691.07606,289.29633"
       orientation="0,1"
       id="guide1149"
       inkscape:locked="false" />
    <sodipodi:guide
       position="365.0733,726.12027"
       orientation="1,0"
       id="guide1161"
       inkscape:locked="false" />
    <sodipodi:guide
       position="365.0733,282.32834"
       orientation="1,0"
       id="guide1163"
       inkscape:locked="false" />
    <sodipodi:guide
       position="385.60402,301.24147"
       orientation="1,0"
       id="guide1165"
       inkscape:locked="false" />
    <sodipodi:guide
       position="399.92601,620.7745"
       orientation="1,0"
       id="guide1167"
       inkscape:locked="false" />
    <sodipodi:guide
       position="388.59029,302.73462"
       orientation="1,0"
       id="guide1169"
       inkscape:locked="false" />
    <sodipodi:guide
       position="767.07223,317.06865"
       orientation="0,1"
       id="guide1171"
       inkscape:locked="false" />
    <sodipodi:guide
       position="421.93714,294.64677"
       orientation="1,0"
       id="guide1173"
       inkscape:locked="false" />
    <sodipodi:guide
       position="436.99299,284.94134"
       orientation="1,0"
       id="guide1175"
       inkscape:locked="false" />
    <sodipodi:guide
       position="447.90059,614.57089"
       orientation="1,0"
       id="guide1177"
       inkscape:locked="false" />
    <sodipodi:guide
       position="474.07269,289.29634"
       orientation="1,0"
       id="guide1179"
       inkscape:locked="false" />
    <sodipodi:guide
       position="486.77654,766.35253"
       orientation="1,0"
       id="guide1181"
       inkscape:locked="false" />
    <sodipodi:guide
       position="503.56226,264.41063"
       orientation="1,0"
       id="guide1183"
       inkscape:locked="false" />
    <sodipodi:guide
       position="510.76383,797.78415"
       orientation="1,0"
       id="guide1185"
       inkscape:locked="false" />
    <sodipodi:guide
       position="719.61867,702.66214"
       orientation="1,0"
       id="guide1187"
       inkscape:locked="false" />
    <sodipodi:guide
       position="576.10851,684.05131"
       orientation="1,0"
       id="guide1189"
       inkscape:locked="false" />
    <sodipodi:guide
       position="528.54751,691.90922"
       orientation="1,0"
       id="guide1191"
       inkscape:locked="false" />
    <sodipodi:guide
       position="651.37897,739.88379"
       orientation="1,0"
       id="guide1193"
       inkscape:locked="false" />
    <sodipodi:guide
       position="590.99717,786.61765"
       orientation="1,0"
       id="guide1195"
       inkscape:locked="false" />
    <sodipodi:guide
       position="603.85164,268.76563"
       orientation="1,0"
       id="guide1197"
       inkscape:locked="false" />
    <sodipodi:guide
       position="617.16549,260.55335"
       orientation="1,0"
       id="guide1199"
       inkscape:locked="false" />
    <sodipodi:guide
       position="639.7989,782.89549"
       orientation="1,0"
       id="guide1201"
       inkscape:locked="false" />
    <sodipodi:guide
       position="620.02735,262.66863"
       orientation="1,0"
       id="guide1203"
       inkscape:locked="false" />
    <sodipodi:guide
       position="638.06949,286.55891"
       orientation="0,1"
       id="guide1205"
       inkscape:locked="false" />
    <sodipodi:guide
       position="646.65506,304.72548"
       orientation="1,0"
       id="guide1207"
       inkscape:locked="false" />
    <sodipodi:guide
       position="685.72561,301.49034"
       orientation="1,0"
       id="guide1209"
       inkscape:locked="false" />
    <sodipodi:guide
       position="659.47119,289.29634"
       orientation="1,0"
       id="guide1211"
       inkscape:locked="false" />
    <sodipodi:guide
       position="673.53162,282.45277"
       orientation="1,0"
       id="guide1213"
       inkscape:locked="false" />
    <sodipodi:guide
       position="700.65704,289.29634"
       orientation="1,0"
       id="guide1215"
       inkscape:locked="false" />
    <sodipodi:guide
       position="715.3396,274.2405"
       orientation="1,0"
       id="guide1217"
       inkscape:locked="false" />
    <sodipodi:guide
       position="766.38425,329.76294"
       orientation="1,0"
       id="guide1219"
       inkscape:locked="false" />
    <sodipodi:guide
       position="754.78345,286.55892"
       orientation="1,0"
       id="guide1221"
       inkscape:locked="false" />
    <sodipodi:guide
       position="752.17045,282.5772"
       orientation="1,0"
       id="guide1223"
       inkscape:locked="false" />
    <sodipodi:guide
       position="503.56226,806.4692"
       orientation="1,0"
       id="guide1233"
       inkscape:locked="false" />
    <sodipodi:guide
       position="552.12122,729.54445"
       orientation="1,0"
       id="guide1235"
       inkscape:locked="false" />
    <sodipodi:guide
       position="356.30799,308.18444"
       orientation="1,0"
       id="guide1245"
       inkscape:locked="false" />
    <sodipodi:guide
       position="335.19345,308.27241"
       orientation="1,0"
       id="guide1247"
       inkscape:locked="false" />
    <sodipodi:guide
       position="519.35767,726.12027"
       orientation="0,1"
       id="guide1255"
       inkscape:locked="false" />
    <sodipodi:guide
       position="578.58994,823.83933"
       orientation="0,1"
       id="guide1257"
       inkscape:locked="false" />
    <sodipodi:guide
       position="545.50402,629.45957"
       orientation="0,1"
       id="guide1259"
       inkscape:locked="false" />
    <sodipodi:guide
       position="568.66417,709.27934"
       orientation="0,1"
       id="guide1261"
       inkscape:locked="false" />
    <sodipodi:guide
       position="519.35765,726.12027"
       orientation="0,1"
       id="guide1263"
       inkscape:locked="false" />
    <sodipodi:guide
       position="255.74546,885.77376"
       orientation="0,1"
       id="guide1265"
       inkscape:locked="false" />
    <sodipodi:guide
       position="519.03529,915.23917"
       orientation="0,1"
       id="guide1271"
       inkscape:locked="false" />
    <sodipodi:guide
       position="519.35765,726.12029"
       orientation="1,0"
       id="guide1277"
       inkscape:locked="false" />
    <sodipodi:guide
       position="519.35764,900.16196"
       orientation="0,1"
       id="guide1279"
       inkscape:locked="false" />
    <sodipodi:guide
       position="519.35765,552.21484"
       orientation="0,1"
       id="guide1281"
       inkscape:locked="false" />
    <sodipodi:guide
       position="345.38742,726.12029"
       orientation="1,0"
       id="guide1283"
       inkscape:locked="false" />
    <sodipodi:guide
       position="693.30638,726.12029"
       orientation="1,0"
       id="guide1285"
       inkscape:locked="false" />
    <sodipodi:guide
       position="463.10436,814.59566"
       orientation="1,0"
       id="guide1293"
       inkscape:locked="false" />
    <sodipodi:guide
       position="1747.5635,2697.8358"
       orientation="0,1"
       id="guide1553"
       inkscape:locked="false" />
    <sodipodi:guide
       position="1747.8993,2090.9206"
       orientation="0,1"
       id="guide1555"
       inkscape:locked="false" />
    <sodipodi:guide
       position="-1185.4045,2090.9566"
       orientation="1,0"
       id="guide1557"
       inkscape:locked="false" />
    <sodipodi:guide
       position="1747.8993,2090.9206"
       orientation="1,0"
       id="guide1559"
       inkscape:locked="false" />
    <sodipodi:guide
       position="3343.5224,3843.0916"
       orientation="1,0"
       id="guide1864"
       inkscape:locked="false" />
    <sodipodi:guide
       position="2484.7856,3653.7125"
       orientation="1,0"
       id="guide1866"
       inkscape:locked="false" />
    <sodipodi:guide
       position="4208.7893,3369.6437"
       orientation="1,0"
       id="guide1868"
       inkscape:locked="false" />
    <sodipodi:guide
       position="3239.6244,3425.0436"
       orientation="1,0"
       id="guide1872"
       inkscape:locked="false" />
    <sodipodi:guide
       position="3296.0921,3734.4967"
       orientation="1,0"
       id="guide1876"
       inkscape:locked="false" />
    <sodipodi:guide
       position="3316.9048,3683.2263"
       orientation="0,1"
       id="guide1878"
       inkscape:locked="false" />
    <sodipodi:guide
       position="3391.873,3688.9687"
       orientation="1,0"
       id="guide1880"
       inkscape:locked="false" />
    <sodipodi:guide
       position="3296.092,3704.7719"
       orientation="0,1"
       id="guide1882"
       inkscape:locked="false" />
  </sodipodi:namedview>
  <metadata
     id="metadata5">
    <rdf:RDF>
      <cc:Work
         rdf:about="">
        <dc:format>image/svg+xml</dc:format>
        <dc:type
           rdf:resource="http://purl.org/dc/dcmitype/StillImage" />
        <dc:title></dc:title>
      </cc:Work>
    </rdf:RDF>
  </metadata>
  <g
     inkscape:label="Ebene 1"
     inkscape:groupmode="layer"
     id="layer1"
     transform="translate(0,-290.12047)">
    <path
       style="fill:#8f3305;fill-opacity:0.97647059;stroke:#59341f;stroke-width:0.02394462;stroke-linecap:butt;stroke-linejoin:miter;stroke-miterlimit:4;stroke-dasharray:none;stroke-opacity:1"
       d="m 2.2022889,295.33204 -0.087234,0.75435 c -0.058156,0.39627 0.1708328,0.60635 0.3416661,0.60635 h 0.5851948 c 0.2289893,-0.005 0.4216307,-0.28646 0.388918,-0.62544 l -0.058156,-0.8021 z"
       id="path4893"
       inkscape:connector-curvature="0"
       sodipodi:nodetypes="ccccccc" />
    <path
       style="fill:#2c6a0c;fill-opacity:1;stroke:#b5ff89;stroke-width:0.01513914;stroke-linecap:butt;stroke-linejoin:miter;stroke-miterlimit:4;stroke-dasharray:none;stroke-opacity:1"
       d="m 1.3517268,295.11979 -0.65112051,0.48258 c -0.0970113,0.0741 -0.10770314,0.15329 -0.006475,0.18107 0.42805941,0.12648 0.78595141,0.16135 1.21788371,0.0417 l 0.8542641,-0.31872 0.7634342,0.29253 c 0.3280039,0.11554 0.8707058,0.11398 1.213585,-0.005 0.056666,-0.0196 0.2040885,-0.0687 0.1055269,-0.15435 L 4.15121,295.11209 c 0,0 -0.2824987,0.0494 -0.7548994,0.003 -0.2699432,-0.0555 -0.6426846,-0.27846 -0.6426846,-0.27846 0,0 -0.3414507,0.18272 -0.7084046,0.25062 0,0 -0.3898097,0.0695 -0.6934957,0.0325 z"
       id="path4795-8-3-0-1"
       inkscape:connector-curvature="0"
       sodipodi:nodetypes="ccccccscccccc" />
    <path
       style="fill:#478c1d;fill-opacity:1;stroke:#b5ff89;stroke-width:0.02040233;stroke-linecap:butt;stroke-linejoin:miter;stroke-miterlimit:4;stroke-dasharray:none;stroke-opacity:1"
       d="m 1.1348145,294.45278 -0.75058128,0.76031 c -0.11182946,0.11669 -0.12415384,0.24152 -0.007463,0.28528 0.49344639,0.19929 0.90600718,0.25422 1.40391788,0.0658 l 0.9847554,-0.50216 0.8800496,0.46089 c 0.3781077,0.18204 1.0037084,0.17959 1.3989638,-0.008 0.065322,-0.031 0.2352629,-0.10818 0.1216448,-0.24317 l -0.8041763,-0.83109 c 0,0 -0.3256514,0.0778 -0.8702126,0.005 -0.3111772,-0.0875 -0.7408558,-0.43872 -0.7408558,-0.43872 0,0 -0.3936077,0.28789 -0.8166148,0.39485 0,0 -0.4493537,0.10957 -0.7994286,0.0512 z"
       id="path4795-8-3-0"
       inkscape:connector-curvature="0"
       sodipodi:nodetypes="ccccccscccccc" />
    <path
       style="fill:#2c6a0c;fill-opacity:1;stroke:#b5ff89;stroke-width:0.02145021;stroke-linecap:butt;stroke-linejoin:miter;stroke-miterlimit:4;stroke-dasharray:none;stroke-opacity:1"
       d="m 1.365377,293.90169 -0.67118687,0.67988 c -0.10000052,0.10435 -0.11102147,0.21598 -0.006672,0.25511 0.44125127,0.17821 0.81017267,0.22732 1.25541667,0.0588 l 0.880591,-0.44904 0.7869602,0.41213 c 0.3381131,0.16278 0.8975398,0.16059 1.2509861,-0.007 0.058412,-0.0277 0.210378,-0.0968 0.1087786,-0.21745 l -0.7191143,-0.74319 c 0,0 -0.2912042,0.0695 -0.7781638,0.004 -0.2782619,-0.0783 -0.6624907,-0.39232 -0.6624907,-0.39232 0,0 -0.351973,0.25743 -0.7302363,0.35309 0,0 -0.4018219,0.098 -0.7148673,0.0458 z"
       id="path4795-8-3-02"
       inkscape:connector-curvature="0"
       sodipodi:nodetypes="ccccccscccccc" />
    <path
       style="fill:#478c1d;fill-opacity:1;stroke:#b5ff89;stroke-width:0.02168244;stroke-linecap:butt;stroke-linejoin:miter;stroke-miterlimit:4;stroke-dasharray:none;stroke-opacity:1"
       d="m 1.386322,293.59674 -0.65407529,0.66255 c -0.0974513,0.10169 -0.10819141,0.21047 -0.006504,0.24861 0.43000189,0.17366 0.78951789,0.22153 1.22340999,0.0574 l 0.8581409,-0.43759 0.7668983,0.40162 c 0.3294921,0.15864 0.8746564,0.1565 1.2190922,-0.007 0.056923,-0.027 0.2050145,-0.0943 0.1060049,-0.2119 l -0.7007795,-0.72429 c 0,0 -0.283781,0.0678 -0.7583255,0.004 -0.2711678,-0.0763 -0.6456009,-0.38232 -0.6456009,-0.38232 0,0 -0.343,0.25088 -0.7116187,0.34409 0,0 -0.3915786,0.0955 -0.6966428,0.0446 z"
       id="path4795-8-3-2"
       inkscape:connector-curvature="0"
       sodipodi:nodetypes="ccccccscccccc" />
    <path
       style="fill:#2c6a0c;fill-opacity:1;stroke:#b5ff89;stroke-width:0.02221658;stroke-linecap:butt;stroke-linejoin:miter;stroke-miterlimit:4;stroke-dasharray:none;stroke-opacity:1"
       d="m 1.6534096,293.22635 -0.5316054,0.53848 c -0.079204,0.0827 -0.087933,0.17107 -0.00529,0.20206 0.3494878,0.14115 0.6416874,0.18005 0.9943374,0.0466 l 0.697462,-0.35566 0.6233032,0.32642 c 0.2677981,0.12894 0.7108854,0.1272 0.9908281,-0.006 0.046265,-0.022 0.1666275,-0.0766 0.086157,-0.17223 l -0.5695616,-0.58825 c 0,0 -0.2306452,0.0551 -0.6163352,0.003 -0.2203947,-0.062 -0.524718,-0.31073 -0.524718,-0.31073 0,0 -0.278777,0.20389 -0.5783748,0.27966 0,0 -0.3182591,0.0776 -0.5662028,0.0362 z"
       id="path4795-8-3"
       inkscape:connector-curvature="0"
       sodipodi:nodetypes="ccccccscccccc" />
    <path
       style="fill:#478c1d;fill-opacity:1;stroke:#b5ff89;stroke-width:0.02089231;stroke-linecap:butt;stroke-linejoin:miter;stroke-miterlimit:4;stroke-dasharray:none;stroke-opacity:1"
       d="m 1.704447,292.98237 -0.4999175,0.50639 c -0.074483,0.0777 -0.082692,0.16087 -0.00497,0.19001 0.3286559,0.13274 0.6034381,0.16932 0.935068,0.0439 l 0.6558885,-0.33446 0.5861498,0.30697 c 0.2518357,0.12124 0.6685116,0.11961 0.9317679,-0.006 0.043508,-0.0207 0.1566958,-0.0721 0.081021,-0.16197 l -0.5356154,-0.55355 c 0,0 -0.2168976,0.0518 -0.5795978,0.003 -0.2072574,-0.0583 -0.4934414,-0.29222 -0.4934414,-0.29222 0,0 -0.2621591,0.19175 -0.5438994,0.26299 0,0 -0.2992884,0.073 -0.5324528,0.0341 z"
       id="path4795-8"
       inkscape:connector-curvature="0"
       sodipodi:nodetypes="ccccccscccccc" />
    <path
       style="fill:#2f730c;fill-opacity:1;stroke:#b5ff89;stroke-width:0.02307;stroke-linecap:butt;stroke-linejoin:miter;stroke-miterlimit:4;stroke-dasharray:none;stroke-opacity:1"
       d="m 1.792514,292.41524 -0.4381159,0.44378 c -0.065275,0.0681 -0.07247,0.14098 -0.00434,0.16653 0.2880264,0.11633 0.5288389,0.14838 0.8194717,0.0384 l 0.5748043,-0.29312 0.513688,0.26902 c 0.2207023,0.10626 0.5858672,0.10483 0.8165795,-0.005 0.038129,-0.0181 0.1373238,-0.0631 0.071005,-0.14195 l -0.4694008,-0.48511 c 0,0 -0.1900832,0.0454 -0.5079453,0.003 -0.1816356,-0.0511 -0.4324402,-0.25609 -0.4324402,-0.25609 0,0 -0.2297504,0.16804 -0.4766607,0.23048 0,0 -0.2622888,0.064 -0.4666289,0.0298 z"
       id="path4795-1"
       inkscape:connector-curvature="0"
       sodipodi:nodetypes="ccccccscccccc" />
    <path
       style="fill:#478c1d;fill-opacity:1;stroke:#b5ff89;stroke-width:0.02089231;stroke-linecap:butt;stroke-linejoin:miter;stroke-miterlimit:4;stroke-dasharray:none;stroke-opacity:1"
       d="m 1.8327974,292.22667 -0.4089853,0.44672 c -0.060935,0.0686 -0.067651,0.1419 -0.00407,0.16761 0.2688753,0.11709 0.4936758,0.14937 0.7649837,0.0387 l 0.5365853,-0.29504 0.4795315,0.27079 c 0.2060277,0.10696 0.5469123,0.10552 0.7622841,-0.005 0.035593,-0.0182 0.1281934,-0.0636 0.066284,-0.14287 L 3.591221,292.21927 c 0,0 -0.1774449,0.0457 -0.4741715,0.003 -0.1695584,-0.0515 -0.4036866,-0.25778 -0.4036866,-0.25778 0,0 -0.2144739,0.16915 -0.4449671,0.23199 0,0 -0.244849,0.0644 -0.435602,0.0301 z"
       id="path4795"
       inkscape:connector-curvature="0"
       sodipodi:nodetypes="ccccccscccccc" />
    <path
       style="fill:#2f730c;fill-opacity:0.97647059;stroke:#b5ff89;stroke-width:0.02253297;stroke-linecap:butt;stroke-linejoin:miter;stroke-miterlimit:4;stroke-dasharray:none;stroke-opacity:1"
       d="m 2.0822703,291.79768 -0.3247187,0.34428 c -0.048381,0.0528 -0.053712,0.10936 -0.00322,0.12918 0.2134758,0.0902 0.39196,0.11511 0.6073684,0.0298 l 0.4260285,-0.22738 0.3807307,0.20869 c 0.1635779,0.0824 0.4342279,0.0813 0.6052249,-0.004 0.02826,-0.0141 0.1017806,-0.049 0.052627,-0.11011 l -0.3479066,-0.37633 c 0,0 -0.140884,0.0353 -0.3764743,0.002 -0.1346234,-0.0396 -0.3205128,-0.19866 -0.3205128,-0.19866 0,0 -0.1702838,0.13036 -0.3532867,0.17879 0,0 -0.1944009,0.0496 -0.3458521,0.0232 z"
       id="path4795-86"
       inkscape:connector-curvature="0"
       sodipodi:nodetypes="ccccccscccccc" />
    <path
       style="fill:#478c1d;fill-opacity:1;stroke:#b5ff89;stroke-width:0.02089231;stroke-linecap:butt;stroke-linejoin:miter;stroke-miterlimit:4;stroke-dasharray:none;stroke-opacity:1"
       d="m 1.8146699,291.96653 c -0.04442,0.0464 -0.049316,0.0959 -0.00295,0.11333 0.1960035,0.0792 0.3598778,0.10097 0.5576551,0.0261 l 0.3911574,-0.19946 0.3495669,0.18307 c 0.1501892,0.0723 0.3986865,0.0713 0.5556867,-0.003 0.025944,-0.0123 0.1114409,-0.0584 0.066311,-0.11202 -0.3269165,-0.32095 -0.6645016,-0.7454 -0.9927792,-1.02676 -0.2182304,0.20013 -0.5190122,0.60805 -0.9246336,1.01892 z"
       id="path4795-7"
       inkscape:connector-curvature="0"
       sodipodi:nodetypes="cccccsccc" />
    <path
       style="fill:#ffac00;fill-opacity:0.97647059;stroke:#ffffff;stroke-width:0.01044616;stroke-linecap:butt;stroke-linejoin:miter;stroke-miterlimit:4;stroke-dasharray:none;stroke-opacity:1"
       d="m 2.7840652,290.4468 c -0.028922,-0.0563 -0.065118,-0.0361 -0.078818,-0.0103 l -0.1165134,0.21933 c -0.04719,0.10046 -0.1119833,0.14431 -0.185051,0.14735 l -0.2398806,0.0274 c -0.065457,0.003 -0.098218,0.035 -0.061683,0.0822 l 0.1987583,0.18506 c 0.079157,0.0731 0.071582,0.14661 0.06397,0.19684 l -0.043409,0.22808 c -0.013701,0.0776 0.00156,0.12831 0.082252,0.0826 l 0.2227391,-0.10319 c 0.062412,-0.0365 0.1599591,-0.0503 0.2071487,-0.0122 0,0 0.1565111,0.0952 0.2052228,0.12564 0.092857,0.0365 0.09404,-0.0244 0.087951,-0.0792 -0.01028,-0.0765 -0.026673,-0.19648 -0.03084,-0.25395 -0.013705,-0.0609 0.0042,-0.12265 0.06511,-0.17441 l 0.1922872,-0.16258 c 0.048712,-0.0319 0.040695,-0.0781 -0.038459,-0.0933 l -0.2402853,-0.0381 c -0.089812,-0.008 -0.1146452,-0.0408 -0.1466125,-0.0987 0,0 -0.128662,-0.24745 -0.1438849,-0.26877 z"
       id="path4791"
       inkscape:connector-curvature="0"
       sodipodi:nodetypes="ccccccccccccccccccccc" />
    <circle
       style="opacity:1;fill:#a7e883;fill-opacity:0.97647059;stroke:#ffffff;stroke-width:0.01044616;stroke-linecap:round;stroke-linejoin:round;stroke-miterlimit:4;stroke-dasharray:none;stroke-dashoffset:19.01102257;stroke-opacity:1;paint-order:markers fill stroke"
       id="path4881"
       cx="2.1394763"
       cy="292.36987"
       r="0.28532779" />
    <circle
       style="opacity:1;fill:#e24e9e;fill-opacity:0.97647059;stroke:#ffffff;stroke-width:0.01044616;stroke-linecap:round;stroke-linejoin:round;stroke-miterlimit:4;stroke-dasharray:none;stroke-dashoffset:19.01102257;stroke-opacity:1;paint-order:markers fill stroke"
       id="path4883"
       cx="3.326679"
       cy="292.9772"
       r="0.47433478" />
    <circle
       style="opacity:1;fill:#44d4b9;fill-opacity:0.97647059;stroke:#ffffff;stroke-width:0.01044616;stroke-linecap:round;stroke-linejoin:round;stroke-miterlimit:4;stroke-dasharray:none;stroke-dashoffset:19.01102257;stroke-opacity:1;paint-order:markers fill stroke"
       id="path4887"
       cx="2.0320785"
       cy="293.83524"
       r="0.36529231" />
    <circle
       style="opacity:1;fill:#ee85a7;fill-opacity:0.97647059;stroke:#ffffff;stroke-width:0.01044616;stroke-linecap:round;stroke-linejoin:round;stroke-miterlimit:4;stroke-dasharray:none;stroke-dashoffset:19.01102257;stroke-opacity:1;paint-order:markers fill stroke"
       id="path4889"
       cx="1.0655228"
       cy="295.00751"
       r="0.38346606" />
    <circle
       style="opacity:1;fill:#94dfa4;fill-opacity:0.97647059;stroke:#ffffff;stroke-width:0.01044616;stroke-linecap:round;stroke-linejoin:round;stroke-miterlimit:4;stroke-dasharray:none;stroke-dashoffset:19.01102257;stroke-opacity:1;paint-order:markers fill stroke"
       id="path4891"
       cx="4.1150208"
       cy="294.41406"
       r="0.37801394" />
    <circle
       style="opacity:1;fill:#ffd045;fill-opacity:0.97647059;stroke:#ffffff;stroke-width:0.01044616;stroke-linecap:round;stroke-linejoin:round;stroke-miterlimit:4;stroke-dasharray:none;stroke-dashoffset:19.01102257;stroke-opacity:1;paint-order:markers fill stroke"
       id="path4895"
       cx="3.0224357"
       cy="294.86868"
       inkscape:transform-center-x="-0.33439704"
       inkscape:transform-center-y="0.20353845"
       r="0.36165756" />
    <circle
       style="opacity:0.41199999;fill:url(#linearGradient5018);fill-opacity:1;stroke:none;stroke-width:0.00589143;stroke-linecap:round;stroke-linejoin:round;stroke-miterlimit:4;stroke-dasharray:none;stroke-dashoffset:19.01102257;stroke-opacity:1;paint-order:markers fill stroke"
       id="path4889-5"
       cx="0.96476209"
       cy="295.09137"
       inkscape:transform-center-x="-0.024893751"
       inkscape:transform-center-y="0.24893394"
       r="0.21626759" />
    <circle
       style="opacity:0.43600003;fill:url(#linearGradient5018-9);fill-opacity:1;stroke:none;stroke-width:0.00589143;stroke-linecap:round;stroke-linejoin:round;stroke-miterlimit:4;stroke-dasharray:none;stroke-dashoffset:19.01102257;stroke-opacity:1;paint-order:markers fill stroke"
       id="path4889-5-8"
       cx="1.9209261"
       cy="293.90405"
       r="0.21626759" />
    <circle
       style="opacity:0.34800002;fill:url(#linearGradient5018-8);fill-opacity:1;stroke:none;stroke-width:0.00806977;stroke-linecap:round;stroke-linejoin:round;stroke-miterlimit:4;stroke-dasharray:none;stroke-dashoffset:19.01102257;stroke-opacity:1;paint-order:markers fill stroke"
       id="path4889-5-9"
       cx="3.2162044"
       cy="293.05206"
       r="0.29623204" />
    <circle
       style="opacity:0.73000004;fill:url(#linearGradient5018-4);fill-opacity:1;stroke:none;stroke-width:0.00569339;stroke-linecap:round;stroke-linejoin:round;stroke-miterlimit:4;stroke-dasharray:none;stroke-dashoffset:19.01102257;stroke-opacity:1;paint-order:markers fill stroke"
       id="path4889-5-2"
       cx="4.0207338"
       cy="294.48868"
       r="0.20899807" />
    <circle
       style="opacity:1;fill:url(#linearGradient5018-5);fill-opacity:1;stroke:none;stroke-width:0.00470325;stroke-linecap:round;stroke-linejoin:round;stroke-miterlimit:4;stroke-dasharray:none;stroke-dashoffset:19.01102257;stroke-opacity:1;paint-order:markers fill stroke"
       id="path4889-5-89"
       cx="2.0541091"
       cy="292.3999"
       r="0.17265058" />
    <circle
       style="opacity:1;fill:url(#linearGradient5018-2);fill-opacity:1;stroke:none;stroke-width:0.00470325;stroke-linecap:round;stroke-linejoin:round;stroke-miterlimit:4;stroke-dasharray:none;stroke-dashoffset:19.01102257;stroke-opacity:1;paint-order:markers fill stroke"
       id="path4889-5-20"
       cx="2.9147458"
       cy="294.96298"
       r="0.17265058" />
    <path
       style="fill:#ffa200;fill-opacity:1;stroke:#ffffff;stroke-width:0.00591952;stroke-linecap:butt;stroke-linejoin:miter;stroke-miterlimit:4;stroke-dasharray:none;stroke-opacity:1"
       d="m 2.7547316,290.71862 c -0.016388,-0.032 -0.036899,-0.0206 -0.044666,-0.006 l -0.066025,0.12429 c -0.02674,0.0569 -0.063458,0.0818 -0.1048628,0.0835 l -0.1359331,0.0155 c -0.037091,0.002 -0.055656,0.0199 -0.034954,0.0466 l 0.1126299,0.10487 c 0.044855,0.0414 0.040561,0.0831 0.036251,0.11154 l -0.024598,0.12926 c -0.00777,0.044 8.939e-4,0.0727 0.04661,0.0468 l 0.1262192,-0.0585 c 0.035369,-0.0207 0.090645,-0.0285 0.1173849,-0.007 0,0 0.08869,0.0539 0.1162938,0.0712 0.052619,0.0206 0.053289,-0.0138 0.049839,-0.0449 -0.00583,-0.0433 -0.015114,-0.11134 -0.017479,-0.1439 -0.00777,-0.0346 0.00241,-0.0695 0.036895,-0.0988 l 0.1089632,-0.0921 c 0.027603,-0.0181 0.02306,-0.0442 -0.021794,-0.0529 l -0.1361626,-0.0216 c -0.050894,-0.004 -0.064966,-0.0231 -0.083081,-0.056 0,0 -0.072909,-0.14022 -0.081535,-0.15229 z"
       id="path4791-0-6"
       inkscape:connector-curvature="0"
       sodipodi:nodetypes="ccccccccccccccccccccc" />
    <path
       style="fill:url(#linearGradient5109);fill-opacity:1;stroke:#ffffff;stroke-width:0.00869771;stroke-linecap:butt;stroke-linejoin:miter;stroke-miterlimit:4;stroke-dasharray:none;stroke-opacity:1"
       d="m 2.7664819,290.55663 c -0.024079,-0.0469 -0.054219,-0.0301 -0.065626,-0.009 l -0.097012,0.18261 c -0.039291,0.0836 -0.09324,0.12015 -0.1540777,0.12269 l -0.19973,0.0228 c -0.054501,0.003 -0.081779,0.0292 -0.051359,0.0685 l 0.1654908,0.15408 c 0.065907,0.0608 0.059601,0.12207 0.053264,0.1639 l -0.036143,0.1899 c -0.011407,0.0646 0.0013,0.10684 0.068485,0.0688 l 0.1854579,-0.0859 c 0.051966,-0.0304 0.1331862,-0.0418 0.1724774,-0.0101 0,0 0.1303143,0.0793 0.1708727,0.10461 0.077315,0.0305 0.0783,-0.0203 0.073231,-0.0659 -0.00856,-0.0637 -0.022206,-0.1636 -0.02568,-0.21145 -0.011407,-0.0507 0.00349,-0.10212 0.054213,-0.14521 l 0.1601026,-0.13538 c 0.040557,-0.0266 0.033885,-0.065 -0.032021,-0.0777 l -0.2000672,-0.0317 c -0.07478,-0.006 -0.095457,-0.034 -0.1220732,-0.0822 0,0 -0.1071273,-0.20602 -0.1198017,-0.22377 z"
       id="path4791-0"
       inkscape:connector-curvature="0"
       sodipodi:nodetypes="ccccccccccccccccccccc" />
    <circle
       style="opacity:1;fill:#8858d8;fill-opacity:0.97647059;stroke:#fffaf7;stroke-width:0.00495156;stroke-linecap:round;stroke-linejoin:round;stroke-miterlimit:4;stroke-dasharray:none;stroke-dashoffset:19.01102257;stroke-opacity:1;paint-order:markers fill stroke"
       id="path4883-0"
       cx="4.5237904"
       cy="295.33795"
       r="0.22483817" />
    <circle
       style="opacity:0.456;fill:url(#linearGradient5018-2-4);fill-opacity:1;stroke:none;stroke-width:0.00309502;stroke-linecap:round;stroke-linejoin:round;stroke-miterlimit:4;stroke-dasharray:none;stroke-dashoffset:19.01102257;stroke-opacity:1;paint-order:markers fill stroke"
       id="path4889-5-20-9"
       cx="4.4486551"
       cy="295.39163"
       r="0.11361479" />
  </g>
  <style
     type="text/css"
     id="style10191">
	.st0{fill:url(#SVGID_1_);}
	.st1{fill:url(#path6490_1_);}
	.st2{fill:url(#path4323_1_);stroke:#2E3436;stroke-width:1;stroke-miterlimit:10;}
	.st3{fill:url(#path6480_1_);}
	.st4{opacity:0.1854;fill:none;stroke:url(#path8520_1_);stroke-width:1;stroke-miterlimit:10;enable-background:new    ;}
	.st5{fill:url(#path4357_1_);stroke:#888A85;stroke-width:0.7826;stroke-miterlimit:10;}
	.st6{fill:url(#path5198_1_);stroke:#000000;stroke-width:1;stroke-miterlimit:10;}
	.st7{fill:#2E3436;stroke:#000000;stroke-width:1.1739;stroke-miterlimit:10;}
	.st8{opacity:0.2809;fill:none;stroke:url(#path6450_1_);stroke-width:1;stroke-miterlimit:10;enable-background:new    ;}
	.st9{fill:#FFFFFF;}
	.st10{fill:url(#path6462_1_);stroke:#888A85;stroke-width:0.6667;stroke-miterlimit:10;}
	.st11{fill:#2E3436;stroke:#000000;stroke-width:1;stroke-miterlimit:10;}
	.st12{fill:url(#path6937_1_);stroke:#673907;stroke-width:2.4605;stroke-linecap:round;}
	.st13{fill:url(#path6935_1_);stroke:#888A85;stroke-width:2.4605;stroke-linecap:round;}
	.st14{fill:none;stroke:#FFFFFF;stroke-width:2.4605;stroke-linecap:round;stroke-linejoin:round;}
	.st15{fill:url(#path6933_1_);}
	.st16{opacity:0.5278;fill:#FFFFFF;enable-background:new    ;}
	.st17{opacity:0.4278;fill:url(#path1571_1_);enable-background:new    ;}
	.st18{fill:url(#path8532_1_);}
</style>
</svg>
