<?xml version="1.0" encoding="UTF-8" standalone="no"?>
<!-- Created with Inkscape (http://www.inkscape.org/) -->

<svg
   xmlns:dc="http://purl.org/dc/elements/1.1/"
   xmlns:cc="http://creativecommons.org/ns#"
   xmlns:rdf="http://www.w3.org/1999/02/22-rdf-syntax-ns#"
   xmlns:svg="http://www.w3.org/2000/svg"
   xmlns="http://www.w3.org/2000/svg"
   xmlns:sodipodi="http://sodipodi.sourceforge.net/DTD/sodipodi-0.dtd"
   xmlns:inkscape="http://www.inkscape.org/namespaces/inkscape"
   width="276"
   height="205"
   viewBox="0 0 73.025007 54.239595"
   version="1.1"
   id="svg5914"
   inkscape:version="0.92.3 (2405546, 2018-03-11)"
   sodipodi:docname="ATOM_Logo_r.svg">
  <defs
     id="defs5908" />
  <sodipodi:namedview
     id="base"
     pagecolor="#ffffff"
     bordercolor="#666666"
     borderopacity="1.0"
     inkscape:pageopacity="0.0"
     inkscape:pageshadow="2"
     inkscape:zoom="3.2579365"
     inkscape:cx="147"
     inkscape:cy="101"
     inkscape:document-units="mm"
     inkscape:current-layer="layer1"
     showgrid="false"
     units="px"
     showguides="true"
     inkscape:guide-bbox="true"
     inkscape:window-width="1920"
     inkscape:window-height="1018"
     inkscape:window-x="-8"
     inkscape:window-y="32"
     inkscape:window-maximized="1" />
  <metadata
     id="metadata5911">
    <rdf:RDF>
      <cc:Work
         rdf:about="">
        <dc:format>image/svg+xml</dc:format>
        <dc:type
           rdf:resource="http://purl.org/dc/dcmitype/StillImage" />
        <dc:title />
      </cc:Work>
    </rdf:RDF>
  </metadata>
  <g
     inkscape:label="Ebene 1"
     inkscape:groupmode="layer"
     id="layer1"
     transform="translate(0,-242.76028)">
    <path
       inkscape:connector-curvature="0"
       style="fill:#ffffff;fill-opacity:1;stroke:none;stroke-width:0.2075378;stroke-opacity:1"
       d="m -0.17476445,286.82921 c 0.1037672,0.49808 -0.2075368,0.99617 -0.7056282,1.09994 -0.49809135,0.10377 -0.97542685,-0.20754 -1.07919565,-0.70563 -0.1037704,-0.49809 0.207536,-0.99618 0.7056282,-1.09995 0.47733625,-0.10377 0.97542685,0.20754 1.07919565,0.70564 m 11.60135945,5.10542 4.358294,-9.46372 c 0.103767,-0.20754 0.249044,-0.35282 0.498092,-0.35282 h 0.0415 c 0.249048,0 0.39788,0.15559 0.47734,0.35282 l 4.358292,9.42222 c 0.07102,0.14069 0.06227,0.20753 0.06227,0.20753 0,0.20754 -0.166033,0.37356 -0.373569,0.37356 -0.166031,0 -0.311307,-0.12452 -0.373568,-0.29055 l -1.203718,-2.61498 H 13.25293 l -1.182964,2.65649 c -0.101173,0.22774 -0.207536,0.24904 -0.352813,0.24904 -0.207539,0 -0.352815,-0.14527 -0.352815,-0.3113 0,-0.0623 0.01743,-0.14325 0.06226,-0.22829 m 7.554376,-3.03005 -2.697991,-5.93557 -2.697995,5.91482 h 5.395986 m 8.30151,-5.95634 h -3.258343 c -0.207536,0 -0.352814,-0.16602 -0.352814,-0.35282 0,-0.20753 0.166032,-0.35281 0.352814,-0.35281 h 7.26382 c 0.20754,0 0.373568,0.16603 0.373568,0.35281 0,0.1868 -0.166028,0.35282 -0.352812,0.35282 h -3.237592 v 9.17317 c 0,0.20754 -0.207539,0.37356 -0.415074,0.37356 -0.20754,0 -0.352817,-0.16602 -0.352817,-0.37356 v -9.17317 m 7.512867,4.42055 c 0,-2.80175 2.075379,-5.31295 5.188445,-5.31295 3.071561,0 5.084676,2.44894 5.084676,5.22994 v 0.0415 c 0,2.781 -2.075379,5.27145 -5.146936,5.27145 -3.071559,0 -5.126185,-2.4697 -5.126185,-5.22995 m 9.484481,0 c 0,-2.55271 -1.826334,-4.62808 -4.358296,-4.62808 -2.490455,0 -4.316785,2.07537 -4.316785,4.56582 v 0.0415 c 0,2.49045 1.805579,4.56584 4.358293,4.56584 2.490454,0 4.296032,-2.01312 4.296032,-4.56584 m 5.603522,-4.75262 c 0,-0.20752 0.145275,-0.39431 0.35281,-0.39431 h 0.08302 c 0.145275,0 0.269799,0.083 0.373567,0.20754 l 3.984725,5.89407 4.005482,-5.91482 c 0.103405,-0.1598 0.201656,-0.20754 0.352812,-0.20754 h 0.06226 c 0.207539,0 0.351344,0.16603 0.351344,0.37357 v 9.54673 c 0,0.20755 -0.143805,0.37357 -0.351344,0.37357 -0.207536,0 -0.373568,-0.16602 -0.373568,-0.37357 v -8.5298 l -3.735678,5.45824 c -0.103767,0.12453 -0.174396,0.20499 -0.29892,0.20499 -0.124523,0 -0.24068,-0.0804 -0.344448,-0.20499 l -3.735681,-5.45824 v 8.57131 c 0,0.20754 -0.166028,0.35281 -0.352812,0.35281 -0.207539,0 -0.373568,-0.14527 -0.373568,-0.35281 v -9.54677"
       id="path4-8-2"
       sodipodi:nodetypes="cssccccsscccsccccssccccccsssssscsssccssssccssssccsscccssssssccsccsssc" />
    <path
       d="m 39.153883,266.54167 c 2.200133,4.50629 2.650762,8.74751 0.980782,9.59576 -1.722996,0.87475 -5.036449,-2.20013 -7.422136,-6.83897 -2.385686,-4.66534 -2.915838,-9.14513 -1.166335,-10.01988 0.715705,-0.37111 1.749504,0 2.915839,0.90126 m -6.176277,9.25116 c -1.272366,-0.66269 -2.01458,-1.45792 -1.961564,-2.30617 0.07952,-1.93506 4.400266,-3.26043 9.622268,-2.99536 5.195495,0.26508 9.357192,2.04109 9.277669,3.97615 -0.07952,0.79523 -0.90126,1.53744 -2.22664,2.06759 m -9.092116,4.5328 c -1.404905,1.0073 -2.650763,1.3784 -3.445992,0.87476 -1.590458,-1.06031 -0.583168,-5.46058 2.253148,-9.80783 2.836317,-4.34724 6.441354,-7.13055 8.058319,-6.12326 0.795229,0.53016 0.954275,1.723 0.636183,3.31346"
       id="path2-9-2-5"
       inkscape:connector-curvature="0"
       style="fill:none;fill-opacity:1;stroke:#7f718c;stroke-width:0.82173628;stroke-linecap:round;stroke-opacity:1" />
    <circle
       style="opacity:1;fill:#a40000;fill-opacity:1;stroke:#776565;stroke-width:0.50099409;stroke-linecap:round;stroke-linejoin:round;stroke-miterlimit:4;stroke-dasharray:none;stroke-dashoffset:19.01102257;stroke-opacity:1;paint-order:markers fill stroke"
       id="path4547-6-6"
       cx="36.062729"
       cy="267.48331"
       r="0.92392224" />
  </g>
</svg>
