<?xml version="1.0" encoding="UTF-8" standalone="no"?>
<svg
   xmlns:dc="http://purl.org/dc/elements/1.1/"
   xmlns:cc="http://creativecommons.org/ns#"
   xmlns:rdf="http://www.w3.org/1999/02/22-rdf-syntax-ns#"
   xmlns:svg="http://www.w3.org/2000/svg"
   xmlns="http://www.w3.org/2000/svg"
   xmlns:xlink="http://www.w3.org/1999/xlink"
   xmlns:sodipodi="http://sodipodi.sourceforge.net/DTD/sodipodi-0.dtd"
   xmlns:inkscape="http://www.inkscape.org/namespaces/inkscape"
   version="1.1"
   width="200"
   height="160"
   id="svg3062"
   sodipodi:docname="FileZilla_Logo_.svg"
   inkscape:version="0.92.3 (2405546, 2018-03-11)">
  <metadata
     id="metadata837">
    <rdf:RDF>
      <cc:Work
         rdf:about="">
        <dc:format>image/svg+xml</dc:format>
        <dc:type
           rdf:resource="http://purl.org/dc/dcmitype/StillImage" />
        <dc:title></dc:title>
      </cc:Work>
    </rdf:RDF>
  </metadata>
  <sodipodi:namedview
     pagecolor="#ffffff"
     bordercolor="#666666"
     borderopacity="1"
     objecttolerance="10"
     gridtolerance="10"
     guidetolerance="10"
     inkscape:pageopacity="0"
     inkscape:pageshadow="2"
     inkscape:window-width="1920"
     inkscape:window-height="1018"
     id="namedview835"
     showgrid="false"
     units="px"
     fit-margin-top="0"
     fit-margin-left="0"
     fit-margin-right="0"
     fit-margin-bottom="0"
     inkscape:zoom="1"
     inkscape:cx="30.894298"
     inkscape:cy="98.029985"
     inkscape:window-x="-8"
     inkscape:window-y="32"
     inkscape:window-maximized="1"
     inkscape:current-layer="svg3062"
     showguides="true"
     inkscape:guide-bbox="true" />
  <defs
     id="defs3064">
    <linearGradient
       x1="187.94679"
       y1="123.8594"
       x2="187.94679"
       y2="258.86539"
       id="XMLID_2_"
       gradientUnits="userSpaceOnUse">
      <stop
         id="stop2308"
         style="stop-color:#bf0000;stop-opacity:1"
         offset="0" />
      <stop
         id="stop2310"
         style="stop-color:#8f0000;stop-opacity:1"
         offset="1" />
    </linearGradient>
    <linearGradient
       x1="187.94679"
       y1="123.8594"
       x2="187.94679"
       y2="258.86539"
       id="linearGradient3060"
       xlink:href="#XMLID_2_"
       gradientUnits="userSpaceOnUse"
       gradientTransform="matrix(0.426414,0,0,0.42640027,46.907639,12.68083)" />
  </defs>
  <g
     id="g2273"
     transform="matrix(0.66716037,0,0,0.66716037,10.372869,6.9363712)">
    <path
       inkscape:connector-curvature="0"
       style="fill:url(#linearGradient3060);stroke-width:0.19610292"
       id="path2312"
       d="m 89.792799,58.940802 v 3.289674 c 1.375611,0 2.494947,1.119305 2.494947,2.494447 0,1.37599 -1.119336,2.495295 -2.494947,2.495295 v 3.289675 c 1.375611,0 2.494947,1.119305 2.494947,2.49444 0,1.375997 -1.119336,2.495296 -2.494947,2.495296 v 3.289681 c 1.375611,0 2.494947,1.119298 2.494947,2.49615 0,1.376846 -1.119336,2.496144 -2.494947,2.496144 v 3.289674 c 1.375611,0 2.494947,1.118451 2.494947,2.494448 0,1.37599 -1.119336,2.495288 -2.494947,2.495288 v 3.289681 c 1.375611,0 2.494947,1.11845 2.494947,2.494441 0,1.375997 -1.119336,2.495294 -2.494947,2.495294 v 3.28967 c 1.375611,0 2.494947,1.11845 2.494947,2.49445 0,1.376 -1.119336,2.4953 -2.494947,2.4953 v 3.28968 c 1.375611,0 2.494947,1.11845 2.494947,2.49444 0,1.37599 -1.119336,2.49529 -2.494947,2.49529 v 3.28968 c 1.375611,0 2.494947,1.11845 2.494947,2.49444 0,1.37599 -1.119336,2.49529 -2.494947,2.49529 v 3.29138 c 0.656676,0 1.299709,0.26565 1.7645,0.73043 0.463939,0.46392 0.730447,1.10693 0.730447,1.76402 h 3.289785 c 0,-1.376 1.119336,-2.49445 2.494949,-2.49445 1.375611,0 2.49495,1.11845 2.49495,2.49445 h 3.28978 c 0,-1.376 1.11934,-2.49445 2.49495,-2.49445 1.37561,0 2.49495,1.11845 2.49495,2.49445 h 3.28978 c 0,-1.376 1.11934,-2.49445 2.49495,-2.49445 1.37562,0 2.49495,1.11845 2.49495,2.49445 h 3.28978 c 0,-1.376 1.11934,-2.49445 2.49495,-2.49445 1.37561,0 2.49495,1.11845 2.49495,2.49445 h 3.28978 c 0,-1.376 1.11934,-2.49445 2.49495,-2.49445 1.37562,0 2.49495,1.11845 2.49495,2.49445 h 3.28979 c 0,-1.376 1.11933,-2.49445 2.49494,-2.49445 1.37561,0 2.49495,1.11845 2.49495,2.49445 h 3.28978 c 0,-1.376 1.11934,-2.49445 2.49495,-2.49445 1.37561,0 2.49495,1.11845 2.49495,2.49445 h 3.28979 c 0,-1.376 1.11933,-2.49445 2.49495,-2.49445 1.3756,0 2.49494,1.11845 2.49494,2.49445 h 3.29149 c 0,-0.65709 0.26652,-1.3001 0.73131,-1.76402 0.46393,-0.46478 1.10696,-0.73043 1.76407,-0.73043 v -3.28967 c -1.37604,0 -2.49538,-1.11931 -2.49538,-2.4953 0,-1.37599 1.11934,-2.49443 2.49538,-2.49443 v -3.28968 c -1.37604,0 -2.49538,-1.1193 -2.49538,-2.4953 0,-1.37599 1.11934,-2.49444 2.49538,-2.49444 v -3.28968 c -1.37604,0 -2.49538,-1.1193 -2.49538,-2.4953 0,-1.37599 1.11934,-2.49444 2.49538,-2.49444 v -3.28968 c -1.37604,0 -2.49538,-1.119294 -2.49538,-2.495284 0,-1.375997 1.11934,-2.494447 2.49538,-2.494447 v -3.289674 c -1.37604,0 -2.49538,-1.119299 -2.49538,-2.495296 0,-1.375997 1.11934,-2.49444 2.49538,-2.49444 v -3.289681 c -1.37604,0 -2.49538,-1.119299 -2.49538,-2.496144 0,-1.376846 1.11934,-2.496151 2.49538,-2.496151 v -3.289674 c -1.37604,0 -2.49538,-1.119305 -2.49538,-2.495296 0,-1.375148 1.11934,-2.494447 2.49538,-2.494447 v -3.289674 c -1.37604,0 -2.49538,-1.119305 -2.49538,-2.495296 0,-1.375141 1.11934,-2.49444 2.49538,-2.49444 v -3.291384 c -0.65711,0 -1.30014,-0.266499 -1.76407,-0.730427 -0.46479,-0.464776 -0.73131,-1.107781 -0.73131,-1.764869 h -3.28978 c 0,1.375997 -1.11933,2.495296 -2.49495,2.495296 -1.37561,0 -2.49495,-1.119299 -2.49495,-2.495296 h -3.28978 c 0,1.375997 -1.11934,2.495296 -2.49495,2.495296 -1.37561,0 -2.49495,-1.119299 -2.49495,-2.495296 h -3.28978 c 0,1.375997 -1.11934,2.495296 -2.49495,2.495296 -1.37561,0 -2.49495,-1.119299 -2.49495,-2.495296 h -3.28978 c 0,1.375997 -1.11934,2.495296 -2.49495,2.495296 -1.37562,0 -2.49495,-1.119299 -2.49495,-2.495296 h -3.28979 c 0,1.375997 -1.11933,2.495296 -2.49494,2.495296 -1.37561,0 -2.49495,-1.119299 -2.49495,-2.495296 h -3.28978 c 0,1.375997 -1.11934,2.495296 -2.49495,2.495296 -1.37562,0 -2.49495,-1.119299 -2.49495,-2.495296 h -3.28979 c 0,1.375997 -1.11933,2.495296 -2.49494,2.495296 -1.37561,0 -2.49495,-1.119299 -2.49495,-2.495296 h -3.28979 c 0,1.375997 -1.119333,2.495296 -2.494946,2.495296 -1.375611,0 -2.494949,-1.119299 -2.494949,-2.495296 h -3.291489 c 0,0.657088 -0.266508,1.300093 -0.730447,1.764869 -0.464791,0.463928 -1.107824,0.730427 -1.7645,0.730427 z" />
    <path
       inkscape:connector-curvature="0"
       style="fill:#ffffff;stroke-width:0.19610292"
       id="path2314"
       d="m 153.27391,86.262831 h -37.18544 l 1.94061,-9.079348 h 22.66391 l 2.07919,-9.772242 H 110.19671 L 99.938894,115.78806 h 9.842066 l 4.50421,-21.139218 h 23.6067 l -20.51265,20.307318 3.60405,6.37596 c 1.66302,-1.10864 4.36606,-1.24765 6.23759,-1.24765 3.32731,0 6.58469,1.1095 9.97979,1.1095 3.11325,0 6.30028,-0.20809 11.49911,-2.70338 l 1.81652,-8.5246 c -3.53539,1.45488 -8.76621,2.84153 -13.31563,2.84153 -1.87025,0 -3.60319,-0.41573 -5.40522,-0.6929 l 19.88412,-19.3364 z" />
  </g>
  <text
     xml:space="preserve"
     style="font-style:normal;font-variant:normal;font-weight:normal;font-stretch:normal;font-size:37.21834946px;line-height:1.25;font-family:Arial;-inkscape-font-specification:'Arial, Normal';font-variant-ligatures:normal;font-variant-caps:normal;font-variant-numeric:normal;text-align:start;letter-spacing:0px;word-spacing:0px;writing-mode:lr-tb;text-anchor:start;fill:#ffffff;fill-opacity:1;stroke:none;stroke-width:1.39568818"
     x="35.679329"
     y="130.20622"
     id="text2277"><tspan
       sodipodi:role="line"
       id="tspan2275"
       x="35.679329"
       y="130.20622"
       style="fill:#ffffff;fill-opacity:1;stroke-width:1.39568818"><tspan
   style="font-style:normal;font-variant:normal;font-weight:normal;font-stretch:normal;font-family:Calibri;-inkscape-font-specification:Calibri;fill:#ffffff;fill-opacity:1;stroke-width:1.39568818"
   id="tspan6550">FileZilla</tspan> </tspan></text>
</svg>
