<?xml version="1.0" encoding="UTF-8" standalone="no"?>
<!-- Created with Inkscape (http://www.inkscape.org/) -->

<svg
   xmlns:dc="http://purl.org/dc/elements/1.1/"
   xmlns:cc="http://creativecommons.org/ns#"
   xmlns:rdf="http://www.w3.org/1999/02/22-rdf-syntax-ns#"
   xmlns:svg="http://www.w3.org/2000/svg"
   xmlns="http://www.w3.org/2000/svg"
   xmlns:sodipodi="http://sodipodi.sourceforge.net/DTD/sodipodi-0.dtd"
   xmlns:inkscape="http://www.inkscape.org/namespaces/inkscape"
   width="8.4666672mm"
   height="8.2577953mm"
   viewBox="0 0 8.4666672 8.2577953"
   version="1.1"
   id="svg7468"
   inkscape:version="0.92.3 (2405546, 2018-03-11)"
   sodipodi:docname="Github_Logo_repo_l.svg">
  <defs
     id="defs7462" />
  <sodipodi:namedview
     id="base"
     pagecolor="#ffffff"
     bordercolor="#666666"
     borderopacity="1.0"
     inkscape:pageopacity="0.0"
     inkscape:pageshadow="2"
     inkscape:zoom="5.2277778"
     inkscape:cx="16.775467"
     inkscape:cy="-21.428571"
     inkscape:document-units="mm"
     inkscape:current-layer="layer1"
     showgrid="false"
     fit-margin-top="0"
     fit-margin-left="0"
     fit-margin-right="0"
     fit-margin-bottom="0"
     inkscape:window-width="1920"
     inkscape:window-height="1138"
     inkscape:window-x="-8"
     inkscape:window-y="32"
     inkscape:window-maximized="1" />
  <metadata
     id="metadata7465">
    <rdf:RDF>
      <cc:Work
         rdf:about="">
        <dc:format>image/svg+xml</dc:format>
        <dc:type
           rdf:resource="http://purl.org/dc/dcmitype/StillImage" />
        <dc:title></dc:title>
      </cc:Work>
    </rdf:RDF>
  </metadata>
  <g
     inkscape:label="Ebene 1"
     inkscape:groupmode="layer"
     id="layer1"
     transform="translate(-32.808337,-258.85325)">
    <path
       d="m 37.04167,258.85325 c -2.338916,0 -4.233333,1.89442 -4.233333,4.23333 0,1.87325 1.211792,3.45546 2.894542,4.01638 0.211666,0.037 0.291041,-0.09 0.291041,-0.20108 0,-0.10055 -0.0053,-0.43392 -0.0053,-0.78846 -1.063625,0.19579 -1.338792,-0.25929 -1.423459,-0.49742 -0.04763,-0.12171 -0.254,-0.49742 -0.433916,-0.59796 -0.148167,-0.0794 -0.359834,-0.27516 -0.0053,-0.28046 0.333375,-0.005 0.5715,0.30692 0.650875,0.43392 0.381,0.64029 0.989542,0.46038 1.232958,0.34925 0.03704,-0.27517 0.148167,-0.46037 0.269875,-0.56621 -0.941916,-0.10583 -1.926166,-0.47096 -1.926166,-2.09021 0,-0.46037 0.164041,-0.84137 0.433916,-1.1377 -0.04233,-0.10584 -0.1905,-0.53975 0.04233,-1.12184 0,0 0.354541,-0.11112 1.164166,0.43392 0.338667,-0.0952 0.6985,-0.14288 1.058334,-0.14288 0.359833,0 0.719666,0.0476 1.058333,0.14288 0.809625,-0.55033 1.164167,-0.43392 1.164167,-0.43392 0.232833,0.58209 0.08467,1.016 0.04233,1.12184 0.269875,0.29633 0.433917,0.67204 0.433917,1.1377 0,1.62455 -0.989542,1.98438 -1.931459,2.09021 0.153459,0.13229 0.28575,0.38629 0.28575,0.78317 0,0.56621 -0.0053,1.02129 -0.0053,1.16417 0,0.11112 0.07937,0.24341 0.291041,0.20108 a 4.2402125,4.2402125 0 0 0 2.883959,-4.01638 c 0,-2.33891 -1.894417,-4.23333 -4.233334,-4.23333 z"
       id="path2"
       style="fill:#90b600;fill-opacity:1;fill-rule:evenodd;stroke:none;stroke-width:0.5291667"
       inkscape:connector-curvature="0" />
  </g>
</svg>
