<?xml version="1.0" encoding="UTF-8" standalone="no"?>
<!-- Created with Inkscape (http://www.inkscape.org/) -->

<svg
   xmlns:dc="http://purl.org/dc/elements/1.1/"
   xmlns:cc="http://creativecommons.org/ns#"
   xmlns:rdf="http://www.w3.org/1999/02/22-rdf-syntax-ns#"
   xmlns:svg="http://www.w3.org/2000/svg"
   xmlns="http://www.w3.org/2000/svg"
   xmlns:sodipodi="http://sodipodi.sourceforge.net/DTD/sodipodi-0.dtd"
   xmlns:inkscape="http://www.inkscape.org/namespaces/inkscape"
   width="8.4666672mm"
   height="8.2577953mm"
   viewBox="0 0 8.4666672 8.2577953"
   version="1.1"
   id="svg7468"
   inkscape:version="0.92.3 (2405546, 2018-03-11)"
   sodipodi:docname="Github_Logo_f2f_w.svg">
  <defs
     id="defs7462" />
  <sodipodi:namedview
     id="base"
     pagecolor="#ffffff"
     bordercolor="#666666"
     borderopacity="1.0"
     inkscape:pageopacity="0.0"
     inkscape:pageshadow="2"
     inkscape:zoom="17.174067"
     inkscape:cx="-9.3977161"
     inkscape:cy="13.507825"
     inkscape:document-units="mm"
     inkscape:current-layer="layer1"
     showgrid="false"
     fit-margin-top="0"
     fit-margin-left="0"
     fit-margin-right="0"
     fit-margin-bottom="0"
     inkscape:window-width="1920"
     inkscape:window-height="1018"
     inkscape:window-x="-8"
     inkscape:window-y="32"
     inkscape:window-maximized="1" />
  <metadata
     id="metadata7465">
    <rdf:RDF>
      <cc:Work
         rdf:about="">
        <dc:format>image/svg+xml</dc:format>
        <dc:type
           rdf:resource="http://purl.org/dc/dcmitype/StillImage" />
        <dc:title />
      </cc:Work>
    </rdf:RDF>
  </metadata>
  <g
     inkscape:label="Ebene 1"
     inkscape:groupmode="layer"
     id="layer1"
     transform="translate(-32.808337,-258.85325)">
    <path
       d="m 37.04167,258.85325 c -2.338916,0 -4.233333,1.89442 -4.233333,4.23333 0,1.87325 1.211792,3.45546 2.894542,4.01638 0.211666,0.037 0.291041,-0.09 0.291041,-0.20108 0,-0.10055 -0.0053,-0.43392 -0.0053,-0.78846 -1.063625,0.19579 -1.338792,-0.25929 -1.423459,-0.49742 -0.04763,-0.12171 -0.254,-0.49742 -0.433916,-0.59796 -0.148167,-0.0794 -0.359834,-0.27516 -0.0053,-0.28046 0.333375,-0.005 0.5715,0.30692 0.650875,0.43392 0.381,0.64029 0.989542,0.46038 1.232958,0.34925 0.03704,-0.27517 0.148167,-0.46037 0.269875,-0.56621 -0.941916,-0.10583 -1.926166,-0.47096 -1.926166,-2.09021 0,-0.46037 0.164041,-0.84137 0.433916,-1.1377 -0.04233,-0.10584 -0.1905,-0.53975 0.04233,-1.12184 0,0 0.354541,-0.11112 1.164166,0.43392 0.338667,-0.0952 0.6985,-0.14288 1.058334,-0.14288 0.359833,0 0.719666,0.0476 1.058333,0.14288 0.809625,-0.55033 1.164167,-0.43392 1.164167,-0.43392 0.232833,0.58209 0.08467,1.016 0.04233,1.12184 0.269875,0.29633 0.433917,0.67204 0.433917,1.1377 0,1.62455 -0.989542,1.98438 -1.931459,2.09021 0.153459,0.13229 0.28575,0.38629 0.28575,0.78317 0,0.56621 -0.0053,1.02129 -0.0053,1.16417 0,0.11112 0.07937,0.24341 0.291041,0.20108 a 4.2402125,4.2402125 0 0 0 2.883959,-4.01638 c 0,-2.33891 -1.894417,-4.23333 -4.233334,-4.23333 z"
       id="path2"
       style="fill:#ff6244;fill-opacity:1;fill-rule:evenodd;stroke:none;stroke-width:0.5291667"
       inkscape:connector-curvature="0" />
    <path
       style="fill:#ff6244;fill-opacity:1;fill-rule:evenodd;stroke-width:0.26458332"
       id="path4535"
       sodipodi:type="arc"
       sodipodi:cx="-27.168982"
       sodipodi:cy="266.75101"
       sodipodi:rx="0.10746656"
       sodipodi:ry="0.08410427"
       sodipodi:start="0.007150422"
       sodipodi:end="6.2831155"
       sodipodi:open="true"
       d="m -27.061518,266.75161 a 0.10746656,0.08410427 0 0 1 -0.108038,0.0835 0.10746656,0.08410427 0 0 1 -0.106891,-0.0844 0.10746656,0.08410427 0 0 1 0.107652,-0.0838 0.10746656,0.08410427 0 0 1 0.10728,0.0841"
       transform="rotate(-13.499248)" />
    <path
       style="fill:#ff6244;fill-opacity:1;fill-rule:evenodd;stroke-width:0.26458332"
       id="path4537"
       sodipodi:type="arc"
       sodipodi:cx="35.520592"
       sodipodi:cy="265.76797"
       sodipodi:rx="0.10045788"
       sodipodi:ry="0.077095576"
       sodipodi:start="0.007150422"
       sodipodi:end="6.2831155"
       sodipodi:open="true"
       d="m 35.621047,265.76853 a 0.10045788,0.07709558 0 0 1 -0.100992,0.0765 0.10045788,0.07709558 0 0 1 -0.09992,-0.0774 0.10045788,0.07709558 0 0 1 0.100632,-0.0768 0.10045788,0.07709558 0 0 1 0.100284,0.0771" />
    <path
       style="fill:#ff6244;fill-opacity:1;fill-rule:evenodd;stroke-width:0.27889532"
       id="path4539"
       sodipodi:type="arc"
       sodipodi:cx="121.60958"
       sodipodi:cy="238.85223"
       sodipodi:rx="0.09344919"
       sodipodi:ry="0.070086889"
       sodipodi:start="0.007150422"
       sodipodi:end="6.2831155"
       sodipodi:open="true"
       d="m 121.70303,238.85274 a 0.09344919,0.07008689 0 0 1 -0.0939,0.0696 0.09344919,0.07008689 0 0 1 -0.093,-0.0703 0.09344919,0.07008689 0 0 1 0.0936,-0.0698 0.09344919,0.07008689 0 0 1 0.0933,0.0701"
       transform="rotate(19.440035)"
       inkscape:transform-center-y="0.0046724592" />
    <path
       style="fill:#ff6244;fill-opacity:1;fill-rule:evenodd;stroke-width:0.31736541"
       id="path4543"
       sodipodi:type="arc"
       sodipodi:cx="18.336613"
       sodipodi:cy="262.09457"
       sodipodi:rx="0.074336551"
       sodipodi:ry="0.074158341"
       sodipodi:start="0.007150422"
       sodipodi:end="6.2831155"
       sodipodi:open="true"
       d="m 18.410947,262.0951 a 0.07433655,0.07415834 0 0 1 -0.07473,0.0736 0.07433655,0.07415834 0 0 1 -0.07394,-0.0744 0.07433655,0.07415834 0 0 1 0.07447,-0.0739 0.07433655,0.07415834 0 0 1 0.07421,0.0741"
       transform="matrix(0.97897116,0.20399869,0.06393337,0.99795417,0,0)"
       inkscape:transform-center-x="-0.017860078"
       inkscape:transform-center-y="0.0072384896" />
    <path
       style="fill:#ff6244;fill-opacity:1;fill-rule:evenodd;stroke-width:0.31205347"
       id="path4545"
       sodipodi:type="arc"
       sodipodi:cx="239.94945"
       sodipodi:cy="149.69414"
       sodipodi:rx="0.074915662"
       sodipodi:ry="0.060805492"
       sodipodi:start="0.007150422"
       sodipodi:end="6.2831155"
       sodipodi:open="true"
       d="m 240.02436,149.69457 a 0.07491566,0.06080549 0 0 1 -0.0753,0.0604 0.07491566,0.06080549 0 0 1 -0.0745,-0.061 0.07491566,0.06080549 0 0 1 0.0751,-0.0606 0.07491566,0.06080549 0 0 1 0.0748,0.0608"
       transform="matrix(0.65877467,0.75234031,-0.82522486,0.56480432,0,0)" />
    <path
       style="fill:#ff6244;fill-opacity:1;fill-rule:evenodd;stroke-width:0.29294714"
       id="path4547"
       sodipodi:type="arc"
       sodipodi:cx="227.61215"
       sodipodi:cy="183.0242"
       sodipodi:rx="0.067474253"
       sodipodi:ry="0.052060205"
       sodipodi:start="0.007150422"
       sodipodi:end="6.2831155"
       sodipodi:open="true"
       d="m 227.67962,183.02457 a 0.06747425,0.05206021 0 0 1 -0.0678,0.0517 0.06747425,0.05206021 0 0 1 -0.0671,-0.0522 0.06747425,0.05206021 0 0 1 0.0676,-0.0519 0.06747425,0.05206021 0 0 1 0.0674,0.0521"
       transform="matrix(0.76472815,0.64435305,-0.76334784,0.64598767,0,0)" />
    <path
       style="fill:#ff6244;fill-opacity:1;fill-rule:evenodd;stroke-width:0.35241953"
       id="path4543-5"
       sodipodi:type="arc"
       sodipodi:cx="17.513678"
       sodipodi:cy="262.75528"
       sodipodi:rx="0.084691659"
       sodipodi:ry="0.080264315"
       sodipodi:start="0.007150422"
       sodipodi:end="6.2831155"
       sodipodi:open="true"
       d="m 17.598367,262.75585 a 0.08469166,0.08026432 0 0 1 -0.08514,0.0797 0.08469166,0.08026432 0 0 1 -0.08424,-0.0805 0.08469166,0.08026432 0 0 1 0.08484,-0.08 0.08469166,0.08026432 0 0 1 0.08454,0.0802"
       transform="matrix(0.9810501,0.19375421,0.0674411,0.99772326,0,0)"
       inkscape:transform-center-x="-0.020391643"
       inkscape:transform-center-y="0.0078338661" />
  </g>
</svg>
