<?xml version="1.0" encoding="UTF-8" standalone="no"?>
<!-- Created with Inkscape (http://www.inkscape.org/) -->

<svg
   xmlns:dc="http://purl.org/dc/elements/1.1/"
   xmlns:cc="http://creativecommons.org/ns#"
   xmlns:rdf="http://www.w3.org/1999/02/22-rdf-syntax-ns#"
   xmlns:svg="http://www.w3.org/2000/svg"
   xmlns="http://www.w3.org/2000/svg"
   xmlns:sodipodi="http://sodipodi.sourceforge.net/DTD/sodipodi-0.dtd"
   xmlns:inkscape="http://www.inkscape.org/namespaces/inkscape"
   width="138.26341mm"
   height="48.954723mm"
   viewBox="0 0 138.26341 48.954723"
   version="1.1"
   id="svg8"
   inkscape:version="0.92.3 (2405546, 2018-03-11)"
   sodipodi:docname="melodysheep_02_4.3.svg">
  <defs
     id="defs2" />
  <sodipodi:namedview
     id="base"
     pagecolor="#ffffff"
     bordercolor="#666666"
     borderopacity="1.0"
     inkscape:pageopacity="0.0"
     inkscape:pageshadow="2"
     inkscape:zoom="1"
     inkscape:cx="134.5"
     inkscape:cy="97.010373"
     inkscape:document-units="mm"
     inkscape:current-layer="layer1"
     showgrid="false"
     inkscape:window-width="1920"
     inkscape:window-height="1018"
     inkscape:window-x="-8"
     inkscape:window-y="32"
     inkscape:window-maximized="1"
     units="mm"
     fit-margin-top="0"
     fit-margin-left="0"
     fit-margin-right="0"
     fit-margin-bottom="0" />
  <metadata
     id="metadata5">
    <rdf:RDF>
      <cc:Work
         rdf:about="">
        <dc:format>image/svg+xml</dc:format>
        <dc:type
           rdf:resource="http://purl.org/dc/dcmitype/StillImage" />
        <dc:title></dc:title>
      </cc:Work>
    </rdf:RDF>
  </metadata>
  <g
     inkscape:label="Ebene 1"
     inkscape:groupmode="layer"
     id="layer1"
     transform="translate(-6.0976946,-167.67755)">
    <path
       style="fill:#3d9500;fill-opacity:1;stroke:none;stroke-width:0.02627369;stroke-linecap:butt;stroke-linejoin:miter;stroke-miterlimit:4;stroke-dasharray:none;stroke-opacity:1"
       d="m 74.459825,171.09651 c -7.288401,-5.86845 -17.760086,-1.85122 -19.906078,4.36495 -0.05488,0.15895 -0.181751,0.34356 -0.39473,0.32966 -2.817602,-0.14229 -6.11247,0.5627 -8.207161,3.78909 -0.199065,0.30661 -0.40195,0.2819 -0.619481,0.24844 -4.053799,-0.80623 -15.604365,-1.41166 -19.360489,0.28399 -5.673105,2.16913 -14.350102,9.5742 -19.3553083,15.74009 -0.957303,1.18615 -0.50033,2.27447 0.6396172,2.44722 2.4247516,0.40187 8.1208721,-1.77088 13.1625201,-3.34772 6.677911,-2.14668 13.415463,-4.48241 17.785424,-6.22723 2.15944,-0.86222 3.592575,-1.79123 4.447227,-1.44933 0.844168,0.29977 1.152916,1.50807 0.957544,2.19175 -0.286351,0.98034 -1.558563,0.68625 -3.144929,1.45662 -1.098777,0.53359 -2.304644,1.54602 -3.686057,3.3669 -1.546012,2.35272 -1.878532,4.61117 -1.128397,7.42957 0.48384,1.64641 1.418285,2.58626 2.419423,3.47616 0.545347,0.60096 0.260635,1.39048 0.0278,1.72419 -0.985353,1.5036 -1.835181,2.80921 -2.19152,3.79809 -0.31963,0.8267 0.09188,1.71256 0.773245,2.04186 2.566246,1.32991 6.266517,2.84151 7.679138,3.22542 1.060884,0.3531 2.459969,0.6455 3.138702,0.64008 0.621336,0.0502 1.117384,-0.20828 0.92248,-1.08734 -0.08908,-0.67873 -0.61069,-1.18736 -0.555074,-1.91041 0.03773,-0.30198 0.04971,-0.7287 0.884005,-1.39612 2.61408,-2.28037 5.54955,-4.55118 8.620902,-5.78434 3.337121,-1.33486 5.305656,-0.8641 6.952334,-0.13905 2.057892,0.8899 3.480948,2.01736 5.367205,4.17139 0.90175,0.98031 3.114646,3.44836 4.505118,4.11578 1.325293,0.78622 3.387184,0.88274 4.894432,0.0278 2.331207,-1.26691 5.283786,-4.06016 7.230441,-6.00682 0.984323,-0.99711 3.238978,-2.43451 7.007955,-2.47503 2.224746,-0.0556 4.568654,0.18195 6.479565,1.83542 2.335982,2.1135 4.588552,3.5874 6.312732,4.64416 0.57807,0.33648 0.74168,1.37145 0.27809,1.91884 -0.25668,0.30953 -0.45012,0.63082 -0.50296,0.89506 -0.11401,0.47591 0.27533,0.98919 1.08696,0.99598 0,0 1.53381,0.0985 3.64302,-0.52838 1.98363,-0.59871 3.82144,-1.3551 5.97901,-2.97559 2.11905,-1.53745 3.22589,-3.97675 3.44836,-6.8133 0.17842,-2.08685 -0.82712,-4.5075 -2.7992,-6.32782 -0.75524,-0.71826 -1.58388,-1.44131 -2.92953,-1.7647 -0.61222,-0.12115 -0.72979,-0.95786 -0.45449,-1.35114 0.27178,-0.37748 2.45502,-4.20266 -0.77746,-7.53276 -0.34799,-0.33763 -0.56849,-0.70908 -0.65908,-0.98841 -0.23597,-0.74724 0.33576,-1.29474 0.88514,-1.04525 2.61215,1.38157 9.65223,4.97407 17.63589,8.12034 1.76977,0.66858 5.75073,2.31376 9.1723,3.02167 0,0 1.95388,0.38457 3.33038,0.34524 0.74782,0.0245 1.08746,-0.54018 0.81042,-0.97729 -0.25542,-0.48688 -5.46377,-6.90224 -7.0282,-8.65823 -3.53955,-4.12948 -6.663,-7.08873 -11.89367,-9.52709 -2.41941,-1.14018 -4.6807,-1.68007 -11.21589,-1.73569 -3.47617,0.0278 -6.67425,0.22247 -10.67879,0.8899 -0.4539,0.0789 -0.8724,0.009 -0.97333,-0.584 -0.36152,-2.91998 -4.171401,-5.6731 -7.842235,-5.31158 -0.639612,0.0556 -1.05811,0.006 -1.307037,-0.36153 -1.167992,-1.69637 -3.2092,-3.16172 -5.339397,-3.94893 -2.530651,-0.91205 -5.571768,-0.81948 -7.953472,-0.3615 -1.683198,0.33664 -3.054906,0.92623 -5.025122,3.00762 -0.14562,0.15384 -0.385509,0.2039 -0.54829,0.0733 z"
       id="path826"
       inkscape:connector-curvature="0"
       sodipodi:nodetypes="cscscccccsccscccccccccccccccccccccccccccccccccccccccccccccscc" />
  </g>
</svg>
