<?xml version="1.0" encoding="UTF-8" standalone="no"?>
<!-- Created with Inkscape (http://www.inkscape.org/) -->

<svg
   xmlns:dc="http://purl.org/dc/elements/1.1/"
   xmlns:cc="http://creativecommons.org/ns#"
   xmlns:rdf="http://www.w3.org/1999/02/22-rdf-syntax-ns#"
   xmlns:svg="http://www.w3.org/2000/svg"
   xmlns="http://www.w3.org/2000/svg"
   xmlns:sodipodi="http://sodipodi.sourceforge.net/DTD/sodipodi-0.dtd"
   xmlns:inkscape="http://www.inkscape.org/namespaces/inkscape"
   width="315.45468mm"
   height="446.2796mm"
   viewBox="0 0 315.45463 446.27964"
   version="1.1"
   id="svg859"
   inkscape:version="0.92.4 (5da689c313, 2019-01-14)"
   sodipodi:docname="Dino_eerm_4_2_05.svg">
  <defs
     id="defs853">
    <filter
       x="-0.25"
       width="1.5"
       y="-0.25"
       height="1.5"
       inkscape:menu-tooltip="Smooth rainbow colors slightly melted along the edges"
       inkscape:menu="Textures"
       inkscape:label="Melted Rainbow"
       style="color-interpolation-filters:sRGB"
       id="filter11368">
      <feGaussianBlur
         result="result8"
         stdDeviation="5"
         id="feGaussianBlur11356" />
      <feTurbulence
         baseFrequency="0.015"
         numOctaves="2"
         type="fractalNoise"
         result="result7"
         seed="20"
         id="feTurbulence11358" />
      <feComposite
         in="SourceGraphic"
         operator="in"
         result="result6"
         in2="result8"
         id="feComposite11360" />
      <feComposite
         in="result6"
         operator="arithmetic"
         result="result2"
         in2="result7"
         k3="1"
         id="feComposite11362"
         k1="0"
         k2="0"
         k4="0" />
      <feComposite
         in2="result6"
         operator="in"
         in="result2"
         result="fbSourceGraphic"
         id="feComposite11364" />
      <feComposite
         in2="fbSourceGraphic"
         in="fbSourceGraphic"
         k2="2.5"
         operator="arithmetic"
         id="feComposite11366"
         k1="0"
         k3="0"
         k4="0" />
    </filter>
    <filter
       x="-0.25"
       width="1.5"
       y="-0.25"
       height="1.5"
       inkscape:menu-tooltip="Smooth rainbow colors slightly melted along the edges"
       inkscape:menu="Textures"
       inkscape:label="Melted Rainbow"
       style="color-interpolation-filters:sRGB"
       id="filter11382">
      <feGaussianBlur
         result="result8"
         stdDeviation="5"
         id="feGaussianBlur11370" />
      <feTurbulence
         baseFrequency="0.015"
         numOctaves="2"
         type="fractalNoise"
         result="result7"
         seed="20"
         id="feTurbulence11372" />
      <feComposite
         in="SourceGraphic"
         operator="in"
         result="result6"
         in2="result8"
         id="feComposite11374" />
      <feComposite
         in="result6"
         operator="arithmetic"
         result="result2"
         in2="result7"
         k3="1"
         id="feComposite11376"
         k1="0"
         k2="0"
         k4="0" />
      <feComposite
         in2="result6"
         operator="in"
         in="result2"
         result="fbSourceGraphic"
         id="feComposite11378" />
      <feComposite
         in2="fbSourceGraphic"
         in="fbSourceGraphic"
         k2="2.5"
         operator="arithmetic"
         id="feComposite11380"
         k1="0"
         k3="0"
         k4="0" />
    </filter>
    <filter
       x="-0.25"
       width="1.5"
       y="-0.25"
       height="1.5"
       inkscape:menu-tooltip="Smooth rainbow colors slightly melted along the edges"
       inkscape:menu="Textures"
       inkscape:label="Melted Rainbow"
       style="color-interpolation-filters:sRGB"
       id="filter11396">
      <feGaussianBlur
         result="result8"
         stdDeviation="5"
         id="feGaussianBlur11384" />
      <feTurbulence
         baseFrequency="0.015"
         numOctaves="2"
         type="fractalNoise"
         result="result7"
         seed="20"
         id="feTurbulence11386" />
      <feComposite
         in="SourceGraphic"
         operator="in"
         result="result6"
         in2="result8"
         id="feComposite11388" />
      <feComposite
         in="result6"
         operator="arithmetic"
         result="result2"
         in2="result7"
         k3="1"
         id="feComposite11390"
         k1="0"
         k2="0"
         k4="0" />
      <feComposite
         in2="result6"
         operator="in"
         in="result2"
         result="fbSourceGraphic"
         id="feComposite11392" />
      <feComposite
         in2="fbSourceGraphic"
         in="fbSourceGraphic"
         k2="2.5"
         operator="arithmetic"
         id="feComposite11394"
         k1="0"
         k3="0"
         k4="0" />
    </filter>
  </defs>
  <sodipodi:namedview
     id="base"
     pagecolor="#ffffff"
     bordercolor="#666666"
     borderopacity="1.0"
     inkscape:pageopacity="0.0"
     inkscape:pageshadow="2"
     inkscape:zoom="0.26061072"
     inkscape:cx="114.85792"
     inkscape:cy="1340.1541"
     inkscape:document-units="mm"
     inkscape:current-layer="layer1"
     showgrid="false"
     units="mm"
     inkscape:window-width="1920"
     inkscape:window-height="1138"
     inkscape:window-x="-8"
     inkscape:window-y="32"
     inkscape:window-maximized="1"
     fit-margin-top="0"
     fit-margin-left="0"
     fit-margin-right="0"
     fit-margin-bottom="0" />
  <metadata
     id="metadata856">
    <rdf:RDF>
      <cc:Work
         rdf:about="">
        <dc:format>image/svg+xml</dc:format>
        <dc:type
           rdf:resource="http://purl.org/dc/dcmitype/StillImage" />
        <dc:title></dc:title>
      </cc:Work>
    </rdf:RDF>
  </metadata>
  <g
     inkscape:label="Ebene 1"
     inkscape:groupmode="layer"
     id="layer1"
     transform="translate(76.347575,41.620976)">
    <path
       style="fill:#919c0a;fill-opacity:1;stroke:none;stroke-width:0.20488738;stroke-linecap:butt;stroke-linejoin:miter;stroke-miterlimit:4;stroke-dasharray:none;stroke-opacity:1;filter:url(#filter11382)"
       d="m 65.08154,340.53344 c 5.9403,17.68089 1.92161,35.3489 1.53428,41.08292 -0.3743,5.45921 1.08956,5.95961 3.71156,6.9841 10.42182,3.8411 15.51402,0.99368 15.51402,0.99368 1.57616,-0.43262 3.21888,-1.10485 3.21888,-1.10485 -0.8155,-1.93293 4.39083,-7.84078 3.2905,-14.06456 -1.11241,-6.28493 -0.61011,-7.87096 -0.81719,-9.85625 -0.22233,-2.03223 1.28101,-16.55954 1.3726,-22.59074 -2.66443,0.43262 -21.68219,0.49481 -27.82478,-1.4446 z"
       id="path4571-1"
       inkscape:connector-curvature="0"
       sodipodi:nodetypes="cccccscccc" />
    <path
       style="fill:#919c0a;fill-opacity:1;stroke:none;stroke-width:0.19484803;stroke-linecap:butt;stroke-linejoin:miter;stroke-miterlimit:4;stroke-dasharray:none;stroke-opacity:1;filter:url(#filter11368)"
       d="m -22.535149,287.21026 c 0.903063,10.65792 3.086985,19.57127 4.297113,31.92213 1.257606,10.34104 0.05655,16.80515 -0.412484,29.56465 -2.713036,24.56479 -6.602377,21.9865 -6.216008,31.16101 0,3.55734 1.419259,5.03338 3.483389,6.2184 6.592641,2.5443 17.675833,2.38371 24.253838,0.49482 -2.89922201,-5.32339 1.54201,-65.50009 -6.932088,-71.40911 -8.872733,-9.52903 -10.495142,-7.814 -18.473796,-27.98865 z"
       id="path4569-93"
       inkscape:connector-curvature="0"
       sodipodi:nodetypes="cccccccc" />
    <g
       id="g2394"
       transform="matrix(1.8893274,0,0,1.8893274,-70.106529,-164.58763)"
       style="filter:url(#filter11396)">
      <path
         sodipodi:nodetypes="cccccccccccccccccsccccccccccccccsccccccccccccccccc"
         inkscape:connector-curvature="0"
         id="path4529-11"
         d="M 40.728618,72.543628 C 34.549923,67.561499 24.092112,68.003438 17.973204,71.958843 11.611492,75.80122 7.6195314,79.320038 4.8687652,82.625014 1.022801,87.116196 -1.7009823,97.299166 1.420318,103.52741 c 1.903217,4.44598 4.8954196,9.58516 13.342824,10.16138 3.939822,0.35656 7.95052,-1.00077 12.226375,-3.0334 2.743163,-1.23876 4.816166,-2.77833 4.816166,-2.77833 0.793312,12.20204 -0.44549,17.9324 -0.607261,20.64281 -0.985945,8.69153 -2.340654,13.0533 -4.320869,20.47974 -5.425572,19.77834 -9.048377,39.13689 -10.304343,58.98546 -1.167541,10.6374 1.319067,18.50841 3.864114,24.67349 3.502597,9.45503 11.164934,17.35615 14.43865,23.33202 3.161949,6.13538 2.355821,11.36135 2.682333,15.18251 0.130758,6.21877 -1.167906,10.17054 -2.150417,15.66688 -0.766479,3.74372 -1.748725,6.35893 1.871139,8.38916 5.105395,1.94152 9.907084,2.53327 15.21147,0.19643 1.274696,-0.62449 2.107886,-0.77164 2.107886,-2.02649 0.354618,-2.53002 -0.633051,-6.94803 -0.858199,-8.6605 -0.808217,-6.14977 -0.637931,-14.28197 1.19674,-20.67527 7.216927,2.28806 13.202786,5.17504 26.376065,4.13618 3.165735,8.75459 2.12639,12.78139 1.562605,16.82909 -0.269684,2.86657 -1.515994,7.99714 -0.125518,9.09186 3.734757,3.10518 13.940745,3.61325 17.893772,1.26168 1.2841,-1.00319 0.11049,-4.33853 -0.5168,-7.48955 -0.60984,-3.21643 -1.11996,-6.6594 -1.003664,-10.16235 -0.177795,-3.95329 0.379109,-8.05774 0.657762,-11.49608 0.514302,-2.93533 0.739022,-5.24506 0.739022,-5.24506 5.49425,3.86274 15.38347,10.41805 24.75284,13.68581 2.90567,1.05574 6.68005,1.34667 9.06152,1.22908 7.39487,-0.52017 10.00094,-0.68285 17.70775,-6.54369 6.81711,-5.09072 9.9912,-16.06407 9.77715,-21.51011 0.20623,-8.66793 -2.2519,-18.86947 -5.36465,-18.81757 -1.60676,0.0704 -2.00874,1.83045 -1.92837,4.68934 0.0994,3.54193 1.33298,6.60145 0.56159,13.2372 -1.00304,4.70669 -2.4699,6.79832 -3.45979,8.01262 -4.07656,4.92134 -7.89325,6.83948 -10.03196,7.68572 -5.3341,1.56237 -11.10601,-0.0935 -14.71826,-2.02008 -4.88833,-2.96467 -9.75811,-5.73135 -14.03739,-13.01819 -4.32673,-7.48687 -9.27323,-18.16961 -12.43242,-24.86718 -2.440029,-5.26527 -3.808729,-7.86423 -4.98416,-9.89545 -3.575946,-7.02176 -7.998565,-9.9633 -11.312383,-11.82248 -9.202866,-4.96421 -14.724513,-6.49927 -19.600651,-7.83904 -3.085859,-0.86283 -4.991213,-1.4383 -8.384849,-3.05947 -2.472419,-1.02655 -4.295101,-2.54964 -5.503618,-4.13307 -4.409771,-5.67636 -5.881504,-12.31085 -6.827171,-16.49452 -0.679564,-3.27067 -1.874802,-11.33026 -0.677087,-19.03821 0,0 2.845377,-23.93582 3.875572,-31.34332 0.412051,-4.8851 3.652994,-24.083123 2.46797,-32.347067 C 48.133008,79.590795 45.0467,75.242507 40.728832,72.535398 Z"
         style="fill:#b1be19;fill-opacity:1;stroke:none;stroke-width:0.1031309;stroke-linecap:butt;stroke-linejoin:miter;stroke-miterlimit:4;stroke-dasharray:none;stroke-opacity:1" />
    </g>
    <path
       style="fill:#919c0a;fill-opacity:1;stroke:none;stroke-width:0.40529042;stroke-linecap:butt;stroke-linejoin:miter;stroke-miterlimit:4;stroke-dasharray:none;stroke-opacity:1"
       d="m -43.194574,-20.166869 c 1.401586,-0.49482 2.613681,-0.0635 3.467817,0.49412 0.820256,0.62983 1.394033,1.80911 1.359507,3.798 -0.06709,3.8722 -1.892307,6.7290099 -3.520402,8.7532499 -2.993403,3.2919 -5.032974,3.60038 -6.747701,3.45844 -2.975876,-0.67296 -3.551422,-3.40891 -2.91247,-5.92253 1.705653,-6.8931799 6.026237,-9.7555799 8.353236,-10.6584799 z"
       id="path4531-38"
       inkscape:connector-curvature="0"
       sodipodi:nodetypes="ccscccc" />
    <path
       style="fill:#919c0a;fill-opacity:1;stroke:none;stroke-width:0.38735437;stroke-linecap:butt;stroke-linejoin:miter;stroke-miterlimit:4;stroke-dasharray:none;stroke-opacity:1"
       d="m -18.461166,-9.9800991 c 3.31009,-1.6236299 5.377899,1.64798 5.505912,4.00791 0.03265,1.10494 -0.07665,2.78536 -0.374247,3.87211 -0.627261,2.29129498 -1.543288,4.236641 -2.723165,5.718843 -2.605338,3.458372 -4.968771,4.267195 -6.784503,4.156078 -3.151754,-0.133008 -4.27405,-3.168054 -3.851576,-5.619755 1.113168,-6.752516 4.48376,-10.067606 8.227135,-12.132756 z"
       id="path4531-1-74"
       inkscape:connector-curvature="0"
       sodipodi:nodetypes="ccscccc" />
    <path
       style="fill:#000000;fill-opacity:1;stroke:none;stroke-width:0.29318124;stroke-linecap:butt;stroke-linejoin:miter;stroke-miterlimit:4;stroke-dasharray:none;stroke-opacity:1"
       d="m -43.194574,-20.166869 c 1.014051,-0.37113 1.890739,-0.0495 2.508572,0.43259 0.593649,0.43262 1.008392,1.29666 0.983565,2.74196 -0.04905,2.79771 -1.368939,4.8604 -2.546627,6.33213 -2.165333,2.3714099 -3.640832,2.6060899 -4.881137,2.5011099 -2.152698,-0.49412 -2.569049,-2.4765099 -2.10682,-4.2860499 1.233794,-4.98355 4.359289,-7.05665 6.0426,-7.70896 z"
       id="path4531-38-8"
       inkscape:connector-curvature="0"
       sodipodi:nodetypes="ccscccc" />
    <path
       style="fill:#ffffff;fill-opacity:1;stroke:#ffffff;stroke-width:0.12433268;stroke-linecap:butt;stroke-linejoin:miter;stroke-miterlimit:4;stroke-dasharray:none;stroke-opacity:1"
       d="m -44.0845,-18.993599 c 0.986949,-0.13301 1.46885,0.74711 1.466441,1.34542 0.0833,1.40698 -1.146869,2.80974 -1.854686,3.38409 -0.946077,0.62984 -1.423964,0.95259 -2.064009,0.88976 -0.853876,-0.001 -1.094272,-0.83294 -0.905411,-1.60599 0.547398,-1.79147 1.20075,-2.71104 1.938497,-3.3225 0.52075,-0.37113 0.768299,-0.49412 1.419257,-0.67366 z"
       id="path4531-8-27"
       inkscape:connector-curvature="0"
       sodipodi:nodetypes="cccccccc"
       inkscape:transform-center-x="0.041236508"
       inkscape:transform-center-y="0.15315251" />
    <path
       style="fill:#010101;fill-opacity:1;stroke:#9c2e31;stroke-width:2.49915981;stroke-linecap:butt;stroke-linejoin:miter;stroke-miterlimit:4;stroke-dasharray:none;stroke-opacity:1"
       d="m -41.522753,36.957263 c -1.893987,-0.371083 -1.362047,1.49988 0.290669,2.069777 3.587402,1.068622 7.583628,1.196775 10.332289,0.494116 5.0146,-1.499881 8.323321,-5.18747 10.032741,-8.42111 0.686698,-1.499937 1.492617,-3.643814 1.144817,-5.453128 -0.237145,-1.062615 -1.296995,-2.513569 -1.979738,-1.131462 -0.544141,1.407134 -0.453546,2.661571 -1.435032,5.144223 -1.439377,4.063603 -4.433186,6.242357 -7.730021,7.252712 -6.155788,1.530847 -9.209455,-0.0038 -10.65507,-0.0038 z"
       id="path4573-9"
       inkscape:connector-curvature="0"
       sodipodi:nodetypes="cccccccccc" />
    <path
       style="fill:#000000;fill-opacity:1;stroke:none;stroke-width:0.29769883;stroke-linecap:butt;stroke-linejoin:miter;stroke-miterlimit:4;stroke-dasharray:none;stroke-opacity:1"
       d="m -18.461166,-9.9800991 c 2.543962,-1.2479999 4.133195,1.26568 4.231521,3.08181 0.02551,0.85225 -0.05789,2.13593 -0.287799,2.97027 -0.482329,1.75399 -1.186099,3.24848998 -2.092857,4.39102998 -2.002334,2.66157502 -3.818756,3.29149902 -5.214142,3.18657802 -2.422293,-0.133009 -3.284833,-2.439525 -2.960111,-4.32303802 0.855448,-5.19384998 3.445984,-7.73664998 6.322938,-9.32453998 z"
       id="path4531-1-74-0"
       inkscape:connector-curvature="0"
       sodipodi:nodetypes="ccscccc" />
    <path
       style="fill:#ffffff;fill-opacity:1;stroke:#ffffff;stroke-width:0.13632683;stroke-linecap:butt;stroke-linejoin:miter;stroke-miterlimit:4;stroke-dasharray:none;stroke-opacity:1"
       d="m -19.655705,-8.7787991 c 1.011152,-0.49482 1.758399,0.3096 1.912631,0.90785 0.458111,1.44458 -0.481822,3.33487 -1.081024,4.18089 -0.840046,0.98766 -1.264142,1.48217 -1.960209,1.63678 -0.907972,0.30963 -1.383408,-0.49412 -1.385108,-1.37616 0.110601,-2.06971 0.564388,-3.24234 1.188359,-4.13777 0.456372,-0.49412 0.668941,-0.8462 1.325353,-1.20403 z"
       id="path4531-8-27-6"
       inkscape:connector-curvature="0"
       sodipodi:nodetypes="cccccccc"
       inkscape:transform-center-x="-0.054534848"
       inkscape:transform-center-y="0.22488166" />
  </g>
</svg>
